<?xml version="1.0" encoding="UTF-8"?>
<svg id="Layer_1" data-name="Layer 1" xmlns="http://www.w3.org/2000/svg" xmlns:xlink="http://www.w3.org/1999/xlink" viewBox="0 0 563 619.9">
  <defs>
    <style>
      .cls-1 {
        fill: blue;
      }

      .cls-2 {
        fill: url(#linear-gradient);
        filter: url(#drop-shadow-1);
      }

      .cls-3 {
        fill: url(#linear-gradient-3);
        filter: url(#drop-shadow-3);
      }

      .cls-4 {
        fill: url(#linear-gradient-4);
        filter: url(#drop-shadow-4);
      }

      .cls-5 {
        fill: url(#linear-gradient-2);
        filter: url(#drop-shadow-2);
      }
    </style>
    <linearGradient id="linear-gradient" x1="271.1" y1="66.22" x2="271.1" y2="269.97" gradientTransform="translate(0 636.46) scale(1 -1)" gradientUnits="userSpaceOnUse">
      <stop offset="0" stop-color="#3af6ff"/>
      <stop offset=".02" stop-color="#40f3fb"/>
      <stop offset=".17" stop-color="#67e3e9"/>
      <stop offset=".32" stop-color="#87d6da"/>
      <stop offset=".47" stop-color="#a0ccce"/>
      <stop offset=".63" stop-color="#b2c5c6"/>
      <stop offset=".8" stop-color="#bcc1c1"/>
      <stop offset="1" stop-color="silver"/>
    </linearGradient>
    <filter id="drop-shadow-1" filterUnits="userSpaceOnUse">
      <feOffset dx="8" dy="7"/>
      <feGaussianBlur result="blur" stdDeviation="5"/>
      <feFlood flood-color="#000" flood-opacity=".75"/>
      <feComposite in2="blur" operator="in"/>
      <feComposite in="SourceGraphic"/>
    </filter>
    <linearGradient id="linear-gradient-2" x1="275.23" y1="437.25" x2="275.23" y2="628.23" gradientTransform="translate(0 636.46) scale(1 -1)" gradientUnits="userSpaceOnUse">
      <stop offset="0" stop-color="silver"/>
      <stop offset=".16" stop-color="#bbc1c2"/>
      <stop offset=".34" stop-color="#acc7c9"/>
      <stop offset=".53" stop-color="#95d1d4"/>
      <stop offset=".73" stop-color="#73dee3"/>
      <stop offset=".93" stop-color="#49eff7"/>
      <stop offset="1" stop-color="#3af6ff"/>
      <stop offset="1" stop-color="#fff"/>
    </linearGradient>
    <filter id="drop-shadow-2" filterUnits="userSpaceOnUse">
      <feOffset dx="8" dy="7"/>
      <feGaussianBlur result="blur-2" stdDeviation="5"/>
      <feFlood flood-color="#000" flood-opacity=".75"/>
      <feComposite in2="blur-2" operator="in"/>
      <feComposite in="SourceGraphic"/>
    </filter>
    <linearGradient id="linear-gradient-3" x1="1063.22" y1="203.65" x2="1063.22" y2="432.91" gradientTransform="translate(1207.87 636.46) rotate(-180)" gradientUnits="userSpaceOnUse">
      <stop offset="0" stop-color="#fff" stop-opacity=".2"/>
      <stop offset=".06" stop-color="#c2c8de" stop-opacity=".41"/>
      <stop offset=".14" stop-color="#838fbc" stop-opacity=".63"/>
      <stop offset=".24" stop-color="#5363a2" stop-opacity=".8"/>
      <stop offset=".36" stop-color="#314490" stop-opacity=".91"/>
      <stop offset=".53" stop-color="#1d3285" stop-opacity=".98"/>
      <stop offset="1" stop-color="#182e83"/>
    </linearGradient>
    <filter id="drop-shadow-3" filterUnits="userSpaceOnUse">
      <feOffset dx="8" dy="7"/>
      <feGaussianBlur result="blur-3" stdDeviation="5"/>
      <feFlood flood-color="#000" flood-opacity=".75"/>
      <feComposite in2="blur-3" operator="in"/>
      <feComposite in="SourceGraphic"/>
    </filter>
    <linearGradient id="linear-gradient-4" x1="448.35" y1="203.65" x2="448.35" y2="432.91" gradientTransform="translate(-46.68 636.46) scale(1 -1)" gradientUnits="userSpaceOnUse">
      <stop offset="0" stop-color="#fff" stop-opacity=".2"/>
      <stop offset=".06" stop-color="#c2c8de" stop-opacity=".41"/>
      <stop offset=".14" stop-color="#838fbc" stop-opacity=".63"/>
      <stop offset=".24" stop-color="#5363a2" stop-opacity=".8"/>
      <stop offset=".36" stop-color="#314490" stop-opacity=".91"/>
      <stop offset=".53" stop-color="#1d3285" stop-opacity=".98"/>
      <stop offset="1" stop-color="#182e83"/>
    </linearGradient>
    <filter id="drop-shadow-4" filterUnits="userSpaceOnUse">
      <feOffset dx="8" dy="7"/>
      <feGaussianBlur result="blur-4" stdDeviation="5"/>
      <feFlood flood-color="#000" flood-opacity=".75"/>
      <feComposite in2="blur-4" operator="in"/>
      <feComposite in="SourceGraphic"/>
    </filter>
  </defs>
  <polyline class="cls-2" points="135.27 376.19 171.53 366.49 111.27 512.02 272.81 435.43 435.02 512.02 375.78 366.49 410.51 376.7 485.06 570.24 272.81 468.36 57.15 570.24 135.27 376.19 135.27 376.19"/>
  <polygon class="cls-5" points="196.85 199.21 273.44 8.23 353.61 199.21 323.48 199.21 273.27 84.81 226.46 199.21 196.85 199.21"/>
  <path class="cls-3" d="m273,253.58c-6.31-7.63-11.98-15.57-18.74-22.45-15.91-16.18-35.72-24.22-58.22-25.64-36.5-2.31-73.03-2.38-109.58-1.14-22.07.75-44.15,1.03-66.23,1.53-4.35.1-8.7.24-13.05.36,2.44,8.15,4.64,16.38,7.22,24.49,6.69,21.02,15.46,41.09,29.09,58.63,19.22,24.73,43.93,41.42,74.35,49.31,14.69,3.81,29.43,7.48,44.23,10.8,5.75,1.29,11.88.93,17.63,2.23,12.8,2.89,17.92,9.36,18.68,22.39.39,6.68.8,48.36,1.15,55.05.16,3.06,1.06,4.34,4.57,3.34,5.11-1.45,19.33-6.68,19.33-6.68,0-10.6.8-56.31-.38-66.79-2.34-20.94-19.96-33.38-37.61-33.84-18.17-.47-35.95-4.26-53.3-9.58-10.43-3.2-21.04-6.4-30.72-11.29-11.7-5.92-21.54-14.76-30-24.93-8.57-10.31-17.03-20.72-22.78-32.97-1.69-3.61-2.81-7.48-4.52-12.11,4.96-.24,8.84-.51,12.71-.61,24.67-.69,49.33-1.61,74.01-1.94,19.74-.26,39.59-1.07,59.2.66,24.96,2.21,45.56,13.54,59.2,35.56,6.69,10.81,7.48,23.02,8.57,35.18.25,2.76.56,5.52.91,8.95.02.2.19.36.4.36,7.83,0,15.42.15,23-.2"/>
  <path class="cls-4" d="m273.31,253.58c6.31-7.63,11.98-15.57,18.74-22.45,15.91-16.18,35.72-24.22,58.22-25.64,36.5-2.31,73.03-2.38,109.58-1.14,22.07.75,44.15,1.03,66.23,1.53,4.35.1,8.7.24,13.05.36-2.44,8.15-4.64,16.38-7.22,24.49-6.69,21.02-15.46,41.09-29.09,58.63-19.22,24.73-43.93,41.42-74.35,49.31-14.69,3.81-29.43,7.48-44.23,10.8-5.75,1.29-11.88.93-17.63,2.23-12.8,2.89-17.92,9.36-18.68,22.39-.39,6.68-.8,48.36-1.15,55.05-.16,3.06-1.06,4.34-4.57,3.34-5.11-1.45-19.33-6.68-19.33-6.68,0-10.6-.8-56.31.38-66.79,2.34-20.94,19.96-33.38,37.61-33.84,18.17-.47,35.95-4.26,53.3-9.58,10.43-3.2,21.04-6.4,30.72-11.29,11.7-5.92,21.54-14.76,30-24.93,8.57-10.31,17.03-20.72,22.78-32.97,1.69-3.61,2.81-7.48,4.52-12.11-4.96-.24-8.84-.51-12.71-.61-24.67-.69-49.33-1.61-74.01-1.94-19.74-.26-39.59-1.07-59.2.66-24.96,2.21-45.56,13.54-59.2,35.56-6.69,10.81-7.48,23.02-8.57,35.18-.26,2.86-.58,5.72-.94,9.31-7.95,0-15.66.15-23.35-.2"/>
  <g>
    <path class="cls-1" d="m66.44,610.62v-23.33h10.37c5.34,0,8.02,1.91,8.02,5.73,0,2.71-1.61,4.45-4.84,5.21,3.88.78,5.83,2.84,5.83,6.19,0,4.13-2.61,6.2-7.84,6.2h-11.54Zm6.77-13.18h2.08c1.93,0,2.89-1.42,2.89-4.27,0-2.63-1.02-3.95-3.06-3.95h-1.91v8.22Zm0,11.24h1.93c2.53,0,3.79-1.45,3.79-4.34,0-3.32-1.3-4.97-3.91-4.97h-1.81v9.31Z"/>
    <path class="cls-1" d="m95.2,587.29v20.99h9.59v2.34h-16.35v-23.33h6.77Z"/>
    <path class="cls-1" d="m123.75,587.29v15.65c0,5.37-2.97,8.05-8.9,8.05s-8.87-2.68-8.87-8.05v-15.65h6.77v15.86c0,2.05.29,3.45.88,4.21s1.67,1.13,3.26,1.13c3.06,0,4.6-1.85,4.6-5.54v-15.65h2.27Z"/>
    <path class="cls-1" d="m142.54,587.29v2.34h-8.36v7.06h7.02v2.34h-7.02v9.25h9.78v2.34h-16.54v-23.33h15.12Z"/>
    <path class="cls-1" d="m171.81,593.82l-3.14.58c.14-.63.21-1.15.21-1.57,0-2.71-1.65-4.07-4.94-4.07-2.6,0-3.9.93-3.9,2.8,0,1.4,1.45,2.6,4.36,3.61,5.61,1.93,8.41,4.77,8.41,8.54,0,2.21-.79,3.99-2.36,5.32-1.57,1.34-3.66,2.01-6.27,2.01-5.78,0-8.66-2.24-8.66-6.72,0-.36.03-.81.09-1.35l3.26-.72c-.25.99-.38,1.85-.38,2.58,0,2.89,1.66,4.34,4.97,4.34,2.65,0,3.98-1.04,3.98-3.13,0-1.55-1.59-2.91-4.77-4.08-4.59-1.69-6.89-4.38-6.89-8.08,0-2.1.77-3.79,2.3-5.07,1.53-1.28,3.55-1.92,6.04-1.92,5.13,0,7.69,2.31,7.69,6.92Z"/>
    <path class="cls-1" d="m192.15,587.29v2.34h-5.73v20.99h-7.18v-20.99h-5.76v-2.34h18.66Z"/>
    <path class="cls-1" d="m204.5,587.29l6.49,23.33h-6.8l-1.38-5.06h-7.02l-1.49,5.06h-2.65l6.9-23.33h5.95Zm-8.05,15.93h5.73l-2.75-10.34-2.97,10.34Z"/>
    <path class="cls-1" d="m212.83,610.62v-23.33h10.03c2.61,0,4.69.55,6.25,1.65,1.56,1.1,2.34,2.57,2.34,4.42,0,2.83-1.67,4.67-5.02,5.52,1.72.64,2.83,1.34,3.34,2.1.51.76.85,2.25,1.03,4.44.22,2.62.65,4.35,1.32,5.2h-7.35c-.47-1.08-.7-2.43-.7-4.05l-.03-1.38-.03-1.74c0-2.69-1.08-4.03-3.25-4.03h-1.16v11.21h-6.77Zm6.77-13.14h1.37c2.56,0,3.85-1.34,3.85-4.02s-1.28-4.02-3.85-4.02h-1.37v8.03Z"/>
    <path class="cls-1" d="m245.43,610.62v-23.33h9.67c6.87,0,10.31,3.9,10.31,11.69s-3.56,11.64-10.68,11.64h-9.3Zm6.77-1.93h1.78c1.63,0,2.76-.7,3.38-2.11.63-1.41.94-3.95.94-7.63s-.31-6.22-.93-7.62c-.62-1.4-1.75-2.1-3.39-2.1h-1.78v19.46Z"/>
    <path class="cls-1" d="m275.19,587.29v23.33h-6.77v-23.33h6.77Z"/>
    <path class="cls-1" d="m296.05,587.29l-6.77,23.33h-6.07l-6.19-23.33h6.84l4.61,17.67,5.04-17.67h2.53Z"/>
    <path class="cls-1" d="m304.62,587.29v23.33h-6.77v-23.33h6.77Z"/>
    <path class="cls-1" d="m325.72,587.29v23.33h-5.18l-9.74-14.77v14.77h-2.27v-23.33h4.29l10.63,15.95v-15.95h2.27Z"/>
    <path class="cls-1" d="m338.74,598.02h9.6v12.6h-2.15l-.73-1.61c-1.88,1.33-3.87,2-5.96,2-3.45,0-6.13-1.03-8.04-3.1-1.91-2.07-2.86-4.98-2.86-8.74s1.01-6.62,3.03-8.88,4.67-3.39,7.94-3.39c4.31,0,6.93,2.2,7.86,6.6l-3.18,1.45v-.56l-.05-1.26c-.22-2.75-1.49-4.12-3.81-4.12-1.71,0-2.88.73-3.5,2.19-.63,1.46-.94,4.18-.94,8.15,0,3.71.25,6.24.76,7.57.51,1.33,1.47,2,2.9,2,1.67,0,2.51-.93,2.51-2.8v-5.74h-3.37v-2.34Z"/>
    <path class="cls-1" d="m377.42,593.82l-3.14.58c.14-.63.21-1.15.21-1.57,0-2.71-1.65-4.07-4.94-4.07-2.6,0-3.9.93-3.9,2.8,0,1.4,1.45,2.6,4.36,3.61,5.61,1.93,8.41,4.77,8.41,8.54,0,2.21-.79,3.99-2.36,5.32-1.57,1.34-3.66,2.01-6.27,2.01-5.78,0-8.66-2.24-8.66-6.72,0-.36.03-.81.09-1.35l3.26-.72c-.25.99-.38,1.85-.38,2.58,0,2.89,1.66,4.34,4.97,4.34,2.65,0,3.98-1.04,3.98-3.13,0-1.55-1.59-2.91-4.77-4.08-4.59-1.69-6.89-4.38-6.89-8.08,0-2.1.77-3.79,2.3-5.07,1.53-1.28,3.55-1.92,6.04-1.92,5.13,0,7.69,2.31,7.69,6.92Z"/>
    <path class="cls-1" d="m396.83,601.25l2.89.75c.05.59.07,1.11.07,1.54,0,2.27-.82,4.08-2.46,5.43-1.64,1.36-3.84,2.03-6.6,2.03-6.92,0-10.37-3.89-10.37-11.67,0-3.69,1.01-6.68,3.02-8.98,2.02-2.3,4.64-3.44,7.88-3.44,5.05,0,7.57,2.43,7.57,7.28l-2.9,1.33c.03-.68.05-1.21.05-1.59,0-3.44-1.38-5.16-4.14-5.16-2.92,0-4.38,3.65-4.38,10.95,0,6.28,1.63,9.42,4.89,9.42,1.34,0,2.46-.54,3.36-1.61.89-1.07,1.34-2.41,1.34-4.02,0-.51-.07-1.27-.22-2.27Z"/>
    <path class="cls-1" d="m409.1,599.02v11.6h-6.77v-23.33h6.77v9.38h5.52v-9.38h6.77v23.33h-6.77v-11.6h-5.52Z"/>
    <path class="cls-1" d="m434.94,586.88c6.79,0,10.19,4.02,10.19,12.07s-3.46,12.06-10.37,12.06-10.37-4.11-10.37-12.34,3.52-11.79,10.56-11.79Zm-.19,1.86c-1.28,0-2.14.7-2.59,2.11-.45,1.41-.67,4.1-.67,8.09s.22,6.68.67,8.09,1.31,2.11,2.59,2.11,2.14-.7,2.59-2.11c.45-1.41.67-4.1.67-8.09s-.23-6.67-.67-8.08c-.45-1.41-1.31-2.12-2.59-2.12Z"/>
    <path class="cls-1" d="m457.66,586.88c6.79,0,10.19,4.02,10.19,12.07s-3.46,12.06-10.37,12.06-10.37-4.11-10.37-12.34,3.52-11.79,10.56-11.79Zm-.19,1.86c-1.28,0-2.14.7-2.59,2.11-.45,1.41-.67,4.1-.67,8.09s.22,6.68.67,8.09,1.31,2.11,2.59,2.11,2.14-.7,2.59-2.11c.45-1.41.67-4.1.67-8.09s-.23-6.67-.67-8.08c-.45-1.41-1.31-2.12-2.59-2.12Z"/>
    <path class="cls-1" d="m477.6,587.29v20.99h9.59v2.34h-16.35v-23.33h6.77Z"/>
  </g>
</svg>