<?xml version="1.0" encoding="utf-8"?>
<!-- Generator: Adobe Illustrator 27.5.0, SVG Export Plug-In . SVG Version: 6.00 Build 0)  -->
<svg version="1.1" id="svg1" xmlns:svg="http://www.w3.org/2000/svg"
	 xmlns="http://www.w3.org/2000/svg" xmlns:xlink="http://www.w3.org/1999/xlink" x="0px" y="0px" viewBox="0 0 225 225"
	 style="enable-background:new 0 0 225 225;" xml:space="preserve">
<style type="text/css">
	.st0{fill:#FCFCFC;}
</style>
<g id="g1">
	<path id="path1" class="st0" d="M143.5,217.6c-0.9-1.5,0.3-2.9,2.4-2.7c1.5,0.1,1.7,0.5,0.7,1.9
		C145.4,218.9,144.4,219.1,143.5,217.6z M181.2,212c-1.6-3.2-3.2-7.1-3.6-8.6c-0.7-2.8-7.5-8.1-8.8-6.9c-0.4,0.4-0.9,2.2-1.2,4.1
		s-0.3,2.9,0,2.2c0.7-1.7,2.4-1.6,2.4,0.2c0,2.2-3.3,1.8-4.8-0.5c-0.7-1.1-1.7-1.8-2.2-1.5c-0.5,0.3-1.5-0.3-2.2-1.5
		c-1.6-2.6-2.9-2.6-5.1,0c-0.9,1.1-1.3,2-0.7,2s1,0.4,1,1s-1.1,1-2.5,1s-2.9,0.7-3.4,1.6c-0.7,1.3-1.3,1.4-3.1,0.4
		c-3.6-1.9-6.3-2.2-5.7-0.5c0.3,0.8,0.1,1.5-0.4,1.5s-1-0.4-1-1s-0.4-1-1-1s-1,0.6-1,1.4s-0.5,1.8-1.2,2.2c-0.8,0.5-1,0.2-0.5-1.1
		c0.6-1.5,0.3-1.7-1.8-1.2c-3.6,0.9-3.9-0.8-0.4-2.3c1.9-0.8,2.8-1.8,2.5-2.7c-0.7-1.8,0.3-1.8,2.5,0.2c1.5,1.4,1.9,1.4,3.3,0
		c1.2-1.2,2.1-1.3,3.4-0.6c1,0.5,2.4,0.6,3.2,0.1c2.1-1.3,0.4-4-3-4.7c-2.6-0.5-2.8-0.8-1.5-1.6c1.1-0.6,1.4-1.6,1-2.9
		c-0.4-1.3-0.1-1.9,0.8-1.9c1.9,0,4,2.6,3.2,4c-0.4,0.6,0.1,1,0.9,1c0.9,0,1.6-0.6,1.6-1.2c0-0.7,0.5-0.5,1,0.5c0.6,1,2,1.8,3.1,1.8
		h2.1l-2.2-2.3c-2.5-2.7-2.9-4.9-0.7-4c0.8,0.3,1.5,0.1,1.5-0.5c0-0.6,0.5-1.1,1.1-1.1c0.7,0,0.9,1,0.5,2.5c-0.7,3,1,3.4,1.9,0.5
		c0.4-1.1,1-1.8,1.5-1.5c1.7,1,2.2-1.7,0.6-3.4c-0.9-1-1.6-2.3-1.6-3c0-0.8-0.6-1-1.6-0.7c-0.9,0.3-1.8,0.6-2,0.6
		c-0.2,0-0.4,0.7-0.4,1.5c0,0.9-0.6,1.2-1.4,0.9c-1.1-0.4-1.2-1.2-0.5-3c1.2-3.1,1.2-3.3-0.1-3.3c-0.6,0-1,0.7-1,1.6
		c0,1.1-0.7,1.5-2.2,1.2c-2-0.3-2.2-0.9-2.2-5.2c0-3.5-0.4-5-1.5-5.3c-0.8-0.2-2.5-0.9-3.7-1.5c-1.2-0.6-3.3-0.8-4.7-0.6
		c-1.4,0.3-2.4,0-2.3-0.5c0.1-0.5-1.1-1.4-2.7-1.8c-1.6-0.4-3.9-1.8-5.2-2.9c-2.6-2.4-2.7-2.3-4,5.8c-2.4,15.3-10.5,13.8-12.1-2.2
		c-0.9-8.7-5.7-13.4-9.9-9.6C89.4,169.8,74,163.9,74,146.2c0-6.1-0.4-8.5-1.4-8.8c-1-0.4-1.2-1.6-0.6-5.4c1.1-7,1-8.2-0.5-5.3
		c-1.3,2.4-1.4,2.2-1.3-3.2c0.1-5.2,1-7.4,1.9-4.8c1,2.9,3.1-1.4,3.4-7.1c0.5-8-0.1-9-7-10c-3.2-0.4-6.7-1.7-8.2-2.9
		c-3.5-2.8-3.4-3.2-1.2,9.4c1.1,6.1,1.8,13,1.7,15.5c-0.4,9.1,0,10.6,4.5,16.1c4.9,6,7.2,10.6,3.9,7.6c-4.4-4-5.6-1.4-1.2,2.8
		c1.7,1.6,3,3.3,3,3.9s-1.1-0.1-2.5-1.4c-3-2.9-3.2-1.9-0.4,2.6c3.3,5.4,0.7,7.2-4.4,3.1c-3.1-2.5-4-2.8-4.7-1.6
		c-0.7,1.1-0.9,1-0.9-0.5c0-1-0.7-4-1.5-6.5s-1.8-6.6-2.2-9.1s-1.3-4.6-2-4.8c-0.8-0.3-1,0.2-0.7,1c0.5,1.4-6.7,7.7-8.8,7.7
		c-1.2,0,3-7,5.8-9.6c2.6-2.4,2.3-5.4-1.4-15.6c-1.2-3.1-2.1-7.3-2.1-9.2c0-4.5-1.3-7.9-5.5-14.1c-3.4-5.1-5.8-12.4-3.6-11.1
		c0.8,0.5,0.8,0,0.2-1.6c-0.5-1.3-0.5-3.2-0.1-4.3c1.1-2.8,1.1-3.7-0.1-3c-0.5,0.3-1,1.5-1,2.6c0,3.3-5,2.5-9.4-1.6
		c-2.1-1.9-4.2-3.5-4.7-3.5S20,72.9,20,71.9c0-1.2,1.4-0.3,4.8,3c2.6,2.6,5.4,4.7,6.2,4.7s-1-2.5-4-5.5c-3-3-6-5.3-6.6-5.1
		c-1.6,0.6-2.5-2.1-1-3.2c0.7-0.5,2.7-1.7,4.5-2.6c1.8-0.9,6-4.1,9.2-7.1c6.3-5.8,8.2-6.4,11.1-3.8c2,1.8,2.6,0.5,0.6-1.5
		c-2.8-2.8-7.4-1.4-12,3.6c-10.8,12-17.5,10.4-15.6-3.8c0.6-4.5,4.3-10.4,6-9.4c0.6,0.4,0.8,0.2,0.4-0.4c-3.4-5.5,13.9-6,19.5-0.5
		c1.5,1.5,3.1,2.4,3.5,2s0.1-1.1-0.6-1.5c-1.7-1.1,3.2-2.4,6.2-1.6c1.2,0.3,1.6,0.3,0.9,0c-4.1-1.9,4.2-7.7,12-8.4
		c6.6-0.6,11.5-7,6.6-8.5c-2.3-0.7-2.4-2.8-0.4-4.5c1.2-1,2-0.9,4.3,0.6c4.1,2.8,5.6,3.2,7.4,2.3c1.1-0.6,2.5-0.2,4.2,1.2
		c2.7,2.2,2.6,5-0.2,4.3c-1.1-0.3-3.2,1.2-5.7,3.9l-4,4.3l4-3.7c3.4-3.1,4.6-3.6,8.1-3.4c3.1,0.2,4-0.1,3.6-1.1
		c-0.3-0.8,0.3-1.3,1.4-1.4c1,0,2.9-0.3,4.3-0.5c1.3-0.2,2.8,0.1,3.2,0.8c1.1,1.8,1,2.8-0.3,2.5c-0.6-0.1-1.3,0.6-1.4,1.6
		c-0.3,1.7-0.1,1.6,2-0.4l2.4-2.2l6.1,4.7c6.9,5.3,6.8,5.1,3.8,8.5c-2,2.2-1.9,2.2,0.9-0.3c3.3-3,5.7-2.1,3.2,1.1
		c-1.2,1.5-1.2,1.6,0.4,0.3c2.3-1.8,2.3-0.4,0,2.3c-1.3,1.6-1.1,1.5,1-0.3c3.2-2.8,5.2-1.9,6.3,2.9c0.6,2.7,1.8,3.2,4.1,1.8
		c0.6-0.4,1.7,0,2.4,0.8c1.9,2.3,2.6,1.8,2.7-2.1c0.2-5.3,2.3-7.1,5-4.2c2.3,2.5,6.5,9.9,5.9,10.5c-0.6,0.6-5.6-2-5.6-2.9
		c0-0.5,0.4-0.6,1-0.3s1,0.1,1-0.5c0-0.7-0.7-0.9-1.6-0.6c-0.9,0.3-1.8,0.6-2,0.6c-1.3,0-0.1,2,1.5,2.5c2.7,0.9,3.5,4.5,1,4.5
		c-1,0-1.9,0.5-1.9,1c0,1.5,4.1,0.7,7-1.3c1.7-1.2,2.5-2.7,2.5-4.9c0-2.6,0.6-3.3,2.8-4.1c3.6-1.2,6.1,0.9,4.4,3.8
		c-0.6,1.1-1.2,2.4-1.3,2.9c-0.1,0.5-0.5,2-0.9,3.3c-0.5,1.7-0.3,2.3,0.7,2.1c2.4-0.4,4.9,1.2,4.9,3.2c0,1.3-0.5,1.7-1.6,1.2
		c-0.9-0.3,0,1,2.1,2.9c2.2,2.1,3.2,3.8,2.6,4.2c-1.7,1-1.2,2.3,1,2.8c1.3,0.3,2.4-0.1,3-1.4c0.6-1.1,0.7-1.9,0.4-1.9
		c-0.3,0,0.1-0.7,0.9-1.5c1.9-1.9,2.6-1.9,2.6,0c0,2.9,1.7,1.5,1.8-1.5c0.1-2.1-0.5-3.1-1.9-3.6c-1.1-0.4-1.8-0.9-1.4-1.2
		c0.3-0.3-0.5-2-1.9-3.8c-1.7-2.3-2.3-4.1-2.1-6.3c0.2-1.7,0-3.4-0.5-3.7c-0.5-0.3-0.9,0.6-0.9,2c0,1.4-0.4,2.4-0.8,2.1
		c-1.4-0.9-0.7-8,1-9c2.4-1.5,4.5,0.7,5.3,5.5c0.5,3,1.1,3.9,2.2,3.4c1-0.4,1.3-0.1,1,0.8c-0.3,0.8,0,1.9,0.6,2.5
		c0.8,0.8,0.8,1.1-0.1,1.1c-0.7,0-1.2,0.5-1.2,1.2c0,0.9,0.3,0.9,1.2,0c2-2,3.6-1.3,4.3,1.9c0.4,2,1,2.7,1.5,1.9c1-1.6,5-0.4,5,1.5
		c0,0.8,0.4,1.4,1,1.4s1-0.4,1-1c0-0.5,0.7-0.7,1.5-0.4c2.1,0.8,1.9,2.4-0.4,2.4c-2.3,0-4.5,2.5-3.6,4c0.5,0.8,1,0.8,1.8,0
		c1.3-1.3,2.7-1.4,2.7-0.2c0,1.5-4.8,3.2-5.3,1.9c-0.2-0.7-0.7-0.4-1.1,0.6c-0.4,1-0.3,1.5,0.2,1.2s1.1,0.5,1.5,1.7
		c0.9,3.3,0.8,4.7-0.4,4.7c-0.6,0-1-0.7-1-1.5s-0.4-1.5-1-1.5c-1.3,0-1.3,1.3,0.1,2.7c0.8,0.8,0.5,1.4-1.1,2.3
		c-1.8,1-2.4,0.9-3.1-0.1c-0.5-0.7-1.2-1-1.6-0.5c-0.4,0.4-0.2,1.1,0.5,1.6c1.8,1.1,0.5,6.2-1.4,5.4c-0.8-0.3-1.2-0.9-0.9-1.4
		c0.3-0.5-1.2-0.7-3.3-0.6c-3.2,0.2-3.7-0.1-3.5-1.7c0.3-1.6,0.1-1.6-1.1-0.5c-0.8,0.7-1.2,1.9-1,2.6c0.3,0.8-0.1,1.1-1,0.7
		c-0.9-0.3-1.3-1.4-1-2.4c0.4-1.4-0.1-1.8-2.2-1.8c-1.5,0-3-0.6-3.5-1.3c-0.4-0.7-1.3-0.9-2.1-0.5c-1.1,0.6-1.1,0.5-0.1-0.6
		c2-2.2,1.6-4.2-0.8-3.4c-1.1,0.4-2.7,0.1-3.4-0.5c-1.1-0.9-2.1-0.8-4.5,0.4c-2.7,1.4-3.1,1.4-3.1,0.1c0-0.8,0.4-1.5,0.8-1.5
		s0.8-1,0.7-2.2c-0.1-2.8-4.3-7.8-6.6-7.8c-2.2,0-3.5-4.7-1.8-6.6c0.8-1,0.9-1.4,0-1.4c-0.6,0-1.1,0.5-1.1,1.2
		c0,0.6-0.3,0.9-0.6,0.5c-0.3-0.3-1.6-0.1-2.8,0.5c-1.9,1-2,0.9-0.8-0.4c0.8-0.9,0.9-1.8,0.4-2.2c-0.5-0.3-2.1,1-3.6,2.9
		c-2.6,3.4-2.8,3.5-5.4,2c-3.5-1.9-17.5-6.5-19.9-6.5c-2.6,0-14.7-4.3-16.7-5.9c-0.9-0.8-1.6-0.9-1.6-0.3c0,0.6,0.6,1.3,1.2,1.5
		c0.7,0.3-0.2,0.5-2,0.6c-1.8,0-3.2,0.5-3.2,1.1c0,0.6,2,0.8,5.2,0.5c2.9-0.3,4.3-0.3,3.2,0c-4.8,1.3-5.1,1.4-3.5,2.4
		c0.8,0.5,3.1,0.9,5.1,0.9c2,0,3.9,0.6,4.2,1.3c0.4,1,0.5,1,0.6,0c0.1-1.8,2.8-1.5,4.1,0.5c1.1,1.7,1.1,1.7,0.6,0
		c-0.3-1.1,0-1.8,0.9-1.8c0.8,0,1.5,0.4,1.5,0.8c0,0.5,1.7,1.2,3.8,1.8c3,0.7,3.7,1.4,3.7,3.2c-0.1,2.6,1.1,1.7,1.9-1.3
		c0.4-1.7,0.5-1.6,0.6,0.4c0.1,2.4,0.2,2.4,1.6,0.5c1.4-1.8,1.5-1.8,0.9,0.7c-0.6,2.6,1.3,3.5,3.2,1.5c0.4-0.4,1.9-0.7,3.4-0.7
		c2.8,0,5.5,2.1,4.2,3.4c-0.4,0.4,0.1,1.2,1,1.7c2.1,1.2,2.2,4.5,0.2,9.2c-0.8,2-1.5,3.9-1.5,4.2s0.7,0.1,1.5-0.6
		c1.3-1.1,1.5-0.8,1.5,1.3c0,1.8-0.9,3.1-2.8,4.2c-2.7,1.5-2.7,1.5-0.2,0.9c2.5-0.7,2.5-0.7,0.6,1.5c-1,1.2-1.5,2.1-0.9,2.1
		c2.5,0,4.5-4,4.5-9.2c0-2.9,0.5-5.6,1.1-6c0.8-0.5,0.8-1.6-0.1-4.1c-1.7-4.8-1.5-6,0.6-4c1,1,1.7,2,1.5,2.4
		c-0.2,0.3,0.8,0.5,2.2,0.3c1.4-0.1,2.2,0.1,2,0.6c-0.3,0.5,0.1,1.1,0.7,1.4c0.7,0.3,0.2,0.3-1,0c-1.6-0.4-2.2-0.1-2.2,0.9
		c0,0.8-0.6,1.7-1.2,2c-0.8,0.3-0.6,0.6,0.5,0.7c3.3,0.4,3.6,0.5,4.3,1.1c0.4,0.4,1.2,0.5,1.9,0.2c0.8-0.3,1.1,0.5,1,2.4
		c-0.1,1.6,0.3,3.5,0.9,4.3c1.6,2.1,4.6,2.4,4.6,0.5c0-1.7,1.6-2.1,2.5-0.5c0.3,0.6,0,1.3-0.9,1.6c-0.8,0.3-2,2-2.6,3.7
		c-0.8,2.4-1.4,2.8-2.3,1.9c-1.7-1.7-2.3-1.5-2.5,0.9c-0.1,1.4,0.3,1.9,1.3,1.5c1.9-0.7,1.9,0.8-0.1,2.4c-0.8,0.7-1.4,2-1.2,2.9
		c0.1,0.9-0.3,1.7-1,1.7c-0.7,0.1-1.4,0.2-1.5,0.4c-1.2,1-6.5,0.4-7.4-0.9c-1-1.3-1.5-1.3-3.3-0.3c-1.7,1-2.6,1-5-0.2
		c-4.3-2.2-5.2-1.8-1,0.5c1.9,1.1,4.3,1.9,5.2,2c1.1,0,1.8,0.8,1.8,2.1c0,1.1,0.4,1.8,0.9,1.5c0.5-0.3,1.4,0.6,2,2
		c0.9,1.9,1.5,2.3,2.4,1.5c1.3-1.1,3.5-1.1,5.4,0.1c0.6,0.4,1.5,0.3,1.8-0.3c0.9-1.5,2.5-1.2,2.5,0.4c0,1.7,3.8,1,5.8-1.1
		c1.8-1.8,8.7,2.1,7.4,4.3c-0.4,0.6,0.1,0.6,1.9-0.1c0.9-0.4,1.4-1.3,1.1-2.1c-0.3-0.8,0.1-1.4,0.8-1.4c1.1,0,1.1-0.2,0-0.9
		c-0.7-0.5-1.3-1.1-1.2-1.5c0.4-2.8-0.1-3.3-2.9-2.9c-2.2,0.3-3,0-3-1.1c0-1,0.6-1.4,2-1c3,0.8,2.4-0.8-1.5-4.5
		c-3.4-3.1-4.2-8.3-1.3-8.3c0.5,0,0.6,0.5,0.3,1.1c-0.5,0.7,0,0.9,1.4,0.4c2.6-0.8,4.6,0.2,3.3,1.8c-1.4,1.8-1.1,4.8,0.5,4.2
		c0.8-0.3,1.6,0.5,1.9,2c0.3,1.4,1.1,2.5,1.6,2.5c2.1,0,3.9,3,3.2,5.5c-0.4,1.4-1,2.5-1.5,2.5c-1.2,0,0.2,3.3,2,4.6
		c0.8,0.6,2.1,0.9,2.8,0.6c0.8-0.3,1.3,0.3,1.3,1.5c0,2.2-3.7,3.8-4.3,1.9c-0.3-0.8-0.9-0.7-2.1,0.3c-0.9,0.8-1.5,2-1.2,2.7
		s0,1.5-0.7,1.7c-0.8,0.3-0.6,1.1,0.7,2.6c1.9,2.1,1.9,2.1-0.2,2.1c-1.4,0-2.2-0.6-2.2-1.8c0-2.6-1.1-3.3-2.8-1.9
		c-1.2,1-1.6,1-1.9,0c-0.2-0.7-0.9-1.2-1.5-1.2s-1.9-0.8-3-1.7c-1.5-1.4-2.2-1.5-3.8-0.5c-1.6,1-1.9,1-1.9-0.2
		c0-0.8-0.7-1.9-1.5-2.6s-1.5-2.1-1.5-3.1c0-2.3-0.1-2.3-5,0.2c-2.8,1.5-3.9,2.6-3.6,3.8c1.5,5.4,2.9,14.5,3,20.4
		c0.1,3.7,0.6,6.8,1.1,6.8c0.6,0,0.3,0.5-0.5,1c-1.3,0.8-1.2,1,0.4,1c1.4,0,1.7-0.5,1.3-2c-0.3-1.3-0.1-1.8,0.5-1.3
		c0.7,0.4,0.9-0.1,0.5-1.5c-0.3-1.2-0.2-2.2,0.3-2.2s0.9,0.5,0.9,1.2c0,0.9,0.3,0.9,1.2,0c3.2-3.2,3.7-0.6,0.5,2.8
		c-1.3,1.4-2.6,3.9-3,5.5c-0.6,2.7-0.6,2.8,0.7,1.2c1.4-1.8,1.5-1.8,2.5,0c1,1.7,1.1,1.7,1.7-0.5c0.8-2.8,2.6-2.4,3.5,0.9
		c0.4,1.3,0.8,1.8,0.8,0.9c0.1-1.1,0.4-0.9,1,0.5c0.8,1.9,0.9,1.9,0.9-0.3c0.1-2.3,0.1-2.3,4.3,0.8c2.3,1.7,4.8,3.1,5.5,3.1
		s1.8,1.8,2.5,4c0.7,2.5,1.6,3.7,2.1,3.1c0.6-0.6,0.5-1.8-0.3-3.2c-1-1.9-1-2.2,0.4-1.6c1.9,0.7,2-0.2,0.6-3.8
		c-0.8-2.2-1.5-2.5-3.9-2.1c-2.9,0.5-2.9,0.5-2.5-4c0.3-4.5-0.3-5.4-2.3-3.4c-1.4,1.4-3.4,0.3-2.7-1.5c0.3-0.8-0.4-1.6-1.8-1.9
		c-1.3-0.3-2.5-0.2-2.6,0.4c-0.2,0.5-0.7,0.7-1.2,0.4c-0.5-0.3-0.6-1.3-0.2-2.2c0.4-1,0.2-1.4-0.5-1c-0.6,0.4-1.4,0.2-1.7-0.3
		c-0.3-0.6-0.2-1,0.4-1c0.6,0,1.1-0.5,1.1-1.1c0-0.6-0.7-0.8-1.7-0.5c-2.2,0.8-3.5-1.3-2.2-3.6c1.1-2.1,4.9-2.4,4.9-0.4
		c0,0.8,1,1.7,2.2,2c3.6,1,4.7,0.7,4.1-0.9c-0.6-1.6,0.5-2,2.1-0.7c1.6,1.2,3.4,7.2,2.4,7.8c-1.5,0.9-1.1,2.4,0.6,2.4
		c0.8,0,1.9-0.9,2.3-2l0.8-2l2.4,2c1.7,1.5,1.9,2,0.8,2c-0.8,0-2.1,0.7-2.8,1.5c-1,1.3-0.9,1.5,0.8,1.5c1.1,0,2.4-0.5,2.7-1
		s1.5-0.8,2.5-0.4c1.4,0.5,2,0,2.5-2.1c0.5-1.9,0.9-2.3,1.5-1.3c0.6,1,1.2,0.9,2.9-0.6c2-1.8,2.1-1.8,3.5,0c1,1.3,1.5,1.5,1.5,0.6
		c0-0.8,0.7-1.1,1.6-0.8c1,0.4,1.9-0.2,2.5-1.6c0.9-2.2,0.9-2.2,0.7,0.3c-0.2,2.1,0.1,2.4,2.2,2.2c2.1-0.3,2.3-0.1,1.1,1.2
		c-1.6,1.9-3.7,2.1-4.3,0.4c-0.6-1.7-5.8-0.2-5.8,1.7c0,0.8-0.4,1.5-0.9,1.5c-0.5,0-0.7-0.8-0.4-1.9c0.3-1,0-2.2-0.6-2.6
		c-0.6-0.4-1.1,0-1.1,1c0,1.1-0.5,1.5-1.5,1.1c-0.8-0.3-1.5-0.2-1.5,0.3c0,0.5-0.3,1.6-0.6,2.5s-0.1,1.6,0.4,1.6
		c0.6,0,1.2-0.8,1.5-1.8c0.4-1.6,0.5-1.6,0.6-0.1c0.2,2.4-3.9,5.1-5.6,3.7c-0.7-0.6-1.3-1.8-1.3-2.7c0-1.2-0.5-1.1-2.1,0.6l-2.1,2.2
		l2.8,2.9c5.4,5.7,5.6,6,4.3,7.6c-1,1.1-0.9,2.1,0.4,4.7c0.9,1.8,1.6,2.8,1.6,2.2c0-1.3,3-1.5,3-0.2c0,0.5-0.5,0.8-1.1,0.8
		c-0.6,0-0.7,0.5-0.4,1.1c0.5,0.8,1,0.6,1.7-0.6c0.8-1.4,0.3-2.3-2.1-4.6c-2.7-2.5-2.8-5.1-0.1-3.5c0.6,0.3,1,0.1,1-0.5
		s0.4-0.8,1-0.5c1.9,1.2,1-0.7-1.2-2.5l-2.2-1.9l2.4,0.6c2.2,0.5,2.3,0.4,1.2-1.6c-1.5-2.8-0.7-5.2,1.5-4.4c1.1,0.4,1.3,1,0.5,1.9
		c-0.7,0.9-0.5,1.9,0.8,3.6l1.9,2.3l1.7-2.6c1.7-2.7,4.9-2.8,3.9-0.2c-0.3,0.8,0,1.4,0.6,1.4c0.6,0,1.1-0.4,1.1-1
		c0-1.4,2.7-1.3,3.6,0.2c0.4,0.6,0.3,0.9-0.2,0.6s-1.8,0.3-2.9,1.4c-2,1.9-1.9,1.9,0.2,2.5c2.2,0.6,3.1,2.3,1.2,2.3
		c-0.6,0-1,0.9-1,2.1c0,1.2-0.4,1.8-1.1,1.4c-0.6-0.4-0.8-1.3-0.5-2.1c0.3-0.8-0.1-1.4-0.9-1.4c-2.2,0-2.8,1.9-1.4,3.8
		c1.2,1.5,1,1.5-1.5-0.1c-3-1.9-4.7-1.6-2.9,0.6c0.8,0.9,0.6,2-0.8,3.8c-2.2,2.8-2.6,5.4-0.7,4.7c0.7-0.2,1.2-1.2,1.1-2.1
		c-0.3-3.1,1.4-1.6,2.1,1.9c0.4,1.9,1.1,3.5,1.7,3.5s0.7-0.9,0.4-2c-0.5-1.6-0.2-1.9,1.7-1.4c1.3,0.3,2.9,0.6,3.5,0.8
		c2.5,0.5,2.5,1.6-0.1,2.8c-1.7,0.8-2.6,2-2.6,3.5c0,1.3-0.8,3.2-1.9,4.2c-2.1,2.1-1.2,5.1,1.7,5.2c1.5,0,1.5,0.2,0.2,1
		c-1.3,0.8-1.3,1,0.1,1c6.7,0.1,5.9,16.1-1,22.4C184.2,217.8,184,217.7,181.2,212L181.2,212z M164,196.6c0-0.6-0.4-1-1-1s-1,0.4-1,1
		s0.4,1,1,1S164,197.2,164,196.6z M171.5,192.6c0.3-0.6,0.1-1-0.4-1s-1.1,0.4-1.1,1s0.2,1,0.4,1
		C170.7,193.6,171.1,193.2,171.5,192.6z M169,181.1c0-0.8-0.4-1.5-1-1.5s-1,0.7-1,1.5s0.4,1.5,1,1.5S169,182,169,181.1z
		 M170.7,167.4c-0.3-0.8-0.6-0.6-0.6,0.6c0,1.1,0.2,1.6,0.5,1.3S171,168.2,170.7,167.4L170.7,167.4z M177,163.6c0-0.6-0.4-1-1-1
		s-1,0.4-1,1s0.4,1,1,1S177,164.2,177,163.6z M186,161.2c0-0.2-0.4-0.7-1-1.1c-0.6-0.3-1-0.1-1,0.4s0.4,1.1,1,1.1
		S186,161.4,186,161.2z M68,158.6c0-0.6-0.5-1-1.1-1c-0.6,0-0.8,0.4-0.4,1s0.8,1,1.1,1S68,159.2,68,158.6z M148.2,156.5
		c-0.3-1-0.6-1.8-0.7-1.8c-0.1,0-0.5,0.8-0.7,1.8c-0.3,1,0.1,1.8,0.7,1.8C148.2,158.3,148.5,157.5,148.2,156.5z M137,150.4
		c0-0.6-0.7-0.4-1.5,0.2c-0.8,0.7-1.5,1.7-1.5,2.2c0,0.6,0.7,0.4,1.5-0.2C136.3,151.9,137,150.9,137,150.4z M162.5,149.6
		c0.3-0.6,0.1-1-0.4-1s-1.1,0.4-1.1,1s0.2,1,0.4,1C161.7,150.6,162.1,150.2,162.5,149.6z M113.6,144c-1.9-5.4-6-13.3-8.4-16.3
		l-2-2.4l-2.5,5c-4.3,8.5-4.3,9.1-0.3,9.9c1.9,0.4,4.1,1.6,4.9,2.7c1,1.5,1.6,1.7,1.9,0.7c0.4-0.9,0.6-0.8,0.6,0.4
		c0.1,2.2,2.1,3.4,3.1,1.8c0.6-0.9,1.1-0.7,2,1C114.8,150,115.2,148.4,113.6,144z M157,143.6c0-0.5-0.4-0.9-1-0.9s-1,0.7-1,1.6
		s0.4,1.3,1,0.9C156.5,144.8,157,144.1,157,143.6z M157,140.8c0-1.3-1.2-2.2-2.2-1.6c-1,0.6-0.1,2.4,1.2,2.4
		C156.6,141.6,157,141.3,157,140.8z M155,119.6c0-0.6-0.5-1-1.1-1c-0.6,0-0.8,0.4-0.4,1s0.8,1,1.1,1S155,120.2,155,119.6z
		 M146,118.6c0-0.6-0.5-1-1.1-1c-0.6,0-0.8,0.4-0.4,1s0.8,1,1.1,1S146,119.2,146,118.6z M125,117.1c1-1.2,1-1.8,0.1-2.8
		c-1-0.9-1.1-0.8-0.6,0.4c0.9,2.3-1.2,3.3-3.3,1.7c-1.5-1.2-1.6-1.2-0.3,0.4C122.5,119,123.4,119.1,125,117.1L125,117.1z
		 M150.4,116.3c-0.3-0.9-1-1.4-1.5-1.1c-0.5,0.3-0.3,1.2,0.4,1.9C150.8,118.7,151.2,118.4,150.4,116.3z M146.1,114.1
		c0-0.5-0.5-1.1-1.1-1.3c-0.6-0.2-1.1,0.4-1.1,1.3c0,0.9,0.5,1.5,1.1,1.3S146.1,114.7,146.1,114.1z M154.7,113.6
		c-0.1-1.1-0.5-2-0.9-2c-0.9,0-1,0.4-0.2,2.4C154.4,116.2,154.9,116,154.7,113.6z M127.7,110.9c-0.1-1.9-1.2-3.4-3.7-5
		c-5-3.2-6.1-2.7-2,0.7c1.9,1.6,3.2,3,2.8,3c-0.6,0,2.1,3.6,2.9,3.9C127.8,113.6,127.8,112.4,127.7,110.9z M133,100.1
		c0-0.9-0.5-1.3-1-0.9c-0.6,0.3-0.8,1-0.4,1.6C132.4,102.1,133,101.8,133,100.1z M137,98.2c0-0.2-0.4-0.7-1-1.1
		c-0.6-0.3-1-0.1-1,0.4c0,0.6,0.4,1.1,1,1.1S137,98.4,137,98.2z M128.4,96.7c0.3-0.5-0.4-1.1-1.5-1.4c-1.7-0.4-1.8-0.3-0.9,0.9
		C127.4,97.9,127.7,97.9,128.4,96.7z M47.5,93.9c3.3-1.6,5.1-3.9,2.1-2.7C48.2,91.8,42,84,42,81.7c0-0.6-1-1-2.2-1
		c-1.6,0.1-1.7,0.3-0.6,0.6c1.7,0.4,3.4,3.3,2,3.3c-0.4,0-1.7,0.7-2.7,1.5c-1.8,1.4-1.7,1.4,0.8,0.3c3.6-1.6,9.8,4.6,6.9,6.8
		c-0.9,0.6-2,1-2.4,0.7c-0.4-0.3-0.8,0-0.8,0.6C43,96,43.3,95.9,47.5,93.9z M155,93.6c0-0.6-0.4-1-1-1s-1,0.4-1,1s0.4,1,1,1
		S155,94.2,155,93.6z M39.7,91c-0.3-0.3,0.4-1.5,1.6-2.5c1.8-1.5,1.9-1.8,0.6-1.9c-2,0-4.3,2.5-3.4,3.9c0.4,0.6,0.9,1,1.3,1
		C40,91.6,40,91.4,39.7,91z M138,89.6c0-0.6,0.8-0.8,1.9-0.5c3.8,1.2,5.6-0.6,2.1-2.1c-2.4-1-3.6-1.1-4.6-0.2
		c-1.6,1.3-1.8,3.9-0.4,3.9C137.5,90.6,138,90.2,138,89.6z M111,83.6c-1.1-2.1-2.2-2.5-3.3-1.3c-0.7,0.7,2.2,3.3,3.6,3.3
		C111.7,85.6,111.6,84.7,111,83.6z M83.9,81.9c-0.7-1-2.2-2.6-3.1-3.6c-1-1-1.6-2.2-1.3-2.6c0.3-0.5,0-1.2-0.7-1.8
		c-1.1-0.8-1.8-0.9-5.5-0.5c-2.9,0.4-3.3,3.8-0.7,6.2c1.4,1.3,2.5,2,2.5,1.7c0-0.3-0.9-1.5-2-2.5c-2-1.9-2-1.9,0.6-3.1
		c2.3-1.1,2.8-0.9,4.1,0.9c1.8,2.6,6.2,7,7,7C85,83.6,84.6,82.8,83.9,81.9z M78.1,80.9c1.2-1.6,1.2-1.6-0.4-0.4
		c-1,0.8-1.8,1.5-1.8,1.8C76,83.1,76.8,82.5,78.1,80.9z M53.8,79.1c-0.3-0.3-0.9,0.2-1.2,1.2c-0.5,1.4-0.4,1.5,0.6,0.6
		C53.8,80.2,54.1,79.4,53.8,79.1z M112,79.6c-2.4-1.5-3.5-1.1-1.4,0.5c1.1,0.8,2.2,1.2,2.4,0.9C113.2,80.7,112.8,80.1,112,79.6z
		 M160,80.6c0-0.6-0.4-1-1-1s-1,0.4-1,1s0.4,1,1,1S160,81.2,160,80.6z M169,80.7c0-1.4-1.8-2.3-3-1.5c-0.6,0.3-0.8,1-0.4,1.6
		C166.3,81.9,169,81.9,169,80.7z M54.6,76.2c-1.2-1.8-2.5-2.5-4.4-2.4l-2.7,0.1l2.8,0.4c1.7,0.3,3.2,1.3,3.9,2.9
		c0.6,1.3,1.3,2.2,1.6,2C56,78.9,55.5,77.6,54.6,76.2z M177.5,77.7c-0.4-0.6-1.1-1.1-1.6-1.1c-0.5,0-0.4,0.6,0.3,1.4
		C177.6,79.6,178.6,79.4,177.5,77.7z M96.7,77c-0.3-0.3-1.2-0.4-1.9-0.1c-0.8,0.3-0.6,0.6,0.6,0.6C96.5,77.6,97.1,77.4,96.7,77
		L96.7,77z M90.9,76.3c-0.2-0.2-1.8-1.1-3.4-2.1l-3-1.8l2.4,2.1c1.3,1.1,2.8,2.1,3.4,2.1C90.8,76.6,91.1,76.5,90.9,76.3z
		 M174.6,74.9c1.5-2,1.8-3.3,0.6-3.2c-0.4,0-1.3,1.1-1.9,2.5C172,77,172.7,77.4,174.6,74.9z M40.8,73.2c0.3-0.3-0.4-0.5-1.6-0.5
		c-1.2,0-2.4,0.4-2.7,0.9C35.9,74.5,39.8,74.2,40.8,73.2z M75.1,68.4c-0.2-1.3-0.8-2.8-1.3-3.4s-0.8-2.2-0.5-3.5
		c0.2-1.3,0.2-1.8,0-1.1c-0.7,2.1-2.1,0.4-1.5-1.9c0.6-2.2-0.9-2.3-6.2-0.2c-1.2,0.4-1.6,0-1.7-1.7c0-1.3-0.3-1.7-0.6-1
		c-0.7,1.7,2.5,13.9,4.4,17l1.4,2.3l3.2-2C74.6,71.2,75.4,70.1,75.1,68.4L75.1,68.4z M67.5,70.6c-0.8-2.5-0.6-2.7,3.3-3.5
		c4.1-0.8,4.6,2.6,0.6,4.5C68.2,73,68.2,73,67.5,70.6z M65.7,64.7c-0.5-2,3.5-4.7,5.3-3.6c1.8,1.1,0.9,3.5-1.6,4.5
		C66.1,66.9,66.3,66.9,65.7,64.7z M65,60.6c0-0.4,1.3-1.3,3-1.9c1.7-0.6,3-0.7,3-0.3s-1.3,1.2-3,1.9C66.3,60.9,65,61.1,65,60.6z
		 M153.1,72.9c-0.9,1.2-1,1.7-0.2,1.7c0.6,0,1.4-0.7,1.8-1.6c0.3-0.9,1.2-1.3,1.9-1.1c0.8,0.3,1.1,0,0.8-0.9
		c-0.7-1.8-3.7-2.9-4.2-1.6c-0.2,0.6-1.3,1.1-2.5,1c-1.8,0-1.9-0.2-0.7-1c2-1.3,0.4-1.3-2.1,0.1c-1.9,1-1.9,1.2-0.3,3
		c1.6,1.8,1.8,1.8,4.3,0.2C154.3,71.3,154.4,71.3,153.1,72.9L153.1,72.9z M161,73.6c0-0.6-0.2-1-0.4-1s-0.7,0.4-1.1,1s-0.1,1,0.4,1
		C160.5,74.6,161,74.2,161,73.6z M55.5,71.7c-0.4-0.6-1.4-1.1-2.3-1.1c-1.4,0-1.3,0.2,0.3,1.4C55.6,73.6,56.6,73.4,55.5,71.7z
		 M47,71.6c3.6-1.9,6.4-7.8,5.1-10.7c-0.8-1.7-0.8-2.9-0.2-3.6c1-1-2.2-6.7-4.1-7.5c-0.4-0.2-0.8-1-0.8-1.8c0-1.7,2.2-1.9,3.8-0.2
		c0.9,0.9,1.2,0.9,1.2-0.1c0-0.7,0.6-1,1.2-0.6c0.7,0.3,0.6,0-0.3-0.7c-0.8-0.7-1.4-2.1-1.2-3.1s-0.1-1.8-0.7-1.8
		c-0.6,0-1.1,0.7-1.1,1.5c0,0.8-0.9,1.5-2,1.5c-2.7,0-2.7,5.2,0.1,9.1c1.1,1.6,1.8,2.9,1.5,2.9c-0.3,0,0.1,1.3,0.9,3
		c2.3,4.5-1.4,11.3-6.8,12.4c-1.6,0.3-1.7,0.5-0.4,0.6C44.3,72.6,46,72.2,47,71.6z M48.2,67c1-0.9,1.8-2.7,1.8-3.9
		c0-2.5-2.2-4.9-3.5-3.7c-0.5,0.4-0.5,0.2-0.1-0.5c1.3-2.2-5-7.5-7.4-6.3c-3.1,1.6-2.5,4.6,2,9.4c2.2,2.4,4,4.9,4,5.5
		C45,69.1,46,68.9,48.2,67L48.2,67z M42.4,55.4l-1.9-2.2l2.2,1.9c2.1,1.8,2.7,2.6,1.9,2.6C44.5,57.6,43.4,56.6,42.4,55.4z M179,67.6
		c0-0.6-0.4-1-1-1s-1,0.4-1,1s0.4,1,1,1S179,68.2,179,67.6z M25.8,64.7c2-1.1,5.3-3.6,7.2-5.8l3.5-3.8L33,58.3
		c-1.9,1.7-5.5,4.3-8,5.7C19.7,67,20.3,67.5,25.8,64.7z M148,65.6c0-0.6-0.4-1-1-1s-1,0.4-1,1s0.4,1,1,1S148,66.2,148,65.6z
		 M181.3,64.9c-0.4-1-0.8-1.2-1-0.6c-0.2,0.6-1.1,0.9-2.1,0.6c-1.4-0.5-1.5-0.4-0.2,0.5C180.3,67.2,182,66.9,181.3,64.9L181.3,64.9z
		 M175.5,64.6c0.3-0.6,0.1-1-0.4-1s-1.1,0.4-1.1,1s0.2,1,0.4,1C174.7,65.6,175.1,65.2,175.5,64.6z M143,63.6c0-0.5-0.2-1-0.4-1
		s-0.7,0.5-1.1,1c-0.3,0.6-0.1,1,0.4,1C142.5,64.6,143,64.2,143,63.6z M154.7,62.4c-0.3-0.8-0.6-0.6-0.6,0.6c0,1.1,0.2,1.6,0.5,1.3
		S155,63.2,154.7,62.4L154.7,62.4z M139,62.6c0-0.5-0.4-1-1-1s-1,0.5-1,1s0.4,1,1,1S139,63.2,139,62.6z M176.5,61.6
		c0.3-0.5,0.1-1-0.4-1s-1.1,0.5-1.1,1s0.2,1,0.4,1C175.7,62.6,176.1,62.2,176.5,61.6z M124.8,53.5c-0.2-0.7-0.7-0.3-1.1,1.1
		c-0.4,1.7-0.3,2.1,0.4,1.3C124.7,55.3,125,54.2,124.8,53.5z M55.3,52.5c0.3-1.2,0.3-1.8,0-1.5c-0.3,0.3-1.2,0.1-2-0.6
		c-1.2-1-1.2-0.8-0.2,1.5C54.6,55.2,54.6,55.2,55.3,52.5L55.3,52.5z M72.2,50.5c-0.7-2.8-1.3-2.3-1.2,1.4c0,2.2,0.3,2.8,0.9,1.9
		C72.4,53,72.5,51.6,72.2,50.5z M153,53.6c0-0.5-0.4-1-1-1s-1,0.5-1,1s0.4,1,1,1S153,54.2,153,53.6z M168,53.6c0-0.5-0.5-1-1.1-1
		c-0.6,0-0.8,0.5-0.4,1s0.8,1,1.1,1S168,54.2,168,53.6z M151.5,48.6c0.3-0.5,0.1-1-0.4-1s-1.1,0.5-1.1,1s0.2,1,0.4,1
		C150.7,49.6,151.1,49.2,151.5,48.6z M64.4,47.2c-0.6-1.5,2.4-3.6,5.1-3.6c2.4,0,1.2,2.3-1.6,3.1c-1.4,0.4-1.7,0.7-0.8,0.8
		c5.6,0.3,6.9-4.4,1.4-5.1c-3.6-0.4-6.6,2.6-5.1,5.1C64.4,49.1,65,48.9,64.4,47.2z M91.6,44c-3.8-2.5-9.4-5.7-12.5-7.1
		c-3.1-1.3-6.6-2.9-7.8-3.5c-5-2.4-18.5,3.4-14.2,6.1c1.1,0.7,2.5,0.9,3.2,0.5s2.1-0.6,3.2-0.4c1.1,0.2,1.7,0,1.3-0.4
		c-0.4-0.4,0.5-1.5,2-2.4c4.5-2.7,14,0.7,26.2,9.4c1.9,1.4,3.9,2.5,4.5,2.5C98,48.6,95.4,46.5,91.6,44z M117.4,45.8
		c-1.2-1-21.4-15.4-23.4-16.6c-0.9-0.6-1.2-0.5-0.7,0.3c0.7,1.2,23.5,17.2,24.5,17.2C118.2,46.6,118,46.3,117.4,45.8z M166,45.1
		c0-0.8-0.4-1.5-1-1.5s-1,0.7-1,1.5s0.4,1.5,1,1.5S166,46,166,45.1z M44,44.6c0-0.5-0.5-1-1.1-1c-0.6,0-0.8,0.5-0.4,1s0.8,1,1.1,1
		C43.8,45.6,44,45.2,44,44.6z M139.5,44.6c-0.3-0.5-1-1-1.6-1c-0.5,0-0.9,0.5-0.9,1s0.7,1,1.6,1C139.4,45.6,139.8,45.2,139.5,44.6z
		 M76.4,42.6c-0.7,1.3-0.6,1.3,1.1,0c1.7-1.4,1.7-1.5,0.1-1.8c-2.1-0.4-4.8,1.7-4,3c0.3,0.5,1.3,0.1,2.1-0.9
		C76.5,41.9,76.8,41.8,76.4,42.6z M72.5,40.6c-0.3-0.5-1-1-1.6-1c-0.5,0-0.9,0.5-0.9,1s0.7,1,1.6,1S72.8,41.2,72.5,40.6z M38.5,38.6
		c-0.3-0.5-1-1-1.6-1c-0.5,0-0.9,0.5-0.9,1s0.7,1,1.6,1S38.8,39.2,38.5,38.6z M98,28.2c-0.7-0.8-0.9-2-0.5-2.8c0.6-1,0.5-1-0.6-0.1
		c-1.2,1.1,0.1,4.3,1.8,4.3C99,29.6,98.7,29,98,28.2L98,28.2z M80.3,26.5c1.3,0.2,1.6-0.1,1-1c-0.5-0.7-0.9-1.6-0.9-2
		c0-1.5-1.5-2-1.5-0.5c0,0.9-0.4,1.7-0.9,1.7c-0.5,0-1.2,0.7-1.5,1.6c-0.4,1.1-0.2,1.3,0.6,0.8C77.9,26.5,79.3,26.3,80.3,26.5z
		 M77,22.3c0-0.2-0.8-1-1.8-1.8c-1.6-1.2-1.6-1.2-0.4,0.4C76.2,22.5,77,23.1,77,22.3z M149.2,213.1c0.4-0.4,0.2-1.5-0.3-2.5
		c-0.6-1.2-0.6-2,0-2.4c0.6-0.3,1,0.1,1,0.9c0,0.9,0.4,1.6,1,1.6c1.6,0,1.1,1.7-0.7,2.4C149.3,213.4,148.9,213.4,149.2,213.1
		L149.2,213.1z M129,211.1c0-0.8,0.9-1.5,2-1.5s2,0.7,2,1.5c0,0.8-0.9,1.5-2,1.5S129,212,129,211.1z M153,207.9
		c0-0.5,0.9-1.6,2.1-2.6c1.2-1,1.8-2.4,1.5-3.3c-0.4-0.9-0.1-1.4,0.7-1.1c1.3,0.4,1.9,4,0.9,5.5C157.3,207.7,153,209,153,207.9
		L153,207.9z M171.2,204.6c0.2-0.6,0.8-1.1,1.3-1.1s1.1,0.5,1.3,1.1s-0.4,1.1-1.3,1.1C171.6,205.6,171,205.1,171.2,204.6z
		 M127,197.2c0-0.8,0.4-1.7,0.9-2c1.1-0.7,3.3,1.9,2.4,2.8C129.1,199.2,127,198.7,127,197.2z M106,191.6c0-0.6,0.4-1,1-1s1,0.4,1,1
		s-0.4,1-1,1S106,192.2,106,191.6z M127.7,190.3c-0.3-0.7-2.1-2.1-4.1-3c-2-0.9-3.6-2.1-3.6-2.7c0-1.4,1.6-1.2,3,0.5
		c0.7,0.8,1.8,1.2,2.6,0.9c0.8-0.3,1.7,0.1,2,0.8c0.3,0.8,1.5,1.5,2.6,1.5c1.4,0.1,1.9-0.3,1.5-1.3c-0.8-2.1,0.3-4.4,2-3.8
		c0.8,0.3,1.4,0,1.4-0.7c0-0.9,0.3-0.9,1.3-0.1c0.7,0.6,1.6,0.8,2,0.4c1-1,3.5,2.9,2.9,4.4c-0.3,0.7-1.1,1.3-1.8,1.3
		c-0.7,0-1.5,0.6-1.8,1.2c-0.4,0.9-0.8,0.7-1.6-0.5c-1.1-1.7-1.3-1.7-3.7,0.2C129.3,192,128.4,192.1,127.7,190.3L127.7,190.3z
		 M111,185.6c0-0.6,0.5-1,1.1-1s0.8,0.4,0.4,1s-0.8,1-1.1,1C111.2,186.6,111,186.2,111,185.6z M189.6,180.8
		c-0.3-0.5,0.1-1.2,0.9-1.5c0.8-0.3,1.5-0.2,1.5,0.3C192,181,190.2,181.8,189.6,180.8z M142.2,178.6c0.2-0.6,0.8-1.1,1.3-1.1
		s1.1,0.5,1.3,1.1s-0.4,1.1-1.3,1.1C142.6,179.6,142,179.1,142.2,178.6z M141.5,171.7c-0.7-1.2,1.1-2.4,2.5-1.6
		c1.1,0.7,0.4,2.5-1,2.5C142.5,172.6,141.8,172.2,141.5,171.7z M173.1,137.7c-1.8-1.1-0.7-4,1.5-4c1.2,0,1.5-0.6,1-2.2
		c-1.3-4.2-1.3-5.3-0.3-6.5c0.7-0.9,0.6-1.2-0.2-1.2c-1.6,0-4.1,2.6-3.3,3.4c0.3,0.3-0.1,0.6-1,0.6c-1,0-1.4,0.6-1.1,1.4
		c0.4,1-0.2,1.2-2.2,0.9l-2.7-0.5l2.3-1.9c1.3-1,1.9-1.9,1.4-1.9c-0.5,0,0-0.5,1.1-1c1.7-0.8,1.6-0.9-0.8-0.6c-1.5,0.2-3,0-3.3-0.5
		c-0.5-0.8,1-1.3,2.9-0.9c1.8,0.3,3.6-2.2,3.1-4.4c-0.3-1.3,0-2.8,0.8-3.6c1.6-1.6,1.2-8.9-0.5-8.9c-0.6,0-0.8-1-0.4-2.2
		s0.2-2.9-0.3-3.8c-1.3-2.3,0.6-5.1,2-3c0.7,1,1.3,1.1,1.8,0.5c0.9-1.2,6.8-5.5,7.7-5.5c0.3,0,0.6,1,0.5,2.2c0,1.2-0.3,1.7-0.6,1
		c-0.3-0.7-0.9-1.2-1.4-1.2c-0.5,0-0.6,0.7-0.3,1.6c0.5,1.3,0.2,1.5-1.5,0.9c-1.3-0.4-2.2-0.3-2.2,0.4c0,0.6,0.9,1.1,2,1.1
		c1.3,0,2,0.7,2,2c0,1.1,0.4,2,1,2s1,0.7,1,1.5c0,0.9-0.9,1.5-2.3,1.5c-3.1,0-7.1,8-4.7,9.5c1.5,1,1.3,2.5-0.5,2.5
		c-2.5,0-1.7,3.3,1.5,6.3c2.5,2.4,2.8,3.2,1.9,4.8c-0.6,1.1-0.8,2.3-0.5,2.6s0.1,1.2-0.5,1.9c-0.7,0.9-0.8,1.3-0.1,1.3
		c0.6,0,1.2-0.6,1.5-1.2c0.2-0.7,0.8-0.9,1.3-0.5c1.2,1.1-0.9,4.1-3.2,4.6c-1,0.2-2.1,0.7-2.4,1.2S173.8,138.1,173.1,137.7
		L173.1,137.7z M174,121.6c0-0.6-0.4-1-1-1s-1,0.4-1,1s0.4,1,1,1S174,122.2,174,121.6z M187,135.7c0-0.5,0.7-0.7,1.5-0.4
		c0.8,0.3,1.5,0.8,1.5,1s-0.7,0.4-1.5,0.4S187,136.2,187,135.7z M161.4,131.6c-0.4-0.6-0.2-1.5,0.3-2.1c0.6-0.6,1.2-0.4,1.6,0.6
		C164,131.9,162.4,133.2,161.4,131.6z M188.6,131.7c-0.3-0.5,0.1-1.4,0.9-2c1.6-1.3,3.2,0.2,2.1,1.9
		C190.7,132.9,189.3,132.9,188.6,131.7L188.6,131.7z M168.7,112.4c-0.3-0.7-0.2-2,0.1-2.9c0.7-1.9,2.4-0.5,2.9,2.4
		C172.1,113.9,169.5,114.3,168.7,112.4z M142.4,105.4c-1.4-3.5,0-6.6,1.5-3.5c1,2.1,1.1,3.1,0.2,3.9S142.9,106.6,142.4,105.4z
		 M183.5,98.7c0.3-0.5,1.3-0.7,2.1-0.4c2.1,0.8,1.8,1.3-0.6,1.3C183.8,99.6,183.1,99.2,183.5,98.7z M189.1,94.4
		c0-0.9-0.8-2.1-1.7-2.6c-1.3-0.7-1.1-0.9,1-0.9c2.9,0,3,0.2,1.7,3.2C189.3,95.8,189.1,95.8,189.1,94.4z M173.6,91.9
		c0.3-1,1.5-1.8,3.1-1.9c2.6-0.2,2.4,0.2-1.9,2.7C173.5,93.4,173.3,93.2,173.6,91.9z M187.6,88c-0.5-1.2-0.9-1.4-1.7-0.6
		c-1.7,1.7-6.3-1.5-4.7-3.4c0.6-0.8,1.8-1.4,2.5-1.4c0.8,0,1.4-0.4,1.4-1c0-0.5-0.8-0.7-1.8-0.4c-1.5,0.5-1.5,0.4-0.2-0.5
		c3.3-2.2,5.6-0.3,5.6,4.5C188.6,90.1,188.5,90.3,187.6,88L187.6,88z M184,84.6c0-0.6-0.2-1-0.4-1s-0.7,0.4-1.1,1s-0.1,1,0.4,1
		C183.5,85.6,184,85.2,184,84.6z M188,82.6c0-0.6-0.4-1-1-1s-1,0.4-1,1s0.4,1,1,1S188,83.2,188,82.6z M142.5,83.6
		c0.3-0.6,0.8-1,1.1-1s0.4,0.4,0.4,1s-0.5,1-1.1,1C142.3,84.6,142.1,84.2,142.5,83.6z M149,80.6c0-0.6,0.5-1,1.1-1s0.8,0.4,0.4,1
		s-0.8,1-1.1,1C149.2,81.6,149,81.2,149,80.6z M186,78.2c0-0.2,0.7-0.7,1.5-1s1.5-0.1,1.5,0.4c0,0.5-0.7,1-1.5,1S186,78.5,186,78.2z
		 M189.7,72c-1.2-1.2-0.7-2.3,0.8-2.3c0.8,0,1.5,0.7,1.5,1.5C192,72.7,190.8,73.1,189.7,72z M165,60.1c0-0.9,0.4-1.3,1-0.9
		c0.6,0.3,1,1,1,1.6s-0.4,0.9-1,0.9S165,60.9,165,60.1z M180,55.6c0-0.5,0.5-1,1.1-1s0.8,0.5,0.4,1s-0.8,1-1.1,1
		C180.2,56.6,180,56.2,180,55.6z M173.6,49.1c0.3-0.8,1-1.2,1.5-0.9c1,0.6,0.2,2.4-1.1,2.4C173.5,50.6,173.3,50,173.6,49.1z
		 M163.5,36.6c-0.3-0.5-0.1-1,0.4-1c0.6,0,1.1,0.5,1.1,1s-0.2,1-0.4,1S163.8,37.2,163.5,36.6z M163.5,30.3c-0.4-1-0.5-2.1-0.2-2.4
		c1-1,1.8,0.4,1.4,2.4C164.3,32.1,164.3,32.1,163.5,30.3L163.5,30.3z"/>
</g>
</svg>
