<?xml version="1.0" encoding="UTF-8"?>
<svg id="Layer_1" data-name="Layer 1" xmlns="http://www.w3.org/2000/svg" viewBox="0 0 314.47 381.14">
  <defs>
    <style>
      .cls-1 {
        fill: #f7ec13;
      }

      .cls-2 {
        fill: #231f20;
      }
    </style>
  </defs>
  <g>
    <path d="m314.47,287.51v83.87c-2.34-.45-4.66-.94-7.08-.62-1.06.14-2.16.44-2.27,1.55-.14,1.34,1.16,2.11,2.07,2.71,1.56,1.02.57-.79.99-1.09.2-.15.57-.23.78-.15.91.38,1.53,1.19,1.39,2.1-.25,1.64.79,3.25,0,4.86-.06.12-.36.11-.55.17-2.46.7-3.89-.22-4.43-2.7-.25-1.15-.51-2.41-1.15-3.36-1.54-2.29-3.78-1.64-5.96-1.08-1.4.36-1.22,1.33-1.13,2.34.09,1.02,1.28,2.21.1,3.01-1.05.71-2.3.01-3.38-.55-.61-.31-1.25-.57-2.13-.98.05,3.63-2.3,3.39-4.8,3.37-9.88-.09-19.76-.02-29.64-.05-1.43,0-3.5.74-2.93-2.17.08-.39-.63-.99-1.5-.88.1,1.84.03,3.16-2.69,3.15-27.94-.13-55.89-.08-83.83-.1-.7,0-1.62.44-2.17-.74,4.22-4.69,7.4-10.02,8.57-16.39.2-1.09,1.06-1.6,2.09-1.91,2.3-.7,3.41-4.7,1.88-6.63-.27-.34-.67-.73-.95-.49-2.64,2.35-2.23-.77-2.58-1.61-1.04-2.5-1.44-5.18-1.27-7.91.03-.57-.03-1.57.64-1.44,3.27.65,1.46-1.43,1.19-2.31-1.79-5.85-5.65-10.74-7.73-16.49-1.08-2.98-3.47-4.79-6.81-5.31.82-.77,2.49-.18,2.54-1.65.04-1.25-1.3-.98-2.02-1.38-1.82-1-2.65-2.33-1.83-4.43.27-.69.67-1.44.11-2.47-1.22,1.7-2.22,3.72-5.05,3.05.89-1.17,1.56-2.25,2.41-3.16,1.9-2.04,2.11-3.45-1.03-4.4-1.88-.57-3.61-1.6-5.49-2.46,1.37-1.03,2.83-.78,3.98-1-3.07-3.6-5.12-8.02-8.95-11.03-3.92-3.09-8.39-4.78-13.81-5.78,2.21-1.19,1.71-1.95.67-3.26-3.41-4.3-9.11-3.72-13.21-6.52-1.04-.71-1.9.35-1.55,1.61.2.74.75,1.39,1.21,2.04,6.08,8.58,10.87,17.88,15.16,27.45.49,1.09,1.12,2.23.57,3.43-.7,1.54-.3,2.2,1.37,2.35,1.41.12,1.61.81,1.28,2.26-.98,4.27-1.67,8.59-4.31,12.28-.52.73-.93,1.5.23,2.51,1.11.98,1.75.95,2.77.2.54-.39,1.14-.86,1.99-.1-1.1,1.03-2.12,2.1-3.27,3.02-1.27,1.01-1.39,1.67.17,2.56,2.08,1.19,3.16,3.26,4.11,5.38.7,1.55,1.3,3.3,2.75,4.21,2.96,1.86,4.16,3.97,1.31,7.25.88,0,1.25.01,1.61,0,.78-.04,1.82-.31,1.92.8.12,1.29-1.09.8-1.76.95-.97.21-1.97.34-2.95.48-1.04.15-2.08.39-2.04,1.7.03,1.11.95,1.38,1.91,1.49,1.09.13,2.17.36,3.26.46,1.17.11,2.31.44,2.69,1.57.8,2.36,1.72,1.36,2.95.38,2.54-2.04,5.57-2.54,8.74-2.39,1.7.08,2.14.7,1.02,2.19-2.72,3.62-6.48,5.16-10.84,5.51-1.18.09-2.23.3-2.62,1.55-.4,1.27.44,2.05,1.32,2.76,3.67,3,10.12,3.13,13.92.42,1.78-1.27,3.73-2.28,5.61-3.41.69-.42,1.38-.88,2.15-.14.73.71.92,1.57.46,2.46-1.18,2.3-2.25,4.68-3.66,6.83-1.69,2.58-4.3,3.77-7.38,3.86-1.5.04-3.01.2-4.49.05-3.35-.34-6.23,2.15-9.46,1.67-3.68-.54-7.09-.85-10.97-.2-6.02,1.01-12.33.21-18.52.3-1.7.02-3.05-.53-3.69-1.97-1.13-2.51-3.22-4.02-5.25-5.61-.85-.66-1.81-1.67-2.9-1.17-1.27.58-1.41,2.06-1.61,3.35-.16,1.08.4,1.89.93,2.75.48.79.71,1.88-.18,2.4-.82.48-2.06.52-2.84-.08-.52-.4-.65-1.39-.82-2.15-.21-.97-.55-1.73-1.7-1.68-.6.02-1.25.03-1.44.77-.24.95-.11,1.78.89,2.26.39.19.56.51.31,1.09-2.23,0-4.52-.04-6.81.02-1.26.03-1.98-.17-2.1-1.72-.17-2.19,2.78-6.83,5.13-7.25,2.41-.43,3.72-2.5,5.74-3.52.99-.49-.45-2.1-.63-3.24-.19-1.17.47-1.6,1.33-1.35,3.68,1.08,3.29-1.42,3.34-3.63.04-1.81-.18-3.57-.5-5.35-.39-2.18-1.57-2.34-3.2-1.47-.87.46-1.65,1.1-2.43,1.71-1.11.87-2.32,1.09-3.13-.14-1.42-2.15-3.34-2.38-5.82-1.59,1.02-1.95,1.55-3.65,2.76-5.06,1.43-1.67.9-2.87-1.26-3.25-1.6-.29-3.12.35-4.93.54.72-1.7,1.51-3.06,3.04-3.69,1-.41,1.27-.84.65-1.75-.46-.67-.97-1.56-1.84-.71-2.49,2.43-3.71.89-4.73-1.79-1.12,1.41-2.19,2.43-3.89,1.98-.66-.17-1.17-1.04-.89-1.05,1.78-.08,1.36-2.04,2.35-2.51.93-.44,1.61-.85,1.41-1.92-.19-1-.98-1.43-1.93-1.63-.87-.18-1.74-.4-2.61-.6-1.4-.32-2.12-.64-1.04-2.36,1.88-2.99-.53-5.79-1.32-8.44-.52-1.75-2.14,1.27-3.62,1.06-.58-.08-1.23.2-1.78.06-4.44-1.12-8.78,2.16-13.23.3-.49-.2-.63.36-.77.69-.42,1.04-1.24.88-2.01.63-4.64-1.48-9.29-2.03-14.15-1.07-2.55.5-5.24.33-8.2.48,1.72-1.3,3.5-1.22,5.11-1.59,9.6-2.23,19.34-3.84,28.82-6.6.84-.24,1.98-.18,1.94-1.4-.04-1.29-1.18-1.21-2.04-1.11-2.05.23-3.64-.78-5.23-1.83-1.23,2.78-4.15,4.75-7.08,4.2-2.37-.44-1.42-3.11-2.28-4.63-.19-.33-.13-.79-.25-1.16-.44-1.37.18-2.18,1.44-2.43,4.37-.86,8.6-2.54,13.14-2.33,2.6.12,2.75-1.19,2.17-3.21-1-3.52-3.64-6.15-5.04-9.46-.38-.89-1.28-.82-2.09-.68-2.93.5-5.44-1.1-8.03-1.93-.9-.29-1.37-1.7-2.97-1.13-2.17.79-4.45,1.17-6.49-.61-.37-.32-1.28-.82-1.42.08-.49,3.01-3.31,2.45-5.07,3.42-.96.53-2.58.88-3.15-.56-.86-2.18-1.94-4.35-1.96-6.78,0-.13.67-.3,1.03-.41,4.27-1.27,8.42-3.02,12.93-3.43,1.11-.1,2.2-.52,3.45-.83-.84-1.6-2.54-2.37-2.53-3.97.02-3.32-2.13-4.99-4.58-6.49-3.57-2.19-7.48-3.19-11.66-3.23-1.19-.01-2.55.19-3.52-.31-2.04-1.05-3.59-.33-5.28.66-5.09,2.97-10.41,5.44-15.99,7.35-1.55.53-2.15.24-2.06-1.52.12-2.29.17-4.6,0-6.88-.19-2.48-.09-4.48,3.15-4.62.99-.04,1.64-1.05,2.36-1.74.97-.92,1.83-1.03,1.87.66.05,2.08,1.26,2.37,2.99,2.35,1.58-.02,3.17.31,4.76.39,1.06.05,2.34.3,2.79-1.08.46-1.41-.72-1.94-1.66-2.46-5.07-2.82-9.5-6.59-14.34-9.75-.79-.52-1.88-.86-1.88-2.12v-14.04c2.76.62,4.61,2.5,7.29,2.7-1.53-2.77-6.69-2.36-4.92-7.13,1.18.77,2.36,1.5,3.51,2.27,3.64,2.44,7.07,5.21,11.04,7.14,1.66.81,2.31.45,2.34-1.39.02-.82.06-1.61-.32-2.33-1-1.9-1.37-3.83-1.15-6.03.28-2.82-.51-5.51-1.9-8.03-.62-1.12-1.31-2.32-1.48-3.56-1.66-11.83-3.93-23.62-2.2-35.66.18-1.22-.16-2.36-.66-3.47-1.94-4.31-5.1-7.12-9.88-7.72-3.01-.38-1.3-2.58-1.64-3.94-.35-1.4.2-2.22,1.87-2.07,1.91.17,3.11-1.1,4.22-2.44.4-.48.67-1.07.32-1.65-.45-.74-.84-.37-1.38.09-.91.78-1.16-.3-1.49-.78s-.11-1.15.43-1.16c2.49-.06,5.24-1.63,7.38.58,1.61,1.66,2.54.93,3.61-.35,1.99-2.36,4-4.55,7.59-3.31.83.29,1.31-.33,1.34-1.15.19-5.12,1.57-10.01,2.73-14.96.44-1.9-.9-3.13-2.61-3.88-1.91-.85-2.49.45-3.01,1.82-.47,1.23-1.09.94-1.72.19-1.18-1.41-1.81-3.06-2.22-4.84-1.29-5.53.5-7.8,5.99-7.53,4.12.2,5.09-.52,5.86-4.36,2.19,2.28,3.7,2.15,5.37-.4.3-.46.79-.98,1.29-1.12,4.81-1.32,5.23-2.48,2.51-6.34-4.2-5.97-9.95-10.66-13.76-16.93-.5-.82-2.04-1.74-.83-2.73,1.2-.99,2.78-.35,3.76.74.78.87,1.27,2.02,2.27,2.72,6.69,4.66,13.47,9.17,20.74,12.92,3.59,1.85,7.35,3.45,10.76,6.07-1.69.62-3.09.88-4.51.05-4.21-2.46-8.68-4.46-12.69-7.29-2.68-1.89-5.61-3.42-8.59-5.21-.16,1.33.41,1.96.82,2.59,2.79,4.25,6.9,7.45,9.44,11.92.49.86,1.37.4,2.17.33,3.65-.33,7.3-.56,10.95-.85,5.39-.42,10.62,1.24,16,1.18,3.27-.04,4.85-3.1,7.7-3.74.16-.04.19-.73.24-1.12.4-3.28-1.16-5-4.95-5.14,2.14-1.73,4.16-2.19,6.06-2.93,2.98-1.17,3.45-2.69,1.65-5.25-.46-.66-.96-1.31-.41-2.17.39-.62,1.04-1.3,1.66-.99,2.98,1.48,4.86-1.83,7.57-1.63.79.06.87-.94.1-1.51-.48-.35-1.4-.15-1.44-1.15,1.25-.38,3.09-1.46,3.61-1.01,3.71,3.23,6.8,1.23,10.57-.08,4.23-1.47,7.42-3.36,9.67-7.26,2.32-4.03,5.02-7.81,9.18-10.33,3.91-2.37,8.21-3.29,12.53-4.53,8.74-2.5,15.96.14,23.06,4.79,2.01,1.32,4.21,3.39,6.89,2.12,2.1-.99,4.17-1.32,6.36-1.21,3.08.15,5.47-.56,6.45-3.94.54-1.86,1.76-2,3.09-.55.69.75,1.42,1.3,2.7.42-.76-.87-1.45-1.57-2.04-2.34-.56-.74-2.22-1.28-1.47-2.22.88-1.11,2.39-.42,3.53.25.81.47,1.25,1.27,1.59,2.11,1.37,3.33,1.31,3.28,3.64.55,1.68-1.96,2.95-4.3,5.17-5.77,1.21-.8,2.42-.89,3.54.18.59.56,1.34,1.29.52,2.01-3.04,2.67-1.19,6.51-2.42,9.6-.32.81.45,1.05,1.04,1,3.94-.29,8,0,11.22-3.14,2.71-2.64,5.62-5.08,8.47-7.58.59-.51,1.28-.94,1.98-1.28.47-.22.98.04,1.33.44.3.34.21.68-.04,1.06-3.61,5.52-5.54,11.88-8.8,17.58-.35.6-.64,1.24-.89,1.89-.18.48-.2,1.06.28,1.34.52.3.94-.14,1.25-.52.38-.46.77-.94,1.01-1.48,3.07-6.95,7.94-12.87,11.23-19.73,2.22-4.64,5.94-8.2,11.53-8.32,2.37-.05,2.96-1.12,3.16-2.97.18-1.7.25-3.4-.88-4.88-2.11-2.76-2.66-5.95-2.61-9.32.03-1.94-.14-4.12,2.53-1.48.3.29.74.57,1.01.17,1.85-2.71,2.61-.18,3.41.81,4.28,5.34,9.25,9.05,16.62,7.96,1.03-.15,2.24.1,3.21.52,4.05,1.77,7.99,1.03,11.97-.18,1.96-.6,2.34-1.48.61-2.77-2.27-1.7-2.35-3.75-1.17-6.08.5-.97,1.02-1.93,1.53-2.89.39-.74.75-1.88-.25-1.98-3.11-.32-6.6-2.08-9.31-.02-2.95,2.25-5.03,1.24-7.5-.31-1.9-1.2-3.58-2.47-4.28-4.77-.44-1.45-1.41-2.66-2.61-3.59-1.51-1.16-2.23-2.69-2.68-4.51-.33-1.32.25-3.48-2.45-3.26-.71.06-.51-.92-.16-1.41.58-.81,1.24-1.56,1.86-2.34.59-.73,1.18-1.35,2.27-.86,1.11.49,1.09,1.28.76,2.22-.26.76-.65,1.58.36,2.06.89.42,1.44-.21,2.05-.78.67-.64,1.65-1.98,2.36-1.24,2.73,2.8,3.3-.67,4.74-1.46.47-.26.56-1.05.23-1.64-.4-.72-.96-.4-1.54-.23-1.64.48-3.2,0-4.86-.17.67-1.96,2.7-1.94,3.73-3.25-2.29-1.67-4.44.83-6.9-.05,3.97-3.2,8.31-4.71,12.82-5.97,7.5-2.09,19.28,2.4,22.94,11.02,1.81,4.27,3.21,8.54,3.39,13.21.22,5.67-1.19,10.85-4.05,15.7-.56.95-1.61,1.91-.13,3.09,2.61,2.06,2.78,3.55.58,6.34-2.04,2.59-4.17,5.09-5.98,7.85-.75,1.15-1.92,2.58-3.37,1.87-1.97-.97-2.69-.14-3.45,1.39-.83,1.68-1.13,3.44.54,4.58,2.72,1.85,4.71,4.54,7.7,6.1,3.39,1.77,3.51,5.05.4,7.26-.97.69-2.02,1.45-3.14,1.68-3.6.74-6.28,2.89-8.92,5.22-2.17,1.92-4.39,3.82-7.26,4.62-2.14.6-3.11,1.78-3,4.1.12,2.36-1.04,3.65-3.57,2.78-1.56-.54-2.96-.06-4.35.47-1.45.55-2.69,1.27-4.29-.09-.88-.75-2.63-.47-3.6.46-.84.8-.43,2.13-.26,3.16.28,1.67,1.77.89,2.71.97,1.91.15,3.84.05,6.07.05-1.2,2.33-2.42,3.73-4.58,3.73s-4.59-1.67-6.09,1.37c-.08.17-1.12-.06-1.69-.21-2.79-.73-5.15.12-7.63,1.46-1.53.82-1.89,2.75-3.66,3.11-4.28.87-4.92,1.63-4.98,5.88-.03,2.52-.15,5.02-1.78,7.12-.66.86-1.35,1.85-2.7,1.25-1.37-.62-1.06-1.8-.8-2.85,1.76-7.23,2.22-14.58,2.09-21.98-.14-7.62,1.68-14.82,4.4-21.85.29-.74.35-1.83,1.56-1.89.09.2.21.36.24.53,1.12,6.36-3.66,12.38-1.12,18.83-1.78,3.01-1.05,3.59,2.49,4.12,3.42.51,6.29,2.09,7.77-2.38,1.24.38.05,2.3,1.73,2.13,1.39-.14,2.12-1.06,2.55-2.22.28-.74.31-1.56.5-2.33.28-1.15.28-2.47,1.21-3.32,1.55-1.43.44-1.89-.73-2.47-1.52-.75-3-1.58-4.51-2.34-4.85-2.44-6.22-7.29-8.14-11.76-1.07-2.47-.13-4.34,1.77-5.93.12-.1.13-.38.14-.57.17-4.37,2.42-7.69,5.33-10.7.46-.48,1.08-1.1.53-1.79-.39-.48-1.12-.3-1.68-.05-2.8,1.23-5.44,2.74-6.37,5.9-1,3.38-2.64,6.44-4.25,9.54-1.81,3.48-2.98,7.13-2.94,11.16.03,2.7-.44,5.39-2.53,7.51-1.27-1.23-.35-2.78-1.24-4.14-.07,2.47-1.6,4.92.53,6.76,1.64,1.41,1.24,2.84,1.1,4.55-.3,3.68-3.57,7.52.5,11.06.36.32.09,1.34.15,2.04.26,3.6-1.53,6.78-2.04,10.22-.24,1.65-1.15,3.7.18,4.81,1.42,1.19,3.42.43,5.03-.54.08-.05.3.13.58.27-.49,4.33-3.21,7.06-6.61,9.4-.74.51-1.66-.38-1.86.16-1.29,3.38-3.72,5.97-6.22,8.67,1.77.75,2.02-.48,2.65-1.15,5.09-5.43,10.54-10.51,16.17-15.35,2.91-2.51,3.63-5.37,1.4-8.8-1,1.55-.61,3.64-2.19,5.56-.02-4.18,1.74-7.6,1.43-11.46.85.82,1.27,1.95,2.65,1.52,1.81-.55,2.18-1.96,2.13-4.14,2.29,2.82,6.86,1.54,7.41,5.81,1-.25,1.67-1.03,2.31-1.77,5.25-6.18,11.62-11.22,17.15-17.11,3.08-3.28,6.36-6.35,9.92-9.09,9.32-7.18,19.21-7.16,28.61-.06,4.02,3.04,5.86,7.02,6.33,12,.96,10.12-3.4,19.18-5.88,28.5-1.65,6.2-4.53,12.25-6.94,18.33-2.71,6.84-4.77,13.95-8.68,20.29-1.25,2.04-1.73,4.25-.67,6.56.33.73.62,1.38.11,2.22-1.24,2.05-.94,4.24-.15,6.35,1.42,3.76,1.55,7.6.71,11.47-2.26,10.45.71,19.44,8.2,26.72,4.99,4.85,8.5,10.46,11.4,16.64,1.23,2.61,2.74,5.09,4.13,7.62.72,1.32,1.49,2.65,1.2,4.23-.7,3.85.81,6.99,3.1,9.89v17.37c-4.37,5.54-4.37,7.48,0,10.78v-.02Zm-27.78,46.95c-1.13.19-1.96.92-2.79,1.63-1.17.99-2.09,2.39-.63,3.5,1.38,1.06,1.27,4.45,4.75,2.75,2.33-1.14,4.81-3.26,7.81-2.05,2.3.93,4.76.25,7.06,1,1.03.34,1.41-.23,1.35-1.28-.52-7.82-7.97-11.87-14.69-7.97-1.13.65-2.12,1.47-2.93,2.49l.07-.07Zm-87.13-118.52c.96-1.66,2-2.32,3.15-2.95,1.45-.8,1.64-1.85.07-2.96-3.4-2.42-4.5-8.19-2.35-11.9.61-1.05.49-2.12-.08-3.13-.37-.66-1-1.03-1.76-.88-1.24.24-1.22,1.41-1.56,2.3-.44,1.14-.54,2.32-.47,3.53.04.61,0,1.27-.85,1.24-.72-.03-.94-.5-.96-1.22-.08-3.67,2.6-7.78,6.19-9.38,4.32-1.92,5.94-5.95,4.21-10.37-.33-.83-.79-1.66-.89-2.52-.32-2.91-2.08-3.19-4.48-2.79-2.94.49-5.92.82-8.88,1.18-3.11.38-5.68-.75-7.82-2.94-2.02-2.07-3.99-4.19-6.02-6.25-1.48-1.49-2.67-1.68-3.38.76-.32,1.1-.6,2.43-2.03,2.96-.55-1.4.78-1.93.86-2.87.07-.78,1.22-1.74-.11-2.31-1.14-.49-1.53.53-1.87,1.39-.58,1.48-1.1,3-1.77,4.43-.4.84-.57,1.61-2.18.82-2.48-1.21-4.86.47-5.64,3.19-.16.57-.36,1.22-.76,1.6-1.94,1.87-1.82,4.25-1.28,6.44.76,3.08,1.94,6.06,3.09,9.02.51,1.31,1.78,1.73,3.19,1.82,3.88.24,4.86,1.08,5.29,4.93.23,2.1.04,4.25.04,6.34-.3.03-.41.08-.49.05-.66-.21-1.32-.45-1.98-.66-5.06-1.64-10.04-3.2-14.81,1.04-1.19,1.06-3,1.89-5.01,1.49,2.01-1.1,3.43-2.57,4.87-4.86-.84.42-1.13.52-1.36.69-3.05,2.17-6.02,4.22-10.13,2.38-1.44-.64-2.83.46-3.69,1.88-1.81,3.01-1.61,7.24.5,9.54,2.1,2.27,5.34,2.64,8.79,1.07.57-.26,1.18-1.17,1.81-.51.66.69,0,1.42-.42,2.12-.92,1.53-1.67,3.17-2.61,4.69-.56.91-.62,1.63.16,2.39,3.96,3.89,9.02,4.29,14.16,4.51,3.61.16,3.34-4.67,6.59-5.05.39-.05.28-1.26.03-1.94-.22-.6-.93-1.34.03-1.78.8-.37,1.78-.35,2.61.05.83.39.99,1.1.8,2.01-.17.81-1.17,1.46-.5,2.52,1.43-.47,1.54-1.75,1.78-2.86.71-3.25.68-3.25,3.2-1.29.71.56,1.46,1.12,2.44.7,1.09-.46,1.74-1.29,1.87-2.49.16-1.48-.27-2.78-1.24-3.87-1.19-1.34-2.46-2.61-3.65-3.96-.31-.35-1.29-.9-.34-1.29,1.37-.56,1.09-2.33,2.33-2.85.97.59,1.45,1.74,2.75,1.75,5.64.05,11.26,1.27,16.91-.53,3.96-1.26,4.04-.97,3.63,3.21-.06.56,0,1.13,0,2.32l.02.05Zm13.59-35.57c-1.04-1.62-1.86-3.63.45-4.09,2.74-.54,3.46-2.31,4.23-4.41.79-2.15,1.71-4.24,2.48-6.4.28-.8,1.64-1.33.94-2.28-.79-1.07-2.13-.95-3.33-.74-.71.13-1.39.45-2.21.73.94-3.24.91-3.62-.52-3.8-2.46-.31-4.94-.62-7.41-.67-3.01-.06-3.41-.36-1.95-3.1,1.61-3,1.99-6.16,1.34-9.27-.69-3.35-.2-6.54.26-9.77.39-2.72,0-5.34-.31-8.02-.73-6.52-3.43-12.68-3.43-19.32,0-1.52-.99-2.53-2.17-2.97-5.53-2.07-10.91-4.78-17.21-3.5-6.13,1.24-7.69,3.44-6.59,9.79.7,4.02,1.54,8.03,1.45,12.15-.23,10.52,1.22,20.78,5.05,30.63.73,1.87.17,2.86-1.7,3.22-1.97.38-3.8,1.15-5.6,2-1.01.47-.97.99-.33,1.83,1.77,2.33,4.57,2.76,7.14.98.96-.67,2.1-2.17,3.04-1.43,2.37,1.88,6.97-1.34,7.91,3.57.06.3,1.03.45,1.59.62.85.25,1.71.38,2.49.93,3.4,2.4,3.5,2.33,4.65-1.75.41-1.46.63-3.13,3.13-4.23-1.15,2.5-1.13,3.99.63,5.17,2.96,1.99,3.4-1.57,5.1-2.39.81,1.53,1.54,2.91,2.27,4.28-3.04,1.46-1.88,5.58-4.69,7.3-1.39.85-2.03,2.74-1.54,4.16.41,1.2,2.23.98,3.51,1.03.37,0,.74-.14,1.33-.26h0Zm-61.85-99.98c-.67,2.21.16,3.19.59,4.27.58,1.47.54,2.8-1.11,3.5-1.73.74-3.01-.45-3.2-1.74-.37-2.57-2.05-4.39-3.02-6.59-.24-.54-.78-1.2-.64-1.62.9-2.6-1.05-2.75-2.63-3.27-1.04-.34-2.06-.72-3.08-1.12-1.58-.62-2.95-.5-3.89,1.08-.86,1.46-1.5,2.94.4,4.12.84.52.82,1.28.75,2.1-.13,1.61.7,2.67,2.06,3.31,2.63,1.24,3.91,4.02,6.32,5.52.59.37.05.99-.21,1.25-2.97,2.83-5.29,6.44-9.73,7.49-2.99.71-5.9,1.83-8.44,3.7-.53.39-1.62.97-1.84.3-1.09-3.26-3.68-1.72-5.7-2.04-1.05-.16-2.18-.89-2.95.38-.74,1.2-.43,2.5.01,3.74.4,1.13,1.39,1.61,2.33,2.19,1.62,1,.94,2.91,0,3.03-4.06.5-3.36,3.84-2.59,5.48,2.56,5.45,2.92,12.24,8.97,15.74.73.42,1.17,1.34,1.74,2.03.89,1.08.66,1.78-.7,2.12-1.74.44-3.42,1.05-5.01,1.91-1.07.59-1.43,1.25-.68,2.38,1.38,2.07,1.83,4.35,1.27,7.09,1.22-3.49,4.93-3.22,7.06-5.34,2.83-2.82,6.28-1.12,9.86.05-1.43-2.11-3.37-2.25-4.92-3.05-.91-.47-1.87-1.01-1.67-2.2.26-1.52,1.54-.89,2.42-.89,3.2,0,8-3.18,7.92-5.95-.08-2.83,1.08-2.47,2.8-1.92,2.58.82,3.88-.19,4.49-2.77.6-2.51,1.53-4.94,2.31-7.41.55-1.76,1.57-2.83,3.55-3.12,2.67-.38,4.54-1.88,5.26-4.64.19-.75.62-1.5,1.12-2.09,1.84-2.15,1.77-4.46.36-6.63-2.08-3.21-3.49-6.71-4.98-10.18-1.39-3.23-2.9-6.42-4.63-10.23l.03.02Zm-44.77,188.59c-3.56,2.81-7.76,3.51-11.71,4.81-9.33,3.07-16.37,8.92-21.39,17.27-1.75,2.9-2.73,5.98-1.6,9.41.38,1.16.7,2.37,2.17,2.54,1.4.16,1.89-.77,2.2-1.94.12-.48.46-.96,1.07-.74.51.18.73.67.75,1.19.09,2.2.35,4.52-1.3,6.25-1.12,1.17-1.34,1.87.21,2.67.34.17.86.73.85.74-2.11,2.6.12,4.74.33,7.06.25,2.75.93,5.01,1.9,7.47.65,1.66,3.3,1.66,3,4-.02.13,1.68-.52,2.59-.78.58-.17,1.32-1.03,1.04-1.15-1.9-.77-.81-2.07-.72-3.17.08-1.07-1.23-2.79.45-3.01,1.14-.15,1.46,2.02,2.29,3.06.13.17-.08.58-.06.87.1,1.55.69,1.5,1.9.79,2.57-1.51,4.87-3.83,8.36-2.96.68.17,1.97-.65,1.55-1.33-1-1.64.5-1.56,1.11-2.03,2.99-2.29,6.01-4.53,9.01-6.8.66-.5,1.31-1.22.66-1.99-.6-.7-1.23.21-1.82.44-1.27.5-2.09,1.92-3.66,2.07,1.11-1.2,2.07-2.35,3.15-3.38.73-.7,1.62-1.26,2.67-.5.38.28.7.82,1.25.4.63-.49.27-1.09,0-1.61-1.06-2.07-2.02-4.12-.83-6.52.21-.42-.14-1.16-.33-1.71-.12-.33-.38-.77-.67-.85-.58-.17-.94.35-1.07.8-.79,2.8-2.79,5.07-3.4,7.95-.16.74-.1,1.79-1.02,2.03-2.57.65-3.42,2.45-3.61,4.85-.05.61-.56,1.1-1.22,1.13-.98.04-.59-.69-.67-1.24-.28-1.76-1.38-1.2-2.43-.78-1.23.49-2.2,1.8-3.79,1.26-.14-.92.49-1.33,1.08-1.6,3.32-1.57,6.51-3.18,9.17-5.92,4.65-4.81,5.77-8.92,3.37-15.18-.68-1.77-1.69-3.44-2.13-5.26-.95-3.93-3.47-6.37-6.84-8.22-.71-.39-2.03-.51-1.72-1.69.31-1.17,1.55-1.06,2.53-1.06,2.95,0,8.5,4.09,9.34,7.57,1.14,4.72,5.29,8.14,5.02,13.1,4.25-1.98,2.86,3.09,5.14,3.53-.68-3.29-1.33-6.49-2.01-9.69-.18-.86-.19-1.88-1.01-2.42-3.31-2.19-2.24-5.69-3.06-9.03,1.73.95,2.11,2.39,2.92,3.47.57.76,1,2.27,2.06,1.71,1.23-.64.23-1.95-.1-2.9-.7-2.03-2.98-3-3.57-5.09-.58-2.05-1.43-1.1-2.22-.24-1.12,1.21-.63,2.94-1.16,4.86-2.54-4.09-2.8-8.34-4-12.5h-.02Zm112.45,26.68c-.68,2.05-2.95,4.15-3.86,3.55-2.23-1.48-2.61.26-3.57,1.12-.72.65-1.66,1.35-1,2.51.62,1.11,1.73.86,2.68.62,2.5-.64,4.97-1.47,7.49-2.03.99-.22,3.04-1.03,1.87,1.64-.54,1.23.6,1.2,1.33,1.36.97.21,2.12.09,2.88.59,3.43,2.26,7.42,2.07,11.19,2.79.95.18,2.18-.11,2.34,1.26.15,1.24-.88,1.61-1.86,1.97-3.31,1.22-6.8,1.45-10.24,2-1.75.28-4.1-.45-3.97,2.76.04.86-1.22,1.33-2.13,1.33-5.67-.01-10.52,3.51-16.18,3.62,5.22.26,10.4.29,15.58.24,2.14-.02,4.33.19,6.04,1.38,2.41,1.68,4.47,1.1,6.11-.67,1.63-1.76,3.3-3.17,5.57-4.01,1.06-.39,1.28-1.72,1.43-2.82.1-.68-.2-1.66.43-1.97,3.18-1.59,4.26-4.75,6.04-7.44.89-1.35.59-1.6-.58-2.04-.98-.37-2.39-.46-2.2-1.98.27-2.16-.41-3.9-1.83-5.47-.45-.5-.98-1.15-.28-1.82.46-.44,1.2-.59,1.67-.19,2.24,1.85,2.55,0,3.08-1.53.86-2.47.45-4.29-2.42-4.91-.65-.14-1.56-.04-1.25-1.14.21-.73.97-.9,1.45-.57,1.81,1.24,3.98,1.36,6.06,2.13.05-2.84.88-5.75-2.14-7.81-.63-.43-1.47-1.53-.35-2.56,1.95-1.79,2.22-3.25-.82-4.05-.26-.07-.51-.33-.69-.56-3.64-4.58-8.78-4-13.72-3.9-1.03.02-2.35.43-3,1.15-2.55,2.82-5.85,5.09-6.36,9.46-.21,1.83-.45,2.96,1.45,3.83.97.45,2.51,1.31,1.25,2.64-1.02,1.08-2.79,2.32-4.18.95-1.22-1.2-2.34-2.38-3.89-3.13-.54-.26-1.13-.76-.72-1.4,1.24-1.94-.32-1.51-1.31-1.67-6.1-.99-12.11.03-18.17.55-3.34.29-5.56,1.64-6.69,4.72.47.62.95.36,1.43.29,6.31-.94,12.63-1.82,18.8-3.48.74-.2,1.64-.7,2.08.33.45,1.05-.42,1.66-1.15,2.16-.39.27-.93.34-1.41.45-7.17,1.73-14.33,3.47-21.5,5.18-.96.23-2.25.15-2.23,1.47.02,1.35,1.41.66,2.14,1,.36.17.79.22,1.1.46,3.72,2.84,7.23,1.95,10.74-.49,1.29-.9,2.79-1.48,4.52-.53-2.06,2.84-4.77,4.61-8.16,6.28,5.19.31,5.1.24,7.92-3.26,3.04-3.77,6.67-6.31,12.12-4.65-.92,1.46-1.75,2.77-2.56,4.05,1.21,1.06,2.38-.12,3.64.22v.02Zm43.46,10.47h-3.58c-1.22,0-1.98.55-1.67,1.84,1.02,4.36,0,8.76.36,13.12.21,2.53.17,4.94-1.85,6.95-1.14,1.13-.68,2.02.96,2,2.06-.02,3.97.49,5.7,1.54,2.64,1.6,5.46,2.3,8.54,2.28,2.32,0,4.61.29,6.06,2.53.81,1.25,1.8,1.17,2.69.12,3.64-4.31,8.73-5.72,13.88-7.03,4.5-1.14,4.82-1.92,2.98-6.24-1.44-3.4-4.07-6.19-4.99-9.84-.77-3.02-2.94-4.2-5.78-4.13-1.82.04-3.55-.32-5.33-.46-5.86-.46-11.33-3.32-17.95-2.71l-.02.03Zm-85.01-61.39c-4.25,1.22-8.29,1.97-11.91,3.91-2.7,1.45-5.44,2.31-4.57,6.8.8,4.13.06,4.28,4.29,5.31.87.21,1.77.44,2.64.39,7-.34,13.92.32,20.79,1.61,1.02.19,1.84.06,1.78-1.25-.09-1.89.72-3.46,1.62-5.04.5-.88.62-2-.12-2.82-.69-.76-1.46-.01-2.19.21-.57.17-1.16.29-1.75.39-1.44.24-2.79-.19-3.21-1.56-.48-1.59,1.12-1.82,2.17-2.22.92-.35,1.89-.58,2.85-.82,1.5-.38,2.44-1.23,2.65-2.84.39-2.97.92-5.91,2.46-8.56.47-.81.37-1.9-.75-1.59-4.01,1.1-8.47-.65-12.21,1.96-1.04.73-2.02.86-2.86-.28-.43-.58-1.02-.62-1.61-.51-5.02.93-10.21.13-15.14,1.47-1.17.32-3.77-.96-3.52,1.85.23,2.51,2.4,2.57,4.32,2.72,1.23.1,2.34-.24,3.42-.85,3.81-2.18,6.92-1.76,10.83,1.72h.02Zm-118.78-92.31c-3.01,5.75-5.64,10.97-6.46,16.86-.14.98-1.31,2.34.14,2.88,1.24.46,1.51-1.25,2.2-2,.25-.28.56-.77.48-1.06-1.06-3.55,1.54-2.59,3.24-2.61,1.28,0,2.57.16,3.85.29,4.94.52,9.87,1.19,14.83,1.54,5.07.35,7.43-2.59,6.16-7.52-1.08-4.18-3.76-6.99-7.96-8.07-4.96-1.28-9.78-.61-14.43,1.51-1.19.54-2.49.93-2.04-1.82h0Zm-36.22,51.27c-.21,1.93-5.07,3.06-.72,5.52.05.03-.14.71-.36.96-1.06,1.24-.75,2.15.59,2.86.44.23,1.08.51.52,1.04-3.27,3.07-.72,3.73,2.08,4.23-3.52,5.15-.46,9.58.74,14.35,1.17-.42,2.09-1.52,3.46-.73-.71,1.12-1.32,2.24-.53,3.59.65,1.11.13,2.35.21,3.52.11,1.58,1.56,1.91,2.59,2.64.78.56,1.34,1.36.99,2.31-.8,2.15.68,1.82,1.83,1.72,2.52-.2,3.37-1.43,2.82-4.03-.31-1.46-.7-2.9-1.12-4.34-4.07-13.96-8.09-27.94-8.3-42.64-.02-1.67-.85-2.1-2.28-1.82-2.61.52-5.05,1.49-7.44,2.9,2.73,1.52,2.68,1.51,1.87,4.55-.33,1.25-.56,2.75.24,3.77.76.97,1.67-.8,2.81-.4h0Zm111.68,9.53c1.28-5.55,3.43-10.67-.35-15.85-1.62-2.22-5.08-3.34-7.99-1.41-2.4,1.59.55,2.63,1.06,3.92.28.71.36,1.34-.17,1.94-.56.64-1.16.54-1.87.18-.94-.48-1.76-1.03-1.86-2.15-.32-3.29-2.56-4.77-5.41-5.04-3.38-.32-5.74-1.87-7.74-4.46-2.6-3.38-6.33-4.7-10.38-5.29-.75-.11-1.8-.27-1.87.88-.06.97.86.91,1.55.91,3.9-.05,6.76,2.09,9.49,4.5.42.37,1.1.69.73,1.42-.38.75-.94.41-1.53.2-1.85-.68-2,.19-1.64,1.74.49,2.1-.56,3.39-2.41,4.26-.91.42-1.57.08-2.15-.47-.66-.62-.26-1.29.15-1.88.74-1.06,1.76-2,2.18-3.17.46-1.28.99-3.32-1.24-3.4-1.56-.06-2.71-.94-4.1-1.26-.21,1,1.14,2.25,0,2.55-2.5.65-1.21,2.02-.86,3.14.48,1.51,1.19,2.95,1.77,4.44.79,2.03,2.09,3.12,4.43,3.25,6.38.36,12.57,2.06,18.87,3.02,3.91.6,8.03,2.4,11.64-1.43,1.03,3.34-2.49,6.09-.3,9.46h0Zm96.48,24.56c1.67.83,3.01,0,4.35-.02,2.1-.03,3.29-.64,2.38-3.1-.5-1.37.05-2.46,1.44-3.19,2.6-1.37,2.69-2.2.38-4.07-1.07-.86-2.33-1.58-3.61-2.06-2.49-.94-4.39-2.42-6.15-4.48-3.04-3.54-6.57-6.55-11.9-4.82-.81.26-1.5-.4-2.25-.61-3.6-1.05-7.23-2.11-10.71.53.96,1.47,2.17.86,3.31.71.76-.1,1.88-.36,1.68.89-.3,1.91.93,1.71,1.98,1.61,3.98-.39,7.7.71,11.4,1.92.96.31,2.27.33,2.4,1.81-1.54,1.04-3.07.92-4.78.45-1.69-.46-3.3.26-3.95,1.93-.59,1.52,1.05,1.86,1.94,2.52.64.47,1.59.83,1.51,1.7-.08.89-1.17.92-1.83,1.3-.69.39-1.39.72-2.26.53-1.19-.26-2.1,0-1.67,1.5.26.93.14,2.17,2.02,1.71,4.51-1.11,8.7-3.89,13.72-2.67.14,1.71-1.15,2.64-2.52,3.5-1.18.74-2.41,1.41-3.53,2.23-.52.38-1.86.64-1.04,1.6.71.84,1.39-.16,1.92-.71,2.21-2.27,5.62-2.58,7.88-4.79.46-.45,1.19-.36,1.52.29.32.64-.07,1.09-.62,1.48-.96.68-2.18,1.03-3.01,2.31h0Zm30.93-175.18c-1.48-.15-1.85-1.42-2.78-1.89-1.22-.61-2.24-.17-2.77.92-.7,1.45.7,1.3,1.45,1.51,1.19.34,2.23.96,3.03,1.83.81.88,3.09.93,2.39,2.51-.82,1.85-2.14-.13-3.26-.27-.2-.02-.39-.08-.58-.12-5.29-1.05-10.65-1.88-15.46-4.47-.25,1.45-.48,2.91-.77,4.36-1.36,6.88,3.8,11.45,10.49,9.24,2.35-.78,4.57-1.98,7.12-2.1.75-.03,1.32-.53,1.71-1.1,1.55-2.28,3.91-3.29,6.36-4.2,2.47-.91,4.32-2.47,5.05-5.08.83-2.92-1.33-5.97-4.01-5.43-3.17.63-6.29.43-9.75,0,.63,1.54,1.16,2.85,1.76,4.31l.02-.02ZM17.51,193.01c2.07-.8,3.18-2.59,5.27-2.62,2.53-.04,3.55-1.69,3.07-4.06-1.24-6.2-.5-12.52-1.35-18.74-.46-3.37-.57-6.76.41-10.07.35-1.19-.07-1.66-1.15-1.88-.69-.14-7.98,2.35-8.37,2.91-.33.48-.25.95.11,1.35,1.3,1.42.83,2.91.28,4.47-.37,1.03-.77,2.43.56,2.87,2.31.78,1.77,1.46.54,2.95-1.86,2.25-.96,4.68,1.66,5.26.37.08.84,0,.97.5.2.72-.29,1.11-.81,1.41-2.42,1.39-2.4,3.59-2.22,6,.23,3.15,1.76,6.11,1.03,9.66h0Zm253.6-39.62c-2.14.96-3.81,2.41-4.63,4.43-1.03,2.56-2.81,2.95-5.23,2.82-5.85-.3-11.69-1.54-17.57-.27-.5.11-1.17-.19-1.67-.48-2.45-1.42-4.34-.72-6,1.36-.99,1.24-2.12,2.38-3.15,3.59-.91,1.07-1.81,2.17-1.55,3.73.04.27.03.63.65.59.72-.24.31-1.72,1.54-1.73.48,2.7-2.48,3.64-3.13,6.13,3.56-1.26,6.86-2.95,10.5-2.32,2.95.51,5.82.27,8.77.17,5.22-.17,10.19-1.15,15.12-2.61,3.09-.91,5.98-2.3,8.67-4.48-.45-.05-.67-.14-.83-.08-1.11.44-2.26.82-3.29,1.4-7.3,4.07-14.76,3.02-22.31.89-1.86-.53-3.07-1.76-4.19-3.19-.35-.45-.95-.9-.43-1.54.44-.55,1.09-.42,1.65-.17,1.21.55,2.48.84,3.78.67,4.67-.62,9.29-.46,13.98.09,4.41.51,9.1-4.21,9.31-9h.01Zm-161.1-29.73c-1.52,2.24-1.15,4.58-2.95,5.85-1.4.98-1.08,1.76.43,2.19,1.76.51,2.73,1.77,3.66,3.49-2.58.28-4.91,0-6.97-.7-.75-.25-.77-2.66-1.12-4.08-.02-.1-.06-.19-.09-.29-1.67-4.52-2.11-4.61-5.2-1.35-.47.49-.83.83-.5,1.47.38.71,1.03,1.02,1.75.66,1.2-.59,2.26-.86,3.04.58.73,1.36.86,2.74-.34,3.84-1.54,1.42-.98,3.35-1.39,5.02-.19.78.59,1.42,1.24,1.91.2.15.35.26.65,0,.8-.72.84-.69,1.09-.5.86.67,1.69,1.4,2.59,2.03,2.84,1.97,6.29,2.11,8.34.36,1.53-1.31,2.69-7.53,2.08-9.43-.4-1.27-2.09-.38-2.21-1.75-.28-3.4-3.26-5.51-4.11-9.3h0Zm81.77,146.13c.33-.12.58-.25.86-.31.86-.16,2.26,1.09,2.51-.43.29-1.73-1.47-1.05-2.37-1.32-5.54-1.71-11.49.35-16.99-1.81-.32-.12-.75.04-1.36.09,1.59,2.71,1.36,5.26-.02,7.76-1.19,2.16-.65,2.95,1.87,2.95,8.36.02,16.69-.3,25-1.21.78-.09,2.12.44,2.17-.87.05-1.34-1.41-1.04-2.26-1.42-1.77-.78-2.84,1.61-4.91.97,1.84-1.67,1.42-2.5-.68-2.9-1.31-.25-2.81-.17-3.82-1.51h0ZM58.14,132.24c2.52.77,3.44,2.73,4.77,4.28.49.57,1.01,1.99,1.91,1.1.74-.73,1.83-2.12.13-3.26-.77-.52-1.61-1.2-1.44-2.13.66-3.56-.42-7.36,1.52-10.73.36-.62.47-1.4,1.43-.7.59.43,1.27.83,1.7-.11.39-.85-.38-1.25-.91-1.66-.88-.69-1.87-1.2-3.02-1.08-4.54.49-9.07.99-13.6,1.56-1.54.19-2.7,1.09-2.54,2.77.17,1.69,1.69,1.38,2.82,1.44,3.53.18,3.51.16,2.43,3.64-.34,1.1-1.35,2.72-.23,3.31,2.27,1.19,3.03,3.67,4.99,5,.66.45,1.3,1.31,2.33.47-.44-1.37-2.05-1.97-2.29-3.89h0Zm37.81-12.94c1.51-.55,3.49-.54,1.92-2.64-.66-.89-.39-1.4.06-2.06,2.02-2.96,2.88-6.3,3.35-9.8.23-1.72-1.74-4.75-3.37-4.55-3.93.49-7.21,2.55-10.56,4.54-2.2,1.31.33,2.51-.39,3.94-1.14,2.26.35,4.36,1.88,6.16,1.95,2.3,4.96,2.73,7.12,4.41h-.01Zm145.21,137.45c1.76,1.17,3.28.74,4.72-.69.71-.7,1.7-.37,2.44.27.47.4.86.91.47,1.54-.41.66-1,.84-1.8.57-1.22-.41-2.67-.53-2.74,1.15-.07,1.58,1.49,1.66,2.68,1.63,2.09-.05,4.17-.23,6.25-.36,1.01-.06,2.32.91,2.93-.47.52-1.18-.33-2.29-.89-3.33-.63-1.16-1.67-1.96-2.69-2.76-2.29-1.81-4.11-4.03-5.5-6.58-.64-1.18-1.08-2.47-2.74-2.18-1.51.26-1.79,1.5-2.18,2.71,1.16.39,2.22-.72,3.01.41.35.5.22.88-.27,1.24-1.66,1.23-3.24,2.59-4.97,3.72-3.68,2.41-4.91,6.33-6.37,10.1-.25.65-.11,1.44.47,1.92.22.18.97.13,1.05-.02,1.24-2.5,3.45-2.26,5.67-2.14,1.31.07,1.76-.89.78-1.55-1.6-1.07-1.24-1.64-.01-2.58,1.18-.9-.65-1.4-.31-2.6h0Zm44.73-20.06c-1.17.43-3.18-1.17-3.18,1.41,0,1.47-.95,2.82-.25,4.39,1.06,2.36,4.47,5.29,6.46,5.29,3.11,0,6.91-2.66,7.89-5.55,1.22-3.59.39-7.47-2-9.36-1.91-1.51-4.29-1.15-4.78,1.1-.58,2.63-2.05,3.03-4.13,2.72h-.01Zm-196.2-64.1c1.44-.29,2.17,1.4,2.9.36,1.05-1.51,2.96-2.92,1.44-5.21-.5-.75-.83-2.23.29-2,3.15.67,3.02-1.85,3-3.2-.05-4.36,1.71-8.56.94-12.97-.24-1.37-.35-2.76-.92-4.05-.24-.53-.54-1.12-1.29-1.05-.87.08-.77.78-.76,1.35.05,2.79-.19,5.63.29,8.34.39,2.2.41,3.56-2.12,4.07-1.03.21-1.68,1.12-1.56,2.26.11,1,.89,1.17,1.78,1.16.59,0,1.51-.64,1.64.53.09.8-.16,1.63-.98,2.03-.91.44-1.19-.39-1.57-.93-.48-.67-.97-1.37-1.92-.8-.62.37-1.26,1.1-.92,1.71,1.06,1.92.26,2.81-.99,4.49-1.69,2.27-2.16,5.51-2.02,8.57.04.82.02,1.83.83,2.09,1.13.36,1.37-.85,1.85-1.56,1.07-1.6,1.46-3.26.1-5.21v.02Zm-35.06,95.04c2.5-.05,3.55-.91,4.22-2.34.59-1.26-.3-2.04-.96-2.89-1.16-1.49-2.29-3-3.45-4.49-2.57-3.32-8.06-4.85-11.57-3.23-2.11.97-2.63,2.61-.94,3.87,2.11,1.58,3.04,3.27,2.11,5.86-.39,1.07.34,1.79,1.19,1.07,2.29-1.94,4.99-2.83,7.67-3.98,1.89-.82,2.22-.6,3.04.9,1.02,1.87,1.44,3.51-1.31,5.24h0Zm-17.59-144.34c-.6.65-1.16,1.35-1.82,1.92-.37.32-1.09.97-1.32-.06-.38-1.68-1.45-1.01-2.31-.77-2.97.81-4.88,2.94-6.55,5.37-.54.79-.23,1.14.44,1.66,2.11,1.64,3.36,1.42,4.79-.95.69-1.15,1.08-2.55,2.69-2.97-.99,1.68-1.97,3.36-3.05,5.2,1.13.18,2.03.24,2.85.5.46.15,1.03.4.33,1.24-.94,1.13-.82,1.37.35,1.89.96.43,2.01.67,3.33,1.09-.72-4.87-1.88-9.52.27-14.11h0Zm211.72-61.01c2.26.08,4.24-.17,5.95-1.34.91-.63,1.58-1.53.07-2.23-2.98-1.4-3.5-3.53-2.18-6.39.29-.62.41-1.47-.3-1.89-.6-.35-1.36-.33-1.95.23-1.66,1.56-3.69,2.73-4.93,4.76-.84,1.37-1.96,2.67-1.01,4.38.98,1.76,2.31,3.03,4.35,2.49h0ZM79.39,198.64c4.49.49,12.15-1.73,14.95-4.14.88-.76,1.4-1.77,1.3-2.88-.16-1.84-1.28-3.14-2.99-3.74-1.87-.65-2.02,1.11-2.58,2.15-.96,1.78-2.6,2.65-4.31,3.49-2.39,1.17-4.72,2.43-6.38,5.12h.01Zm226.05,161.59c.01,3.47,1.95,6.31,4.82,7.31,1.34.47,2.44.25,2.31-1.56-.12-1.71-.03-3.39.78-4.92.48-.91.25-1.46-.46-2.03-1.46-1.18-2.26-2.77-2.57-4.58-.31-1.85-1.05-1.37-2.2-.66-2.67,1.65-2.35,4.36-2.69,6.44h.01Zm-143.24-79.26c4.49-.18,4.53-.17,4.82-4.52.13-1.96,1.42-2.7,3.02-3.17.72-.21,1.34-.47,1.22-1.37-.14-1.05-.91-1.25-1.76-1.11-3.03.51-6.08,1.02-8.88,2.29-2.27,1.03-2.5,3.03-.7,4.32.36.25.71.56.42.92-3.04,3.81.52,2.42,1.85,2.64h.01Zm-41.09,18.5c.22,5.99-1.76,11.27-4.32,16.4-.45.9-1.6,2.05-.1,2.77,1.44.69,1.71-.88,2.2-1.79,5-9.23,5.4-18.78,1.94-28.57-.29-.82-.33-2.39-1.76-1.81-1.04.42-.39,1.56-.07,2.37,1.36,3.46,2.27,7.01,2.12,10.63h0Zm32.21-113.92c-2.24,1.65-4.18,2.5-6.51,1.55-6.15-2.5-11.86-5.62-15.86-11.17-.33-.46-.42-1.26-1.24-.77-.57.34-.58.91-.52,1.57.15,1.53,1.5,2.59,1.48,4.18-.02,1.42.89,1.97,2.17,1.79,2.45-.36,4.45.73,6.48,1.82,3.61,1.92,7.25,3.77,10.87,5.67,1.89,1,3.84,1.12,6.63.63-2.69-1.06-3.18-2.88-3.5-5.26h0Zm67.83-8.9c-1.6.45-4.57-.55-3.25,3.33.58,1.71,1.86,1.78,3.09,2.04,2.5.54,5.07-.09,7.64.59,1.75.46,1.66-1.6,1.96-2.71.29-1.07.16-2.56-1.3-2.44-2.73.23-5.29-.78-8.13-.81h-.01Zm28.2,172.86c.06.5.22,1.68.34,2.86.09.9-.52,2.18,1.11,2.22,1.29.03,2.18-.78,2.09-2.02-.11-1.51.61-2.04,1.82-2.61,2.71-1.27,2.89-2.66.61-4.65-1.17-1.02-2.53-2.84-3.89-2.35-1.71.6-1.75,2.91-2.07,4.66-.07.38-.01.79-.01,1.88h0Zm36.14-203.34c3.42-.13,5.27-1.73,4.89-4.24-.31-2.04-1.83-2.99-3.83-2.95-2.08.03-3.88,2.37-3.83,4.87.04,2.04.83,3.15,2.77,2.33h0Zm-63.14,14.83c.49-.87,1.97-.16,1.87-1.31-.11-1.31-1.29-.89-2.12-.95-.39-.03-.8-.03-1.18-.14-.57-.16-1.22-.52-1.46.32-.17.59.48.68.87.97,2.48,1.81,4.81,3.74,3.72,7.38-.11.37-.05.79-.05,1.19,0,1.06.16,2.2,1.49,2.13,2.1-.11,3.44-1.4,4.13-3.35.48-1.35-.24-1.83-1.46-1.89-.81-.04-1.51-.31-1-1.25.79-1.48-.1-1.62-1.2-1.88-1.15-.27-2.25-.74-3.62-1.21h0Zm45.14,215.14c.3,0,.61.04.9,0,1.56-.27,3.51-.34,3.39-2.53-.12-2.16-2.05-1.82-3.48-1.77-2.08.06-4.15.42-6.2-.38-.55-.22-1.46-.37-1.87.37-.33.61.18,1.14.58,1.57,1.79,1.98,4.08,2.76,6.69,2.74h0Zm-152.68-60.89c-2.38,1.85-4.6,3.68-6.92,5.38-5.79,4.24-11.88,7.98-18.52,10.79-.69.29-1.62.51-1.55,1.54.02.34.31.82.6.95.92.41,1.5-.25,1.94-.91.58-.86,1.34-1.44,2.28-1.85,7.6-3.38,14.28-8.22,20.9-13.15.77-.58,1.74-1.1,1.27-2.74h0Zm165.01-222.65c1.94-.22,3.2-.42,4.47-.49.8-.05,1.62.13,1.98,1,.7,1.69.67,1.69,2.25,1.02,1.62-.68,2.78-1.84,3.71-3.3.83-1.3.68-2.14-1-2.02-3.84.29-7.68.71-11.42,3.8h.01Zm-121.45-8.21c.87-.85,2.77.57,3.19-1.31.41-1.81-1.3-1.68-2.27-2.14-1.09-.52-1.49-1.51-2.05-2.45-.75-1.26-.49-4.15-2.97-3.01-2.14.99-.14,2.95.09,4.45.09.62.63,1.24,1.1,1.74.9.95,1.01,2.75,2.92,2.72h-.01Zm-47.31,7.09c-2.87,1.27-5.11,2.09-7.19,3.22-2.01,1.09-.77,2.62,0,3.76.8,1.18,2.2,1.75,3.19.33,1.44-2.06,2.92-4.14,3.99-7.3h0Zm-23.3,35.54c-.68-.02-1.16.09-1.3.68-.19.78.4,1.06.95,1.28,2.76,1.11,4.63,3.35,6.76,5.27.66.6,1.33,1.2,2.07,1.68.84.53,1.99,1.15,2.68.19.81-1.13-.47-1.72-1.23-2.26-2.91-2.08-5.85-4.11-8.79-6.15-.4-.28-.84-.51-1.15-.7h0Zm63.4-57.1c-6.25-3.69-10.58-3.01-14.56,2.33,1.8.29,3.62,1.43,5.17-.61,2.4-3.15,4.12-3.36,7.7-1.12.71.44,1.32.16,1.69-.59h0Zm-49.55,183.52c-1.86.45-3.19,1.34-3.38,3.5-.16,1.77.91,2.45,2.26,2.34,1.71-.14,3.69-.58,3.82-2.79.1-1.62-.98-2.72-2.7-3.05Zm46.15-12.94c-3.82-2.45-9.83-3.69-13.29-2.73,3.64,2.77,8.6,3.79,13.29,2.73Zm108.03,129.86c-1,.72-3.29-.38-3.49,2.01-.13,1.5,2.95,3.62,4.94,3.4,1.57-.17,1.25-1.96,1.28-2.7.05-1.26-.64-2.76-2.73-2.72h0ZM40.36,128.33c.18,1.07-.38,2.41.86,2.75,1.63.44,1.06-1.28,1.52-1.98,1.04-1.57.45-4.11,2.89-4.85.88-.27,1.49-.71.99-1.7-.57-1.1-1.48-.83-2.27-.32-2.29,1.46-3.82,3.42-4,6.1h0Zm27.51,154.46c1.92,0,2.67-1.59,2.87-3.48.16-1.48-.78-2.11-2.25-2.08-2.17.04-3.41,1.21-3.57,3.25-.12,1.58,1.04,2.23,2.95,2.31h0ZM273.04,29.81c.64-.21,1.73.59,1.99-.54.25-1.1-.84-1.17-1.57-1.35-2.01-.49-3.52-1.31-3.34-3.78.09-1.3-1.11-1.54-2.03-1.79-.87-.24-.88.53-.92,1.12-.19,3.14,2.65,6.23,5.86,6.35h.01Zm-104.27,133.61c-3.08.45-5,2.03-5.26,5.24-.04.52-.56,1.11.25,1.54.7.37,1.38.4,1.91-.16,1.76-1.85,3.73-3.63,3.1-6.62Zm115.15-34.85c-5.02,3.94-10.11,7.89-11.74,14.59,3.11-5.5,7.94-9.59,11.74-14.59Zm-124.26,34.56c3.59-3.65,4.07-8.02,1.63-11.62-.63,3.71-1.68,7.29-1.63,11.62Zm19.71-12.39c0,.84-.05,1.45.01,2.04.14,1.27.05,2.79,2.09,2.46,1.82-.3,1.36-1.67,1.25-2.81-.05-.58-.26-1.17-.5-1.71-.52-1.22-.61-3.35-2.12-3.13-1.46.21-.42,2.23-.73,3.16h0Zm-13.63,158.96c2.07-.23,4.14-.45,6.2-.68.52-.06,1.04-.26,1.02-.85-.02-.56-.52-.86-1.04-.85-2.68.04-5.35.1-8.03.22-.43.02-1.03.26-.99.88.04.64.42,1.15,1.07,1.26.58.09,1.18.02,1.78.02h-.01ZM13.74,197.58c.7-4.65.44-9.24-.23-13.81-1.45,4.62-1.08,9.25.23,13.81Zm227.71,129.84c3.03-.87,3.69-3.03,4.07-5.34.15-.88.18-1.89-1.02-2.13-1.24-.25-1.88.52-2.09,1.59-.36,1.83-.61,3.69-.96,5.88h0ZM14.66,204.05c.53,7.42,2.54,14.36,5.58,21.04-1.9-7.03-3.9-14.03-5.58-21.04Zm109.86-27.46c-.37-1.61-1.22-2.77-2.97-2.83-1.03-.04-2.69-.18-2.69,1.08,0,1.8,1.4,3.06,3.22,3.39,1.15.21,2.14-.3,2.44-1.64Zm42.45,90.56c-1.62.26-3.37.59-4.86,1.69-.48.36-1.02.78-.67,1.45.26.49.86.42,1.33.34,1.56-.28,3.13-.53,4.66-.92.75-.19,2.08.14,1.95-1.25-.12-1.32-1.26-1.31-2.42-1.31h.01Zm132.53,13.54c-.39-1.31-1.25-2.13-2.57-2.04-.98.07-2.19.66-1.93,1.8.3,1.3.3,3.33,2.39,3.18,1.57-.11,1.51-1.87,2.11-2.95h0Zm-168.29-114.02c-.29-1.38-1.1-2.02-2.31-1.96-1.46.07-3.13,1-3.21,2.08-.12,1.69,1.92,2.23,3.25,2.4,1.54.2,1.61-1.62,2.27-2.52h0ZM13.73,247.02c3.47,2.72,7.19,4.79,11.56,5.41-3.58-2.43-7.32-4.5-11.56-5.41ZM165.43,89.05c.95.18,2.06.13,2.05-.77-.01-2.34-2.58-1.99-3.84-3.09-.64-.56-1.76.37-1.8,1.39-.11,2.72,2.54,1.54,3.58,2.47h.01Zm138.16,13.46c1.95.12.34-2.03.74-3.14.32-.91,2.56-1.6.72-2.71-1.72-1.03-1.63,1.44-2.65,2.01-.82.46-.7,1.56-.92,2.4-.27,1.03.28,1.44,2.12,1.44h0Zm-210.53,102.83c1.33,2.3,7.19-3.31,5.37,4.3,1.22-2.45,2.28-4.09,2.06-6.36-2.4,1.47-5.15.95-7.43,2.06Zm-19.87-79.89c1.08-.37,2.15-.61,3.1-1.1.59-.3.17-.87-.17-1.23-.57-.6-5.27-.51-5.65.1-.41.66-.07,1.21.47,1.49.69.35,1.47.49,2.24.74h0Zm154.18,28.01c-.89.12-2.2-.17-1.94,1.17.31,1.62,1.95,1.73,3.27,2.02.95.21,1.65-.35,1.64-1.22-.02-2.06-1.85-1.56-2.97-1.97Zm-48.81-65.28c-2.41,1.27-4.67-.16-7.15-.74,1.41,3.78,3.22,3.94,7.15.74ZM50.1,272.34c.03-1.21-.84-1.07-1.64-1.03-1.31.05-2.39.34-2.29,2.01.07,1.02.43,1.76,1.59,1.7,1.65-.08,2.01-1.36,2.34-2.68h0Zm112.86-36.51c1.49-.02,2.29-.86,2.32-2.38.01-.75-.26-2.07-.99-1.7-1.2.6-2.74,1.3-3.04,2.84-.19.97.78,1.2,1.71,1.24Zm-21.78-63.89c-1.01.02-2.04-.07-2.08,1.23-.05,1.71,1.34,1.73,2.48,1.95,1.26.25,2.09-.56,2-1.59-.12-1.25-1.38-1.51-2.4-1.6h0Zm127.28,179.35c-.62-1.31-1.79-1.51-2.96-1.59-.79-.06-1.72.03-1.87,1.05-.15,1.03.16,2.01,1.14,2.57.65.38,1.53.36,1.98-.12,1.1-1.14-1.05-1.27-.89-2.16.94-.53,1.63.69,2.6.24h0Zm-36.18-165.02c.08-1.22.29-2.17-.78-2.63-.55-.24-.95.18-1.29.51-.92.89.05,1.36.49,1.92.37.49.5.98.47,1.63-.03.7-1.89,1.47-.25,1.95,1.22.36.78-1.27,1.1-1.98.23-.52.22-1.15.26-1.41h0Zm24.01,76.66c-.89.27-2.05-.38-2.25.53-.26,1.18.97,1.2,1.8,1.42.57.15,1.14.32,1.66.57.73.35,1.54.86,2-.16.43-.95-.41-1.4-1.14-1.7-.72-.3-1.48-.47-2.07-.66h0Zm-124.18,112.77c2.13-.13,3.92-.19,4.91-2.07.2-.39-.07-.86-.52-.87-1.95-.04-3.43.74-4.39,2.95h0Zm134.9-13.95c-1.02-2.94-2.84-3.34-5.7-2.57,1.96,1.12,3.36,2.31,5.7,2.57Zm21.04-79.22c1.79-.1,2.8-.24,2.8-1.39,0-1.23-1.17-1.59-2.09-1.75-1.35-.23-1.21.96-1.32,1.81-.15,1.15.55,1.33.61,1.33h0Zm-135.39-17.71c.49-1.12.76-1.94,1.2-2.67.38-.62,1.49-1.13.3-1.83-.77-.45-1.58.11-2.06.75-.89,1.19-.73,2.38.56,3.75Zm-94.95,43.7c.75-.03,1.67.26,1.7-1,.03-1.37-.93-1.65-1.96-1.68-.93-.03-1.77.22-1.69,1.49.08,1.38,1.11,1.1,1.95,1.19h0Zm18.57-189.39c.63.49,1.07.9,1.57,1.19.92.54,1.9.65,2.79-.04.27-.21.62-.76.53-.94-.58-1.11-1.73-.71-2.67-.83-.66-.08-1.37-.19-2.22.61h0Zm146.36,230.59c2.13-.95,1.95-3.18,3.43-4.06.35-.21.22-.73-.17-.98-.49-.31-1.01-.24-1.29.24-.78,1.35-1.6,2.69-1.97,4.81h0Zm-70.34-227.28c-.08-.59.04-1.53-1-1.32-1.34.27-1.38,1.48-1.46,2.57-.04.6.03,1.41.78,1.28,1.26-.22,1.55-1.34,1.68-2.53Zm72.52,231.65c2.39.65,3.63-.54,4.88-1.58.36-.3.18-.79-.25-.91-1.65-.48-2.36,1.16-3.58,1.66-.25.1-.44.34-1.04.83h-.01Zm64.32,16.19c-1.48-1.09-2.94-1.55-4.64-.96-.12.04-.24.58-.14.7,1.19,1.36,2.71.67,4.13.62.15,0,.3-.16.64-.36h.01Zm-.5-325.23c-2.91-.28-4.18.81-4.86,3.27,1.99-.5,3.01-1.85,4.86-3.27ZM106.52,331.4c-1.45.31-2.76.56-2.68,2.28.03.58.38,1.31,1.08,1.07,1.42-.47,1.8-1.63,1.59-3.35h0Zm179.41-233.05c1.02.03,2.09.14,2.25-1.28.08-.66-.19-1.4-.93-1.02-1.01.53-2.71-.32-3.06,1.17-.24,1.02,1.02.92,1.74,1.13Zm-194.56,29.06c1.23.57,1.97,2.31,3.55,1.38.22-.13.38-.85.24-1.03-1.1-1.37-2.5-.6-3.79-.35h0Zm30.4,38.13c1.2,1.17,2.24.92,3.15-.08.47-.52.3-1.2-.28-1.5-1.76-.92-1.97.87-2.87,1.58Zm-84.77,26.14c-2.89-.09-4.96.36-7.14,2.28,2.64-.46,4.73-.83,7.14-2.28Z"/>
    <path d="m21.23,372.51c-.34,1.02.03,1.88.95,2.22,1.25.47,1.82,1.02.57,1.99-.86.67-1.96,1.78-2.83-.08-.22-.46-.65-1.18-.96-.9-2.03,1.91-3.93-.83-6.1.08,1.23.77,2.61,1.54,1.53,3.23-.79,1.25-4.37,2.41-5.42,1.77-.8-.48-.52-1.19-.33-1.85.27-.95.77-1.89.81-2.84.05-1.28-.4-2.26-1.96-1.16-1.67,1.18-3.56,1.77-5.59,1.81-.61.01-1.5.4-1.71-.64-.16-.79-.16-1.56.69-2.09,1.06-.67,2.07-1.42,4.12-2.84-6.08.57-4.83-2.98-4.87-5.73-.04-2.79,0-5.57-.02-8.36-.02-1.96.66-2.83,2.38-1.35,1.72,1.48,2.55,1.16,2.97-.98.16-.82.93-1.06,1.6-1.13,1.21-.14.73.9.83,1.46.27,1.63,1.12,2.49,2.82,2.39l-.09-.08c.39,1.31-1.02,4.33,2.57,2.55,1.04-.52,1.06,1.19,1.95,1.48.74-4.57,6.54-2.35,7.98-6.09-2.62-1.12-5.25-2.25-7.89-3.38,1.9-.24,3-3.62,5.65-1.3.72.64,1.57-.53,2.19-1.13,1.8-1.75,3.64-3.51,6.23-3.86.61-.08,2.15-2.04,2.47.77.09.81,3.07.37,3.26-1.04.39-2.89,2.41-2.18,3.85-2.03,1.92.21,3.7,1.57,5.76.55.4-.2.77-.05.9.44.53,2.09,1.93,1.17,3.08.84,1.2-.35,2.38-1.21,3.6.26-3.96.56-6.89,2.74-9.47,5.8,2.45-1.47,5-1.44,7.62-.79.13-.22.26-.45.39-.67-.35-.14-.72-.25-1.06-.44-.63-.34-1.82-.38-1.33-1.51.35-.81,1.22-.37,1.87-.22,1.06.24,2.17.41,3.16.83,2.35,1.01,1.34,1.83,1.18,3.89-.2,2.52-2.16,2.5-2.95,3.86-.93,1.6-2.3,2.44-4.16,2.45-.65,0-1.24.08-1.17.93.06.78.68.82,1.29.92,1.73.29,3.46.64,5.49,1.02-1.05,1.37-2.42,1.92-3.5,1.36-1.75-.9-2.19.46-3.22,1.07.74,1.05,1.56.33,2.27.41,1.16.13,2.16-.09,2.24,1.84.05,1.07.56,3.8,3.22,2.25.37-.22.87-.11.99.31.09.29-.13.98-.28,1-3.17.46-6.08,2.73-9.49,1.49-.71-.26-1.52-.56-1.75-1.49.67-2.88-1.99-1.69-3.04-2.41-.7-.48-1.69-.1-1.75.86-.07,1.02.95,1.37,1.67,1.07,1.27-.54,2.25-.3,3.22.51-.96-.16-2.26.16-2.11.99.38,2.18-1.09,1.82-2.24,2.57-1.8,1.17-2.46.56-3.89-.4-1.74-1.18-3.75.53-5.75.4-1.44-.09-2.52.21-3.26-1.56-.77-1.81-2.41-.45-3.68-.39-1.1-2.18.13-3.78,1.33-5.39.66-.88.63-1.63-.46-2.16-1.08-.52-1.34.21-1.67,1-.19.47-.03,1.18-.9,1.42-.28-1.17-.55-2.31-.87-3.68-1.27,1.39-2.89.75-4.59.67.31.98,1.72,1.11,1.3,1.74-2.64,3.94.25,3.54,2.68,3.58.07,0,.13.31.21.5-.66,1.17-2.99-.41-2.95,1.53.05,2.26,2.21.9,3.27,1.52.33.2.75.24,1.13.35h.02Zm-10.8-9.37c-2.34-.42-4.46.19-6.54.83-2.12.65-1.98,2.62-1.86,4.26.07,1.02.98,2.4,2.01,2.14,1.85-.47,3.54-1.55,5.3-2.37-2.26-2.2,1.7-2.87,1.08-4.86h0Zm17.15,4.07c2.48,1.31,4.75.51,6.96.53.73,0,1.64-.12,1.67-.87.05-1.19-1.06-.98-1.77-.88-.91.13-1.52-.15-2.05-.84-1.04-1.37-1.92-.95-2.83.2-.47.6-1.12,1.06-1.99,1.86h.01Zm-6.14-6.39c1.58-1.53,3.79-1.98,5.72-2.97.7-.36.15-1.06-.18-1.53-.45-.65-1.02-.53-1.52-.08-1.27,1.15-2.67,2.07-4.28,2.66-.53.19-.74.63-.65,1.19.07.45.4.64.91.73h0Zm28.4-5.57c.02-1.11.53-2.32-.43-2.75-1.01-.46-2.32-.31-3.09,1.15,1.14.52,2.23,1.02,3.52,1.6h0Z"/>
    <path d="m.12,129.23c2.38,2.69,5.08,3.39,7.6,4.46,1.83.78,3.09,1.89,1.88,4.11-.71,1.28-.03,2.21.72,3.22,1.12,1.5.93,2.51-1.2,2.79-2.9.37-5.46-.53-8.03-1.67-1.14-.51-.95-1.37-.95-2.22-.02-3.27,0-6.55,0-10.68h-.02Z"/>
    <path d="m23.28,324.83c-2.32.67-4.65,1.3-6.96,2.02-4.44,1.39-8.84,2.9-13.32,4.19-.86.25-2.5,1.22-2.84-.79-.32-1.82,1.27-1.7,2.34-1.94,6.29-1.38,12.58-2.73,18.88-4.06.56-.12,1.15-.1,1.72-.14.06.24.11.49.17.73h0Z"/>
    <path d="m19.91,137.86c-2.31,5.38-2.89,11.13-3.75,16.8-.29-.02-.6,0-.61-.05-.6-3.13-1.87-4.1-4.42-1.48-.29.3-.99.45-1.32-.08-.28-.45-.14-1.09.27-1.35,1.94-1.22,2.09-4.08,4.77-4.76,1.37-.35,1.63-2.15,1.87-3.53.39-2.2,1.19-4.16,3.2-5.54h0Z"/>
    <path d="m91.49,359c-1.67,2.68-3.96,3.92-6.67,4.53-.57.13-7.14.06-7.73,0-.51-.05-1.04-.02-1.22-.6-.2-.67.2-1.18.7-1.5,1.93-1.22,4.16-1.39,5.93-.17,2.36,1.62,3.93,1.04,5.67-.8.76-.8,1.64-1.78,3.31-1.47h.01Z"/>
    <path d="m234.85,87.83c1.9.73,2.15,1.49,2.35,2.25.35,1.39.72,2.64,2.45,2.97,1.35.25.63,1.26.34,1.86-.35.7-.62.93-1.72.3-2.95-1.71-2.06-4.54-3.42-7.37h0Z"/>
    <path d="m205.83,63.61c.95.27,1.55,1.01,1.21,1.76-.6,1.31.28,3.55-1.98,3.82-.97.12-2.13-.58-1.82-1.82.37-1.51,1.03-3,2.6-3.76h0Z"/>
    <path d="m98.26,360.71c-.69-1.37-2.78,2.86-3-.48-.15-2.31,2.32-2.06,3.74-2.5,1.31-.41,1.11,1.01,1.17,1.8.09,1.26-.38,1.93-1.92,1.18h0Z"/>
    <path d="m12.56,129.91c.39,1.78-1.49,1.61-2.63,2.09-.65.28-1.29-.8-1.12-.92,1.09-.76.32-2.98,2.29-2.92.84.02,1.6.27,1.45,1.75h.01Z"/>
    <path d="m.31,127.26c.37-1.15-1.39-3.06,1.12-3.3.68-.07,1.86-.42,1.87.81.02,1.77-1.54,2.07-2.99,2.5h0Z"/>
    <path d="m10.71,357.52c.95-.84,1.87-1.73,2.88-2.51.52-.4.52-1.7,1.62-1.11.47.25,1.09.68.8,1.39-.37.89-.72,2.14-1.89,1.95-1.23-.2-2.31.45-3.49.22l.08.07h0Z"/>
    <path d="m16.1,123.82c-.18,1.14-.76,1.59-1.7,1.37-.98-.23-2.15-.72-2.06-1.76s1.42-.88,2.24-.92c.86-.04,1.48.49,1.52,1.31h0Z"/>
    <path d="m141.75,113.89c-1.38,0-2.52-.55-3.47-1.5-.97-.97-1.8-2.3-.87-3.43.88-1.08,1.89.3,2.8.72.81.37,1.57.86,2.38,1.23.76.35,1.48.66,1.22,1.71-.27,1.1-1.1,1.29-2.06,1.26h0Z"/>
    <path d="m144.68,105.98c1.76.81,3.36,1.8,4.28,3.5.5.93-.07,1.71-1.08,1.28-1.75-.74-2.92-2.29-4.02-3.78-.52-.69.17-.96.82-1.01h0Z"/>
    <path d="m132.51,121.31c.13.8.16,1.59-.68,1.42-1.11-.22-1.92-1.09-2.05-2.23-.1-.88.48-1.44,1.47-1.43,1.96,0,.77,1.67,1.26,2.24h0Z"/>
    <path d="m75.89,291.19c1.76,0,3.04-.3,4.11.05,4.46,1.48,8.16.13,11.67-2.58,2.52-1.95,5.17-3.71,8.99-3.11-.71,1.57-1.92,2.41-3.09,3.2-2.22,1.51-4.55,2.84-6.78,4.35-1.42.96-3.1,1.59-1.19,4.05,1.6,2.07-1.54,2.99-2.47,4.4-.66,1.01-1.69-.15-2.54-.98-2.49-2.42-5.42-4.38-7.36-7.34-.36-.55-.74-1.1-1.36-2.03h.02Z"/>
    <path d="m83.76,305.23c-1.89,9.47-1.67,9.84,6.13,11.28-1.92,1.25-5.99,1.31-7.08.11-1.62-1.78-1.28-7.94.95-11.4h0Z"/>
    <path d="m89.89,284.4c.32-.8-.6-2.68,1.58-2.52,1.45.1,1.97,1.32,1.89,2.54-.07,1.26-.44,2.72-2.14,2.59-1.29-.1-1.77-1.09-1.33-2.61h0Z"/>
    <path d="m95.61,294.74c1.94-3.05,4.47-3.74,9.1-2.64-3.37-.33-6,1.85-9.1,2.64Z"/>
    <path d="m96.49,318.11c-.55,1.71-2.33,3.31-5.36,4.78,1.77-2.01,2.98-3.67,5.36-4.78Z"/>
    <path d="m242.21,284.87c-.02,1.91-1.62,2.88-2.93,1.96-1.4-.98-2.63-1.54-3.62.39-.47.92-1.1,1.22-1.86.53-1.07-.98-2.87-1.56-3.02-3.06-.15-1.44,1.51-.64,2.22-1,1.83-.96,3.45-2.22,5.72-1.64,1.74.44,3.14,1.18,3.5,2.82h-.01Z"/>
    <path d="m233.69,277.34c-.15,1.88-.14,3.81-2.13,4.35-1.39.38-2.36-.88-3.06-1.98-.78-1.22,2.06-6.38,3.5-6.5.78-.07,1.03.43,1.15,1.06.2,1.07.38,2.15.54,3.06h0Z"/>
    <path d="m245.48,279.97c-1.88,1.06-3.59,1.61-5.12-.23-.5-.59-1-1.29-.47-2.13.46-.73,1.2-.98,2.03-1,.81-.01,1.9.05,1.71,1.07-.28,1.56,1.23,1.27,1.85,2.29Z"/>
    <path d="m272.58,317.09c3.15-.43,6.25-1.5,9.5-.45,1.21.39,2.17.21,2.44-1.27.1-.58.44-.96,1-.63.49.28.94.72,1.26,1.18.3.43.19.92-.27,1.3-1.83,1.55-10.53,2.24-12.94,1-.43-.22-.95-.35-1-1.14h0Z"/>
    <path d="m245.5,68.17c2.92,1.14,5.26,2.16,8.14,1.78-2.82,3.2-5.49,2.66-8.14-1.78Z"/>
    <path d="m179.04,272.78c2.02-2.03,4.36-2.42,7.71-2.18-2.95,1.49-5.4,1.75-7.71,2.18Z"/>
    <path d="m286.63,334.53c2.04-.25,3.87.38,5.61,1.33.57.31,1.36.71.92,1.58-.36.71-1.09.81-1.82.6-2.01-.59-3.32-2.1-4.64-3.59l-.08.08h.01Z"/>
    <path d="m290.91,237.57c1.03.66,2.84.63,3.48,2,.35.74-.94.89-1.5.74-1.27-.34-2.46-.98-2.91-2.36-.14-.44.27-.64.93-.38h0Z"/>
  </g>
  <g>
    <path class="cls-1" d="m26.63,29.9v29.3l-5.86,5.86V24.04l41.02.06v20.51l-32.23-.06v-5.86l26.37.06v-8.79l-29.3-.06Z"/>
    <path class="cls-1" d="m112.76,65.06h-8.5l-20.51-20.51h-10.25v-5.86h26.37v-8.79h-29.3v32.23l-5.86-5.86V24.04h41.02v20.51h-13.48s20.51,20.51,20.51,20.51Z"/>
    <path class="cls-1" d="m108.66,24.05h41.02v35.16h-41.02V24.05h0Zm5.86,5.86v23.44h29.3v-23.44s-29.3,0-29.3,0Z"/>
  </g>
  <g>
    <path class="cls-2" d="m5.64,31.46c0,.85.5,1.4,1.3,1.4h7.31c.77,0,1.3-.56,1.3-1.4v-2.2c0-.85-.56-1.4-1.4-1.4H4.97c-.77,0-1.12-.4-1.12-.97,0-.61.36-1.01,1.15-1.01h9.47c1.73,0,2.88,1.15,2.88,2.88v3.21c0,1.73-1.15,2.88-2.88,2.88h-7.74c-1.73,0-2.88-1.15-2.88-2.88v-3.21c0-.43.36-.72.9-.72s.9.29.9.72v2.7h0Z"/>
    <path class="cls-2" d="m16.19,35.83c.79,0,1.15.4,1.15,1.01s-.36.97-1.15.97H4.99c-.79,0-1.15-.4-1.15-1.01s.36-.97,1.15-.97h11.2Z"/>
    <path class="cls-2" d="m7.96,42.76c-.38.11-.56.22-.56.32s.18.23.56.32l8.23,2.09c.79.2,1.15.65,1.15,1.26s-.36.92-1.15.72l-11.2-2.85c-.79-.2-1.15-.65-1.15-1.26v-.58c0-.61.36-1.06,1.15-1.26l11.2-2.84c.79-.2,1.15.14,1.15.72,0,.61-.36,1.06-1.15,1.26l-8.23,2.09h0Z"/>
    <path class="cls-2" d="m16.19,48.36c.79,0,1.15.4,1.15,1.01s-.36.97-1.15.97H4.99c-.79,0-1.15-.4-1.15-1.01s.36-.97,1.15-.97h11.2Z"/>
    <path class="cls-2" d="m8.16,57.58c-.23.09-.34.18-.34.27s.14.16.43.16h7.94c.74,0,1.15.36,1.15,1.01,0,.58-.36.97-1.15.97H4.99c-1.08,0-1.15-.59-1.15-1.44s.16-1.33,1.15-1.71l8.03-3.01c.23-.09.34-.18.34-.27s-.14-.16-.43-.16h-7.94c-.79,0-1.15-.4-1.15-1.01s.36-.97,1.15-.97h11.2c.88,0,1.15.32,1.15,1.37,0,.97-.32,1.48-1.15,1.78l-8.03,3.01Z"/>
    <path class="cls-2" d="m6.79,69.76c-1.78,0-2.95-1.17-2.95-2.95v-2.95c0-1.73,1.15-2.88,2.88-2.88h7.74c1.73,0,2.88,1.15,2.88,2.88v4.65c0,.43-.36.9-.9.9s-.9-.47-.9-.9v-4.14c0-.85-.5-1.4-1.3-1.4h-7.31c-.77,0-1.3.56-1.3,1.4v1.96c0,.88.58,1.46,1.46,1.46h2.12c.88,0,1.46-.58,1.46-1.46v-1.39c0-.54.36-.9.92-.9s.88.34.88.88v1.89c0,1.78-1.17,2.95-2.95,2.95h-2.74,0Z"/>
    <path class="cls-2" d="m3.82,76.94c0-.54.36-.88.92-.88s.88.36.88.9v4.41c0,.49.32.81.83.81h3.48c.45,0,.76-.34.76-.81v-3.01c0-1.48.97-2.48,2.66-2.48h1.51c1.49,0,2.48.99,2.48,2.48v4.74c0,.54-.36.88-.92.88s-.88-.36-.88-.9v-4.41c0-.49-.32-.81-.83-.81h-1.51c-.43,0-.72.36-.72.81v3.01c0,1.48-.99,2.48-2.7,2.48h-3.48c-1.49,0-2.48-.99-2.48-2.48,0,0,0-4.74,0-4.74Z"/>
    <path class="cls-2" d="m3.84,87.85c0-1.73,1.15-2.88,2.88-2.88h7.74c1.73,0,2.88,1.15,2.88,2.88v3.75c0,.43-.36.9-.9.9s-.9-.47-.9-.9v-3.24c0-.85-.5-1.4-1.3-1.4h-7.31c-.77,0-1.3.56-1.3,1.4v3.24c0,.43-.36.9-.9.9s-.9-.47-.9-.9v-3.75h0Z"/>
    <path class="cls-2" d="m16.19,93.31c.79,0,1.15.4,1.15,1.01s-.36.97-1.15.97H4.99c-.79,0-1.15-.4-1.15-1.01s.36-.97,1.15-.97h11.2Zm0,7.27c.79,0,1.15.4,1.15,1.01s-.36.97-1.15.97H4.99c-.79,0-1.15-.4-1.15-1.01s.36-.97,1.15-.97h11.2Zm-5.51-4.21c0-.54.38-.9.92-.9s.88.36.88.9v3.13c0,.54-.36.9-.92.9s-.88-.36-.88-.9v-3.13Z"/>
    <path class="cls-2" d="m3.84,106.79c0-2.21.92-3.24,2.88-3.24h7.74c1.73,0,2.88,1.15,2.88,2.88v3.38c0,1.73-1.15,2.88-2.88,2.88h-7.74c-1.73,0-2.88-1.15-2.88-2.88v-3.02Zm1.8,2.52c0,.85.5,1.4,1.3,1.4h7.31c.77,0,1.3-.56,1.3-1.4v-2.38c0-.85-.56-1.4-1.4-1.4h-7.17c-.79,0-1.33.54-1.33,1.33v2.45h-.01Z"/>
    <path class="cls-2" d="m3.84,116.83c0-2.21.92-3.24,2.88-3.24h7.74c1.73,0,2.88,1.15,2.88,2.88v3.38c0,1.73-1.15,2.88-2.88,2.88h-7.74c-1.73,0-2.88-1.15-2.88-2.88v-3.02Zm1.8,2.52c0,.85.5,1.4,1.3,1.4h7.31c.77,0,1.3-.56,1.3-1.4v-2.38c0-.85-.56-1.4-1.4-1.4h-7.17c-.79,0-1.33.54-1.33,1.33v2.45h-.01Z"/>
    <path class="cls-2" d="m17.34,124.73c0,.58-.36.97-1.15.97H6.63c-.59,0-.99.4-.99.99v4.63c0,.54-.36.9-.92.9s-.88-.36-.88-.9v-5.73c0-1.35.49-1.87,1.76-1.87h10.59c.79,0,1.15.4,1.15,1.01h0Z"/>
  </g>
</svg>