<?xml version="1.0" encoding="utf-8"?>
<!-- Generator: Adobe Illustrator 27.5.0, SVG Export Plug-In . SVG Version: 6.00 Build 0)  -->
<svg version="1.0" id="Layer_1" xmlns="http://www.w3.org/2000/svg" xmlns:xlink="http://www.w3.org/1999/xlink" x="0px" y="0px"
	 viewBox="0 0 447 552" style="enable-background:new 0 0 447 552;" xml:space="preserve">
<style type="text/css">
	.st0{fill:#EC185E;}
</style>
<g>
	<path class="st0" d="M10.15,125.09c0.63-2.11,1.54-4.18,1.83-6.33c2.64-19.49,9.84-37.21,20.89-53.34
		c16.03-23.4,37.34-39.97,64.54-48.59c13.18-4.18,26.75-6.25,40.54-5.55c24.68,1.24,47.16,9.24,67.04,23.91
		c6.58,4.86,12.29,10.89,18.68,16.64c0.35-0.26,1.25-0.68,1.81-1.37c7.16-8.9,16.17-15.64,25.8-21.49
		c12.35-7.5,25.52-13.26,39.97-15.23c8.68-1.18,17.49-2.66,26.18-2.37c24.67,0.84,47.27,8.49,67.16,23.3
		c17.3,12.88,30.51,29.18,39.7,48.74c5.79,12.33,9.89,25.24,11.19,38.76c1.03,10.71,1.79,21.65,0.71,32.29
		c-1.39,13.77-4.73,27.35-7.23,40.99c-2.34,0.11-3.56,0.22-4.79,0.22c-23.32,0.01-46.64-0.02-69.96,0.04
		c-2.72,0.01-4.2-0.23-5.08-3.63c-6.64-25.72-13.64-51.34-20.56-76.98c-1.71-6.32-3.54-12.6-5.46-19.38
		c-6.99,0-14.18-0.13-21.36,0.15c-0.98,0.04-2.38,2.01-2.74,3.32c-3.71,13.25-7.25,26.54-10.83,39.82
		c-5.08,18.79-10.16,37.58-15.32,56.66c-12.46,0-24.79,0-37.12,0c-10.71,0-18.24,6.24-20.92,16.7c-4.42,17.29-9.13,34.5-13.74,51.74
		c-0.38,1.4-0.97,2.75-1.8,5.08c-15.68-58.31-31.12-115.73-46.6-173.29c-7.8,0-15.4,0-23.46,0c-2.82,10.45-5.68,20.93-8.49,31.44
		c-5.88,21.98-11.68,43.97-17.7,65.91c-0.29,1.05-2.33,2.31-3.55,2.32c-26.65,0.13-53.3,0.1-80.83,0.1
		c-1.91-8.08-3.97-16.21-5.7-24.42c-0.9-4.27-1.16-8.67-1.79-13c-0.08-0.54-0.66-1.01-1-1.51C10.15,146.2,10.15,135.64,10.15,125.09
		z"/>
	<path class="st0" d="M418.87,220.8c-6.87,11.48-13.13,23.38-20.78,34.31c-8.63,12.33-18.32,23.94-27.92,35.57
		c-5.88,7.12-12.09,14.03-18.77,20.4c-9.16,8.73-18.87,16.89-28.39,25.24c-17.44,15.31-36.14,28.98-55.69,41.42
		c-13.61,8.66-27.63,16.69-41.56,24.84c-1.19,0.69-3.47,0.69-4.66,0.01c-12.22-7.02-24.57-13.85-36.38-21.51
		c-13.88-9-27.56-18.39-40.78-28.33c-10.97-8.24-21.22-17.44-31.66-26.37c-5.87-5.01-11.79-10.02-17.13-15.56
		c-8.23-8.52-16.41-17.16-23.85-26.37c-9.54-11.82-18.71-23.98-27.29-36.51c-5.92-8.64-10.57-18.16-16.29-28.18
		c2.51-0.13,3.92-0.28,5.34-0.28c24.85-0.01,49.7-0.01,74.55-0.01c6.53,0,15.28-7.08,16.94-13.33
		c5.28-19.87,10.68-39.72,16.37-60.86c15.79,58.68,31.26,116.19,46.86,174.15c7.09,0,14.28,0.09,21.46-0.12
		c0.92-0.03,2.32-1.49,2.61-2.53c5.96-21.82,11.77-43.67,17.64-65.52c2.82-10.51,5.69-21.01,8.61-31.79c13.34,0,26.51,0,39.67,0
		c6.67,0,15.84-7.21,17.5-13.58c5.01-19.25,10.08-38.48,15.16-57.71c0.13-0.48,0.67-0.85,1.35-1.68
		c3.01,11.03,5.97,21.72,8.85,32.42c2.62,9.74,5.06,19.52,7.85,29.21c0.51,1.75,2.15,3.32,3.57,4.65c4.8,4.51,9.97,7.09,17.19,6.9
		c21.36-0.58,42.76-0.21,64.14-0.21c1.48,0,2.97,0,4.45,0C418.18,219.91,418.52,220.36,418.87,220.8z"/>
</g>
<g>
	<path class="st0" d="M129.54,482.51c2.24,0.52,4.13,1.38,5.68,2.58c1.55,1.21,2.78,2.58,3.68,4.13c0.9,1.55,1.55,3.14,1.94,4.78
		c0.39,1.64,0.58,3.18,0.58,4.65c0,2.84-0.52,5.64-1.55,8.39c-1.03,2.76-2.78,5.21-5.23,7.36c-2.45,2.15-5.68,3.9-9.68,5.23
		c-4,1.33-8.97,2-14.91,2h-35.5v-75.52h32.02c5.94,0,10.91,0.67,14.91,2c4,1.33,7.23,3.1,9.68,5.29c2.45,2.2,4.2,4.67,5.23,7.42
		c1.03,2.75,1.55,5.55,1.55,8.39c0,1.12-0.13,2.32-0.39,3.61s-0.71,2.56-1.36,3.81c-0.65,1.25-1.51,2.39-2.58,3.42
		C132.53,481.09,131.17,481.91,129.54,482.51z M96.88,476.96h9.29c2.84,0,5.12-0.65,6.84-1.94c1.72-1.29,2.58-3.1,2.58-5.42
		c0-2.24-0.86-4.09-2.58-5.55c-1.72-1.46-4-2.19-6.84-2.19h-9.29V476.96z M109.66,505.62c2.84,0,5.12-0.59,6.84-1.79
		c1.72-1.19,2.58-2.9,2.58-5.12c0-2.3-0.86-3.99-2.58-5.05c-1.72-1.07-4-1.6-6.84-1.6H96.88v13.55H109.66z"/>
	<path class="st0" d="M151.35,446.11h22.33v57.96h35.24v17.56h-57.58V446.11z"/>
	<path class="st0" d="M287.68,497.88c0,3.61-0.6,6.95-1.81,10c-1.21,3.06-3.16,5.72-5.87,8c-2.71,2.28-6.26,4.05-10.65,5.29
		c-4.39,1.25-9.77,1.87-16.14,1.87c-4.65,0-9.08-0.41-13.3-1.23c-4.22-0.82-7.98-2.19-11.3-4.13c-3.31-1.94-6.05-4.45-8.2-7.55
		c-2.15-3.1-3.44-6.88-3.87-11.36h24.92c0,1.81,0.34,3.21,1.03,4.2c0.69,0.99,1.63,1.74,2.84,2.26c1.2,0.52,2.58,0.84,4.13,0.97
		s3.14,0.19,4.78,0.19c4.56,0,7.55-0.52,8.97-1.55c1.42-1.03,2.13-2.32,2.13-3.87c0-1.81-1.21-3.18-3.62-4.13
		c-2.41-0.95-5.44-1.83-9.1-2.65c-3.66-0.82-7.6-1.7-11.81-2.65c-4.22-0.95-8.16-2.26-11.81-3.94c-3.66-1.68-6.69-3.94-9.1-6.78
		c-2.41-2.84-3.61-6.5-3.61-10.97c0-3.61,0.58-6.97,1.74-10.07c1.16-3.1,3.08-5.76,5.75-8c2.67-2.24,6.17-3.98,10.52-5.23
		c4.34-1.25,9.7-1.87,16.07-1.87c4.65,0,9.08,0.45,13.3,1.36c4.22,0.9,7.94,2.3,11.17,4.2c3.23,1.89,5.81,4.32,7.75,7.29
		c1.94,2.97,2.91,6.48,2.91,10.52h-25.3c0-2.5-0.9-4.24-2.71-5.23c-1.81-0.99-4.56-1.48-8.26-1.48c-2.41,0-4.33,0.17-5.75,0.52
		c-1.42,0.34-2.5,0.75-3.23,1.23c-0.73,0.47-1.18,0.99-1.36,1.55c-0.17,0.56-0.26,1.05-0.26,1.48c0,1.29,0.71,2.48,2.13,3.55
		c1.42,1.08,3.29,2.02,5.62,2.84c2.32,0.82,4.92,1.57,7.81,2.26c2.88,0.69,5.79,1.34,8.71,1.94c3.87,0.77,7.34,1.72,10.39,2.84
		c3.05,1.12,5.64,2.52,7.75,4.2c2.11,1.68,3.74,3.66,4.91,5.94C287.09,491.96,287.68,494.69,287.68,497.88z"/>
	<path class="st0" d="M299.55,446.11h30.21c7.23,0,13.3,1.16,18.2,3.49c4.91,2.32,8.88,5.31,11.94,8.97
		c3.05,3.66,5.23,7.7,6.52,12.13c1.29,4.43,1.94,8.8,1.94,13.1c0,3.96-0.65,8.16-1.94,12.59c-1.29,4.43-3.46,8.52-6.52,12.26
		c-3.06,3.74-7.04,6.84-11.94,9.29c-4.91,2.45-10.97,3.68-18.2,3.68h-30.21V446.11z M321.89,463.67v40.41h8.91
		c5.08,0,8.89-1.83,11.42-5.49c2.54-3.66,3.81-8.58,3.81-14.78c0-13.43-5.08-20.14-15.23-20.14H321.89z"/>
</g>
<g>
</g>
<g>
</g>
<g>
</g>
<g>
</g>
<g>
</g>
<g>
</g>
<g>
</g>
<g>
</g>
<g>
</g>
<g>
</g>
<g>
</g>
</svg>
