<?xml version="1.0" encoding="utf-8"?>
<!-- Generator: Adobe Illustrator 27.5.0, SVG Export Plug-In . SVG Version: 6.00 Build 0)  -->
<svg version="1.1" id="Layer_1" xmlns="http://www.w3.org/2000/svg" xmlns:xlink="http://www.w3.org/1999/xlink" x="0px" y="0px"
	 viewBox="0 0 196.6 216.9" style="enable-background:new 0 0 196.6 216.9;" xml:space="preserve">
<style type="text/css">
	.st0{fill:#33CCFF;}
</style>
<g>
	<path class="st0" d="M48.8,47.4c2.3,1,4.2,2.4,5.8,4.2c3.2,3.4,5,7.5,6.5,11.8c0.6,1.6,1.5,2.2,3.1,2.3c2.3,0.1,4.6,0.4,6.8,0.7
		c4.4,0.5,8.1,2.5,11.5,5.5c-2.1,0.7-3.9,1.3-5.8,2c-10.6,3.8-19,10.6-26,19.4c-1.3,1.6-1.2,2.6,0.3,4.4c8.2,9.8,19.1,12.4,31.2,7.5
		c1.2-0.5,2.3-1,3.5-1.6c-0.8-1.7-1.6-3.2-2.2-4.7c-4.3-11.3-3.1-21.8,5.1-31.1c1.9-2.1,4.2-3.7,6.9-4.7c1.5-0.5,2.7-0.4,3.7,0.9
		c1,1.4,0.5,2.6-0.4,3.8c-1.1,1.5-2.2,3.1-3.3,4.7c-0.3,0.4-0.4,0.8-0.6,1.3c2.3,0.7,4.4,1.4,6.7,2.1c-0.9,1.8-1.2,3.5-3.2,3.7
		c-1.2,0.1-2.2-0.2-3-1.6c1-0.5,1.9-0.9,2.7-1.3c-2.8-1.5-4.7-0.5-4.8,2.6c-0.1,4,0.9,7.6,3.8,10.5c3.5,3.4,8.7,3.1,11.8-0.7
		c2.7-3.3,3.2-7.2,2.9-11.3c0-0.4-0.6-1-0.9-1.1c-0.9-0.2-1.8-0.1-2.7-0.2c0,0.1,0,0.3-0.1,0.4c0.5,0.2,1.1,0.2,1.6,0.5
		c0.4,0.3,0.8,0.8,0.8,1.2c0,0.4-0.6,0.9-1,1c-1.3,0.3-2.6,0.5-3.9,0.6c-0.4,0-1.1-0.4-1.2-0.8c-0.4-1.5-0.1-2.8,1.3-3.6
		c0.8-0.4,1.6-0.7,2.5-0.9c2.4-0.4,2.7-1.1,1.3-3.1c-1-1.4-2-2.8-3.1-4.1c-1.1-1.2-1-2.4-0.1-3.6c0.9-1.2,2.5-1.6,3.9-0.8
		c6.9,3.8,11.7,9.2,13.2,17.2c1.3,7.2,0.6,14.1-2.4,20.8c-1,2.2-0.9,2.4,1.2,3.5c11.3,5.9,23.8,3.7,32.9-7c1.3-1.5,1.2-2.3-0.2-4.3
		c-6.2-8.6-14.4-14.7-24.1-18.8c-1.4-0.6-2.8-1-4.2-1.6c-0.8-0.3-1.5-0.9-2.4-1.4c0.6-0.6,1-1.1,1.4-1.3c4.2-2.5,8.5-4.4,13.5-4.3
		c6.1,0.1,5.1-0.3,6.8-4.8c1.9-5.3,4.8-9.8,9.6-12.9c0.5-0.3,1-0.5,1.8-1c0.2,4.4,0.5,8.4,0.5,12.4c0.1,8.9,0.6,17.6,3.5,26.1
		c0.5,1.5,1.3,2.7,2.7,3.6c2.6,1.7,4.5,4,5.1,7.2c0.1,0.6,0.1,1.2,0.1,1.7c0.2,1.7,0.2,3.5,0.8,5.1c2.2,6.2,4.8,12.3,7,18.5
		c1.6,4.5,2.2,9.3,2.2,14.1c-0.1,4.6-0.1,9.3-0.2,13.9c-0.1,8.1-3.6,15-8,21.5c-6.3,9.4-15.2,15.9-25.1,20.9
		c-6.2,3.2-12.9,5.5-19.4,8.2c-6.4,2.6-12.5,5.8-18,10.2c-2.3,1.8-4.2,4-6.3,6.2c0.2,0.1,0.1,0.1,0,0c-3.6-6-9.2-9.5-15.3-12.2
		c-8.2-3.7-16.6-6.9-24.7-10.8c-11.7-5.7-21.9-13.4-29.1-24.4c-4.2-6.4-6.4-13.5-7.2-21.1c-1.5-14.1,1.9-27.3,7.4-40.2
		c0.6-1.4,1.2-2.9,1.9-4.2c1.1-2.1,1.2-4.2,1.1-6.5c-0.2-2.6,1.1-5,3.1-6.3c4.8-3.1,5.8-7.9,6.9-12.9c1.3-5.9,1.7-11.8,1.7-17.8
		c0-3.9,0.2-7.8,0.4-11.6C48.5,48.4,48.7,47.9,48.8,47.4z M125,181.4c0.5,0.3,1.4,0,2.1,0c-2.9-2.4-5.8-4.3-8.5-6.6
		c-3.4-2.9-5.9-6.4-6.5-8.5c2.5,1.7,4.7,3.3,7.1,4.8c2,1.3,4.1,2.6,6.3,3.7c0.6,0.3,1.4,0.1,2.1,0.2c0.1-0.2,0.1-0.4,0.2-0.6
		c-0.7-0.5-1.3-1-2-1.4c-3.2-1.8-6.5-3.6-9.7-5.4c-0.7-0.4-1.2-0.9-1.9-1.4c0.1-0.1,0.1-0.3,0.2-0.4c2.6,1,5.3,2,7.9,3
		c0-0.1,0.1-0.2,0.1-0.3c-2.4-1.4-4.9-2.7-7.3-4.1c0.1-0.1,0.1-0.2,0.2-0.4c3.1,0.6,6.2,1.2,9.3,1.8c0-0.2,0.1-0.4,0.1-0.6
		c-3.1-1-6.3-2.1-9.4-3.1c0-0.1,0.1-0.3,0.1-0.4c3.1,0,6.2,0,9.2,0c-2.3-1.6-4.7-3-7.1-4.4c-8.8-5.1-9.4-18.2-2.8-24.5
		c3.8-3.6,7.9-6.7,12.5-9c10-5.1,18.7-11.8,26.4-19.9c1.1-1.1,2.7-1.8,4-2.8c0.5-0.4,1-0.9,1.2-1.5c0.1-0.3-0.4-1.3-0.6-1.3
		c-0.6-0.1-1.3,0.1-1.8,0.5c-2.4,1.8-4.7,3.7-7.1,5.5c-3.3,2.4-6.7,4.6-10.7,5.5c-5,1.1-10,0.4-14.8-1.5c-1.3-0.5-2.5-1.1-3.8-1.7
		c-1-0.5-1.8-0.3-2.4,0.8c-3.9,7.3-6.9,14.9-7.9,23.1c-0.7,6.2-0.9,12.5-1.3,18.8c-0.2,2.7-0.3,5.4-0.6,8.1c0,0.5-0.6,0.9-1,1.4
		c-0.5-0.4-0.9-0.8-1.4-1.2c-0.1-0.1-0.1-0.4-0.1-0.6c-0.2-2.4-0.6-4.8-0.7-7.1c-0.4-15.5,0.4-31,3.9-46.2c0.5-2.2,0.4-4.5,0.2-6.8
		c-0.2-1.9-1.6-2.8-3.5-2.8c-1.5-0.1-3,0-4.5,0c-2.8,0-4.9,2.5-4.4,5.2c0.2,1.2,0.5,2.3,0.7,3.4c1,6.2,2.5,12.4,2.9,18.6
		c0.6,9.4,0.6,18.9,0.7,28.4c0,2.5-0.4,5.1-0.8,7.6c-0.1,0.5-0.9,0.9-1.4,1.3c-0.3-0.4-0.7-0.8-0.9-1.3c-0.2-0.5-0.2-1-0.2-1.6
		c-0.3-6.2-0.8-12.4-0.9-18.7c-0.1-10.2-3-19.6-7.5-28.6c-0.5-0.9-1.1-1.8-1.6-2.6c-2.9,1.2-5.6,2.4-8.3,3.3
		c-6.2,1.9-12.4,1.9-18.1-1.9c-2.6-1.8-5.2-3.5-7.7-5.4c-1.4-1-2.7-2.1-4-3.2c-0.9-0.7-1.6-0.4-2.2,0.6c-0.6,1,0,1.4,0.8,1.8
		c2,1.3,4.3,2.5,6,4.2c7.9,8,16.8,14.5,26.7,19.8c3.1,1.7,6,3.8,8.7,6.1c7.6,6.4,8.4,16.2,2,23.5c-2.3,2.6-5.2,4.2-8.2,5.7
		c-0.8,0.4-1.5,0.8-2.3,1.2c0,0.1,0.1,0.2,0.1,0.3c2.7,0,5.3,0,8,0c0,0.2,0.1,0.4,0.1,0.6c-2.9,1-5.8,1.9-8.7,2.9
		c0,0.1,0.1,0.3,0.1,0.4c3.2-0.6,6.5-1.1,9.7-1.7c0,0.1,0.1,0.3,0.1,0.4c-2.8,1.5-5.6,3-8.4,4.5c0.1,0.1,0.1,0.2,0.2,0.3
		c2.8-1,5.7-2,8.5-2.9c-0.1,0.6-0.4,1-0.8,1.2c-2.7,1.5-5.3,3.1-8,4.6c-0.8,0.5-1.8,0.7-2.6,1.2c-0.5,0.3-0.8,1-1.1,1.5
		c0.6,0,1.4,0.3,1.8,0c2.7-1.5,5.3-3.1,7.9-4.7c1.8-1.1,3.5-2.3,5.2-3.5c-1.4,3.3-3.5,6-6.2,8.2c-2.7,2.2-5.6,4.1-8.6,6.2
		c1.7,0.6,2.8,0.6,4.2-0.7c2.9-2.6,5.7-5.3,8.4-8c0.8-0.8,1.4-1.7,2.1-2.5c0.2,0.1,0.4,0.3,0.5,0.4c-0.8,2.1-1.5,4.2-2.3,6.2
		c0.1,0.1,0.2,0.1,0.3,0.2c1.7-1.4,3.3-2.8,5.2-4.3c-0.1,3.2-1.7,6-0.6,9.4c2.5-3.3,3.1-6.7,4.1-10.1c0.3,2,0.7,3.9,0.5,5.8
		c-0.4,3.3-1.2,6.5-1.8,9.7c-0.2,1.2-0.3,2.3,1.1,2.5c1.4,0.2,1.5-1.1,1.6-2.1c0.2-1.8,0.2-3.6,0.4-5.4c0.1-1.1,0.4-2.3,0.6-3.4
		c0.2,0,0.3,0,0.5,0.1c0.1,0.9,0.2,1.9,0.3,2.8c0.2,2.2,0.3,4.4,0.7,6.5c0.1,0.5,1.1,0.9,1.6,1.4c0.3-0.6,0.7-1.1,0.9-1.7
		c0.1-0.4-0.1-0.9-0.2-1.4c-0.3-1.4-0.7-2.8-0.9-4.2c-0.4-3.2-0.6-6.5-0.1-9.7c0.9,2.4,1.6,4.7,2.4,7.1c0.2,0.7,0.8,1.2,1.2,1.8
		c0.2-0.1,0.3-0.1,0.5-0.2c0.9-3.2,0.1-6.2-1.1-9.3c1.7,1.5,3.5,2.9,5.2,4.4c0.1-0.1,0.2-0.2,0.3-0.3c-0.6-1.8-1.2-3.7-1.8-5.5
		c0.8,0.2,1.3,0.7,1.8,1.1c2,2.1,4,4.3,6.1,6.3 M163,116.9c0-2,0.2-4-0.1-5.9c-0.3-2-0.9-4-1.6-6c-0.4-1.3-1.5-1.7-2.8-1.4
		c-1.8,0.3-3,1.5-4.2,2.7c-3.4,3.4-6.6,7.2-10.4,10.1c-5.9,4.6-12.2,8.6-18.3,12.8c-3.6,2.4-6.5,5.4-8.8,9.1
		c-2.7,4.4-1.9,13.2,4.5,16.5c4,2.1,8.1,2.3,12.5,1.7c10.5-1.4,18.2-6.6,23.3-15.9C161.2,133.3,162.6,125.2,163,116.9z M42.7,114.6
		c0.2,7.5,1.2,14.2,3.4,20.5c5.2,15.1,18.3,23.2,33.5,21.3c7.4-0.9,12.3-8.6,10-15.7c-1.3-3.9-3.5-7.4-7-9.7c-1.5-1-3-2-4.5-3.1
		c-6.6-4.8-13.4-9.5-19.8-14.5c-2.9-2.3-5.3-5.3-7.8-8.1c-2.4-2.8-5.2-2.5-6.6,0.9c-0.3,0.6-0.5,1.3-0.6,2
		C43,110.4,42.9,112.5,42.7,114.6z M74.8,72.2c-0.1-0.2-0.2-0.4-0.2-0.5c-7.7,1.6-14.5,5.1-20.5,10.3c0.1,0.2,0.2,0.3,0.2,0.5
		C61.2,79,68,75.6,74.8,72.2z M157.3,78.6c-0.6-7.8-1.2-15.3-1.8-23C153.2,58.9,154.4,74.4,157.3,78.6z M51.6,56.2
		c-0.2,0-0.4,0-0.6-0.1c-0.8,7.4-1.6,14.7-2.4,22.1c0.2,0,0.4,0,0.6,0.1C52,71.2,52.6,63.8,51.6,56.2z M150.5,82
		c0.1-0.2,0.2-0.4,0.3-0.6c-5.5-5-12-7.8-19.1-9.6c-0.1,0.2-0.2,0.4-0.3,0.6C137.8,75.6,144.1,78.8,150.5,82z M151.6,74
		c-0.2,0.1-0.4,0.2-0.6,0.3c0.8,3.3,2.3,6.2,4.6,8.7c0.2-0.1,0.3-0.2,0.5-0.3C154.7,79.8,153.2,76.9,151.6,74z M50.4,81.9
		c0.2,0.1,0.3,0.2,0.5,0.3c2-2.3,3.4-4.8,3.9-7.8c-0.2-0.1-0.4-0.2-0.5-0.3C52.9,76.7,51.7,79.3,50.4,81.9z"/>
	<path class="st0" d="M73.1,15.8c-0.2,1.7-0.4,3.3-0.6,5c-0.4,3.9-0.9,7.7-1.2,11.6c-0.3,3.6,0.1,4,3.7,4.9c0.5,0.1,0.9,0.3,1.3,0.7
		c-4.7,0-9.4,0-14.1,0c0-0.1-0.1-0.2-0.1-0.2c0.4-0.1,0.9-0.3,1.3-0.4c2.6-0.5,4.2-2,4.7-4.6c1.1-6.7,2.1-13.3,3.1-20
		c0.3-1.7-1.3-3.6-3.4-4.3c-0.7-0.2-1.4-0.4-2-0.9c4.8,0,9.5,0,14.6,0c-1.3,0.6-2.3,1-3.3,1.5c-0.9,0.4-1,1-0.6,1.8
		c2.9,6,5.8,12.1,8.8,18.1c0.1,0.2,0.3,0.4,0.6,0.8c3.6-6.4,7-12.6,10.5-18.8c0.4-0.8,0.3-1.3-0.5-1.7c-1.1-0.5-2.3-1-3.7-1.7
		c5,0,9.6,0,14.3,0c0,0.1,0.1,0.2,0.1,0.3c-0.8,0.2-1.5,0.4-2.3,0.7c-1.4,0.4-2.4,1.3-2.3,2.9c0.6,7.2,1.2,14.4,1.9,21.6
		c0.2,2.2,1.3,3.7,3.5,4.2c2.2,0.5,4.2,0,5.6-1.8c0.9-1.2,1.7-2.6,2.3-4c2.9-6.8,5.7-13.6,8.6-20.4c0.5-1.1,0.1-1.8-0.9-2.1
		c-1.2-0.4-2.4-0.7-3.5-1.3c4.7,0,9.5,0,14.2,0c0,0.1,0,0.2,0.1,0.3c-0.8,0.3-1.6,0.6-2.4,0.9c-0.9,0.3-1.2,0.9-0.8,1.9
		c3.1,7.5,6.1,15.1,9.2,22.6c0.9,2.2,2.7,3.7,5.1,4.2c0.5,0.1,0.9,0.2,1.3,0.7c-5.6,0-11.1,0-16.7,0c0-0.1-0.1-0.2-0.1-0.3
		c0.7-0.2,1.3-0.3,2-0.5c2.6-0.5,3.3-1.7,2.5-4.2c-0.7-2.1-1.5-4.1-2.1-6.2c-0.3-0.8-0.7-1.2-1.6-1.2c-2.9,0-5.7,0-8.6,0
		c-1,0-1.6,0.3-1.9,1.3c-0.6,2-1.4,4-2,6c-0.8,2.6-0.1,3.7,2.6,4.3c0.4,0.1,0.8,0.2,1.1,0.6c-9.6,0-19.3,0-28.9,0
		c0-0.1,0-0.2-0.1-0.3c0.7-0.1,1.4-0.3,2-0.4c2.6-0.5,3.8-1.6,3.6-4.2c-0.2-5.9-0.7-11.8-1-17.7c0-0.1-0.1-0.2-0.5-0.6
		c-4.3,7.8-8.4,15.5-12.6,23.2c-3.4-7.4-6.9-14.8-10.5-22.3C73.4,15.8,73.2,15.8,73.1,15.8z M130.5,23.4c-1.6-3.9-3.1-7.5-4.7-11.5
		c-1.7,4-3.1,7.7-4.7,11.5C124.3,23.4,127.3,23.4,130.5,23.4z"/>
	<path class="st0" d="M60.7,7.7c-0.3,2.5-0.5,5.3-0.8,8c-0.2,0-0.3,0-0.5,0.1c-0.2-0.7-0.2-1.4-0.5-2c-0.7-1.2-1.2-2.8-2.3-3.4
		c-5.8-3.3-13.9-2.4-18,3.2c-3.4,4.6-3.3,12.2,0.3,17.5c3.2,4.7,9.2,7,14.9,5.6c2.6-0.7,4.5-2.3,5.8-4.6c0.4-0.7,0.7-1.3,1.1-2
		c0.1,0,0.3,0.1,0.4,0.1c0,0.3,0,0.7-0.1,1c-0.4,1.3-0.8,2.5-1.2,3.8c-0.7,2.1-1.4,3.9-4.5,3.5c-2.6-0.4-5.4,0.5-8.1,0.4
		c-4.7-0.1-8.9-1.8-12.6-4.8c-7.2-6-6.4-17.7,1.6-23.4C41.3,6.9,47.2,6.3,53.3,7c1.2,0.1,2.3,0.5,3.5,0.6C58,7.8,59.2,7.7,60.7,7.7z
		"/>
	<path class="st0" d="M148.6,37.2c-0.2,0.2-0.6,0.6-1.3,1.4c-0.3-3.4-0.5-6.3-0.7-9.2c0.2,0,0.3-0.1,0.5-0.1
		c0.3,0.7,0.6,1.4,0.8,2.1c1.7,5.7,9.6,6.9,13.5,4.3c2.9-1.9,3.3-6.2,0.5-8.3c-1.7-1.3-3.7-2.2-5.6-3.3c-1.7-0.9-3.5-1.7-5-2.8
		c-4.6-3.4-4.2-10.1,0.9-12.9c3.6-2,7.5-1.7,11.3-1c1.1,0.2,2.3,0.1,3.8,0.2c0,2,0,4.5,0,7.4c-0.2-0.5-0.4-0.7-0.4-0.9
		c-1.5-4.4-5.2-6.4-9.8-5.3c-2,0.5-3.4,1.6-3.9,3.6c-0.5,2,0.3,3.7,1.9,4.7c1.9,1.3,4,2.3,6.1,3.5c1.3,0.7,2.6,1.2,3.8,2
		c5.2,3.2,5.5,9.8,0.7,13.5c-3.2,2.5-7,2.9-10.9,2.5C152.7,38.4,150.8,37.7,148.6,37.2z"/>
</g>
</svg>
