<?xml version="1.0" encoding="utf-8"?>
<!-- Generator: Adobe Illustrator 27.5.0, SVG Export Plug-In . SVG Version: 6.00 Build 0)  -->
<svg version="1.1" id="Layer_1" xmlns="http://www.w3.org/2000/svg" xmlns:xlink="http://www.w3.org/1999/xlink" x="0px" y="0px"
	 viewBox="0 0 144.17 66.38" style="enable-background:new 0 0 144.17 66.38;" xml:space="preserve">
<style type="text/css">
	.st0{fill:#00007F;}
</style>
<g>
	<path class="st0" d="M1.06,36.57c0.07-0.65,0.13-1.29,0.21-1.94c0.41-3.44,1.45-6.7,2.88-9.85c0.3-0.67,0.6-1.35,0.88-2.03
		c0.15-0.36,0.17-0.72,0.02-1.11c-0.09-0.23-0.07-0.54,0-0.79c0.28-1.03,0.86-1.89,1.75-2.49c0.74-0.49,1.15-1.14,1.39-1.96
		c0.85-2.83,1.19-5.73,1.23-8.68C9.44,6.2,9.48,4.7,9.51,3.2c0-0.16,0.03-0.31,0.05-0.54c0.24,0.11,0.45,0.18,0.63,0.28
		c1.01,0.59,1.84,1.37,2.44,2.38c0.69,1.16,1.34,2.33,1.69,3.64c0.05,0.17,0.28,0.36,0.46,0.39c0.63,0.11,1.27,0.18,1.91,0.22
		c2.01,0.1,3.81,0.75,5.34,2.07c0.04,0.03,0.08,0.05,0.18,0.11c-0.18,0.06-0.28,0.09-0.38,0.12c-4.13,1.19-7.65,3.36-10.5,6.6
		c-0.33,0.38-0.67,0.76-0.96,1.17c-0.47,0.64-0.46,1.06,0.07,1.66c2.97,3.44,6.69,4.59,10.96,3.05c0.66-0.24,1.29-0.54,1.96-0.82
		c-0.05-0.11-0.07-0.19-0.11-0.26c-1.39-2.23-1.8-4.67-1.53-7.24c0.29-2.73,1.55-4.96,3.69-6.67c0.54-0.43,1.22-0.67,1.85-0.97
		c0.35-0.17,0.63-0.05,0.87,0.26c0.63,0.83,0.61,0.89-0.05,1.69c-0.45,0.55-0.86,1.14-1.24,1.74c-0.22,0.35-0.14,0.45,0.27,0.55
		c0.48,0.12,0.96,0.2,1.42,0.36c0.25,0.09,0.46,0.29,0.78,0.5c-0.39,0.1-0.55,0.23-0.45,0.55c0.02,0.07-0.08,0.2-0.16,0.27
		c-0.35,0.3-1.12,0.38-1.5,0.13c-0.12-0.08-0.26-0.24-0.26-0.36c0-0.12,0.14-0.31,0.26-0.35c0.35-0.11,0.71-0.15,1.14-0.24
		c-0.65-0.22-1.24-0.35-1.86-0.11c-0.11,0.04-0.23,0.21-0.25,0.34c-0.22,1.69,0.03,3.26,1.27,4.53c1.47,1.5,3.65,1.21,4.75-0.6
		c0.72-1.18,0.88-2.49,0.79-3.85c-0.02-0.25-0.15-0.39-0.4-0.4c-0.46-0.01-0.93,0-1.4,0.07c0.3,0.08,0.61,0.16,0.91,0.24
		c0.27,0.06,0.38,0.2,0.36,0.5c-0.01,0.31-0.23,0.33-0.43,0.35c-0.37,0.05-0.74,0.05-1.1,0.1c-0.21,0.03-0.4,0.14-0.61,0.22
		c-0.46-0.81-0.17-1.63,0.76-1.96c0.3-0.1,0.62-0.13,0.94-0.2c0.4-0.09,0.52-0.25,0.31-0.6c-0.39-0.65-0.85-1.26-1.27-1.89
		c-0.16-0.23-0.44-0.52-0.4-0.72c0.1-0.46,0.33-0.95,0.82-1.11c0.24-0.08,0.6-0.02,0.84,0.11c2.25,1.17,3.91,2.88,4.64,5.35
		c0.85,2.85,0.7,5.67-0.48,8.42c-0.08,0.19-0.16,0.39-0.24,0.58c-0.2,0.49-0.18,0.66,0.31,0.88c0.81,0.37,1.63,0.78,2.5,1
		c3.18,0.82,6.03,0.08,8.52-2.03c0.46-0.39,0.9-0.81,1.3-1.26c0.56-0.61,0.58-1,0.11-1.68c-1.02-1.48-2.27-2.76-3.68-3.88
		c-2.07-1.65-4.37-2.85-6.85-3.72c-0.23-0.08-0.46-0.19-0.67-0.3c-0.24-0.13-0.27-0.3-0.05-0.49c0.02-0.02,0.04-0.04,0.06-0.05
		c1.46-0.83,2.89-1.72,4.65-1.75c0.62-0.01,1.23-0.05,1.85-0.07c0.48-0.02,0.75-0.21,0.94-0.7c0.44-1.16,0.92-2.31,1.51-3.4
		c0.57-1.05,1.49-1.82,2.5-2.48c0.15-0.1,0.33-0.16,0.58-0.29c0.04,0.5,0.1,0.93,0.11,1.36c0.06,1.97,0.09,3.94,0.16,5.92
		c0.09,2.45,0.56,4.84,1.31,7.17c0.14,0.43,0.36,0.75,0.77,1.01c1.06,0.67,1.87,1.57,2.08,2.87c0.03,0.17,0.07,0.35,0.03,0.51
		c-0.2,0.85,0.13,1.6,0.43,2.36c0.68,1.73,1.39,3.45,2.04,5.19c0.83,2.21,1.26,4.5,1.21,6.87c-0.04,1.91,0.04,3.83-0.14,5.73
		c-0.17,1.86-0.92,3.57-1.8,5.23c-0.66,1.25-1.5,2.33-2.38,3.41c-1.7,2.09-3.87,3.61-6.12,5.03c-2.41,1.52-5,2.62-7.69,3.56
		c-2.96,1.04-5.74,2.48-8.25,4.4c-0.81,0.62-1.47,1.38-2.01,2.24c-0.05,0-0.1,0-0.15,0c-0.81-1.47-2.01-2.54-3.43-3.38
		c-0.67-0.39-1.33-0.81-2.04-1.12c-2.35-1.04-4.7-2.08-7.09-3.04C12.89,56.31,9.32,54,6.26,50.88c-2.79-2.84-4.46-6.22-4.98-10.16
		c-0.08-0.62-0.15-1.24-0.22-1.86C1.06,38.1,1.06,37.33,1.06,36.57z M38.71,52.3c0.02-0.08,0.04-0.15,0.07-0.23
		c-2.47-1.12-4.29-2.93-5.69-5.19c0.15,0.01,0.27,0.06,0.37,0.13c0.36,0.23,0.72,0.47,1.08,0.72c0.92,0.62,1.82,1.27,2.76,1.86
		c0.34,0.21,0.73,0.35,1.12,0.45c0.16,0.04,0.36-0.08,0.54-0.13c-0.1-0.14-0.16-0.33-0.3-0.41c-0.53-0.31-1.08-0.58-1.62-0.88
		c-0.91-0.51-1.83-1.02-2.73-1.54c-0.17-0.1-0.3-0.25-0.45-0.38c0.03-0.05,0.06-0.1,0.08-0.15c1.02,0.39,2.04,0.78,3.06,1.18
		c0.02-0.04,0.04-0.08,0.06-0.12c-0.96-0.52-1.92-1.05-2.88-1.57c0.02-0.03,0.03-0.07,0.05-0.1c0.07,0,0.14,0,0.21,0.01
		c1,0.2,2.01,0.4,3.01,0.59c0.14,0.03,0.28,0,0.42,0c0.01-0.05,0.01-0.1,0.02-0.16c-1.23-0.39-2.46-0.78-3.68-1.17
		c0.01-0.04,0.01-0.09,0.02-0.13c1.21,0,2.43,0,3.64,0c0-0.03,0.01-0.07,0.01-0.1c-0.15-0.08-0.3-0.15-0.45-0.24
		c-0.84-0.47-1.71-0.89-2.5-1.43c-2.09-1.43-2.71-3.52-2.39-5.92c0.21-1.56,1.19-2.7,2.34-3.7c1.57-1.38,3.37-2.39,5.2-3.38
		c2.04-1.1,3.94-2.4,5.66-3.95c1.08-0.97,2.09-2.02,3.14-3.03c0.3-0.29,0.6-0.58,1.06-0.62c0.12-0.01,0.25-0.1,0.35-0.18
		c0.25-0.21,0.26-0.56,0.05-0.83c-0.21-0.28-0.45-0.16-0.65-0.01c-0.36,0.26-0.71,0.54-1.03,0.84c-1.45,1.35-3.11,2.38-4.93,3.15
		c-0.37,0.16-0.78,0.33-1.16,0.32c-1.17-0.01-2.34-0.08-3.5-0.18c-0.91-0.08-1.7-0.56-2.52-0.92c-1.08-0.47-0.97-0.66-1.63,0.57
		c-0.91,1.71-1.6,3.52-2.13,5.38c-0.67,2.34-0.77,4.76-0.9,7.17c-0.09,1.76-0.19,3.52-0.3,5.28c-0.02,0.28,0.01,0.69-0.41,0.72
		c-0.43,0.03-0.49-0.37-0.53-0.68c-0.12-1.04-0.26-2.08-0.28-3.13c-0.1-5.5,0.16-10.96,1.43-16.34c0.2-0.84,0.35-1.69,0.19-2.56
		c-0.16-0.84-0.57-1.24-1.41-1.29c-0.55-0.04-1.11,0.02-1.66-0.01c-1-0.05-1.81,0.97-1.59,2.02c0.17,0.79,0.3,1.6,0.47,2.39
		c0.46,2.25,0.88,4.5,0.94,6.8c0.05,1.82,0.15,3.65,0.17,5.47c0.02,1.86-0.01,3.72-0.06,5.58c-0.01,0.47-0.16,0.94-0.31,1.39
		c-0.04,0.13-0.3,0.26-0.46,0.26c-0.11,0-0.28-0.21-0.32-0.36c-0.08-0.31-0.12-0.63-0.13-0.95c-0.08-1.88-0.13-3.77-0.24-5.65
		c-0.08-1.4-0.12-2.82-0.34-4.2c-0.4-2.52-1.27-4.9-2.4-7.19c-0.21-0.43-0.48-0.82-0.73-1.25c-0.28,0.13-0.51,0.24-0.74,0.35
		c-1.15,0.57-2.34,1.05-3.62,1.24c-1.58,0.23-3.13,0.24-4.58-0.56c-0.8-0.44-1.61-0.88-2.34-1.4c-0.94-0.67-1.81-1.44-2.72-2.16
		c-0.49-0.38-0.71-0.32-0.97,0.23c-0.15,0.32-0.09,0.4,0.25,0.54c0.37,0.15,0.74,0.32,1.08,0.54c0.33,0.21,0.63,0.48,0.92,0.75
		c1.2,1.11,2.38,2.26,3.61,3.35c1.74,1.53,3.77,2.64,5.77,3.78c1.45,0.82,2.87,1.68,4.13,2.79c3.1,2.74,3.03,6.9-0.22,9.45
		c-0.84,0.65-1.84,1.09-2.76,1.63c-0.11,0.06-0.21,0.12-0.32,0.18c0.01,0.04,0.02,0.08,0.03,0.12c1.09,0,2.17,0,3.26,0
		c-1.08,0.77-2.42,0.75-3.55,1.32c1.33,0.11,2.58-0.31,3.85-0.58c0.02,0.06,0.04,0.11,0.06,0.17c-1.09,0.57-2.17,1.14-3.26,1.71
		c0.02,0.05,0.04,0.09,0.06,0.14c1.09-0.38,2.18-0.76,3.27-1.15c0.05,0.07,0.11,0.14,0.16,0.21c-0.11,0.05-0.24,0.08-0.34,0.15
		c-1.16,0.82-2.36,1.56-3.72,2.01c-0.29,0.1-0.54,0.35-0.79,0.56c-0.06,0.05-0.05,0.25,0.01,0.33c0.05,0.07,0.22,0.1,0.32,0.08
		c0.27-0.08,0.55-0.16,0.79-0.31c1.2-0.75,2.38-1.53,3.57-2.3c0.34-0.22,0.68-0.46,1.02-0.69c-0.04,0.23-0.14,0.4-0.24,0.56
		c-1.21,1.87-2.79,3.35-4.77,4.38c-0.22,0.11-0.42,0.27-0.63,0.4c0.01,0.05,0.02,0.1,0.03,0.14c0.19,0.04,0.39,0.13,0.58,0.1
		c0.3-0.05,0.62-0.12,0.86-0.29c0.51-0.34,1.02-0.71,1.45-1.13c0.73-0.72,1.4-1.49,2.1-2.24c0.19-0.2,0.39-0.39,0.58-0.58
		c0.04,0.02,0.08,0.05,0.12,0.07c-0.15,0.4-0.3,0.79-0.44,1.19c-0.15,0.4-0.3,0.81-0.45,1.21c0.03,0.02,0.07,0.04,0.1,0.07
		c0.66-0.56,1.32-1.12,1.99-1.69c-0.08,0.56-0.25,1.07-0.34,1.59c-0.08,0.51-0.08,1.03-0.09,1.54c0,0.11,0.13,0.21,0.21,0.32
		c0.1-0.08,0.23-0.14,0.29-0.24c0.14-0.24,0.26-0.5,0.36-0.77c0.17-0.45,0.34-0.9,0.47-1.36c0.13-0.46,0.21-0.93,0.33-1.46
		c0.06,0.24,0.13,0.43,0.16,0.62c0.23,1.52,0.02,2.99-0.4,4.45c-0.11,0.38-0.2,0.76-0.25,1.15c-0.04,0.31,0.08,0.57,0.42,0.64
		c0.28,0.06,0.53-0.16,0.6-0.52c0.04-0.2,0.07-0.41,0.08-0.62c0.05-0.72,0.09-1.45,0.15-2.18c0.03-0.27,0.13-0.54,0.2-0.81
		c0.04,0,0.08,0.01,0.12,0.01c0.04,0.14,0.09,0.28,0.11,0.42c0.08,0.88,0.14,1.77,0.22,2.65c0.02,0.24,0.03,0.52,0.15,0.71
		c0.1,0.16,0.36,0.3,0.55,0.3c0.12,0,0.31-0.27,0.33-0.44c0.04-0.25,0-0.52-0.07-0.76c-0.5-1.64-0.56-3.32-0.44-5.02
		c0-0.07,0.03-0.14,0.05-0.21c0.21,0.47,0.33,0.94,0.48,1.41c0.19,0.59,0.38,1.17,0.6,1.74c0.05,0.13,0.25,0.19,0.39,0.28
		c0.07-0.13,0.19-0.26,0.2-0.4c0.09-0.92,0-1.82-0.43-2.66c-0.09-0.19-0.17-0.39-0.25-0.58c0.03-0.02,0.06-0.04,0.08-0.06
		c0.67,0.6,1.33,1.2,2,1.8c0.04-0.03,0.09-0.06,0.13-0.1c-0.07-0.76-0.58-1.4-0.69-2.26c0.19,0.14,0.31,0.21,0.41,0.31
		c0.43,0.45,0.83,0.91,1.27,1.35c0.64,0.65,1.27,1.31,1.96,1.9c0.34,0.29,0.8,0.48,1.23,0.63C38.18,52.43,38.46,52.32,38.71,52.3z
		 M52.06,27.94c-0.01-1.42-0.08-2.63-0.59-3.76c-0.28-0.61-0.56-0.8-1.22-0.67c-0.29,0.06-0.58,0.2-0.82,0.38
		c-0.29,0.22-0.54,0.5-0.78,0.78c-1.48,1.77-3.18,3.32-5.05,4.65c-1.79,1.28-3.65,2.48-5.5,3.68c-1.18,0.77-2.16,1.72-2.95,2.91
		c-0.64,0.97-0.94,1.95-0.78,3.1c0.15,1.06,0.4,2.06,1.26,2.79c0.78,0.66,1.69,1.12,2.68,1.35c0.98,0.23,1.96,0.06,2.94-0.07
		c3.95-0.5,6.83-2.56,8.66-6.04C51.45,34.14,51.91,30.96,52.06,27.94z M19.83,43.18c1.18,0.04,2.54-0.26,3.66-1.27
		c1.03-0.93,1.6-2.11,1.52-3.47c-0.07-1.13-0.49-2.21-1.29-3.08c-0.12-0.13-0.2-0.31-0.3-0.46c-0.13-0.2-0.23-0.44-0.41-0.59
		c-0.55-0.45-1.13-0.88-1.71-1.29c-2.17-1.51-4.39-2.97-6.52-4.54c-1.68-1.23-3.26-2.59-4.48-4.32c-0.1-0.14-0.22-0.26-0.35-0.38
		c-0.69-0.59-1.7-0.38-2.03,0.46c-0.21,0.56-0.44,1.15-0.47,1.73c-0.12,3.18,0.14,6.33,1.23,9.35
		C10.47,40.27,14.45,43.14,19.83,43.18z M11.48,15.78c0.28-0.13,0.49-0.21,0.69-0.31c2.07-1.03,4.14-2.06,6.21-3.09
		c0.28-0.14,0.55-0.27,0.82-0.43c0.1-0.06,0.17-0.16,0.29-0.28C17.77,11.49,12.24,14.32,11.48,15.78z M40.2,11.79
		c2.4,1.4,4.87,2.66,7.46,3.85C47.07,14.29,41.67,11.53,40.2,11.79z M10.5,5.59c-0.31,2.91-0.63,5.82-0.94,8.71
		C10.56,13.57,11.34,7.5,10.5,5.59z M49.88,14.34c-0.23-2.95-0.46-5.81-0.69-8.72C48.31,6.62,48.82,13.01,49.88,14.34z M49.44,16.01
		c-0.45-1.28-1.01-2.51-1.89-3.57C47.75,13.86,48.49,14.98,49.44,16.01z M10.17,15.8c0.81-0.49,1.92-2.79,1.69-3.52
		C11.11,13.4,10.56,14.56,10.17,15.8z M52.08,20.75c0.05,0.04,0.15,0.18,0.25,0.18c0.43,0,0.98-0.49,1.03-0.93
		c0.01-0.1-0.08-0.28-0.15-0.3C52.84,19.61,52.07,20.27,52.08,20.75z M7.11,20.68c0.03-0.02,0.21-0.05,0.24-0.14
		c0.03-0.09-0.05-0.27-0.13-0.33c-0.24-0.18-0.5-0.35-0.78-0.48c-0.23-0.11-0.35,0.03-0.33,0.27C6.14,20.41,6.49,20.67,7.11,20.68z
		 M6.17,20.85c-0.14,0.19-0.28,0.32-0.26,0.34c0.13,0.18,0.3,0.35,0.46,0.5c0.01,0.01,0.25-0.2,0.24-0.22
		C6.5,21.29,6.36,21.11,6.17,20.85z M52.19,18.81c-0.15,0.2-0.28,0.33-0.33,0.49c-0.02,0.05,0.21,0.26,0.24,0.25
		c0.18-0.1,0.33-0.25,0.5-0.38C52.48,19.07,52.38,18.97,52.19,18.81z M53.56,21.13c-0.03-0.04-0.06-0.08-0.09-0.12
		c-0.19,0.12-0.39,0.23-0.56,0.37c-0.04,0.03-0.04,0.18-0.01,0.23c0.04,0.05,0.16,0.08,0.22,0.06
		C53.37,21.58,53.56,21.43,53.56,21.13z M7.68,19.27c0-0.05,0.01-0.09,0.01-0.14c-0.13-0.07-0.26-0.17-0.4-0.19
		c-0.09-0.01-0.19,0.09-0.29,0.14c0.12,0.11,0.23,0.26,0.38,0.33C7.43,19.44,7.57,19.32,7.68,19.27z"/>
	<path class="st0" d="M93.32,22.48c0-0.11,0-0.21,0-0.31c0.04-0.02,0.07-0.04,0.1-0.05c0.38-0.05,0.76-0.08,1.13-0.16
		c1.38-0.29,2.05-1,2.09-2.41c0.03-1.43-0.02-2.86-0.1-4.28c-0.14-2.35-0.33-4.7-0.5-7.04C96.03,8.09,96.02,7.95,96,7.71
		c-0.1,0.14-0.13,0.19-0.16,0.24c-1.54,2.95-3.08,5.89-4.61,8.85c-0.92,1.79-1.73,3.62-2.33,5.54c-0.03,0.1-0.18,0.22-0.28,0.24
		c-0.08,0.01-0.25-0.1-0.28-0.19c-1.29-4.23-3.32-8.16-5.05-12.21c-0.29-0.69-0.59-1.38-0.95-2.06c-0.06,0.42-0.12,0.84-0.17,1.26
		c-0.39,3.34-0.82,6.68-0.93,10.05c0,0.09,0,0.17,0,0.26c0,1.33,0.41,1.87,1.69,2.23c0.33,0.09,0.67,0.16,1.01,0.21
		c0.24,0.03,0.28,0.14,0.21,0.37c-2.7,0-5.41,0-8.13,0c-0.08-0.24-0.06-0.41,0.25-0.42c0.02,0,0.05-0.01,0.07-0.01
		c1.67-0.23,2.72-1.14,3.06-2.8c0.29-1.46,0.59-2.92,0.79-4.4c0.39-2.84,0.72-5.69,1.07-8.54c0.02-0.16-0.02-0.34-0.08-0.49
		c-0.53-1.33-1.52-2.05-2.94-2.19c-0.05,0-0.1-0.01-0.15-0.03c-0.02-0.01-0.04-0.02-0.09-0.05c-0.01-0.09-0.01-0.2-0.02-0.33
		c2.81,0,5.61,0,8.42,0c0,0.11,0,0.22,0,0.34c-0.08,0.02-0.16,0.03-0.24,0.06c-0.53,0.18-1.09,0.3-1.58,0.56
		C84.04,4.48,84,4.77,84.24,5.32c1.33,3.01,2.66,6.01,3.99,9.02c0.38,0.86,0.75,1.71,1.13,2.57c0.05,0.11,0.1,0.21,0.18,0.36
		c0.06-0.08,0.1-0.12,0.12-0.17c1.75-3.31,3.5-6.62,5.23-9.94c0.33-0.63,0.61-1.29,0.88-1.95c0.06-0.15,0.04-0.39-0.04-0.54
		c-0.25-0.44-0.69-0.66-1.16-0.8c-0.4-0.13-0.81-0.2-1.24-0.31c-0.01-0.09-0.01-0.2-0.02-0.33c2.74,0,5.46,0,8.18,0
		c0.08,0.25,0.04,0.38-0.26,0.42c-0.4,0.06-0.8,0.16-1.18,0.3c-0.79,0.28-1.21,0.84-1.2,1.68c0.03,1.74,0.06,3.48,0.18,5.21
		c0.14,2.16,0.34,4.32,0.57,6.48c0.1,0.96,0.29,1.92,0.49,2.87c0.16,0.76,0.68,1.21,1.4,1.54c1.58,0.72,3.16-0.07,3.79-1.18
		c0.48-0.85,0.96-1.72,1.32-2.64c1.66-4.27,3.27-8.56,4.9-12.83c0.09-0.23,0.04-0.39-0.11-0.56c-0.62-0.67-1.45-0.79-2.29-0.87
		c-0.25-0.02-0.46-0.05-0.33-0.41c2.77,0,5.55,0,8.34,0c0.1,0.28-0.01,0.36-0.29,0.42c-0.47,0.11-0.95,0.25-1.37,0.49
		c-0.43,0.24-0.47,0.51-0.3,0.97c1.73,4.65,3.44,9.3,5.19,13.95c0.5,1.32,1.32,2.37,2.73,2.83c0.37,0.12,0.76,0.18,1.16,0.27
		c0,0.1,0,0.21,0,0.34c-3.23,0-6.46,0-9.71,0c0-0.12,0-0.23,0-0.35c0.42-0.07,0.83-0.12,1.24-0.22c0.26-0.06,0.52-0.15,0.76-0.28
		c0.56-0.28,0.87-0.75,0.8-1.38c-0.06-0.56-0.16-1.12-0.33-1.66c-0.37-1.2-0.8-2.38-1.2-3.57c-0.07-0.22-0.16-0.31-0.41-0.31
		c-1.95,0.01-3.9,0-5.85,0.01c-0.12,0-0.32,0.1-0.36,0.2c-0.49,1.51-1,3.02-1.41,4.55c-0.43,1.59,0.2,2.4,1.9,2.58
		c0.36,0.04,0.36,0.04,0.35,0.41C104.47,22.48,98.91,22.48,93.32,22.48z M115.17,13.29c-0.91-2.4-1.8-4.77-2.69-7.13
		c-0.03,0-0.06-0.01-0.09-0.01c-0.89,2.36-1.77,4.73-2.68,7.14C111.56,13.29,113.33,13.29,115.17,13.29z"/>
	<path class="st0" d="M75.21,3.09c-0.16,1.87-0.32,3.63-0.48,5.41c-0.09,0-0.2,0-0.3,0c-0.12-0.56-0.23-1.11-0.35-1.66
		c-0.21-0.98-0.81-1.66-1.69-2.07c-4.59-2.13-9.92-0.19-11.03,5.19c-0.63,3.04-0.19,6,1.66,8.58c1.92,2.69,4.62,3.66,7.85,3.09
		c1.66-0.3,2.8-1.34,3.54-2.82c0.23-0.46,0.43-0.94,0.65-1.42c0.18,0.02,0.39,0,0.32,0.29c-0.38,1.57-0.82,3.12-1.58,4.56
		c-0.15,0.29-0.28,0.45-0.67,0.36c-0.89-0.22-1.76,0.05-2.64,0.17c-3.79,0.51-7.26-0.21-10.16-2.81c-2.2-1.98-3.02-4.57-2.88-7.47
		c0.13-2.73,1.2-5.06,3.26-6.89c1.68-1.5,3.68-2.3,5.9-2.61c2.36-0.33,4.67-0.03,6.95,0.61c0.52,0.15,0.94,0.12,1.28-0.34
		C74.89,3.16,75.06,3.15,75.21,3.09z"/>
	<path class="st0" d="M125.5,21.76c-0.31,0.21-0.17,0.83-0.76,0.82c-0.14-1.93-0.28-3.81-0.42-5.7c0.26-0.11,0.35-0.06,0.42,0.19
		c0.16,0.58,0.34,1.16,0.56,1.72c0.66,1.66,1.98,2.5,3.66,2.84c1.06,0.21,2.11,0.13,3.12-0.28c2.61-1.06,2.49-4.33,1.13-5.58
		c-0.51-0.47-1.1-0.88-1.7-1.23c-1.14-0.66-2.33-1.23-3.47-1.89c-1.19-0.69-2.14-1.62-2.57-2.98c-0.96-3.06,0.79-5.95,4.02-6.61
		c1.7-0.35,3.36-0.11,5.01,0.32c0.11,0.03,0.22,0.05,0.32,0.1c0.39,0.16,0.69,0.05,0.92-0.3c0.07-0.1,0.2-0.15,0.39-0.27
		c0.04,0.82,0.07,1.52,0.11,2.22c0.04,0.8,0.07,1.6,0.11,2.4c0.01,0.23-0.03,0.37-0.34,0.3c-0.04-0.18-0.08-0.38-0.12-0.58
		c-0.43-1.91-1.71-3.03-3.68-3.24c-0.69-0.07-1.38-0.08-2.05,0.14c-1.98,0.63-2.74,2.92-1.54,4.62c0.5,0.7,1.17,1.2,1.91,1.61
		c0.92,0.52,1.88,0.98,2.81,1.49c0.52,0.28,1.04,0.57,1.53,0.9c2.58,1.73,3.12,5.07,1.22,7.54c-1.13,1.46-2.69,2.15-4.47,2.42
		c-2.02,0.31-3.96,0.05-5.79-0.87c-0.08-0.04-0.16-0.07-0.24-0.1C125.53,21.75,125.51,21.76,125.5,21.76z"/>
	<path class="st0" d="M143.23,52.04c-0.05,0.04-0.1,0.11-0.16,0.12c-0.11,0.02-0.22,0.01-0.33,0.01c-22.43,0-44.86,0-67.3,0
		c-0.15,0-0.31,0-0.46,0c-0.01-0.03-0.02-0.06-0.03-0.1c0.05-0.04,0.1-0.11,0.16-0.12c0.12-0.02,0.25-0.01,0.37-0.01
		c22.41,0,44.82,0,67.22,0c0.17,0,0.33,0,0.5,0C143.21,51.98,143.22,52.01,143.23,52.04z"/>
	<path class="st0" d="M74.98,43.3c0.13-0.01,0.26-0.02,0.39-0.02c22.48,0,44.96,0,67.45,0c0.07,0,0.15-0.01,0.22,0.01
		c0.06,0.01,0.11,0.06,0.17,0.1c-0.06,0.04-0.11,0.11-0.17,0.12c-0.08,0.02-0.17,0.01-0.26,0.01c-22.46,0-44.91,0-67.37,0
		c-0.15,0-0.29-0.03-0.44-0.04C74.96,43.42,74.97,43.36,74.98,43.3z"/>
	<path class="st0" d="M113.97,28.75c-0.06,0.61-0.11,1.22-0.17,1.84c-0.04,0.41-0.08,0.82,0.48,0.92c-0.5,0-0.99,0-1.49,0
		c0.63-0.18,0.66-0.73,0.73-1.23c0.08-0.54,0.13-1.08,0.23-1.61c0.1-0.59-0.05-0.7-0.55-0.96c0.54,0,1.03,0,1.52,0
		c-0.11,0.09-0.3,0.17-0.32,0.28c-0.02,0.15,0.08,0.32,0.16,0.48c0.3,0.65,0.6,1.3,0.93,2c0.12-0.21,0.23-0.38,0.32-0.55
		c0.27-0.5,0.55-0.99,0.81-1.49c0.25-0.47,0.23-0.49-0.31-0.71c0.55,0,1.04,0,1.53,0c-0.12,0.09-0.31,0.16-0.38,0.3
		c-0.07,0.15-0.05,0.36-0.04,0.54c0.05,0.68,0.1,1.35,0.16,2.03c0.06,0.63,0.09,0.67,0.7,0.92c-0.68,0-1.29,0-1.91,0
		c0.71-0.12,0.63-0.66,0.59-1.16c-0.04-0.55-0.08-1.1-0.2-1.68c-0.49,0.94-0.98,1.88-1.47,2.83c-0.4-0.9-0.8-1.83-1.21-2.76
		C114.04,28.74,114.01,28.74,113.97,28.75z"/>
	<path class="st0" d="M95.47,34.41c-0.03,0.18-0.11,0.33-0.07,0.44c0.18,0.47,0.39,0.92,0.6,1.4c0.53-0.73,0.75-1.51,0.5-1.8
		c0.73,0,1.45,0,2.16,0c-0.39,0.09-0.4,0.39-0.4,0.7c0,0.35,0,0.69,0,1.04c-0.01,0.31,0.01,0.61,0.41,0.67c-0.42,0-0.83,0-1.25,0
		c0.36-0.08,0.41-0.35,0.41-0.65c0-0.41,0.02-0.82-0.01-1.22c-0.01-0.15-0.14-0.4-0.24-0.42c-0.17-0.03-0.44,0.03-0.54,0.16
		c-0.2,0.24-0.33,0.55-0.47,0.83c-0.22,0.44-0.43,0.89-0.69,1.43c-0.25-0.56-0.45-1.01-0.66-1.47c-0.11-0.25-0.2-0.52-0.37-0.72
		c-0.13-0.15-0.38-0.25-0.58-0.26c-0.26-0.01-0.31,0.24-0.31,0.46c-0.01,0.43-0.03,0.87,0.01,1.29c0.02,0.2,0.18,0.38,0.26,0.55
		c-0.29,0-0.69,0-0.98,0c0.07-0.17,0.22-0.37,0.24-0.58c0.04-0.43,0.02-0.86,0.01-1.29c-0.01-0.36-0.05-0.39-0.46-0.46
		c-0.06,0.14-0.11,0.28-0.18,0.44c-0.16-0.55-0.58-0.22-0.91-0.36c0,0.66-0.02,1.26,0.02,1.86c0.01,0.14,0.21,0.28,0.31,0.4
		c-0.36,0-0.77,0-1.19,0c0.36-0.07,0.41-0.33,0.4-0.63c-0.01-0.52,0-1.03,0-1.58c-0.39,0.01-0.78-0.13-1.05,0.29
		c0.05-0.18,0.11-0.36,0.15-0.52c0.84,0,1.66,0,2.47,0C93.86,34.41,94.67,34.41,95.47,34.41z"/>
	<path class="st0" d="M133.56,27.7c-0.35,0.09-0.35,0.36-0.35,0.64c0,0.36-0.01,0.72,0,1.07c0.01,0.19-0.11,0.44,0.19,0.53
		c0.31,0.08,0.59,0.05,0.8-0.21c0.08-0.1,0.15-0.22,0.22-0.35c0.01,0.64-0.09,0.74-0.69,0.74c-0.87,0-1.74,0-2.64,0
		c0.31-0.23,0.39-0.7,0.09-0.87c-0.21-0.13-0.58-0.12-0.83-0.04c-0.24,0.08-0.21,0.68,0.01,0.9c-0.76,0-1.51,0-2.25,0
		c0.66-0.5,0.27-1.21,0.36-1.82c0.04-0.26-0.05-0.49-0.37-0.57c0.39,0,0.78,0,1.06,0c-0.07,0.18-0.21,0.37-0.23,0.58
		c-0.04,0.43-0.03,0.86,0,1.29c0.01,0.15,0.14,0.37,0.26,0.41c0.17,0.05,0.49,0,0.54-0.1c0.33-0.62,0.61-1.26,0.88-1.9
		c0.02-0.06-0.13-0.19-0.19-0.27c0.26,0,0.55,0,0.78,0c0,0.13-0.03,0.27,0.01,0.37c0.2,0.53,0.42,1.05,0.64,1.57
		c0.1,0.24,0.25,0.42,0.56,0.37c0.33-0.05,0.36-0.29,0.36-0.55c0.01-0.37,0-0.74,0-1.11c0-0.28-0.01-0.55-0.35-0.66
		C132.8,27.7,133.18,27.7,133.56,27.7z M130.74,28.08c-0.12,0.33-0.22,0.59-0.33,0.87c0.24,0,0.45,0,0.7,0
		C130.98,28.66,130.88,28.4,130.74,28.08z"/>
	<path class="st0" d="M99.67,30.1c0.29-0.21,0.38-0.6,0.08-0.83c-0.19-0.15-0.58-0.14-0.85-0.07c-0.23,0.06-0.21,0.67-0.02,0.88
		c-0.92,0.12-1.78,0.08-2.09-1.05c-0.14,0.02-0.24,0.04-0.34,0.06c-0.18,0.24-0.01,0.77,0.32,1c-0.39,0-0.77,0-1.15,0
		c0.54-0.41,0.51-2.1-0.06-2.41c0.44,0,0.85-0.02,1.25,0.01c0.34,0.02,0.68,0.09,0.8,0.48c0.11,0.37-0.15,0.57-0.53,0.78
		c0.32,0.34,0.6,0.65,0.9,0.94c0.14,0.13,0.31,0.12,0.39-0.07c0.27-0.59,0.54-1.19,0.78-1.79c0.03-0.08-0.08-0.21-0.12-0.32
		c0.24,0,0.53,0,0.81,0c-0.24,0.26,0.46,2.01,0.98,2.4C100.43,30.1,100.05,30.1,99.67,30.1z M96.39,27.79
		c0,0.26-0.02,0.51,0.01,0.76c0.01,0.12,0.09,0.33,0.15,0.33c0.15,0.01,0.38-0.03,0.44-0.13c0.1-0.17,0.15-0.42,0.11-0.61
		C97.03,27.84,96.74,27.8,96.39,27.79z M99.01,28.95c0.2,0,0.4,0,0.66,0c-0.13-0.29-0.24-0.54-0.38-0.87
		c-0.12,0.31-0.2,0.53-0.28,0.75C99,28.85,99.01,28.89,99.01,28.95z"/>
	<path class="st0" d="M88.38,38.26c-0.59,0-1.18,0-1.75,0c0.14-0.11,0.36-0.2,0.42-0.35c0.06-0.16-0.04-0.37-0.09-0.56
		c-0.03-0.13-0.06-0.27-0.14-0.38c-0.08-0.11-0.21-0.19-0.33-0.25c-0.07-0.03-0.17-0.01-0.26-0.01c-0.86,0-0.85,0-1.1,0.82
		c-0.1,0.33-0.08,0.59,0.31,0.71c-0.45,0-0.91,0-1.36,0c0.46-0.1,0.62-0.47,0.77-0.85c0.3-0.74,0.59-1.49,0.88-2.23
		c0.2-0.5,0.2-0.5-0.4-0.71c0.58,0,1.08,0,1.65,0c-0.53,0.16-0.33,0.46-0.21,0.76c0.29,0.72,0.56,1.44,0.83,2.17
		C87.74,37.79,87.94,38.12,88.38,38.26z M86.62,36.42c-0.18-0.47-0.35-0.89-0.54-1.39c-0.08,0.18-0.13,0.27-0.17,0.37
		c-0.13,0.33-0.25,0.66-0.39,1.02C85.89,36.42,86.23,36.42,86.62,36.42z"/>
	<path class="st0" d="M131.55,49.04c0.44-0.39,0.98-2.01,0.74-2.26c0.26,0,0.5,0,0.74,0c-0.16,0.3,0.5,2.06,0.91,2.38
		c-0.34,0-0.65,0-0.97,0c0.21-0.21,0.23-0.77,0-0.86c-0.23-0.09-0.55-0.08-0.77,0.01c-0.22,0.09-0.19,0.64-0.01,0.84
		c-1.17,0.15-1.47,0.05-1.97-1.07c-0.11,0.09-0.3,0.16-0.3,0.24c0,0.3-0.09,0.65,0.39,0.85c-0.18,0.01-0.26,0.02-0.34,0.02
		c-0.25,0-0.51,0-0.82,0c0.52-0.34,0.51-2.08,0-2.43c0.39,0,0.72-0.02,1.05,0c0.34,0.02,0.68,0.07,0.82,0.45
		c0.13,0.38-0.11,0.6-0.39,0.77C130.87,48.58,131.11,48.85,131.55,49.04z M129.93,48.02c0.19-0.06,0.45-0.06,0.51-0.17
		c0.1-0.19,0.15-0.46,0.11-0.67c-0.06-0.27-0.33-0.31-0.62-0.29C129.93,47.25,129.93,47.59,129.93,48.02z M132.27,48.03
		c0.24,0,0.42,0,0.64,0c-0.11-0.28-0.21-0.53-0.35-0.88C132.44,47.51,132.36,47.75,132.27,48.03z"/>
	<path class="st0" d="M78.67,30.58c-0.1,0.26-0.18,0.53-0.29,0.78c-0.03,0.07-0.11,0.16-0.18,0.16c-0.56,0-1.14,0.07-1.68-0.04
		c-1.02-0.21-1.61-1.03-1.53-1.97c0.08-1.03,0.86-1.81,1.94-1.88c0.4-0.03,0.81,0.05,1.21,0.08c0.15,0.01,0.3,0.03,0.47,0.04
		c-0.02,0.28-0.05,0.57-0.07,0.87c-0.12-0.55-0.5-0.73-0.99-0.79c-0.62-0.08-1.15,0.09-1.53,0.61c-0.55,0.77-0.31,2.12,0.47,2.66
		c0.66,0.45,1.73,0.42,2.06-0.47c0.01-0.03,0.04-0.05,0.06-0.07C78.64,30.57,78.65,30.57,78.67,30.58z"/>
	<path class="st0" d="M82.81,48.03c-0.13,0.13-0.29,0.22-0.29,0.32c-0.01,0.29-0.07,0.63,0.39,0.81c-0.41,0-0.75,0-1.09,0
		c0.46-0.34,0.45-2.04-0.06-2.4c0.39,0,0.73-0.02,1.07,0c0.33,0.02,0.66,0.08,0.77,0.45c0.11,0.36-0.1,0.58-0.4,0.78
		c0.18,0.42,0.4,0.79,0.81,1.01c0.32,0.17,0.55,0.08,0.58-0.28c0.03-0.5,0.03-1.01,0-1.51c-0.01-0.15-0.16-0.29-0.24-0.43
		c0.29,0,0.63,0,0.87,0c-0.07,0.19-0.19,0.39-0.21,0.6c-0.03,0.39-0.03,0.79,0,1.18c0.01,0.15,0.12,0.43,0.2,0.43
		c0.22,0.01,0.47-0.05,0.67-0.15c0.13-0.07,0.18-0.27,0.28-0.42c0.01,0.04,0.02,0.06,0.02,0.09c-0.11,0.68-0.11,0.68-0.8,0.68
		c-0.36,0-0.72,0-1.07,0.01c-0.74,0.03-1.06-0.16-1.36-0.83C82.93,48.29,82.9,48.22,82.81,48.03z M82.52,48.04
		c0.22-0.08,0.48-0.1,0.54-0.22c0.1-0.19,0.13-0.49,0.05-0.68c-0.07-0.15-0.34-0.22-0.59-0.35C82.52,47.26,82.52,47.59,82.52,48.04z
		"/>
	<path class="st0" d="M110.03,34.5c0,0.23,0,0.47,0,0.72c-0.17-0.42-0.49-0.62-0.93-0.63c-0.32-0.01-0.59,0.09-0.71,0.42
		c-0.11,0.32,0.02,0.57,0.28,0.73c0.29,0.19,0.6,0.34,0.9,0.5c0.42,0.23,0.71,0.54,0.65,1.06c-0.06,0.53-0.39,0.88-0.89,0.96
		c-0.4,0.07-0.82-0.01-1.23-0.02c-0.13-0.01-0.26-0.03-0.42-0.05c-0.02-0.28-0.05-0.61-0.08-0.93c0.02-0.01,0.04-0.01,0.06-0.02
		c0.05,0.11,0.09,0.22,0.14,0.32c0.26,0.53,0.99,0.75,1.49,0.45c0.42-0.25,0.46-0.84,0.04-1.15c-0.26-0.19-0.55-0.32-0.84-0.47
		c-0.59-0.32-0.81-0.74-0.68-1.25c0.13-0.48,0.64-0.79,1.26-0.75C109.38,34.41,109.69,34.46,110.03,34.5z"/>
	<path class="st0" d="M103.31,34.43c0,0.18,0,0.32,0,0.54c-0.25-0.45-0.62-0.41-1.02-0.38c0,0.32,0,0.62,0,1
		c0.28-0.06,0.52-0.11,0.77-0.17c0,0.13,0,0.35,0,0.48c-0.21-0.07-0.46-0.16-0.71-0.24c-0.16,0.55-0.1,0.96,0.12,1.05
		c0.35,0.14,0.7-0.05,1.03-0.57c0,0.04,0.01,0.08,0.01,0.12c-0.11,0.61-0.11,0.61-0.74,0.61c-0.43,0-0.86,0-1.29,0
		c0.33-0.13,0.36-0.39,0.35-0.69c-0.01-0.39,0-0.79,0-1.18c0-0.29-0.12-0.47-0.45-0.47c-0.05,0.13-0.11,0.27-0.17,0.41
		c-0.18-0.51-0.58-0.22-0.93-0.32c0,0.64-0.02,1.23,0.01,1.82c0.01,0.15,0.2,0.28,0.29,0.4c-0.33,0-0.75,0-1.16,0
		c0.38-0.06,0.4-0.33,0.4-0.63c0-0.51,0-1.03,0-1.54c-0.63-0.08-0.73-0.06-1.06,0.31c0.07-0.23,0.12-0.4,0.16-0.54
		C100.39,34.43,101.83,34.43,103.31,34.43z"/>
	<path class="st0" d="M134.35,36.7c1.21,0.92,2.03,1.29,2.73,0.59c-0.3,0.56-0.97,0.81-1.64,0.53c-0.46-0.2-0.86-0.52-1.3-0.76
		c-0.16-0.09-0.35-0.17-0.54-0.18c-0.71-0.04-1.22-0.42-1.32-1.01c-0.1-0.57,0.23-1.14,0.79-1.36c0.65-0.26,1.4-0.08,1.74,0.41
		c0.31,0.44,0.27,1.04-0.11,1.47C134.6,36.5,134.48,36.59,134.35,36.7z M134.49,35.73c0.03-0.02,0.06-0.03,0.09-0.05
		c-0.15-0.31-0.25-0.66-0.46-0.92c-0.37-0.43-1.01-0.29-1.21,0.25c-0.16,0.42-0.15,0.84,0.07,1.24c0.2,0.35,0.67,0.58,1,0.48
		c0.37-0.12,0.45-0.45,0.5-0.79C134.49,35.88,134.49,35.8,134.49,35.73z"/>
	<path class="st0" d="M121.35,36.71c1.36,1.09,2.07,1.19,2.71,0.59c-0.28,0.63-1.19,0.79-1.79,0.48c-0.4-0.21-0.77-0.49-1.16-0.72
		c-0.16-0.09-0.35-0.17-0.54-0.18c-0.69-0.04-1.21-0.41-1.32-0.97c-0.12-0.57,0.19-1.15,0.74-1.39c0.64-0.28,1.42-0.11,1.78,0.38
		c0.3,0.42,0.28,1.01-0.07,1.44C121.6,36.47,121.48,36.58,121.35,36.71z M121.45,35.76c0.01-0.4-0.08-0.76-0.39-1.03
		c-0.37-0.33-0.92-0.26-1.14,0.16c-0.25,0.48-0.24,0.97,0.06,1.44c0.2,0.31,0.65,0.5,0.96,0.41c0.36-0.11,0.43-0.44,0.49-0.75
		C121.45,35.91,121.45,35.84,121.45,35.76z"/>
	<path class="st0" d="M112.35,49.18c0.52-0.63,0.23-1.34,0.26-1.99c0.01-0.13-0.18-0.28-0.34-0.49c-0.1,0.24-0.15,0.35-0.15,0.37
		c-0.29-0.06-0.57-0.12-0.89-0.19c0,0.7-0.01,1.31,0.01,1.92c0.01,0.12,0.17,0.23,0.26,0.35c-0.31,0-0.67,0-0.92,0
		c0.07-0.17,0.19-0.36,0.2-0.55c0.03-0.54,0.01-1.08,0.01-1.64c-0.38-0.05-0.74-0.1-0.96,0.3c0.05-0.19,0.1-0.37,0.14-0.52
		c1.34,0,2.66,0,4,0c0,0.16,0,0.3,0,0.35c-0.28-0.08-0.58-0.16-0.92-0.26c0,0.4,0,0.7,0,1.07c0.25-0.04,0.46-0.07,0.7-0.11
		c0,0.09,0,0.23,0,0.34c-0.22-0.04-0.44-0.09-0.72-0.14c0,0.21-0.01,0.36,0,0.5c0.02,0.21-0.06,0.48,0.25,0.55
		c0.3,0.07,0.56-0.04,0.73-0.31c0.05-0.08,0.09-0.17,0.16-0.29c0,0.08,0.01,0.12,0,0.15c-0.17,0.72-0.05,0.58-0.71,0.59
		C113.08,49.19,112.7,49.18,112.35,49.18z"/>
	<path class="st0" d="M103.18,27.76c-0.05,0.14-0.1,0.28-0.17,0.45c-0.15-0.56-0.56-0.27-0.89-0.38c0,0.68-0.02,1.3,0.01,1.92
		c0.01,0.11,0.19,0.22,0.29,0.33c-0.36,0-0.75,0-1.15,0c0.34-0.09,0.37-0.37,0.37-0.66c0.01-0.5,0-1,0-1.61
		c-0.37,0.07-0.69,0.13-1,0.18c0.02-0.07,0.06-0.22,0.08-0.3c0.67,0,1.29,0,1.91,0c0.61,0,1.21,0,1.78,0
		c-0.6,0.49-0.22,1.17-0.31,1.75c-0.04,0.26-0.01,0.54,0.34,0.63c-0.39,0-0.78,0-1.28,0c0.46-0.09,0.48-0.39,0.48-0.68
		c0.01-0.39,0.01-0.79,0-1.18C103.66,27.94,103.55,27.74,103.18,27.76z"/>
	<path class="st0" d="M130.52,34.51c-0.05,0.12-0.1,0.25-0.15,0.38c-0.21-0.42-0.59-0.18-0.93-0.28c0,0.66-0.02,1.27,0.01,1.88
		c0.01,0.13,0.18,0.25,0.27,0.36c-0.34,0-0.74,0-1.02,0c0.08-0.17,0.25-0.37,0.26-0.58c0.04-0.52,0.01-1.05,0.01-1.68
		c-0.38,0.07-0.7,0.13-1.01,0.19c0.02-0.07,0.06-0.22,0.09-0.34c1.27,0,2.51,0,3.75,0c-0.46,0.14-0.38,0.52-0.39,0.86
		c-0.01,0.3,0,0.59,0,0.89c-0.01,0.31,0.01,0.6,0.41,0.67c-0.42,0-0.83,0-1.25,0c0.39-0.08,0.4-0.38,0.4-0.68
		c0-0.41,0.01-0.81,0-1.22C130.99,34.66,130.84,34.5,130.52,34.51z"/>
	<path class="st0" d="M137.23,46.78c-0.47,0.56-0.2,1.25-0.24,1.88c-0.01,0.16,0.15,0.33,0.22,0.49c-0.26,0-0.62,0-0.88,0
		c0.07-0.17,0.2-0.37,0.22-0.58c0.03-0.44,0.01-0.89,0.01-1.33c0-0.26-0.11-0.42-0.42-0.4c-0.04,0.11-0.09,0.22-0.1,0.23
		c-0.3-0.06-0.57-0.12-0.89-0.18c0,0.7-0.01,1.31,0.01,1.92c0.01,0.12,0.17,0.23,0.26,0.35c-0.31,0-0.66,0-1.08,0
		c0.38-0.11,0.38-0.37,0.38-0.63c0-0.52,0-1.03,0-1.57c-0.39-0.02-0.74-0.09-0.96,0.31c0.05-0.19,0.1-0.37,0.13-0.48
		c0.6,0,1.16,0,1.73,0C136.17,46.78,136.73,46.78,137.23,46.78z"/>
	<path class="st0" d="M105.04,49.27c-0.41-0.88-0.41-1.8-0.98-2.48c0.25,0,0.54,0,0.79,0c-0.21,0.6,0.22,1.08,0.38,1.63
		c0.15-0.38,0.33-0.76,0.43-1.15c0.04-0.14-0.12-0.33-0.19-0.49c0.24,0,0.53,0,0.77,0c-0.03,0.15-0.13,0.32-0.09,0.46
		c0.11,0.41,0.27,0.81,0.41,1.24c0.4-0.55,0.6-1.38,0.4-1.7c0.23,0,0.45,0,0.65,0c-0.64,0.67-0.69,1.63-1.18,2.47
		c-0.22-0.64-0.42-1.21-0.65-1.88C105.52,48.04,105.3,48.61,105.04,49.27z"/>
	<path class="st0" d="M77.39,46.78c-0.32,0.64,0.22,1.12,0.33,1.69c0.18-0.55,0.6-1.03,0.42-1.68c0.18,0,0.4,0,0.61,0
		c-0.65,0.66-0.68,1.64-1.19,2.45c-0.21-0.62-0.41-1.18-0.64-1.86c-0.26,0.66-0.48,1.23-0.7,1.81c-0.03,0-0.06,0.01-0.09,0.01
		c-0.04-0.12-0.09-0.23-0.12-0.35c-0.17-0.53-0.33-1.06-0.52-1.58c-0.06-0.17-0.2-0.32-0.3-0.47c0.25,0,0.54,0,0.79,0
		c-0.2,0.6,0.22,1.08,0.39,1.63c0.15-0.38,0.33-0.76,0.44-1.16c0.04-0.14-0.13-0.33-0.19-0.49C76.84,46.78,77.13,46.78,77.39,46.78z
		"/>
	<path class="st0" d="M119.88,30.15c-0.8,0-1.36-0.5-1.37-1.24c-0.01-0.73,0.59-1.28,1.38-1.29c0.8,0,1.35,0.51,1.36,1.24
		C121.25,29.61,120.67,30.15,119.88,30.15z M119.07,28.87c0,0.07-0.01,0.15,0,0.22c0.05,0.54,0.4,0.93,0.82,0.93
		c0.42,0,0.76-0.39,0.81-0.94c0.01-0.07,0.01-0.15,0-0.22c-0.01-0.62-0.36-1.09-0.81-1.1C119.41,27.76,119.07,28.21,119.07,28.87z"
		/>
	<path class="st0" d="M75.15,36.86c0.35-0.08,0.4-0.32,0.41-0.62c0.07-1.43,0.05-1.55-0.35-1.84c0.54,0.03,1.09,0.03,1.62,0.1
		c0.71,0.1,1.1,0.56,1.09,1.17c-0.02,0.61-0.52,1.13-1.2,1.18C76.2,36.89,75.67,36.86,75.15,36.86z M76,34.6
		c0,0.54-0.01,1.09,0,1.64c0.01,0.49,0.24,0.64,0.72,0.51c0.31-0.09,0.51-0.28,0.61-0.58C77.64,35.3,76.97,34.47,76,34.6z"/>
	<path class="st0" d="M80.29,30.15c-0.8-0.02-1.34-0.56-1.32-1.29c0.03-0.73,0.63-1.26,1.42-1.24c0.79,0.02,1.32,0.54,1.3,1.29
		C81.69,29.66,81.09,30.18,80.29,30.15z M79.52,28.89c0,0.66,0.37,1.15,0.86,1.14c0.47-0.01,0.8-0.49,0.79-1.15
		c-0.01-0.65-0.36-1.12-0.84-1.11C79.85,27.77,79.52,28.22,79.52,28.89z"/>
	<path class="st0" d="M106.29,30.15c-0.8-0.01-1.35-0.51-1.35-1.25c0-0.73,0.59-1.28,1.38-1.28c0.79,0,1.35,0.52,1.35,1.26
		C107.67,29.62,107.08,30.16,106.29,30.15z M107.13,28.91c0.01-0.66-0.36-1.16-0.84-1.15c-0.49,0.01-0.85,0.51-0.82,1.16
		c0.02,0.64,0.4,1.11,0.87,1.1C106.79,30.01,107.13,29.54,107.13,28.91z"/>
	<path class="st0" d="M124.93,30.13c0.52-0.22,0.39-0.66,0.36-0.99c-0.04-0.48,0.27-1.06-0.32-1.43c0.49,0,0.99-0.05,1.48,0.01
		c0.8,0.09,1.24,0.57,1.2,1.23c-0.03,0.65-0.62,1.16-1.37,1.18C125.84,30.13,125.38,30.13,124.93,30.13z M125.76,27.8
		c0,0.65-0.01,1.28,0.01,1.92c0,0.09,0.15,0.23,0.25,0.27c0.38,0.13,0.86-0.09,1.02-0.47c0.17-0.41,0.17-0.82-0.09-1.19
		C126.68,27.93,126.29,27.76,125.76,27.8z"/>
	<path class="st0" d="M90.06,30.12c0.53-0.56,0.26-1.23,0.3-1.83c0.02-0.25,0.01-0.51-0.34-0.57c0.53,0,1.06-0.06,1.58,0.01
		c0.79,0.12,1.17,0.59,1.11,1.27c-0.05,0.6-0.61,1.09-1.32,1.12C90.95,30.14,90.49,30.12,90.06,30.12z M90.81,27.82
		c0,0.53,0,1.06,0,1.6c0.01,0.54,0.23,0.74,0.74,0.55c0.23-0.08,0.47-0.3,0.57-0.51C92.5,28.6,91.83,27.74,90.81,27.82z"/>
	<path class="st0" d="M113.88,36.87c0.69-0.23,0.53-0.73,0.51-1.12c-0.02-0.44,0.26-1.01-0.41-1.3c0.49,0,0.94-0.02,1.38,0.01
		c0.28,0.02,0.63,0.08,0.65,0.42c0.01,0.22-0.19,0.45-0.31,0.71c-0.01,0,0.1,0.02,0.16,0.09c0.13,0.16,0.33,0.34,0.33,0.51
		c0,0.18-0.16,0.4-0.32,0.52c-0.13,0.11-0.34,0.14-0.52,0.15C114.9,36.88,114.45,36.87,113.88,36.87z M115.05,35.61
		c0.38-0.1,0.59-0.3,0.48-0.7c-0.09-0.32-0.35-0.38-0.7-0.34c0,0.59,0,1.18,0,1.77c0,0.24,0.1,0.42,0.35,0.44
		c0.26,0.02,0.45-0.1,0.52-0.37C115.82,36.01,115.61,35.76,115.05,35.61z"/>
	<path class="st0" d="M84.43,29.35c0.15-0.78,0.02-1.44-0.36-1.65c0.32,0,0.61,0,0.81,0c-0.07,0.17-0.21,0.37-0.22,0.57
		c-0.03,0.61-0.01,1.22-0.01,1.84c-0.03,0.02-0.07,0.05-0.1,0.07c-0.3-0.31-0.59-0.62-0.89-0.94c-0.29-0.31-0.59-0.62-0.93-0.98
		c0,0.56-0.02,1.03,0.01,1.51c0.01,0.11,0.19,0.22,0.29,0.33c-0.27,0-0.57,0-0.86,0c0.34-0.13,0.34-0.42,0.34-0.71
		c0-0.3-0.02-0.59,0.02-0.89c0.04-0.38-0.05-0.65-0.44-0.8c0.31,0,0.62,0,0.93,0C82.96,27.91,83.88,29,84.43,29.35z"/>
	<path class="st0" d="M124.07,30.17c-0.58-0.62-1.17-1.24-1.8-1.91c0,0.56-0.01,1.05,0.01,1.53c0.01,0.13,0.14,0.24,0.17,0.3
		c-0.15,0-0.45,0-0.74,0c0.37-0.12,0.33-0.43,0.34-0.72c0-0.27-0.01-0.54,0.01-0.81c0.04-0.39-0.02-0.71-0.44-0.86
		c0.32,0,0.64,0,0.92,0c0.01,0.09,0,0.21,0.05,0.26c0.44,0.48,0.89,0.95,1.35,1.44c0.2-0.63,0.04-1.5-0.32-1.7c0.31,0,0.61,0,0.8,0
		c-0.07,0.19-0.2,0.4-0.22,0.62c-0.03,0.6-0.01,1.2-0.01,1.79C124.14,30.13,124.11,30.15,124.07,30.17z"/>
	<path class="st0" d="M114.5,46.76c0.43,0,0.78-0.01,1.13,0c0.32,0.02,0.62,0.1,0.73,0.45c0.12,0.36-0.11,0.58-0.37,0.76
		c0.18,0.57,0.47,0.89,1.07,1.17c-0.63,0.18-0.92-0.01-1.51-1.07c-0.1,0.09-0.25,0.16-0.28,0.26c-0.09,0.34,0.04,0.63,0.34,0.82
		c-0.37,0-0.68,0-1.03,0c0.47-0.31,0.28-0.78,0.28-1.19C114.86,47.57,115.06,47.09,114.5,46.76z M115.39,46.8
		c-0.04,0.04-0.07,0.07-0.11,0.11c0,0.34,0,0.68,0,1.11c0.19-0.06,0.44-0.06,0.51-0.17c0.11-0.17,0.18-0.46,0.11-0.63
		C115.83,47.04,115.57,46.94,115.39,46.8z"/>
	<path class="st0" d="M102.72,48.05c-0.12,0.12-0.27,0.21-0.28,0.31c-0.01,0.29-0.07,0.63,0.4,0.81c-0.43,0-0.76,0-1.11,0
		c0.47-0.35,0.46-2.05,0-2.42c0.44,0.02,0.89,0,1.32,0.08c0.19,0.03,0.45,0.27,0.46,0.43c0.02,0.25-0.15,0.51-0.31,0.76
		c0.16,0.5,0.45,0.95,1.07,1.12C103.59,49.32,103.3,49.12,102.72,48.05z M102.43,48.05c0.23-0.09,0.49-0.1,0.54-0.22
		c0.1-0.2,0.15-0.49,0.07-0.68c-0.06-0.16-0.34-0.23-0.56-0.37c-0.04,0.15-0.06,0.2-0.06,0.25
		C102.43,47.33,102.43,47.62,102.43,48.05z"/>
	<path class="st0" d="M138.97,49.23c-0.75,0-1.24-0.51-1.24-1.26c0-0.73,0.53-1.26,1.26-1.26c0.74,0,1.26,0.53,1.25,1.26
		C140.23,48.7,139.7,49.23,138.97,49.23z M139.82,47.99c-0.11-0.31-0.17-0.61-0.33-0.87c-0.24-0.4-0.73-0.39-1.02-0.02
		c-0.33,0.42-0.32,1.33,0.02,1.74c0.29,0.35,0.76,0.36,1-0.02C139.64,48.58,139.7,48.29,139.82,47.99z"/>
	<path class="st0" d="M80.14,49.23c-0.74,0-1.25-0.5-1.25-1.25c0-0.73,0.53-1.26,1.25-1.27c0.74-0.01,1.26,0.51,1.25,1.25
		C81.39,48.69,80.86,49.22,80.14,49.23z M80.94,47.96c-0.08-0.25-0.12-0.54-0.26-0.78c-0.27-0.48-0.86-0.47-1.12,0.02
		c-0.26,0.5-0.28,1.03,0.01,1.51c0.11,0.18,0.38,0.35,0.58,0.35c0.2,0,0.44-0.2,0.56-0.37C80.85,48.5,80.87,48.24,80.94,47.96z"/>
	<path class="st0" d="M110.47,29.43c-0.17-0.63,0.19-1.27-0.39-1.73c0.27,0,0.54,0,0.72,0c-0.06,0.19-0.18,0.39-0.19,0.61
		c-0.03,0.6-0.01,1.2-0.01,1.8c-0.04,0.02-0.07,0.04-0.11,0.06c-0.59-0.62-1.18-1.24-1.82-1.9c0,0.54-0.02,1,0.01,1.46
		c0.01,0.13,0.18,0.25,0.27,0.36c-0.24,0-0.55,0-0.93,0c0.41-0.11,0.43-0.4,0.43-0.7c0.01-0.3,0-0.59,0.03-0.89
		c0.04-0.39-0.06-0.68-0.47-0.8c0.31,0,0.63,0,0.94,0C108.93,27.94,109.72,28.86,110.47,29.43z"/>
	<path class="st0" d="M86.39,46.78c0.45,0,0.89-0.03,1.33,0.01c0.7,0.07,1.15,0.56,1.13,1.18c-0.01,0.65-0.51,1.17-1.2,1.22
		c-0.42,0.03-0.85,0.01-1.27-0.02C86.83,48.86,86.84,47.12,86.39,46.78z M87.09,46.88c0,0.65-0.02,1.27,0.01,1.88
		c0.01,0.12,0.22,0.33,0.31,0.31c0.26-0.05,0.58-0.12,0.74-0.3c0.31-0.38,0.3-0.85,0.08-1.29C88.02,47.05,87.64,46.85,87.09,46.88z"
		/>
	<path class="st0" d="M124.04,46.78c0.49,0,0.91-0.03,1.32,0.01c0.78,0.06,1.23,0.55,1.2,1.26c-0.03,0.66-0.59,1.16-1.33,1.17
		c-0.38,0-0.76,0-1.2,0C124.55,48.82,124.56,47.08,124.04,46.78z M124.81,46.88c0,0.6-0.01,1.17,0,1.75
		c0.01,0.39,0.19,0.56,0.56,0.45c0.22-0.07,0.48-0.24,0.59-0.43C126.41,47.81,125.84,46.89,124.81,46.88z"/>
	<path class="st0" d="M96.62,49.21c0.45-0.34,0.47-2.11,0-2.4c0.48,0,0.98-0.06,1.45,0.01c0.69,0.11,1.06,0.61,1.01,1.24
		c-0.05,0.63-0.59,1.12-1.28,1.14C97.41,49.22,97.01,49.21,96.62,49.21z M97.33,47.87C97.33,47.87,97.33,47.87,97.33,47.87
		c-0.01,0.27-0.01,0.54,0,0.81c0.01,0.29,0.17,0.45,0.45,0.4c0.2-0.04,0.44-0.12,0.58-0.26c0.32-0.34,0.34-0.79,0.18-1.21
		c-0.15-0.42-0.48-0.67-0.93-0.74c-0.19-0.03-0.28,0.03-0.28,0.23C97.33,47.36,97.33,47.62,97.33,47.87z"/>
	<path class="st0" d="M94.39,46.78c-0.02,0.26,0.78,1.27,1.37,1.71c-0.14-0.61,0.14-1.21-0.32-1.7c0.21,0,0.45,0,0.63,0
		c-0.06,0.18-0.16,0.36-0.17,0.55c-0.02,0.62-0.01,1.24-0.01,1.86c-0.04,0.02-0.07,0.03-0.11,0.05c-0.53-0.62-1.06-1.23-1.6-1.85
		c-0.2,0.56-0.08,1.55,0.29,1.79c-0.21,0-0.34,0-0.46,0c-0.12,0-0.24,0-0.43,0c0.54-0.35,0.31-0.83,0.35-1.24
		c0.04-0.41,0.23-0.91-0.36-1.16C93.84,46.78,94.1,46.78,94.39,46.78z"/>
	<path class="st0" d="M142.75,48.43c-0.08-0.55,0.2-1.17-0.3-1.65c0.22,0,0.45,0,0.62,0c-0.05,0.21-0.14,0.41-0.15,0.61
		c-0.02,0.6-0.01,1.2-0.01,1.8c-0.03,0.02-0.07,0.04-0.1,0.06c-0.53-0.62-1.07-1.24-1.61-1.87c-0.19,0.71-0.08,1.55,0.26,1.78
		c-0.29,0-0.53,0-0.72,0c0.07-0.16,0.18-0.33,0.2-0.5c0.04-0.37,0.02-0.74,0.05-1.11c0.03-0.35-0.07-0.6-0.4-0.76
		c0.26,0,0.53,0,0.79,0C141.39,47.02,142.12,47.94,142.75,48.43z"/>
	<path class="st0" d="M110.75,34.43c0.35,0,0.71,0,1.06,0c0.04,0,0.09,0,0.15,0.03c-0.37,0.07-0.41,0.33-0.4,0.61
		c0,0.33,0,0.67,0.03,1c0.04,0.42,0.33,0.64,0.8,0.64c0.42-0.01,0.66-0.23,0.69-0.66c0.02-0.29,0-0.59,0.01-0.89
		c0-0.32-0.03-0.62-0.41-0.73c0.32,0,0.64,0,0.95,0c-0.32,0.12-0.35,0.38-0.35,0.67c0,0.34,0,0.69-0.04,1.03
		c-0.07,0.53-0.45,0.8-1.06,0.79c-0.66-0.02-1.01-0.28-1.06-0.84c-0.03-0.32-0.02-0.64-0.02-0.96
		C111.09,34.84,111.13,34.54,110.75,34.43z"/>
	<path class="st0" d="M122.39,34.44c0.41,0,0.82,0,1.22,0c-0.39,0.09-0.41,0.37-0.4,0.68c0.01,0.29-0.01,0.59,0.01,0.89
		c0.03,0.47,0.33,0.71,0.82,0.7c0.44-0.01,0.65-0.22,0.68-0.7c0.02-0.31,0-0.61,0.01-0.92c0-0.31-0.06-0.57-0.42-0.64
		c0.31,0,0.62,0,1.02,0c-0.44,0.15-0.4,0.48-0.41,0.78c0,0.26,0.01,0.52-0.01,0.77c-0.04,0.61-0.43,0.94-1.1,0.92
		c-0.71-0.02-1.03-0.31-1.05-0.96c-0.01-0.28,0-0.57-0.01-0.85C122.75,34.84,122.75,34.54,122.39,34.44z"/>
	<path class="st0" d="M80.19,34.45c0,0.17,0,0.34,0,0.58c-0.21-0.5-0.6-0.46-1.01-0.44c0,0.31,0,0.61,0,1
		c0.26-0.05,0.51-0.1,0.76-0.15c0,0.11,0,0.3,0,0.42c-0.24-0.06-0.48-0.12-0.78-0.2c0,0.31-0.04,0.55,0.02,0.76
		c0.03,0.12,0.2,0.27,0.33,0.29c0.44,0.07,0.71-0.2,0.87-0.62c0.02,0.05,0.04,0.07,0.04,0.08c-0.14,0.68-0.14,0.68-0.83,0.68
		c-0.41,0-0.83,0-1.26-0.02c0.49-0.14,0.4-0.54,0.4-0.88c0.01-1.27,0-1.27-0.42-1.51C78.94,34.45,79.55,34.45,80.19,34.45z"/>
	<path class="st0" d="M137.42,34.44c0.24,0,0.56,0,0.87,0c-0.34,0.12-0.33,0.41-0.34,0.7c0,0.3,0.01,0.59-0.01,0.89
		c-0.04,0.6-0.43,0.92-1.08,0.91c-0.71-0.01-1.05-0.31-1.06-0.94c-0.01-0.32,0.02-0.64-0.02-0.96c-0.03-0.2-0.14-0.39-0.22-0.57
		c0.29,0,0.69,0,1.08,0c-0.41,0.08-0.41,0.39-0.4,0.71c0.01,0.28-0.01,0.57,0.01,0.85c0.03,0.46,0.31,0.69,0.79,0.7
		c0.44,0.01,0.68-0.2,0.71-0.67c0.02-0.38,0.03-0.77-0.03-1.14C137.71,34.72,137.52,34.57,137.42,34.44z"/>
	<path class="st0" d="M93.99,27.84c0,0.32,0,0.62,0,0.99c0.27-0.05,0.51-0.1,0.76-0.15c0,0.12,0,0.31,0,0.43
		c-0.22-0.06-0.46-0.14-0.77-0.23c0,0.34-0.04,0.6,0.02,0.84c0.03,0.11,0.24,0.24,0.37,0.25c0.42,0.04,0.66-0.24,0.83-0.6
		c-0.09,0.75-0.09,0.75-0.8,0.75c-0.4,0-0.8,0-1.24,0c0.53-0.4,0.53-2.07-0.01-2.44c0.64,0,1.23,0,1.85,0c0,0.15,0,0.32,0,0.56
		C94.77,27.74,94.39,27.82,93.99,27.84z"/>
	<path class="st0" d="M126.27,34.44c0.31,0,0.61,0,0.86,0c-0.01,0.14-0.07,0.28-0.03,0.39c0.19,0.52,0.4,1.03,0.63,1.53
		c0.08,0.18,0.25,0.33,0.37,0.48c-0.31,0-0.68,0-1.11,0c0.4-0.15,0.26-0.4,0.2-0.66c-0.12-0.45-0.47-0.25-0.72-0.28
		c-0.36-0.05-0.33,0.28-0.37,0.48c-0.03,0.14,0.06,0.31,0.1,0.47c-0.19,0-0.48,0-0.7,0c0.14-0.23,0.33-0.47,0.46-0.74
		c0.18-0.37,0.31-0.77,0.49-1.15C126.53,34.72,126.56,34.53,126.27,34.44z M126.99,35.72c-0.12-0.29-0.23-0.55-0.38-0.9
		c-0.13,0.36-0.22,0.61-0.32,0.9C126.54,35.72,126.74,35.72,126.99,35.72z"/>
	<path class="st0" d="M139.53,35.65c-0.01,0.22-0.03,0.33-0.02,0.43c0.02,0.23-0.1,0.54,0.24,0.62c0.33,0.08,0.64,0,0.84-0.31
		c0.05-0.07,0.09-0.14,0.15-0.24c-0.05,0.71-0.05,0.71-0.69,0.71c-0.44,0-0.89,0-1.35,0c0.53-0.37,0.53-2.08-0.03-2.4
		c0.65,0,1.25,0,1.87,0c0,0.15,0,0.3,0,0.52c-0.25-0.46-0.62-0.41-1.01-0.38c0,0.32,0,0.62,0,0.99c0.27-0.06,0.52-0.11,0.77-0.16
		c0,0.12,0,0.34,0,0.47C140.08,35.83,139.83,35.75,139.53,35.65z"/>
	<path class="st0" d="M119.05,36.85c-0.3,0-0.67,0-1.04,0c0.24-0.21,0.29-0.75,0.02-0.87c-0.24-0.11-0.64-0.11-0.84,0.02
		c-0.29,0.19-0.21,0.66,0.07,0.84c-0.3,0-0.59,0-0.83,0c0.14-0.2,0.32-0.39,0.43-0.62c0.2-0.42,0.35-0.86,0.55-1.29
		c0.1-0.22,0.12-0.39-0.14-0.5c0.29,0,0.59,0,0.83,0c-0.01,0.14-0.07,0.29-0.03,0.41c0.17,0.47,0.36,0.94,0.57,1.4
		C118.74,36.48,118.92,36.67,119.05,36.85z M117.58,34.84c-0.13,0.35-0.22,0.6-0.33,0.88c0.26,0,0.46,0,0.71,0
		C117.84,35.43,117.73,35.18,117.58,34.84z"/>
	<path class="st0" d="M88.39,27.84c0,0.32,0,0.62,0,1c0.27-0.05,0.52-0.1,0.77-0.15c0,0.12,0,0.31,0,0.41
		c-0.23-0.06-0.48-0.13-0.81-0.22c0.08,0.43-0.15,0.83,0.24,1.06c0.3,0.18,0.69-0.05,1.01-0.52c-0.02,0.66-0.05,0.69-0.67,0.69
		c-0.44,0-0.89,0-1.34,0c0.52-0.43,0.51-2.13-0.06-2.43c0.67,0,1.27,0,1.9,0c0,0.15,0,0.32,0,0.46c-0.15-0.1-0.29-0.24-0.45-0.3
		C88.8,27.8,88.6,27.84,88.39,27.84z"/>
	<path class="st0" d="M136.67,29.47c-0.02,0.62-0.05,0.64-0.64,0.64c-0.46,0-0.91,0-1.38,0c0.54-0.42,0.53-2.14-0.06-2.43
		c0.67,0,1.28,0,1.91,0c0,0.14,0,0.31,0,0.45c-0.13-0.09-0.27-0.23-0.44-0.28c-0.17-0.05-0.36-0.01-0.58-0.01c0,0.31,0,0.61,0,0.99
		c0.26-0.05,0.5-0.09,0.75-0.14c0,0.1,0,0.29,0,0.4c-0.22-0.06-0.46-0.13-0.71-0.19c-0.15,0.52-0.08,0.95,0.13,1.05
		C135.96,30.09,136.33,29.91,136.67,29.47z"/>
	<path class="st0" d="M91.55,46.79c-0.06,0.17-0.17,0.37-0.18,0.56c-0.03,0.34-0.01,0.69,0.01,1.03c0.03,0.43,0.28,0.63,0.71,0.63
		c0.4,0,0.62-0.2,0.64-0.65c0.02-0.34,0.03-0.69,0-1.03c-0.02-0.2-0.14-0.38-0.22-0.57c0.07,0,0.23,0,0.39,0c0.1,0,0.19,0,0.22,0
		c-0.06,0.2-0.16,0.38-0.18,0.58c-0.03,0.33,0,0.67-0.03,1c-0.06,0.65-0.4,0.92-1.07,0.89c-0.62-0.03-0.89-0.33-0.9-0.97
		c0-0.32,0.01-0.64-0.02-0.96c-0.02-0.17-0.12-0.34-0.18-0.51C91,46.79,91.32,46.79,91.55,46.79z"/>
	<path class="st0" d="M109.02,49.16c0.24-0.22,0.28-0.73,0.03-0.85c-0.22-0.1-0.53-0.09-0.77-0.01c-0.21,0.07-0.18,0.66,0.02,0.86
		c-0.26,0-0.49,0-0.64,0c0.17-0.38,0.4-0.76,0.53-1.18c0.12-0.38,0.5-0.73,0.23-1.2c0.21,0,0.45,0,0.7,0
		c-0.16,0.3,0.51,2.08,0.92,2.38C109.69,49.16,109.38,49.16,109.02,49.16z M108.69,47.27c-0.03,0-0.06,0-0.09,0
		c-0.08,0.25-0.16,0.5-0.25,0.76c0.22,0,0.41,0,0.63,0C108.88,47.74,108.78,47.51,108.69,47.27z"/>
	<path class="st0" d="M100.2,46.92c0,0.17,0,0.3,0,0.43c0,0.16,0,0.32,0,0.56c0.27-0.06,0.5-0.11,0.73-0.16c0,0.13,0,0.34,0,0.44
		c-0.2-0.07-0.43-0.14-0.76-0.25c0.11,0.44-0.17,0.86,0.24,1.07c0.36,0.18,0.65-0.08,0.85-0.4c0.06,0.49,0,0.57-0.45,0.57
		c-0.44,0-0.88,0-1.37,0c0.51-0.36,0.51-2.07,0.01-2.42c0.59,0,1.13,0,1.69,0c0,0.15,0,0.32,0,0.57
		C100.97,46.82,100.6,46.91,100.2,46.92z"/>
	<path class="st0" d="M128.83,48.44c-0.12,0.75-0.12,0.75-0.81,0.75c-0.34,0-0.69,0-1.12,0c0.57-0.31,0.38-0.79,0.38-1.19
		c-0.01-0.41,0.22-0.9-0.36-1.22c0.6,0,1.15,0,1.71,0c0,0.14,0,0.29,0,0.5c-0.21-0.45-0.56-0.38-0.93-0.34c0,0.31,0,0.6,0,0.97
		c0.25-0.05,0.48-0.09,0.71-0.13c0,0.11,0,0.29,0,0.41c-0.21-0.06-0.43-0.13-0.75-0.23c0.09,0.43-0.15,0.83,0.24,1.07
		C128.16,49.19,128.51,48.96,128.83,48.44z"/>
	<path class="st0" d="M122.59,47.92c0.26-0.06,0.49-0.11,0.71-0.16c0,0.12,0,0.31,0,0.42c-0.21-0.06-0.44-0.13-0.75-0.22
		c0.08,0.43-0.14,0.81,0.22,1.05c0.23,0.15,0.57-0.02,0.86-0.38c0.05,0.48,0,0.55-0.47,0.55c-0.43,0-0.86,0-1.32,0
		c0.49-0.38,0.49-2.06,0.01-2.41c0.29,0,0.56,0,0.83,0c0.27,0,0.54,0,0.83,0c0,0.14,0,0.31,0,0.52c-0.19-0.47-0.55-0.39-0.92-0.36
		C122.59,47.24,122.59,47.53,122.59,47.92z"/>
	<path class="st0" d="M90.35,36.31c-0.18,0.66-0.06,0.53-0.88,0.61c-0.04,0-0.07,0-0.11-0.01c-0.87-0.08-1.4-0.59-1.37-1.3
		c0.04-0.74,0.67-1.24,1.53-1.21c0.27,0.01,0.53,0.06,0.81,0.09c0,0.2,0,0.38,0,0.5c-0.19-0.14-0.38-0.36-0.61-0.44
		c-0.39-0.13-0.77-0.01-1.01,0.34c-0.28,0.41-0.27,0.86-0.05,1.3c0.19,0.38,0.54,0.64,0.95,0.55C89.91,36.7,90.16,36.44,90.35,36.31
		z"/>
	<path class="st0" d="M80.8,36.2c0.06,0.1,0.11,0.22,0.17,0.31c0.18,0.25,0.43,0.36,0.71,0.25c0.13-0.06,0.29-0.22,0.31-0.36
		c0.02-0.13-0.08-0.33-0.19-0.43c-0.18-0.16-0.43-0.24-0.63-0.37c-0.26-0.16-0.39-0.44-0.27-0.7c0.1-0.2,0.34-0.39,0.55-0.45
		c0.26-0.07,0.56,0.01,0.87,0.02c0.01,0.19,0.02,0.36,0.03,0.47c-0.18-0.13-0.35-0.32-0.57-0.38c-0.13-0.04-0.41,0.1-0.46,0.23
		c-0.05,0.11,0.08,0.36,0.2,0.47c0.15,0.15,0.38,0.22,0.57,0.33c0.26,0.15,0.4,0.35,0.36,0.67c-0.04,0.31-0.23,0.51-0.51,0.57
		c-0.24,0.06-0.51,0.04-0.76,0.03c-0.12,0-0.23-0.04-0.39-0.07c-0.02-0.16-0.04-0.36-0.06-0.57C80.76,36.21,80.78,36.2,80.8,36.2z"
		/>
	<path class="st0" d="M103.91,36.87c-0.01-0.27-0.02-0.45-0.03-0.74c0.11,0.19,0.16,0.29,0.23,0.39c0.18,0.24,0.43,0.35,0.71,0.23
		c0.14-0.06,0.29-0.22,0.31-0.36c0.02-0.13-0.09-0.33-0.2-0.42c-0.17-0.15-0.41-0.23-0.6-0.35c-0.26-0.16-0.41-0.41-0.33-0.72
		c0.08-0.31,0.32-0.47,0.63-0.48c0.27-0.01,0.53,0.03,0.81,0.05c0,0.18,0,0.35,0,0.61c-0.15-0.38-0.34-0.63-0.71-0.54
		c-0.12,0.03-0.28,0.15-0.31,0.25c-0.03,0.11,0.03,0.3,0.12,0.38c0.17,0.15,0.4,0.24,0.6,0.36c0.27,0.16,0.49,0.36,0.43,0.7
		c-0.05,0.36-0.3,0.58-0.64,0.61C104.61,36.9,104.27,36.87,103.91,36.87z"/>
	<path class="st0" d="M87.28,27.69c-0.01,0.15-0.03,0.3-0.04,0.5c-0.23-0.49-0.62-0.33-0.99-0.36c0,0.31,0,0.59,0,0.96
		c0.26-0.03,0.52-0.05,0.79-0.08c0,0.09,0,0.22,0,0.32c-0.25-0.04-0.51-0.08-0.77-0.12c-0.14,0.72-0.06,0.97,0.39,1.17
		c-0.44,0-0.83,0-1.21,0c0.5-0.36,0.49-2.08-0.08-2.39C86.03,27.69,86.63,27.69,87.28,27.69z"/>
	<path class="st0" d="M141.16,36.86c-0.01-0.25-0.02-0.44-0.03-0.74c0.11,0.19,0.16,0.3,0.23,0.4c0.18,0.26,0.51,0.35,0.78,0.21
		c0.32-0.16,0.36-0.54,0.06-0.75c-0.17-0.12-0.37-0.2-0.55-0.31c-0.3-0.17-0.51-0.42-0.4-0.79c0.1-0.36,0.4-0.48,0.75-0.47
		c0.22,0,0.44,0.04,0.68,0.06c0,0.16,0,0.33,0,0.4c-0.18-0.1-0.4-0.26-0.64-0.32c-0.1-0.03-0.33,0.12-0.36,0.23
		c-0.03,0.13,0.04,0.34,0.14,0.44c0.17,0.15,0.4,0.23,0.6,0.35c0.26,0.15,0.45,0.36,0.4,0.69c-0.05,0.33-0.27,0.55-0.58,0.59
		C141.9,36.89,141.53,36.86,141.16,36.86z"/>
	<path class="st0" d="M119.87,49.16c0.48-0.36,0.46-2.08-0.04-2.39c0.32,0,0.6,0,0.88,0c0.27,0,0.54,0,0.83,0c0,0.1,0,0.23,0,0.3
		c-0.29-0.07-0.59-0.14-0.93-0.22c0,0.38,0,0.67,0,1.05c0.27-0.07,0.51-0.13,0.74-0.18c0,0.13,0,0.35,0,0.47
		c-0.21-0.07-0.45-0.14-0.69-0.22c-0.17,0.65-0.08,0.99,0.31,1.2C120.6,49.16,120.27,49.16,119.87,49.16z"/>
	<path class="st0" d="M28.96,17.44c0.34-0.29,1.39-0.37,1.67-0.13c0.05,0.04,0.01,0.29-0.03,0.29c-0.3,0.08-0.36,0.29-0.39,0.55
		c-0.01,0.09-0.11,0.21-0.19,0.23c-0.06,0.01-0.21-0.1-0.22-0.17c-0.05-0.38-0.23-0.57-0.62-0.6C29.11,17.6,29.05,17.51,28.96,17.44
		z"/>
	<path class="st0" d="M30.49,15.86c-0.04,0.21-0.02,0.5-0.16,0.64c-0.11,0.12-0.4,0.09-0.61,0.08c-0.07,0-0.17-0.13-0.2-0.21
		c-0.01-0.05,0.11-0.15,0.19-0.19C29.94,16.06,30.18,15.98,30.49,15.86z"/>
	<path class="st0" d="M95.07,26.72c-0.25,0.24-0.5,0.47-0.76,0.73C94.5,26.84,94.84,26.52,95.07,26.72z"/>
	<path class="st0" d="M103.4,33.47c-0.25,0.23-0.47,0.44-0.72,0.67C102.83,33.59,103.15,33.28,103.4,33.47z"/>
	<path class="st0" d="M88.7,27.42c0.05-0.11,0.06-0.15,0.08-0.18c0.16-0.23,0.31-0.46,0.47-0.69C89.54,26.73,89.5,26.79,88.7,27.42z
		"/>
	<path class="st0" d="M9.56,14.31c0.31-2.89,0.63-5.8,0.94-8.71"/>
	<path class="st0" d="M6.37,21.7c-0.17-0.15-0.33-0.32-0.46-0.5c-0.02-0.02,0.12-0.16,0.26-0.34"/>
	<path class="st0" d="M52.19,18.81c0.19,0.17,0.3,0.26,0.4,0.36c-0.16,0.13-0.32,0.28-0.5,0.38"/>
	<path class="st0" d="M99.01,28.95c0-0.06-0.01-0.09,0-0.13c0.08-0.22,0.16-0.43,0.28-0.75"/>
	<path class="st0" d="M33.62,32.44c0.12-0.1,0.22-0.21,0.34-0.26c1.55-0.64,2.16-1.82,1.76-3.45c-0.12-0.46-0.31-0.9-0.47-1.36
		c-0.05-0.14-0.09-0.29-0.16-0.5c1.09,0.4,1.76,1.09,1.91,2.17c0.18,1.23-0.13,2.3-1.2,3.05C35.15,32.57,34.08,32.74,33.62,32.44z"
		/>
	<path class="st0" d="M25.72,32.51c-0.7,0.19-1.27,0.15-1.76-0.2c-0.47-0.34-0.9-0.73-1.29-1.14c-0.17-0.18-0.3-0.47-0.32-0.73
		c-0.09-1.04,0.12-2.02,0.76-2.86c0.21-0.27,0.54-0.45,0.83-0.64c0.1-0.06,0.27,0,0.41,0c-0.03,0.12-0.06,0.25-0.1,0.36
		c-0.24,0.65-0.57,1.29-0.71,1.96c-0.22,1.04,0.21,1.88,1.09,2.48C24.95,32,25.3,32.23,25.72,32.51z"/>
</g>
</svg>
