<?xml version="1.0" encoding="utf-8"?>
<!-- Generator: Adobe Illustrator 27.5.0, SVG Export Plug-In . SVG Version: 6.00 Build 0)  -->
<svg version="1.1" id="Layer_1" xmlns="http://www.w3.org/2000/svg" xmlns:xlink="http://www.w3.org/1999/xlink" x="0px" y="0px"
	 viewBox="0 0 612 661" style="enable-background:new 0 0 612 661;" xml:space="preserve">
<style type="text/css">
	.st0{clip-path:url(#SVGID_00000018213158538409792400000007939643059510109362_);}
	.st1{clip-path:url(#SVGID_00000050622066043375694520000003711463802925168301_);}
	.st2{fill:none;stroke:#000000;stroke-width:0.25;stroke-miterlimit:10;}
	.st3{fill:#D0A771;}
	.st4{font-family:'EmberRough';}
	.st5{font-size:44px;}
</style>
<g>
	
		<image style="overflow:visible;opacity:0.75;enable-background:new    ;" width="580" height="606" xlink:href="F82B585E.png"  transform="matrix(1 0 0 1 15 -3.2)">
	</image>
	<g>
		<g>
			<g>
				<defs>
					<path id="SVGID_00000103257572565867300300000012481924651403022484_" d="M168.2,390l36.2-9.7l-60.2,145.5l161.5-76.6
						l162.2,76.6l-59.2-145.5l34.7,10.2L518,584L305.6,482.1L90.1,584L168.2,390L168.2,390 M220.8,200.7l76.5-191l80.2,191h-30.1
						L297.2,86.3l-46.8,114.4L220.8,200.7L220.8,200.7z M302.7,315.6c7.7,0.3,15.4,0.2,23.4,0.2c0.3-3.6,0.6-6.4,0.9-9.3
						c1.1-12.2,1.9-24.4,8.6-35.2c13.6-22.1,34.2-33.4,59.2-35.6c19.6-1.8,39.5-1,59.2-0.7c24.7,0.3,49.3,1.2,74,1.9
						c3.9,0.1,7.7,0.4,12.7,0.6c-1.7,4.6-2.8,8.5-4.5,12.1c-5.8,12.3-14.2,22.7-22.8,33c-8.5,10.1-18.3,19-30,24.9
						c-9.7,4.9-20.3,8.1-30.7,11.3c-17.3,5.3-35.1,9.1-53.3,9.6c-17.6,0.4-35.3,12.9-37.6,33.8c-1.2,10.5-0.4,56.2-0.4,66.8
						c0,0,14.2,5.2,19.3,6.7c3.5,1,4.4-0.2,4.6-3.3c0.3-6.6,0.7-48.3,1.1-55c0.8-13,5.9-19.5,18.7-22.4c5.7-1.3,11.8-0.9,17.6-2.2
						c14.8-3.3,29.5-7,44.2-10.8c30.5-7.9,55.2-24.6,74.4-49.3c13.6-17.5,22.4-37.6,29.1-58.6c2.6-8.1,4.8-16.4,7.2-24.5
						c-4.3-0.2-8.7-0.3-13-0.4c-22-0.5-44.1-0.7-66.2-1.5c-36.6-1.3-73.1-1.2-109.6,1.1c-22.5,1.4-42.3,9.4-58.2,25.6
						c-6.7,6.8-22,21.2-28.3,28.8v1c-6.3-7.6-19.7-23-26.4-29.8c-15.9-16.2-35.7-24.2-58.2-25.6c-36.5-2.3-73-2.4-109.6-1.1
						c-22.1,0.8-44.2,1-66.2,1.5c-4.3,0.1-8.7,0.2-13,0.4c2.4,8.1,4.6,16.4,7.2,24.5c6.7,21,15.5,41.1,29.1,58.6
						c19.2,24.7,43.9,41.4,74.3,49.3c14.7,3.8,29.4,7.5,44.2,10.8c5.8,1.3,11.9,0.9,17.6,2.2c12.8,2.9,17.9,9.4,18.7,22.4
						c0.4,6.7,0.8,48.4,1.1,55c0.2,3.1,1.1,4.3,4.6,3.3c5.1-1.5,19.3-6.7,19.3-6.7c0-10.6,0.8-56.3-0.4-66.8
						c-2.3-20.9-20-33.4-37.6-33.8c-18.2-0.5-35.9-4.3-53.3-9.6c-10.4-3.2-21-6.4-30.7-11.3c-11.7-5.9-21.5-14.8-30-24.9
						c-8.6-10.3-17-20.7-22.8-33c-1.7-3.6-2.8-7.5-4.5-12.1c5-0.2,8.8-0.5,12.7-0.6c24.7-0.7,49.3-1.6,74-1.9
						c19.7-0.3,39.6-1.1,59.2,0.7c25,2.2,45.6,13.5,59.2,35.6c6.7,10.8,7.5,23,8.6,35.2c0.2,2.8,0.6,5.5,0.9,9
						c0,0.2,0.2,0.4,0.4,0.4c7.8,0,15.4,0.1,23-0.2"/>
				</defs>
				<clipPath id="SVGID_00000138545985771590874910000004729880311593020056_">
					<use xlink:href="#SVGID_00000103257572565867300300000012481924651403022484_"  style="overflow:visible;"/>
				</clipPath>
				<g style="clip-path:url(#SVGID_00000138545985771590874910000004729880311593020056_);">
					<g>
						<defs>
							<rect id="SVGID_00000029724768439963656800000011897069284531303352_" x="24.8" y="6.6" width="556.9" height="577.4"/>
						</defs>
						<clipPath id="SVGID_00000169547244613620225510000017834750018285192582_">
							<use xlink:href="#SVGID_00000029724768439963656800000011897069284531303352_"  style="overflow:visible;"/>
						</clipPath>
						<g transform="matrix(1 0 0 1 0 0)" style="clip-path:url(#SVGID_00000169547244613620225510000017834750018285192582_);">
							
								<image style="overflow:visible;enable-background:new    ;" width="1024" height="679" xlink:href="../../Downloads/beach1.jpg"  transform="matrix(0.5438 0 0 0.8504 24.8085 6.5957)">
							</image>
						</g>
					</g>
					<g>
						
							<rect id="SVGID_00000106843088807506665280000001904340241533262270_" x="24.8" y="6.6" class="st2" width="556.9" height="577.4"/>
					</g>
				</g>
			</g>
			<g>
				<path id="SVGID_1_" class="st2" d="M168.2,390l36.2-9.7l-60.2,145.5l161.5-76.6l162.2,76.6l-59.2-145.5l34.7,10.2L518,584
					L305.6,482.1L90.1,584L168.2,390L168.2,390 M220.8,200.7l76.5-191l80.2,191h-30.1L297.2,86.3l-46.8,114.4L220.8,200.7
					L220.8,200.7z M302.7,315.6c7.7,0.3,15.4,0.2,23.4,0.2c0.3-3.6,0.6-6.4,0.9-9.3c1.1-12.2,1.9-24.4,8.6-35.2
					c13.6-22.1,34.2-33.4,59.2-35.6c19.6-1.8,39.5-1,59.2-0.7c24.7,0.3,49.3,1.2,74,1.9c3.9,0.1,7.7,0.4,12.7,0.6
					c-1.7,4.6-2.8,8.5-4.5,12.1c-5.8,12.3-14.2,22.7-22.8,33c-8.5,10.1-18.3,19-30,24.9c-9.7,4.9-20.3,8.1-30.7,11.3
					c-17.3,5.3-35.1,9.1-53.3,9.6c-17.6,0.4-35.3,12.9-37.6,33.8c-1.2,10.5-0.4,56.2-0.4,66.8c0,0,14.2,5.2,19.3,6.7
					c3.5,1,4.4-0.2,4.6-3.3c0.3-6.6,0.7-48.3,1.1-55c0.8-13,5.9-19.5,18.7-22.4c5.7-1.3,11.8-0.9,17.6-2.2
					c14.8-3.3,29.5-7,44.2-10.8c30.5-7.9,55.2-24.6,74.4-49.3c13.6-17.5,22.4-37.6,29.1-58.6c2.6-8.1,4.8-16.4,7.2-24.5
					c-4.3-0.2-8.7-0.3-13-0.4c-22-0.5-44.1-0.7-66.2-1.5c-36.6-1.3-73.1-1.2-109.6,1.1c-22.5,1.4-42.3,9.4-58.2,25.6
					c-6.7,6.8-22,21.2-28.3,28.8v1c-6.3-7.6-19.7-23-26.4-29.8c-15.9-16.2-35.7-24.2-58.2-25.6c-36.5-2.3-73-2.4-109.6-1.1
					c-22.1,0.8-44.2,1-66.2,1.5c-4.3,0.1-8.7,0.2-13,0.4c2.4,8.1,4.6,16.4,7.2,24.5c6.7,21,15.5,41.1,29.1,58.6
					c19.2,24.7,43.9,41.4,74.3,49.3c14.7,3.8,29.4,7.5,44.2,10.8c5.8,1.3,11.9,0.9,17.6,2.2c12.8,2.9,17.9,9.4,18.7,22.4
					c0.4,6.7,0.8,48.4,1.1,55c0.2,3.1,1.1,4.3,4.6,3.3c5.1-1.5,19.3-6.7,19.3-6.7c0-10.6,0.8-56.3-0.4-66.8
					c-2.3-20.9-20-33.4-37.6-33.8c-18.2-0.5-35.9-4.3-53.3-9.6c-10.4-3.2-21-6.4-30.7-11.3c-11.7-5.9-21.5-14.8-30-24.9
					c-8.6-10.3-17-20.7-22.8-33c-1.7-3.6-2.8-7.5-4.5-12.1c5-0.2,8.8-0.5,12.7-0.6c24.7-0.7,49.3-1.6,74-1.9
					c19.7-0.3,39.6-1.1,59.2,0.7c25,2.2,45.6,13.5,59.2,35.6c6.7,10.8,7.5,23,8.6,35.2c0.2,2.8,0.6,5.5,0.9,9c0,0.2,0.2,0.4,0.4,0.4
					c7.8,0,15.4,0.1,23-0.2"/>
			</g>
		</g>
	</g>
</g>
<g>
	
		<image style="overflow:visible;opacity:0.65;enable-background:new    ;" width="526" height="60" xlink:href="F82B585B.png"  transform="matrix(1 0 0 1 43 592.5256)">
	</image>
	<g>
		<text transform="matrix(1 0 0 1 49.9439 633.2133)" class="st3 st4 st5">blue star dive school</text>
	</g>
</g>
</svg>
