<?xml version="1.0" encoding="utf-8"?>
<!-- Generator: Adobe Illustrator 27.5.0, SVG Export Plug-In . SVG Version: 6.00 Build 0)  -->
<svg version="1.0" id="Layer_1" xmlns="http://www.w3.org/2000/svg" xmlns:xlink="http://www.w3.org/1999/xlink" x="0px" y="0px"
	 viewBox="0 0 160 160" style="enable-background:new 0 0 160 160;" xml:space="preserve">
<style type="text/css">
	.st0{fill:#00006D;}
	.st1{opacity:0.23;}
</style>
<g>
	<path class="st0" d="M83.26,71.91c0.73-1.81,1.41-3.63,2.2-5.41c0.66-1.5,1.42-2.95,2.19-4.4c0.64-1.21,0.57-1.69-0.51-2.44
		c-1.05-0.73-1.06-1.05,0.09-1.71c0.83-0.48,1.69-0.94,2.59-1.24c2.12-0.7,4.01-1.74,5.8-3.1c2.56-1.93,5.36-3.54,7.93-5.47
		c1.4-1.05,2.52-2.46,3.94-3.89c-0.39,1.2-0.68,2.28-1.08,3.32c-1.27,3.29-3.62,5.53-6.87,6.81c-4.82,1.89-7.94,5.27-9.38,10.25
		c-0.88,3.04-2.04,6.02-2.71,9.1c-0.4,1.83-0.24,3.84-0.05,5.73c0.51,5.14,0.67,10.27,0.36,15.44c-0.21,3.49-0.04,7.02,0.26,10.51
		c0.23,2.58,1.15,5.09,1.39,7.67c0.18,1.98,0.9,3.71,1.66,5.45c0.1,0.23,0.49,0.44,0.77,0.47c0.71,0.09,1.45-0.03,2.14,0.12
		c1.93,0.41,2.49,1.34,2.08,3.26c-0.84,4-2.33,7.76-4.36,11.31c-0.28,0.49-0.5,1.03-0.69,1.56c-0.43,1.16-1.13,2.05-2.29,2.54
		c-0.9,0.38-1.68,0.88-2.1,1.85c-0.21,0.48-0.67,0.84-0.96,1.29c-0.44,0.69-0.87,1.39-1.23,2.12c-0.54,1.11-2.34,1.82-3.75,1.42
		c-2.37-0.67-3.94-2.37-5.41-4.19c-0.53-0.66-1.01-1.38-1.41-2.13c-0.76-1.4-0.87-2.92-0.23-4.35c0.66-1.48,0.28-2.9,0.16-4.37
		c-0.3-3.61-0.43-7.19,0.36-10.79c0.72-3.33,0.74-6.74-0.14-10.1c1.34,1.8,1.92,3.87,2.09,6.04c0.15,1.85,0.04,3.73,0.12,5.59
		c0.04,1.01,0.24,2.02,0.49,3c0.52-3.58,1.03-7.17,1.58-10.96c0.3,0.93,0.68,1.76,0.82,2.62c0.14,0.84,0.03,1.72,0.21,2.59
		c1.06-2.3,1.56-4.67,1.47-7.15c-0.1-2.8-0.91-5.34-2.75-7.5c-2.99-3.51-2.5-7.3-0.93-11.17c0.57-1.41,1.37-2.74,1.87-4.18
		c0.76-2.21,1.3-4.51,2.04-6.73c0.55-1.63,0.44-2.75-0.98-4.09c-1.88-1.77-2.36-4.41-2.72-6.94c-0.12-0.81-0.19-1.64-0.34-2.45
		c-0.15-0.78-0.59-1.15-1.46-0.97c-2.04,0.42-2.89-0.33-2.91-2.5c-0.03-3.36-0.72-6.5-2.82-9.25c-1.4-1.84-3.38-2.79-5.38-3.76
		c-5.23-2.54-8.84-6.61-10.37-12.18c-1.12-4.09-0.7-5.78,1.99-9.02c1.45,2.04,3.23,1.19,5.01,0.59c0.48-0.16,1-0.19,1.62-0.31
		c-1.24,1.46-2.48,2.68-3.43,4.09c-0.96,1.42-1.36,3.08-0.77,4.84c0.23-1,0.45-2,0.68-3c0.11,0.01,0.22,0.02,0.33,0.03
		c0.03,0.28,0.11,0.58,0.08,0.85c-0.54,4.2,1.46,7.43,3.95,10.5c1.53,1.88,3.33,3.4,5.37,4.72c3.06,1.98,5.29,4.8,7.26,7.81
		c0.81,1.24,1.39,2.64,2.11,3.94c0.78,1.4,1.59,2.78,2.42,4.15C81.46,69.13,82.34,70.47,83.26,71.91z M88.35,134.24
		c0.1,0.04,0.2,0.09,0.3,0.13c0.22-0.19,0.51-0.33,0.64-0.56c1.53-2.75,2.34-5.71,2.57-8.83c0.06-0.8-0.53-0.99-1.14-0.89
		c-1.01,0.17-2.13,0.26-2.98,0.75c-1.17,0.68-2.47,1.51-3.12,2.62c-1.03,1.74,0.13,3.88,2.08,4.55c0.24,0.08,0.47,0.18,0.7,0.25
		C88.37,132.56,89.05,133.01,88.35,134.24z"/>
	<path class="st0" d="M89.67,24.49c2.4-0.01,4.25,1.79,4.29,4.14c0.04,2.41-1.83,4.3-4.25,4.29c-2.4,0-4.26-1.79-4.28-4.13
		C85.42,26.35,87.25,24.49,89.67,24.49z M93.3,28.49c-0.02-0.96-0.76-1.74-1.66-1.76c-0.9-0.02-1.83,0.88-1.84,1.76
		c-0.01,0.92,0.85,1.78,1.79,1.78C92.55,30.27,93.32,29.48,93.3,28.49z M90.01,30.05c-0.44,0.59-0.91,0.94-0.87,1.22
		c0.05,0.34,0.53,0.62,0.82,0.93c0.29-0.29,0.78-0.54,0.83-0.87C90.84,31.03,90.41,30.67,90.01,30.05z"/>
	<path class="st0" d="M107.53,38.68c0.29-1.66-0.64-2.57-1.98-3.03c-1.43-0.5-2.07-1.48-2.4-2.86c-0.18-0.74-0.58-1.42-0.86-2.14
		c-0.12-0.31-0.19-0.63-0.17-1.03c2.51,1.04,4.86,2.24,6.08,4.83C108.65,35.41,108.3,37.54,107.53,38.68z"/>
	<path class="st0" d="M88.33,11.92c-1.3,0-2.14-0.84-2.12-2.14c0.02-1.25,0.86-2.1,2.07-2.1c1.21,0,2.16,0.97,2.14,2.17
		C90.41,11.07,89.55,11.91,88.33,11.92z M89.73,10.77c-0.58-0.43-0.94-0.9-1.17-0.84c-0.36,0.09-0.63,0.53-0.94,0.82
		c0.27,0.28,0.53,0.78,0.82,0.8C88.76,11.57,89.12,11.16,89.73,10.77z"/>
	<path class="st0" d="M82.97,5.03C82.95,6.04,82,6.99,81.04,6.96c-1-0.03-1.88-0.97-1.85-1.99c0.02-1.03,0.92-1.87,1.97-1.83
		C82.15,3.19,82.99,4.05,82.97,5.03z M81.93,4.3c-0.56-0.38-0.84-0.71-1.13-0.71c-0.25,0-0.51,0.37-0.76,0.58
		c0.23,0.27,0.42,0.7,0.69,0.75C81,4.97,81.33,4.63,81.93,4.3z"/>
	<path class="st0" d="M69.54,19.84c-0.79-0.01-1.45-0.68-1.39-1.45c0.06-0.86,0.63-1.27,1.4-1.36c0.67-0.08,1.47,0.74,1.48,1.41
		C71.03,19.15,70.29,19.85,69.54,19.84z"/>
	<path class="st0" d="M89.73,10.77c-0.61,0.4-0.96,0.8-1.29,0.78c-0.29-0.02-0.55-0.51-0.82-0.8c0.31-0.29,0.58-0.74,0.94-0.82
		C88.79,9.87,89.15,10.33,89.73,10.77z"/>
	<path class="st0" d="M74.64,15.62c2.4-0.01,4.25,1.79,4.29,4.14c0.04,2.41-1.83,4.3-4.25,4.29c-2.4,0-4.26-1.79-4.28-4.13
		C70.39,17.49,72.22,15.63,74.64,15.62z M78.26,19.62c-0.02-0.96-0.76-1.74-1.66-1.76c-0.9-0.02-1.83,0.88-1.84,1.76
		c-0.01,0.92,0.85,1.78,1.79,1.78C77.51,21.41,78.28,20.61,78.26,19.62z M74.98,21.19c-0.44,0.59-0.91,0.94-0.87,1.22
		c0.05,0.34,0.53,0.62,0.82,0.93c0.29-0.29,0.78-0.54,0.83-0.87C75.8,22.17,75.37,21.8,74.98,21.19z"/>
	<path class="st0" d="M78.82,25.19c0.02,0.99-0.75,1.78-1.72,1.78c-0.94,0-1.8-0.86-1.79-1.78c0.01-0.89,0.94-1.78,1.84-1.76
		C78.06,23.45,78.8,24.24,78.82,25.19z"/>
	<g>
		<path class="st0" d="M6.89,63.91h6.16l-0.25,1.28H8.14l-0.78,4.09h4.29l-0.25,1.27H7.11l-1.04,5.5H4.58L6.89,63.91z"/>
		<path class="st0" d="M18.51,64.09c0.74-0.17,1.74-0.26,2.65-0.26c1.21,0,2.25,0.29,2.9,0.88c0.56,0.49,0.9,1.18,0.9,2.01
			c0,1.76-1.35,3.08-2.88,3.51l0,0.05c0.85,0.28,1.25,1.19,1.34,2.44c0.14,1.69,0.22,2.85,0.38,3.34h-1.55
			c-0.07-0.26-0.19-1.53-0.28-2.93c-0.1-1.67-0.71-2.36-1.91-2.36h-1.33l-1,5.29h-1.48L18.51,64.09z M18.94,69.6h1.34
			c1.89,0,3.11-1.23,3.11-2.69c0-1.3-0.98-1.88-2.34-1.88c-0.6,0-0.98,0.05-1.26,0.13L18.94,69.6z"/>
		<path class="st0" d="M35.9,70.35h-4.41l-0.84,4.43h4.97l-0.25,1.28h-6.46l2.31-12.14h6.18l-0.25,1.28h-4.68l-0.74,3.89h4.42
			L35.9,70.35z"/>
		<path class="st0" d="M47.64,70.35h-4.41l-0.84,4.43h4.97l-0.25,1.28h-6.46l2.31-12.14h6.18l-0.25,1.28h-4.68l-0.74,3.89h4.42
			L47.64,70.35z"/>
		<path class="st0" d="M54.67,64.08c0.93-0.16,1.95-0.24,3.02-0.24c2.02,0,3.57,0.57,4.46,1.61c0.65,0.68,1.13,1.76,1.14,3.29
			c0,2.2-0.87,4.37-2.44,5.7c-1.4,1.18-3.17,1.69-5.5,1.69c-1.06,0-2.16-0.06-2.94-0.15L54.67,64.08z M54.13,74.81
			c0.54,0.07,1.12,0.09,1.57,0.09c1.93,0,3.33-0.57,4.34-1.61c1.09-1.11,1.65-2.77,1.65-4.48c0-2.15-1.05-3.75-4.08-3.75
			c-0.54,0-1.22,0.03-1.65,0.13L54.13,74.81z"/>
		<path class="st0" d="M71.09,63.91l-2.31,12.14h-1.49l2.31-12.14H71.09z"/>
	</g>
	<g>
		<path class="st0" d="M101.51,69.1H97.1l-0.84,4.43h4.97l-0.25,1.28h-6.46l2.31-12.14h6.18l-0.25,1.28h-4.68l-0.74,3.89h4.42
			L101.51,69.1z"/>
	</g>
	<g>
		<path class="st0" d="M146.05,60.06c-1.05,0-2.11-0.29-3.19-0.88c-1.08-0.59-2.06-1.4-2.94-2.44c-0.85-1-1.52-2.07-2.01-3.21
			c-0.5-1.14-0.74-2.2-0.74-3.15c0-1.26,0.43-2.28,1.28-3.06c0.85-0.78,1.97-1.17,3.34-1.17c1.26,0,2.54,0.39,3.84,1.17
			s2.43,1.83,3.37,3.16c0.68,0.94,1.24,2,1.66,3.18c0.42,1.18,0.64,2.24,0.64,3.19c0,0.94-0.23,1.7-0.69,2.26
			c-0.46,0.56-1.07,0.85-1.84,0.85c-0.31,0-0.69-0.06-1.12-0.16C147.12,59.97,146.58,60.06,146.05,60.06z M148.75,59.79
			c0.69,0,1.25-0.24,1.67-0.73c0.42-0.49,0.63-1.12,0.63-1.92c0-1.57-0.52-3.16-1.57-4.77c-1-1.54-2.29-2.8-3.86-3.78
			c-1.63-1.03-3.23-1.55-4.83-1.55c-1.01,0-1.83,0.3-2.47,0.9c-0.63,0.6-0.95,1.37-0.95,2.31c0,1.91,0.98,3.84,2.95,5.77
			s4.03,3.01,6.18,3.22c-0.41-0.23-0.89-0.65-1.45-1.25c-0.56-0.6-0.84-1-0.84-1.21c0-0.05,0.03-0.08,0.08-0.08
			c0.03,0,0.08,0.05,0.14,0.16c0.62,1.11,1.43,1.91,2.44,2.4c0.85,0,1.53-0.25,2.04-0.75c0.5-0.5,0.75-1.18,0.75-2.03
			c0-1.59-0.85-3.21-2.54-4.89c-1.69-1.67-3.34-2.51-4.96-2.51c-0.64,0-1.16,0.15-1.56,0.45c-0.4,0.3-0.6,0.7-0.6,1.19
			c0,0.23,0.07,0.47,0.21,0.71c0.14,0.24,0.27,0.36,0.4,0.36c0.04-0.01,0.06-0.02,0.06-0.04l-0.04-0.09
			c-0.08-0.08-0.12-0.21-0.12-0.4c0-0.32,0.19-0.48,0.56-0.48c0.23,0,0.43,0.08,0.58,0.24s0.24,0.35,0.24,0.56
			c0,0.44-0.24,0.66-0.73,0.66c-0.36,0-0.68-0.16-0.94-0.47c-0.27-0.31-0.4-0.67-0.4-1.09c0-0.59,0.24-1.08,0.72-1.47
			c0.48-0.39,1.08-0.59,1.81-0.59c1.67,0,3.33,0.87,4.99,2.61c1.66,1.74,2.49,3.48,2.49,5.22c0,0.74-0.18,1.41-0.53,2
			c-0.35,0.59-0.81,0.99-1.38,1.2C148.21,59.75,148.48,59.79,148.75,59.79z"/>
		<path class="st0" d="M141.07,68.4c-0.14,0-0.81-0.5-1.99-1.49c-0.97-0.81-1.46-1.46-1.46-1.92c0-0.31,0.12-0.57,0.36-0.78
			s0.53-0.31,0.88-0.31c0.31,0,0.59,0.06,0.86,0.19c0.26,0.13,0.78,0.46,1.56,0.99c0.82,0.55,1.34,0.83,1.57,0.83
			c0.28,0,0.42-0.15,0.42-0.44c0-1-1.85-2.54-5.56-4.61c0.03-0.33,0.04-0.54,0.04-0.61c0-0.24-0.01-0.46-0.04-0.68l2.53,1.6
			c1.45,0.91,2.36,1.36,2.72,1.36c0.21,0,0.31-0.09,0.31-0.26c0-0.35-0.74-1.04-2.21-2.07c-0.09-0.06-0.14-0.11-0.14-0.14
			c0-0.03,0.02-0.05,0.06-0.06c0.03,0.01,0.06,0.02,0.08,0.04l0.26,0.2c1.4,1.05,2.11,1.75,2.11,2.12c0,0.23-0.11,0.43-0.32,0.6
			s-0.46,0.25-0.76,0.25c-0.44,0-1.05-0.26-1.83-0.77c1.11,0.81,1.88,1.43,2.29,1.86c0.41,0.43,0.62,0.83,0.62,1.2
			c0,0.3-0.12,0.55-0.37,0.76s-0.55,0.31-0.91,0.31c-0.46,0-1.16-0.31-2.1-0.94c-0.96-0.64-1.58-0.96-1.85-0.96
			c-0.28,0-0.42,0.14-0.42,0.42c0,0.61,1.08,1.66,3.26,3.15c0.07,0.03,0.1,0.07,0.1,0.1C141.13,68.38,141.11,68.4,141.07,68.4z"/>
		<path class="st0" d="M141.06,74.18c-0.02,0-0.11-0.06-0.27-0.18l-0.55-0.44c-1.75-1.42-2.62-2.63-2.62-3.64
			c0-0.48,0.17-0.88,0.52-1.21c0.34-0.33,0.78-0.49,1.3-0.49c1.23,0,2.31,0.86,3.25,2.57c0.49,0.9,0.74,1.64,0.74,2.21
			c0,0.25-0.07,0.46-0.22,0.63c-0.15,0.17-0.33,0.26-0.54,0.26c-0.49,0-0.91-0.32-1.26-0.96c-0.34-0.64-0.67-1.72-0.97-3.22
			c-0.7-0.46-1.29-0.7-1.76-0.7c-0.59,0-0.88,0.32-0.88,0.95c0,1.08,1.05,2.41,3.16,3.97c0.11,0.08,0.16,0.15,0.16,0.21
			C141.11,74.16,141.09,74.18,141.06,74.18z M142.96,73.31c0.22,0,0.33-0.12,0.33-0.36c0-0.36-0.25-0.84-0.75-1.43
			c-0.5-0.59-1.15-1.17-1.95-1.74c0.25,0.98,0.61,1.82,1.07,2.5C142.11,72.97,142.55,73.31,142.96,73.31z"/>
		<path class="st0" d="M148.21,84.61l-7.27-4.6c0.98,0.72,1.64,1.25,1.98,1.61c0.33,0.35,0.5,0.69,0.5,1.01
			c0,0.38-0.16,0.7-0.47,0.94c-0.31,0.24-0.7,0.36-1.17,0.36c-1.03,0-2.05-0.66-3.05-1.97c-0.75-0.98-1.12-1.85-1.12-2.6
			c0-0.36,0.14-0.64,0.41-0.87c0.27-0.22,0.62-0.33,1.05-0.33c0.51,0,1.29,0.33,2.35,0.98l6.81,4.25c-0.05,0.18-0.08,0.38-0.08,0.59
			C148.15,84.15,148.17,84.35,148.21,84.61z M142.58,83.18c0.46,0,0.69-0.19,0.69-0.57c0-0.5-0.82-1.35-2.47-2.55
			c-1.23-0.9-2.06-1.35-2.48-1.35c-0.36,0-0.54,0.18-0.54,0.53c0,0.62,0.61,1.43,1.84,2.43C140.84,82.68,141.83,83.18,142.58,83.18z
			"/>
		<path class="st0" d="M141.07,91.09c-0.06,0-0.31-0.21-0.75-0.62c-0.58-0.52-0.86-1.01-0.86-1.47c0-0.52,0.3-0.78,0.9-0.78
			c0.19,0,0.43,0.04,0.73,0.12c-0.38-0.43-0.75-0.78-1.12-1.05c-0.37-0.27-1.12-0.74-2.26-1.4c0.03-0.36,0.04-0.57,0.04-0.64
			c0-0.03-0.01-0.24-0.04-0.62l2.73,1.68c1.37,0.84,2.21,1.26,2.54,1.26c0.19,0,0.29-0.08,0.29-0.24c0-0.38-0.74-1.08-2.21-2.09
			c-0.1-0.06-0.14-0.12-0.14-0.16c0.01-0.03,0.03-0.04,0.06-0.04c0.03,0.01,0.06,0.02,0.08,0.04l0.26,0.18
			c1.4,1.05,2.11,1.77,2.11,2.15c0,0.55-0.35,0.82-1.06,0.82c-0.53,0-1.22-0.28-2.09-0.84c0.41,0.36,0.75,0.69,1,1.02
			c0.61,0.26,1.12,0.58,1.53,0.97c0.41,0.39,0.62,0.73,0.62,1.04c0,0.21-0.09,0.32-0.28,0.32c-0.33,0-0.8-0.48-1.4-1.43
			c-0.1-0.15-0.24-0.38-0.42-0.68l-0.1-0.12c-0.31-0.1-0.57-0.14-0.78-0.14c-0.57,0-0.86,0.22-0.86,0.65c0,0.53,0.44,1.12,1.33,1.75
			c0.15,0.14,0.23,0.22,0.23,0.26C141.13,91.07,141.11,91.09,141.07,91.09z"/>
		<path class="st0" d="M141.06,96.85c-0.02,0-0.11-0.06-0.27-0.18l-0.55-0.44c-1.75-1.42-2.62-2.63-2.62-3.64
			c0-0.48,0.17-0.88,0.52-1.21c0.34-0.33,0.78-0.49,1.3-0.49c1.23,0,2.31,0.86,3.25,2.57c0.49,0.9,0.74,1.64,0.74,2.21
			c0,0.25-0.07,0.46-0.22,0.63c-0.15,0.17-0.33,0.26-0.54,0.26c-0.49,0-0.91-0.32-1.26-0.96c-0.34-0.64-0.67-1.72-0.97-3.22
			c-0.7-0.46-1.29-0.7-1.76-0.7c-0.59,0-0.88,0.32-0.88,0.95c0,1.08,1.05,2.41,3.16,3.97c0.11,0.08,0.16,0.15,0.16,0.21
			C141.11,96.84,141.09,96.85,141.06,96.85z M142.96,95.99c0.22,0,0.33-0.12,0.33-0.36c0-0.36-0.25-0.84-0.75-1.43
			c-0.5-0.59-1.15-1.17-1.95-1.74c0.25,0.98,0.61,1.82,1.07,2.5C142.11,95.65,142.55,95.99,142.96,95.99z"/>
		<path class="st0" d="M141.07,104.67c-0.14,0-0.81-0.5-1.99-1.5c-0.97-0.81-1.46-1.44-1.46-1.91c0-0.32,0.12-0.57,0.35-0.77
			c0.24-0.2,0.53-0.3,0.89-0.3c0.37,0,0.77,0.11,1.2,0.33c-0.96-0.68-1.6-1.21-1.94-1.57s-0.5-0.71-0.5-1.06
			c0-0.36,0.16-0.67,0.47-0.91c0.31-0.25,0.7-0.37,1.17-0.37c1.31,0,2.47,0.93,3.49,2.78c0.45,0.81,0.68,1.47,0.68,1.97
			c0,0.42-0.21,0.63-0.62,0.63c-0.12,0-0.27-0.03-0.46-0.08l1,0.52c-0.05,0.21-0.07,0.39-0.07,0.54c0,0.19,0.02,0.42,0.07,0.72
			l-3-1.82c-1.05-0.63-1.75-0.94-2.08-0.94c-0.32,0-0.48,0.13-0.48,0.4c0,0.27,0.31,0.71,0.94,1.31c0.63,0.6,1.4,1.21,2.32,1.84
			c0.07,0.04,0.1,0.08,0.1,0.11C141.13,104.65,141.11,104.67,141.07,104.67z M142.76,101.85c0.33,0,0.5-0.15,0.5-0.46
			c0-0.63-0.62-1.45-1.85-2.48c-1.23-1.02-2.22-1.53-2.98-1.53c-0.44,0-0.67,0.2-0.67,0.59c0,0.47,0.78,1.29,2.35,2.45
			C141.4,101.37,142.29,101.85,142.76,101.85z"/>
		<path class="st0" d="M143.42,109.08l-0.15-0.08v-1.34l-3.91-2.29c-0.47-0.28-0.85-0.42-1.13-0.42c-0.31,0-0.46,0.16-0.46,0.48
			c0,0.62,1.08,1.67,3.26,3.15c0.07,0.05,0.1,0.09,0.1,0.12c0,0.04-0.02,0.06-0.06,0.06c-0.02-0.01-0.08-0.04-0.17-0.1l-0.61-0.44
			c-1.79-1.29-2.68-2.25-2.68-2.91c0-0.32,0.12-0.59,0.35-0.81c0.23-0.22,0.52-0.32,0.87-0.32c0.41,0,0.92,0.18,1.54,0.54l2.89,1.72
			v-1.05l0.15,0.1v1.03l1.99,1.2c-0.05,0.21-0.08,0.4-0.08,0.58c0,0.19,0.03,0.39,0.08,0.6l-1.99-1.18V109.08z"/>
		<path class="st0" d="M141.09,115.93c-0.05,0-0.12-0.03-0.19-0.1l-0.61-0.44c-1.79-1.29-2.68-2.25-2.68-2.88
			c0-0.33,0.12-0.6,0.35-0.81c0.24-0.21,0.53-0.31,0.89-0.31c0.48,0,1.1,0.26,1.88,0.78c1.2,0.81,1.91,1.22,2.13,1.22
			c0.27,0,0.4-0.14,0.4-0.42c0-0.41-0.4-0.97-1.21-1.68c-0.77-0.68-2.24-1.62-4.39-2.82c0.04-0.21,0.06-0.38,0.06-0.52
			c0-0.15-0.02-0.35-0.06-0.61l2.73,1.51c0.39,0.21,0.96,0.52,1.72,0.94c0.37,0.22,1.54,0.92,3.53,2.08l2.65,1.56
			c-0.04,0.21-0.06,0.38-0.06,0.52c0,0.27,0.03,0.53,0.1,0.78c-1.14-0.71-2.85-1.77-5.13-3.18c-0.07-0.04-0.95-0.57-2.65-1.59
			c1.91,1.29,2.86,2.3,2.86,3.04c0,0.29-0.13,0.55-0.38,0.75c-0.25,0.21-0.56,0.31-0.92,0.31c-0.47,0-1.15-0.3-2.04-0.9
			c-0.99-0.67-1.61-1-1.87-1c-0.29,0-0.44,0.15-0.44,0.44c0,0.53,0.86,1.42,2.59,2.65l0.44,0.32l0.23,0.19
			c0.07,0.03,0.1,0.08,0.1,0.12C141.13,115.92,141.12,115.93,141.09,115.93z"/>
	</g>
	<g>
	</g>
	<g class="st1">
		<path class="st0" d="M124.77,59.41c-0.43,0.11-0.8,0.16-1.12,0.16c-0.77,0-1.38-0.28-1.84-0.85c-0.46-0.56-0.69-1.32-0.69-2.26
			c0-0.95,0.21-2.01,0.64-3.19c0.42-1.18,0.98-2.24,1.66-3.18c0.94-1.33,2.07-2.38,3.37-3.16s2.59-1.17,3.84-1.17
			c1.38,0,2.49,0.39,3.34,1.17c0.85,0.78,1.28,1.8,1.28,3.06c0,0.96-0.25,2.01-0.74,3.15c-0.5,1.15-1.17,2.22-2.01,3.21
			c-0.88,1.04-1.85,1.85-2.94,2.44c-1.08,0.59-2.15,0.88-3.19,0.88C125.85,59.69,125.31,59.59,124.77,59.41z M124.49,59.29
			c-0.57-0.21-1.03-0.61-1.38-1.2c-0.35-0.59-0.53-1.25-0.53-2c0-1.74,0.83-3.49,2.49-5.22c1.66-1.74,3.32-2.61,4.99-2.61
			c0.72,0,1.33,0.2,1.81,0.59c0.48,0.39,0.72,0.88,0.72,1.47c0,0.42-0.13,0.78-0.4,1.09c-0.27,0.31-0.58,0.47-0.94,0.47
			c-0.49,0-0.73-0.22-0.73-0.66c0-0.22,0.08-0.41,0.24-0.56s0.35-0.24,0.58-0.24c0.38,0,0.56,0.16,0.56,0.48
			c0,0.19-0.04,0.32-0.12,0.4l-0.04,0.09c0,0.02,0.02,0.03,0.06,0.04c0.13,0,0.26-0.12,0.4-0.36c0.14-0.24,0.21-0.48,0.21-0.71
			c0-0.49-0.2-0.89-0.6-1.19c-0.4-0.3-0.92-0.45-1.56-0.45c-1.61,0-3.27,0.84-4.96,2.51c-1.69,1.67-2.54,3.3-2.54,4.89
			c0,0.85,0.25,1.53,0.75,2.03c0.5,0.5,1.18,0.75,2.04,0.75c1.01-0.49,1.82-1.29,2.44-2.4c0.06-0.11,0.11-0.16,0.14-0.16
			c0.05,0,0.08,0.03,0.08,0.08c0,0.21-0.28,0.62-0.84,1.21c-0.56,0.6-1.04,1.01-1.45,1.25c2.15-0.21,4.21-1.29,6.18-3.22
			s2.95-3.86,2.95-5.77c0-0.94-0.32-1.71-0.95-2.31c-0.64-0.6-1.46-0.9-2.47-0.9c-1.59,0-3.2,0.52-4.83,1.55
			c-1.57,0.98-2.86,2.25-3.86,3.78c-1.04,1.61-1.57,3.2-1.57,4.77c0,0.79,0.21,1.43,0.63,1.92c0.42,0.49,0.98,0.73,1.67,0.73
			C123.95,59.41,124.22,59.37,124.49,59.29z"/>
		<path class="st0" d="M131.3,67.96c0-0.03,0.03-0.07,0.1-0.1c2.17-1.49,3.26-2.54,3.26-3.15c0-0.28-0.14-0.42-0.42-0.42
			c-0.27,0-0.88,0.32-1.85,0.96c-0.94,0.63-1.64,0.94-2.1,0.94c-0.36,0-0.67-0.1-0.91-0.31S129,65.42,129,65.12
			c0-0.37,0.21-0.77,0.62-1.2c0.41-0.43,1.17-1.05,2.29-1.86c-0.78,0.51-1.39,0.77-1.83,0.77c-0.29,0-0.55-0.08-0.76-0.25
			s-0.32-0.36-0.32-0.6c0-0.36,0.7-1.07,2.11-2.12l0.26-0.2c0.02-0.02,0.05-0.03,0.08-0.04c0.04,0.01,0.06,0.03,0.06,0.06
			c-0.01,0.03-0.05,0.08-0.14,0.14c-1.47,1.03-2.21,1.72-2.21,2.07c0,0.17,0.1,0.26,0.31,0.26c0.36,0,1.27-0.46,2.72-1.36l2.53-1.6
			c-0.03,0.21-0.04,0.44-0.04,0.68c0,0.07,0.01,0.27,0.04,0.61c-3.71,2.08-5.56,3.62-5.56,4.61c0,0.29,0.14,0.44,0.42,0.44
			c0.23,0,0.75-0.28,1.57-0.83c0.78-0.53,1.3-0.86,1.56-0.99c0.26-0.13,0.55-0.19,0.86-0.19c0.35,0,0.64,0.1,0.88,0.31
			s0.36,0.47,0.36,0.78c0,0.46-0.49,1.11-1.46,1.92c-1.18,0.99-1.85,1.49-1.99,1.49C131.32,68.02,131.3,68,131.3,67.96z"/>
		<path class="st0" d="M131.31,73.76c0-0.05,0.05-0.12,0.16-0.21c2.11-1.57,3.16-2.89,3.16-3.97c0-0.64-0.29-0.95-0.88-0.95
			c-0.47,0-1.06,0.23-1.76,0.7c-0.3,1.5-0.62,2.58-0.97,3.22c-0.35,0.64-0.76,0.96-1.26,0.96c-0.21,0-0.39-0.09-0.54-0.26
			c-0.15-0.17-0.22-0.38-0.22-0.63c0-0.57,0.25-1.3,0.74-2.21c0.94-1.72,2.02-2.57,3.25-2.57c0.52,0,0.95,0.16,1.3,0.49
			c0.35,0.32,0.52,0.73,0.52,1.21c0,1.01-0.87,2.23-2.62,3.64l-0.55,0.44c-0.16,0.12-0.25,0.18-0.27,0.18
			C131.33,73.8,131.31,73.78,131.31,73.76z M130.77,71.91c0.46-0.68,0.82-1.52,1.07-2.5c-0.8,0.57-1.45,1.15-1.95,1.74
			c-0.5,0.59-0.75,1.07-0.75,1.43c0,0.24,0.11,0.36,0.33,0.36C129.88,72.93,130.31,72.59,130.77,71.91z"/>
		<path class="st0" d="M124.28,83.6c0-0.21-0.03-0.41-0.08-0.59l6.81-4.24c1.05-0.66,1.84-0.98,2.35-0.98
			c0.43,0,0.78,0.11,1.05,0.33c0.27,0.22,0.41,0.51,0.41,0.87c0,0.76-0.37,1.63-1.12,2.6c-1,1.31-2.01,1.97-3.05,1.97
			c-0.47,0-0.86-0.12-1.17-0.36c-0.31-0.24-0.47-0.56-0.47-0.94c0-0.32,0.17-0.66,0.5-1.01c0.33-0.36,1-0.89,1.98-1.61l-7.27,4.6
			C124.26,83.97,124.28,83.77,124.28,83.6z M132.81,81.29c1.23-1.01,1.84-1.82,1.84-2.43c0-0.36-0.18-0.53-0.54-0.53
			c-0.42,0-1.25,0.45-2.48,1.35c-1.65,1.2-2.47,2.05-2.47,2.55c0,0.38,0.23,0.57,0.69,0.57C130.6,82.8,131.59,82.3,132.81,81.29z"/>
		<path class="st0" d="M131.3,90.65c0-0.03,0.08-0.12,0.23-0.26c0.88-0.63,1.33-1.21,1.33-1.75c0-0.43-0.29-0.65-0.86-0.65
			c-0.21,0-0.46,0.05-0.78,0.14l-0.1,0.12c-0.18,0.3-0.32,0.53-0.42,0.68c-0.61,0.95-1.08,1.43-1.4,1.43
			c-0.18,0-0.28-0.11-0.28-0.32c0-0.31,0.21-0.65,0.62-1.04c0.41-0.39,0.92-0.71,1.53-0.97c0.26-0.32,0.59-0.66,1-1.02
			c-0.87,0.56-1.57,0.84-2.09,0.84c-0.7,0-1.06-0.27-1.06-0.82c0-0.38,0.7-1.09,2.11-2.15l0.26-0.18c0.02-0.02,0.05-0.03,0.08-0.04
			c0.03,0,0.05,0.01,0.06,0.04c0,0.05-0.05,0.1-0.14,0.16c-1.47,1.01-2.21,1.7-2.21,2.09c0,0.16,0.1,0.24,0.29,0.24
			c0.33,0,1.18-0.42,2.54-1.26l2.73-1.68c-0.03,0.39-0.04,0.6-0.04,0.62c0,0.06,0.01,0.27,0.04,0.64c-1.13,0.66-1.89,1.13-2.26,1.4
			c-0.37,0.27-0.74,0.62-1.12,1.05c0.29-0.08,0.54-0.12,0.73-0.12c0.6,0,0.9,0.26,0.9,0.78c0,0.46-0.29,0.95-0.86,1.47
			c-0.45,0.41-0.7,0.62-0.75,0.62C131.32,90.71,131.3,90.69,131.3,90.65z"/>
		<path class="st0" d="M131.31,96.43c0-0.05,0.05-0.12,0.16-0.21c2.11-1.57,3.16-2.89,3.16-3.97c0-0.64-0.29-0.95-0.88-0.95
			c-0.47,0-1.06,0.23-1.76,0.7c-0.3,1.5-0.62,2.58-0.97,3.22c-0.35,0.64-0.76,0.96-1.26,0.96c-0.21,0-0.39-0.09-0.54-0.26
			c-0.15-0.17-0.22-0.38-0.22-0.63c0-0.57,0.25-1.3,0.74-2.21c0.94-1.72,2.02-2.57,3.25-2.57c0.52,0,0.95,0.16,1.3,0.49
			c0.35,0.32,0.52,0.73,0.52,1.21c0,1.01-0.87,2.23-2.62,3.64l-0.55,0.44c-0.16,0.12-0.25,0.18-0.27,0.18
			C131.33,96.47,131.31,96.46,131.31,96.43z M130.77,94.58c0.46-0.68,0.82-1.52,1.07-2.5c-0.8,0.57-1.45,1.15-1.95,1.74
			c-0.5,0.59-0.75,1.07-0.75,1.43c0,0.24,0.11,0.36,0.33,0.36C129.88,95.61,130.31,95.27,130.77,94.58z"/>
		<path class="st0" d="M131.3,104.23c0-0.03,0.03-0.07,0.1-0.11c0.92-0.62,1.69-1.24,2.32-1.84c0.63-0.6,0.94-1.04,0.94-1.31
			c0-0.27-0.16-0.4-0.48-0.4c-0.33,0-1.03,0.31-2.08,0.94l-3,1.82c0.05-0.29,0.07-0.53,0.07-0.72c0-0.16-0.02-0.34-0.07-0.54l1-0.52
			c-0.19,0.05-0.34,0.08-0.46,0.08c-0.41,0-0.62-0.21-0.62-0.63c0-0.5,0.23-1.16,0.68-1.97c1.01-1.85,2.17-2.78,3.49-2.78
			c0.47,0,0.86,0.12,1.17,0.37c0.31,0.25,0.47,0.55,0.47,0.91c0,0.34-0.17,0.69-0.5,1.06s-0.98,0.88-1.94,1.57
			c0.43-0.22,0.83-0.33,1.2-0.33c0.36,0,0.65,0.1,0.89,0.3c0.24,0.2,0.35,0.46,0.35,0.77c0,0.46-0.49,1.1-1.46,1.91
			c-1.18,1-1.85,1.5-1.99,1.5C131.32,104.29,131.3,104.27,131.3,104.23z M132.31,100.04c1.57-1.16,2.35-1.98,2.35-2.45
			c0-0.4-0.22-0.59-0.67-0.59c-0.76,0-1.75,0.51-2.98,1.53c-1.23,1.02-1.85,1.85-1.85,2.48c0,0.31,0.17,0.46,0.5,0.46
			C130.14,101.47,131.02,100.99,132.31,100.04z"/>
		<path class="st0" d="M129,107.36l-1.99,1.18c0.05-0.21,0.08-0.4,0.08-0.6c0-0.18-0.03-0.38-0.08-0.58l1.99-1.2v-1.03l0.15-0.1
			v1.05l2.89-1.72c0.62-0.36,1.13-0.54,1.54-0.54c0.35,0,0.64,0.11,0.87,0.32c0.23,0.22,0.35,0.48,0.35,0.81
			c0,0.65-0.89,1.62-2.68,2.91l-0.61,0.44c-0.09,0.06-0.14,0.1-0.17,0.1c-0.04,0-0.06-0.02-0.06-0.06c0-0.03,0.03-0.08,0.1-0.12
			c2.17-1.48,3.26-2.53,3.26-3.15c0-0.32-0.15-0.48-0.46-0.48c-0.28,0-0.66,0.14-1.13,0.42l-3.91,2.29v1.34L129,108.7V107.36z"/>
		<path class="st0" d="M131.3,115.51c0-0.05,0.03-0.09,0.1-0.12l0.23-0.19l0.44-0.32c1.73-1.23,2.59-2.12,2.59-2.65
			c0-0.29-0.15-0.44-0.44-0.44c-0.25,0-0.87,0.33-1.87,1c-0.89,0.6-1.57,0.9-2.04,0.9c-0.36,0-0.67-0.1-0.92-0.31
			c-0.25-0.21-0.38-0.46-0.38-0.75c0-0.75,0.95-1.76,2.86-3.04c-1.7,1.02-2.58,1.55-2.65,1.59c-2.28,1.41-3.99,2.47-5.13,3.18
			c0.07-0.25,0.1-0.51,0.1-0.78c0-0.14-0.02-0.32-0.06-0.52l2.65-1.56c1.98-1.16,3.16-1.86,3.53-2.08c0.76-0.42,1.33-0.74,1.72-0.94
			l2.73-1.51c-0.04,0.25-0.06,0.45-0.06,0.61c0,0.14,0.02,0.32,0.06,0.52c-2.15,1.2-3.62,2.14-4.39,2.82
			c-0.81,0.71-1.21,1.27-1.21,1.68c0,0.28,0.13,0.42,0.4,0.42c0.22,0,0.94-0.41,2.13-1.22c0.77-0.52,1.4-0.78,1.88-0.78
			c0.36,0,0.65,0.1,0.89,0.31c0.24,0.21,0.35,0.48,0.35,0.81c0,0.63-0.89,1.59-2.68,2.88l-0.61,0.44c-0.07,0.07-0.13,0.1-0.19,0.1
			C131.31,115.55,131.3,115.54,131.3,115.51z"/>
	</g>
</g>
</svg>
