<?xml version="1.0" encoding="utf-8"?>
<!-- Generator: Adobe Illustrator 27.5.0, SVG Export Plug-In . SVG Version: 6.00 Build 0)  -->
<svg version="1.0" id="Layer_1" xmlns="http://www.w3.org/2000/svg" xmlns:xlink="http://www.w3.org/1999/xlink" x="0px" y="0px"
	 viewBox="0 0 737.18 234" style="enable-background:new 0 0 737.18 234;" xml:space="preserve">
<style type="text/css">
	.st0{fill:#FFDC05;}
	.st1{fill:#01744A;}
</style>
<g>
	<rect x="9.4" y="16.97" class="st0" width="714" height="40"/>
	<rect x="9.4" y="56.97" class="st1" width="714" height="113"/>
	<rect x="9.4" y="169.97" class="st0" width="714" height="40"/>
	<g>
		<g>
			<path class="st0" d="M138.65,111.76v32.52h-17.57V85.2h18.08l22.22,33.43V85.2h17.47v59.08h-17.98L138.65,111.76z"/>
			<path class="st0" d="M219.95,85.2h17.47v59.08h-17.47V85.2z"/>
			<path class="st0" d="M308.93,144.28h-17.47V98.93H275V85.2h50.4v13.74h-16.46V144.28z"/>
			<path class="st0" d="M415.49,106.41c0,1.48-0.19,3.05-0.56,4.7c-0.37,1.65-0.94,3.27-1.72,4.85c-0.78,1.58-1.8,3.12-3.08,4.59
				c-1.28,1.48-2.83,2.79-4.65,3.94c1.55,3.23,3.13,6.53,4.75,9.9c1.62,3.37,3.2,6.67,4.75,9.9H396.4l-7.98-16.56h-7.98v16.56
				h-17.47V85.2h27.98c4.65,0,8.53,0.69,11.67,2.07c3.13,1.38,5.66,3.12,7.58,5.2c1.92,2.09,3.28,4.38,4.09,6.87
				C415.08,101.83,415.49,104.18,415.49,106.41z M380.44,113.98h9.9c2.15,0,3.97-0.65,5.45-1.96c1.48-1.3,2.22-3.16,2.22-5.57
				c0-2.34-0.74-4.18-2.22-5.52c-1.48-1.34-3.3-2.01-5.45-2.01h-9.9V113.98z"/>
			<path class="st0" d="M482.65,145.39c-5.66,0-10.44-0.99-14.34-2.98c-3.91-1.99-7.07-4.46-9.49-7.42
				c-2.42-2.96-4.16-6.21-5.2-9.75c-1.04-3.54-1.57-6.85-1.57-9.95c0-3.3,0.52-6.78,1.57-10.45c1.04-3.67,2.78-7.04,5.2-10.1
				c2.42-3.06,5.59-5.61,9.49-7.63c3.9-2.02,8.69-3.03,14.34-3.03s10.44,1.01,14.34,3.03c3.9,2.02,7.07,4.56,9.49,7.63
				c2.42,3.06,4.17,6.43,5.25,10.1c1.08,3.67,1.62,7.16,1.62,10.45c0,3.1-0.54,6.41-1.62,9.95c-1.08,3.53-2.83,6.78-5.25,9.75
				c-2.42,2.96-5.59,5.44-9.49,7.42C493.09,144.4,488.31,145.39,482.65,145.39z M482.65,132.36c2.09,0,3.92-0.44,5.5-1.31
				c1.58-0.87,2.89-2.09,3.94-3.64c1.04-1.55,1.82-3.37,2.32-5.45c0.5-2.09,0.76-4.31,0.76-6.67c0-2.56-0.25-4.95-0.76-7.17
				c-0.5-2.22-1.28-4.14-2.32-5.76c-1.04-1.62-2.36-2.89-3.94-3.84c-1.58-0.94-3.42-1.41-5.5-1.41c-2.09,0-3.96,0.47-5.61,1.41
				c-1.65,0.94-3.03,2.22-4.14,3.84c-1.11,1.62-1.95,3.54-2.53,5.76c-0.57,2.22-0.86,4.61-0.86,7.17c0,2.36,0.29,4.58,0.86,6.67
				c0.57,2.09,1.41,3.91,2.53,5.45c1.11,1.55,2.49,2.76,4.14,3.64C478.7,131.93,480.56,132.36,482.65,132.36z"/>
			<path class="st0" d="M567.9,144.28h-18.48l19.8-29.69c-3.1-4.65-6.38-9.54-9.85-14.7c-3.47-5.15-6.79-10.05-9.95-14.7H568
				l10.5,16.26l10.5-16.26h18.58c-3.17,4.65-6.48,9.54-9.95,14.7c-3.47,5.15-6.75,10.05-9.85,14.7l19.8,29.69h-18.48l-10.61-16.46
				L567.9,144.28z"/>
		</g>
	</g>
	<g>
		<g>
			<path class="st1" d="M42.4,26.2h14.24v4.35h-8.7v3.14h6.59v3.84h-6.59v3.04h8.7v4.35H42.4V26.2z"/>
			<path class="st1" d="M67.14,34.61v10.3h-5.57V26.2h5.73l7.04,10.59V26.2h5.54v18.72h-5.7L67.14,34.61z"/>
			<path class="st1" d="M101.92,32.92c0,0.47-0.06,0.97-0.18,1.49c-0.12,0.52-0.3,1.04-0.54,1.54c-0.25,0.5-0.57,0.99-0.98,1.46
				c-0.41,0.47-0.9,0.89-1.47,1.25c0.49,1.02,0.99,2.07,1.5,3.14c0.51,1.07,1.01,2.11,1.5,3.14h-5.89l-2.53-5.25h-2.53v5.25h-5.54
				V26.2h8.86c1.47,0,2.7,0.22,3.7,0.66c0.99,0.44,1.79,0.99,2.4,1.65c0.61,0.66,1.04,1.39,1.3,2.18
				C101.79,31.47,101.92,32.21,101.92,32.92z M90.82,35.32h3.14c0.68,0,1.26-0.21,1.73-0.62c0.47-0.41,0.7-1,0.7-1.76
				c0-0.74-0.23-1.32-0.7-1.75s-1.05-0.64-1.73-0.64h-3.14V35.32z"/>
			<path class="st1" d="M106.53,26.2h5.54v18.72h-5.54V26.2z"/>
			<path class="st1" d="M116.83,35.73c0-1.04,0.16-2.15,0.48-3.31c0.32-1.16,0.85-2.23,1.6-3.2c0.75-0.97,1.73-1.78,2.94-2.42
				c1.22-0.64,2.72-0.96,4.51-0.96c1.37,0,2.61,0.18,3.73,0.53s2.08,0.84,2.88,1.46c0.8,0.62,1.42,1.35,1.87,2.19
				c0.45,0.84,0.67,1.75,0.67,2.74h-6.08c0-0.53-0.1-0.98-0.29-1.34s-0.44-0.65-0.74-0.86c-0.3-0.21-0.63-0.36-0.99-0.45
				c-0.36-0.08-0.72-0.13-1.06-0.13c-0.62,0-1.18,0.15-1.68,0.45c-0.5,0.3-0.92,0.7-1.26,1.22c-0.34,0.51-0.6,1.12-0.78,1.82
				c-0.18,0.7-0.27,1.46-0.27,2.27c0,0.75,0.09,1.45,0.27,2.11c0.18,0.66,0.44,1.24,0.78,1.73c0.34,0.49,0.76,0.88,1.26,1.15
				s1.06,0.42,1.68,0.42c0.32,0,0.66-0.05,1.01-0.14c0.35-0.1,0.68-0.25,0.99-0.46c0.31-0.21,0.56-0.49,0.77-0.83
				c0.2-0.34,0.3-0.75,0.3-1.22h6.08c0,0.98-0.22,1.88-0.67,2.7c-0.45,0.82-1.07,1.54-1.87,2.14c-0.8,0.61-1.77,1.08-2.9,1.42
				c-1.13,0.34-2.37,0.51-3.71,0.51c-1.79,0-3.3-0.31-4.51-0.94c-1.22-0.63-2.2-1.41-2.94-2.35c-0.75-0.94-1.28-1.97-1.6-3.09
				C116.99,37.77,116.83,36.72,116.83,35.73z"/>
			<path class="st1" d="M145.86,44.92h-5.57V26.23h5.57v7.52h5.73v-7.52h5.57v18.69h-5.57V38.1h-5.73V44.92z"/>
			<path class="st1" d="M162.56,26.2h14.24v4.35h-8.7v3.14h6.59v3.84h-6.59v3.04h8.7v4.35h-14.24V26.2z"/>
			<path class="st1" d="M181.73,26.2h7.49c1.79,0,3.3,0.29,4.51,0.86s2.2,1.32,2.96,2.22s1.3,1.91,1.62,3.01
				c0.32,1.1,0.48,2.18,0.48,3.25c0,0.98-0.16,2.02-0.48,3.12c-0.32,1.1-0.86,2.11-1.62,3.04c-0.76,0.93-1.74,1.7-2.96,2.3
				s-2.72,0.91-4.51,0.91h-7.49V26.2z M187.27,30.55v10.02h2.21c1.26,0,2.2-0.45,2.83-1.36c0.63-0.91,0.94-2.13,0.94-3.66
				c0-3.33-1.26-4.99-3.78-4.99H187.27z"/>
			<path class="st1" d="M230.75,44.92h-5.82l-1.18-3.68h-5.89l-1.18,3.68h-5.82l6.11-18.72h7.68L230.75,44.92z M222.75,36.89
				l-1.95-6.02l-1.95,6.02H222.75z"/>
			<path class="st1" d="M234.88,26.2h5.54v18.72h-5.54V26.2z"/>
			<path class="st1" d="M262.47,32.92c0,0.47-0.06,0.97-0.18,1.49c-0.12,0.52-0.3,1.04-0.54,1.54c-0.25,0.5-0.57,0.99-0.98,1.46
				c-0.41,0.47-0.9,0.89-1.47,1.25c0.49,1.02,0.99,2.07,1.5,3.14c0.51,1.07,1.01,2.11,1.5,3.14h-5.89l-2.53-5.25h-2.53v5.25h-5.54
				V26.2h8.86c1.47,0,2.7,0.22,3.7,0.66c0.99,0.44,1.79,0.99,2.4,1.65c0.61,0.66,1.04,1.39,1.3,2.18
				C262.34,31.47,262.47,32.21,262.47,32.92z M251.36,35.32h3.14c0.68,0,1.26-0.21,1.73-0.62c0.47-0.41,0.7-1,0.7-1.76
				c0-0.74-0.23-1.32-0.7-1.75s-1.05-0.64-1.73-0.64h-3.14V35.32z"/>
		</g>
	</g>
	<g>
		<g>
			<path class="st1" d="M437.59,26.2h14.24v4.35h-8.7v3.14h6.59v3.84h-6.59v3.04h8.7v4.35h-14.24V26.2z"/>
			<path class="st1" d="M462.33,34.61v10.3h-5.57V26.2h5.73l7.04,10.59V26.2h5.54v18.72h-5.7L462.33,34.61z"/>
			<path class="st1" d="M497.11,32.92c0,0.47-0.06,0.97-0.18,1.49c-0.12,0.52-0.3,1.04-0.54,1.54c-0.25,0.5-0.57,0.99-0.98,1.46
				c-0.41,0.47-0.9,0.89-1.47,1.25c0.49,1.02,0.99,2.07,1.5,3.14c0.51,1.07,1.01,2.11,1.5,3.14h-5.89l-2.53-5.25H486v5.25h-5.54
				V26.2h8.86c1.47,0,2.7,0.22,3.7,0.66c0.99,0.44,1.79,0.99,2.4,1.65c0.61,0.66,1.04,1.39,1.3,2.18
				C496.98,31.47,497.11,32.21,497.11,32.92z M486,35.32h3.14c0.68,0,1.26-0.21,1.73-0.62c0.47-0.41,0.7-1,0.7-1.76
				c0-0.74-0.24-1.32-0.7-1.75c-0.47-0.42-1.05-0.64-1.73-0.64H486V35.32z"/>
			<path class="st1" d="M501.72,26.2h5.54v18.72h-5.54V26.2z"/>
			<path class="st1" d="M512.02,35.73c0-1.04,0.16-2.15,0.48-3.31c0.32-1.16,0.85-2.23,1.6-3.2s1.73-1.78,2.94-2.42
				c1.22-0.64,2.72-0.96,4.51-0.96c1.37,0,2.61,0.18,3.73,0.53s2.08,0.84,2.88,1.46s1.42,1.35,1.87,2.19
				c0.45,0.84,0.67,1.75,0.67,2.74h-6.08c0-0.53-0.1-0.98-0.29-1.34c-0.19-0.36-0.44-0.65-0.74-0.86c-0.3-0.21-0.63-0.36-0.99-0.45
				c-0.36-0.08-0.72-0.13-1.06-0.13c-0.62,0-1.18,0.15-1.68,0.45c-0.5,0.3-0.92,0.7-1.26,1.22c-0.34,0.51-0.6,1.12-0.78,1.82
				c-0.18,0.7-0.27,1.46-0.27,2.27c0,0.75,0.09,1.45,0.27,2.11c0.18,0.66,0.44,1.24,0.78,1.73c0.34,0.49,0.76,0.88,1.26,1.15
				c0.5,0.28,1.06,0.42,1.68,0.42c0.32,0,0.66-0.05,1.01-0.14c0.35-0.1,0.68-0.25,0.99-0.46s0.57-0.49,0.77-0.83
				c0.2-0.34,0.3-0.75,0.3-1.22h6.08c0,0.98-0.22,1.88-0.67,2.7c-0.45,0.82-1.07,1.54-1.87,2.14s-1.77,1.08-2.9,1.42
				c-1.13,0.34-2.37,0.51-3.71,0.51c-1.79,0-3.3-0.31-4.51-0.94c-1.22-0.63-2.2-1.41-2.94-2.35c-0.75-0.94-1.28-1.97-1.6-3.09
				C512.18,37.77,512.02,36.72,512.02,35.73z"/>
			<path class="st1" d="M541.05,44.92h-5.57V26.23h5.57v7.52h5.73v-7.52h5.57v18.69h-5.57V38.1h-5.73V44.92z"/>
			<path class="st1" d="M557.75,26.2h14.24v4.35h-8.7v3.14h6.59v3.84h-6.59v3.04h8.7v4.35h-14.24V26.2z"/>
			<path class="st1" d="M576.92,26.2h7.49c1.79,0,3.3,0.29,4.51,0.86s2.2,1.32,2.96,2.22c0.76,0.91,1.3,1.91,1.62,3.01
				c0.32,1.1,0.48,2.18,0.48,3.25c0,0.98-0.16,2.02-0.48,3.12s-0.86,2.11-1.62,3.04c-0.76,0.93-1.74,1.7-2.96,2.3
				s-2.72,0.91-4.51,0.91h-7.49V26.2z M582.45,30.55v10.02h2.21c1.26,0,2.2-0.45,2.83-1.36s0.94-2.13,0.94-3.66
				c0-3.33-1.26-4.99-3.78-4.99H582.45z"/>
			<path class="st1" d="M625.94,44.92h-5.82l-1.18-3.68h-5.89l-1.18,3.68h-5.82l6.11-18.72h7.68L625.94,44.92z M617.94,36.89
				l-1.95-6.02l-1.95,6.02H617.94z"/>
			<path class="st1" d="M630.07,26.2h5.54v18.72h-5.54V26.2z"/>
			<path class="st1" d="M657.65,32.92c0,0.47-0.06,0.97-0.18,1.49c-0.12,0.52-0.3,1.04-0.54,1.54c-0.25,0.5-0.57,0.99-0.98,1.46
				c-0.41,0.47-0.9,0.89-1.47,1.25c0.49,1.02,0.99,2.07,1.5,3.14c0.51,1.07,1.01,2.11,1.5,3.14h-5.89l-2.53-5.25h-2.53v5.25h-5.54
				V26.2h8.86c1.47,0,2.7,0.22,3.7,0.66c0.99,0.44,1.79,0.99,2.4,1.65c0.61,0.66,1.04,1.39,1.3,2.18
				C657.53,31.47,657.65,32.21,657.65,32.92z M646.55,35.32h3.14c0.68,0,1.26-0.21,1.73-0.62c0.47-0.41,0.7-1,0.7-1.76
				c0-0.74-0.24-1.32-0.7-1.75c-0.47-0.42-1.05-0.64-1.73-0.64h-3.14V35.32z"/>
		</g>
	</g>
	<g>
		<g>
			<path class="st1" d="M43.84,180.14h14.24v4.35h-8.7v3.14h6.59v3.84h-6.59v3.04h8.7v4.35H43.84V180.14z"/>
			<path class="st1" d="M68.58,188.56v10.3h-5.57v-18.72h5.73l7.04,10.59v-10.59h5.54v18.72h-5.7L68.58,188.56z"/>
			<path class="st1" d="M103.36,186.86c0,0.47-0.06,0.97-0.18,1.49c-0.12,0.52-0.3,1.04-0.54,1.54c-0.25,0.5-0.57,0.99-0.98,1.46
				c-0.41,0.47-0.9,0.89-1.47,1.25c0.49,1.02,0.99,2.07,1.5,3.14c0.51,1.07,1.01,2.11,1.5,3.14h-5.89l-2.53-5.25h-2.53v5.25h-5.54
				v-18.72h8.86c1.47,0,2.7,0.22,3.7,0.66s1.79,0.99,2.4,1.65c0.61,0.66,1.04,1.39,1.3,2.18
				C103.23,185.41,103.36,186.16,103.36,186.86z M92.26,189.26h3.14c0.68,0,1.26-0.21,1.73-0.62c0.47-0.41,0.7-1,0.7-1.76
				c0-0.74-0.23-1.32-0.7-1.75s-1.05-0.64-1.73-0.64h-3.14V189.26z"/>
			<path class="st1" d="M107.97,180.14h5.54v18.72h-5.54V180.14z"/>
			<path class="st1" d="M118.27,189.68c0-1.04,0.16-2.15,0.48-3.31c0.32-1.16,0.85-2.23,1.6-3.2c0.75-0.97,1.73-1.78,2.94-2.42
				c1.22-0.64,2.72-0.96,4.51-0.96c1.37,0,2.61,0.18,3.73,0.53c1.12,0.35,2.08,0.84,2.88,1.46c0.8,0.62,1.42,1.35,1.87,2.19
				c0.45,0.84,0.67,1.75,0.67,2.74h-6.08c0-0.53-0.1-0.98-0.29-1.34c-0.19-0.36-0.44-0.65-0.74-0.86c-0.3-0.21-0.63-0.36-0.99-0.45
				c-0.36-0.08-0.72-0.13-1.06-0.13c-0.62,0-1.18,0.15-1.68,0.45c-0.5,0.3-0.92,0.7-1.26,1.22c-0.34,0.51-0.6,1.12-0.78,1.82
				c-0.18,0.7-0.27,1.46-0.27,2.27c0,0.75,0.09,1.45,0.27,2.11c0.18,0.66,0.44,1.24,0.78,1.73c0.34,0.49,0.76,0.88,1.26,1.15
				s1.06,0.42,1.68,0.42c0.32,0,0.66-0.05,1.01-0.14c0.35-0.1,0.68-0.25,0.99-0.46c0.31-0.21,0.56-0.49,0.77-0.83
				c0.2-0.34,0.3-0.75,0.3-1.22h6.08c0,0.98-0.22,1.88-0.67,2.7c-0.45,0.82-1.07,1.54-1.87,2.14c-0.8,0.61-1.77,1.08-2.9,1.42
				c-1.13,0.34-2.37,0.51-3.71,0.51c-1.79,0-3.3-0.32-4.51-0.94c-1.22-0.63-2.2-1.41-2.94-2.35c-0.75-0.94-1.28-1.97-1.6-3.09
				C118.43,191.71,118.27,190.66,118.27,189.68z"/>
			<path class="st1" d="M147.3,198.86h-5.57v-18.69h5.57v7.52h5.73v-7.52h5.57v18.69h-5.57v-6.82h-5.73V198.86z"/>
			<path class="st1" d="M164,180.14h14.24v4.35h-8.7v3.14h6.59v3.84h-6.59v3.04h8.7v4.35H164V180.14z"/>
			<path class="st1" d="M183.17,180.14h7.49c1.79,0,3.3,0.29,4.51,0.86s2.2,1.32,2.96,2.22c0.76,0.91,1.3,1.91,1.62,3.01
				c0.32,1.1,0.48,2.18,0.48,3.25c0,0.98-0.16,2.02-0.48,3.12c-0.32,1.1-0.86,2.11-1.62,3.04s-1.74,1.7-2.96,2.3
				c-1.22,0.61-2.72,0.91-4.51,0.91h-7.49V180.14z M188.71,184.49v10.02h2.21c1.26,0,2.2-0.45,2.83-1.36
				c0.63-0.91,0.94-2.13,0.94-3.66c0-3.33-1.26-4.99-3.78-4.99H188.71z"/>
			<path class="st1" d="M232.19,198.86h-5.82l-1.18-3.68h-5.89l-1.18,3.68h-5.82l6.11-18.72h7.68L232.19,198.86z M224.19,190.83
				l-1.95-6.02l-1.95,6.02H224.19z"/>
			<path class="st1" d="M236.32,180.14h5.54v18.72h-5.54V180.14z"/>
			<path class="st1" d="M263.91,186.86c0,0.47-0.06,0.97-0.18,1.49c-0.12,0.52-0.3,1.04-0.54,1.54c-0.25,0.5-0.57,0.99-0.98,1.46
				c-0.41,0.47-0.9,0.89-1.47,1.25c0.49,1.02,0.99,2.07,1.5,3.14c0.51,1.07,1.01,2.11,1.5,3.14h-5.89l-2.53-5.25h-2.53v5.25h-5.54
				v-18.72h8.86c1.47,0,2.7,0.22,3.7,0.66s1.79,0.99,2.4,1.65c0.61,0.66,1.04,1.39,1.3,2.18
				C263.78,185.41,263.91,186.16,263.91,186.86z M252.8,189.26h3.14c0.68,0,1.26-0.21,1.73-0.62c0.47-0.41,0.7-1,0.7-1.76
				c0-0.74-0.23-1.32-0.7-1.75s-1.05-0.64-1.73-0.64h-3.14V189.26z"/>
		</g>
	</g>
	<g>
		<g>
			<path class="st1" d="M439.03,180.14h14.24v4.35h-8.7v3.14h6.59v3.84h-6.59v3.04h8.7v4.35h-14.24V180.14z"/>
			<path class="st1" d="M463.76,188.56v10.3h-5.57v-18.72h5.73l7.04,10.59v-10.59h5.54v18.72h-5.7L463.76,188.56z"/>
			<path class="st1" d="M498.55,186.86c0,0.47-0.06,0.97-0.18,1.49c-0.12,0.52-0.3,1.04-0.54,1.54c-0.25,0.5-0.57,0.99-0.98,1.46
				c-0.41,0.47-0.9,0.89-1.47,1.25c0.49,1.02,0.99,2.07,1.5,3.14c0.51,1.07,1.01,2.11,1.5,3.14h-5.89l-2.53-5.25h-2.53v5.25h-5.54
				v-18.72h8.86c1.47,0,2.7,0.22,3.7,0.66s1.79,0.99,2.4,1.65c0.61,0.66,1.04,1.39,1.3,2.18
				C498.42,185.41,498.55,186.16,498.55,186.86z M487.45,189.26h3.14c0.68,0,1.26-0.21,1.73-0.62c0.47-0.41,0.7-1,0.7-1.76
				c0-0.74-0.23-1.32-0.7-1.75c-0.47-0.42-1.04-0.64-1.73-0.64h-3.14V189.26z"/>
			<path class="st1" d="M503.16,180.14h5.54v18.72h-5.54V180.14z"/>
			<path class="st1" d="M513.46,189.68c0-1.04,0.16-2.15,0.48-3.31c0.32-1.16,0.85-2.23,1.6-3.2c0.75-0.97,1.73-1.78,2.94-2.42
				c1.22-0.64,2.72-0.96,4.51-0.96c1.37,0,2.61,0.18,3.73,0.53c1.12,0.35,2.08,0.84,2.88,1.46c0.8,0.62,1.42,1.35,1.87,2.19
				c0.45,0.84,0.67,1.75,0.67,2.74h-6.08c0-0.53-0.1-0.98-0.29-1.34c-0.19-0.36-0.44-0.65-0.74-0.86c-0.3-0.21-0.63-0.36-0.99-0.45
				c-0.36-0.08-0.71-0.13-1.06-0.13c-0.62,0-1.18,0.15-1.68,0.45c-0.5,0.3-0.92,0.7-1.26,1.22c-0.34,0.51-0.6,1.12-0.78,1.82
				s-0.27,1.46-0.27,2.27c0,0.75,0.09,1.45,0.27,2.11s0.44,1.24,0.78,1.73c0.34,0.49,0.76,0.88,1.26,1.15
				c0.5,0.28,1.06,0.42,1.68,0.42c0.32,0,0.66-0.05,1.01-0.14s0.68-0.25,0.99-0.46c0.31-0.21,0.56-0.49,0.77-0.83
				c0.2-0.34,0.3-0.75,0.3-1.22h6.08c0,0.98-0.22,1.88-0.67,2.7c-0.45,0.82-1.07,1.54-1.87,2.14c-0.8,0.61-1.76,1.08-2.9,1.42
				c-1.13,0.34-2.37,0.51-3.71,0.51c-1.79,0-3.3-0.32-4.51-0.94c-1.22-0.63-2.2-1.41-2.94-2.35c-0.75-0.94-1.28-1.97-1.6-3.09
				C513.62,191.71,513.46,190.66,513.46,189.68z"/>
			<path class="st1" d="M542.49,198.86h-5.57v-18.69h5.57v7.52h5.73v-7.52h5.57v18.69h-5.57v-6.82h-5.73V198.86z"/>
			<path class="st1" d="M559.19,180.14h14.24v4.35h-8.7v3.14h6.59v3.84h-6.59v3.04h8.7v4.35h-14.24V180.14z"/>
			<path class="st1" d="M578.36,180.14h7.49c1.79,0,3.3,0.29,4.51,0.86s2.2,1.32,2.96,2.22c0.76,0.91,1.3,1.91,1.62,3.01
				c0.32,1.1,0.48,2.18,0.48,3.25c0,0.98-0.16,2.02-0.48,3.12c-0.32,1.1-0.86,2.11-1.62,3.04c-0.76,0.93-1.74,1.7-2.96,2.3
				c-1.22,0.61-2.72,0.91-4.51,0.91h-7.49V180.14z M583.89,184.49v10.02h2.21c1.26,0,2.2-0.45,2.83-1.36
				c0.63-0.91,0.94-2.13,0.94-3.66c0-3.33-1.26-4.99-3.78-4.99H583.89z"/>
			<path class="st1" d="M627.38,198.86h-5.82l-1.18-3.68h-5.89l-1.18,3.68h-5.82l6.11-18.72h7.68L627.38,198.86z M619.38,190.83
				l-1.95-6.02l-1.95,6.02H619.38z"/>
			<path class="st1" d="M631.51,180.14h5.54v18.72h-5.54V180.14z"/>
			<path class="st1" d="M659.09,186.86c0,0.47-0.06,0.97-0.18,1.49c-0.12,0.52-0.3,1.04-0.54,1.54c-0.25,0.5-0.57,0.99-0.98,1.46
				c-0.41,0.47-0.9,0.89-1.47,1.25c0.49,1.02,0.99,2.07,1.5,3.14c0.51,1.07,1.01,2.11,1.5,3.14h-5.89l-2.53-5.25h-2.53v5.25h-5.54
				v-18.72h8.86c1.47,0,2.7,0.22,3.7,0.66s1.79,0.99,2.4,1.65c0.61,0.66,1.04,1.39,1.3,2.18
				C658.96,185.41,659.09,186.16,659.09,186.86z M647.99,189.26h3.14c0.68,0,1.26-0.21,1.73-0.62c0.47-0.41,0.7-1,0.7-1.76
				c0-0.74-0.23-1.32-0.7-1.75c-0.47-0.42-1.04-0.64-1.73-0.64h-3.14V189.26z"/>
		</g>
	</g>
</g>
</svg>
