<?xml version="1.0" encoding="utf-8"?>
<!-- Generator: Adobe Illustrator 27.5.0, SVG Export Plug-In . SVG Version: 6.00 Build 0)  -->
<svg version="1.0" id="Layer_1" xmlns="http://www.w3.org/2000/svg" xmlns:xlink="http://www.w3.org/1999/xlink" x="0px" y="0px"
	 viewBox="0 0 437 483" style="enable-background:new 0 0 437 483;" xml:space="preserve">
<style type="text/css">
	.st0{fill:#18EA5E;}
</style>
<g>
	<path class="st0" d="M55.45,195.51c0.86,0.64,1.1,0.97,1.37,1c18.17,2.04,25.11,9.77,25.11,28c0,45.99,0,91.98,0,137.97
		c0,15.34-9.94,25.36-25.23,25.45c-6.83,0.04-13.66,0.09-20.49-0.01c-13.58-0.2-24.06-10-24.12-23.53
		c-0.2-48.15-0.19-96.31,0.03-144.46c0.06-13.46,10.33-23.75,23.66-23.02c9.13,0.5,15.44-2.28,20.81-9.4
		c3.79-5.02,8.54-9.32,12.87-13.93c11.52-12.25,26.4-16.52,42.5-18.6c18.54-2.4,35.99,2.58,53.64,6.62
		c13.45,3.08,26.89,6.24,40.42,8.93c4,0.8,8.29,0.12,12.12,0.12c-9.24-6.85-19.04-12.5-26.83-20.19
		c-23.42-23.15-30.96-51.53-21.81-82.99c9.2-31.64,31.2-51.62,63.14-59.17c48.62-11.49,95.17,17.91,105.63,65.71
		c9.82,44.87-20.62,90.53-66.55,99.95c-14.47,2.97-28.78,2.49-43.02-1.34c-1.37-0.37-3.32-0.93-4.24-0.3
		c-8.21,5.64-17.11,3.77-25.64,1.98c-18.55-3.9-36.96-8.49-55.42-12.84c-15.95-3.75-31.73-2.67-47.4,1.54
		c-7.87,2.12-14.8,6.02-20.53,11.83C68.74,181.62,62.15,188.56,55.45,195.51z M239.63,150.12c1.23,1.55,1.75,2.17,2.24,2.82
		c9.56,12.69,22.75,12.14,31.15-1.38c6-9.66,7.06-20.36,5.64-31.31c-1.09-8.38-4.02-16.17-10.53-22.06
		c-6.67-6.04-15.62-6.25-22.06-0.02c-2.92,2.82-5.43,6.37-7.16,10.04c-4.96,10.49-5.32,21.6-2.34,32.65
		c0.98,3.62,0.12,5.48-2.28,8.07c-4.97,5.36-9.32,11.29-14.39,17.55c2.87,1.12,4.21,1.64,5.01,1.95
		C229.84,162.3,234.5,156.51,239.63,150.12z M52.26,280.51c0.06-11.45-7.08-19.33-17.61-19.43c-10.77-0.11-18.68,8.22-18.71,19.71
		c-0.04,11.33,7.22,19.2,17.78,19.27C44.91,300.15,52.2,292.47,52.26,280.51z M65.81,301.97c1.89-2.02,3.38-3.48,4.73-5.08
		c3.75-4.45,4.31-9.12,1.62-12.73c-2.41-3.23-7.38-4.07-12.34-2.41c-3.5,1.17-4.14,2.86-1.55,5.93c0.71-0.31,1.46-0.91,2.17-0.88
		c2.15,0.1,4.28,0.44,6.42,0.69c-0.32,2.13,0.02,4.72-1.09,6.28c-2.08,2.93-5.14,5.15-7.52,7.9c-1.22,1.41-1.87,3.32-3.17,5.72
		c7.08,0,12.83,0,18.86,0c0-1.66,0-3.07,0-4.69C71.34,302.47,68.94,302.25,65.81,301.97z"/>
	<path class="st0" d="M144.31,276.13c14.1,12.63,27.46,24.61,40.85,36.58c6.33,5.66,12.7,11.29,19.05,16.93
		c9.67,8.59,18.81,8,27.16-1.69c25.89-30.02,51.81-60,77.7-90.02c6.78-7.87,6.66-16.31-0.94-23.38
		c-8.04-7.48-16.46-14.57-24.93-21.58c-6.34-5.25-16.69-6.4-23.8,2.34c-14.19,17.43-29.24,34.16-43.91,51.2
		c-0.86,1-1.52,2.16-2.44,3.49c-23.44-20.91-46.13-41.16-70.08-62.53c5.32-1.7,9.39-3.44,13.64-4.23c4.72-0.88,9.59-1.24,14.4-1.25
		c53.98-0.08,107.97-0.17,161.95,0.09c7.38,0.04,14.8,1.79,22.12,3.15c3.37,0.63,4.96,2.9,4.95,6.87
		c-0.14,61.81-0.15,123.63,0.01,185.45c0.01,4.32-1.98,6.42-5.4,7.06c-7.49,1.41-15.08,3.14-22.64,3.18
		c-53.32,0.27-106.64,0.27-159.95,0c-7.56-0.04-15.15-1.77-22.64-3.17c-3.11-0.58-5.45-2.32-5.43-6.52
		c0.17-32.99,0.1-65.98,0.1-98.97C144.08,278.48,144.18,277.84,144.31,276.13z"/>
	<path class="st0" d="M212.43,254.99c16.48-19.08,32.68-37.86,48.91-56.62c7.02-8.12,13.03-8.61,21.34-1.6
		c7.38,6.23,14.7,12.55,21.93,18.94c7.62,6.74,7.99,13.13,1.49,20.65c-26.03,30.12-52.05,60.24-78.06,90.38
		c-5.68,6.58-12.13,7.84-18.66,2.25c-10.07-8.62-19.42-18.08-29.27-26.96c-3.6-3.25-8-5.6-11.63-8.82
		c-21.08-18.65-42.06-37.42-63.03-56.18c-7.21-6.45-7.59-13.48-1.14-20.87c6.35-7.28,12.87-14.41,19.22-21.69
		c5.38-6.16,14.12-7.77,21.45-1.01c20.32,18.74,41.18,36.9,61.77,55.34C208.68,250.53,210.28,252.63,212.43,254.99z"/>
	<path class="st0" d="M366.07,286.05c0-27.98-0.01-55.96,0-83.94c0-12.15,5.95-18.18,17.91-18.19c8.33-0.01,16.65-0.01,24.98,0
		c10.65,0.02,16.92,6.34,16.95,17.14c0.04,12.32,0.01,24.65,0.01,36.97c0,43.97,0,87.93,0,131.9c0,12.56-5.77,18.41-18.16,18.41
		c-8.33,0.01-16.65,0.03-24.98-0.01c-10.4-0.04-16.68-6.32-16.7-16.86C366.04,343.01,366.07,314.53,366.07,286.05z"/>
	<path class="st0" d="M43.28,281.64c-0.29-2.47-0.27-4.18-0.71-5.76c-1.19-4.3-3.5-7.78-8.48-7.73c-4.67,0.04-7.62,3.06-8.08,7.38
		c-0.43,4.13-0.38,8.69,1.02,12.49c0.82,2.24,4.66,4.67,7.14,4.66c2.48-0.01,5.45-2.53,7.26-4.73
		C42.86,286.24,42.85,283.32,43.28,281.64z"/>
	<path class="st0" d="M43.28,281.64c-0.44,1.68-0.42,4.59-1.85,6.32c-1.81,2.2-4.78,4.72-7.26,4.73c-2.48,0.01-6.32-2.42-7.14-4.66
		c-1.39-3.8-1.45-8.36-1.02-12.49c0.45-4.32,3.41-7.34,8.08-7.38c4.98-0.05,7.29,3.43,8.48,7.73
		C43.01,277.47,43,279.17,43.28,281.64z"/>
</g>
<g>
	<path class="st0" d="M194,418.02c1.3,0,2.56,0.18,3.76,0.53c1.21,0.35,2.26,0.91,3.16,1.68c0.9,0.77,1.58,1.65,2.03,2.66
		c0.45,1,0.67,2.15,0.67,3.45c0,1.37-0.25,2.62-0.74,3.77c-0.49,1.14-1.2,2.11-2.13,2.91c-0.93,0.8-2.03,1.38-3.32,1.75
		s-2.62,0.56-4.02,0.56c-1.38,0-2.69-0.18-3.96-0.54c-1.26-0.36-2.36-0.95-3.29-1.76s-1.59-1.71-1.98-2.7s-0.59-2.1-0.59-3.31
		c0-1.78,0.41-3.35,1.24-4.69c0.83-1.35,2.05-2.4,3.67-3.16S191.97,418.02,194,418.02z M193.79,421.69c-0.94,0-1.78,0.23-2.54,0.69
		c-0.76,0.46-1.34,1.1-1.75,1.92c-0.41,0.82-0.61,1.69-0.61,2.63c0,0.86,0.18,1.65,0.56,2.37c0.37,0.72,0.93,1.28,1.69,1.68
		c0.76,0.4,1.56,0.6,2.41,0.6c0.9,0,1.73-0.23,2.48-0.68c0.75-0.45,1.33-1.09,1.72-1.9c0.39-0.82,0.59-1.67,0.59-2.57
		c0-0.87-0.18-1.67-0.55-2.41c-0.37-0.74-0.9-1.31-1.61-1.71C195.47,421.9,194.67,421.69,193.79,421.69z"/>
	<path class="st0" d="M209.47,435c0.95-1.2,2.11-2.72,3.47-4.54s2.42-3.27,3.17-4.35l-1.44-2.43c-0.27-0.44-0.66-1.05-1.16-1.84
		l-1.22-1.89c-0.3-0.47-0.64-1.01-1.01-1.61c1.05,0.02,2.12,0.02,3.22,0.02c0.87,0,1.8-0.01,2.79-0.02c0.36,0.71,0.78,1.47,1.26,2.3
		s0.87,1.54,1.15,2.15c0.32-0.56,0.77-1.26,1.33-2.09c0.56-0.83,1.05-1.62,1.48-2.36c0.86,0.02,1.8,0.02,2.82,0.02
		c0.66,0,1.59-0.01,2.81-0.02c-0.59,0.84-1.46,2.03-2.61,3.56c-1.16,1.54-2.25,3.06-3.28,4.55c1.32,2.25,3.11,5.09,5.37,8.54
		c-1.29-0.02-2.25-0.02-2.89-0.02c-1.07,0-2.14,0.01-3.19,0.02c-0.32-0.65-0.76-1.47-1.34-2.47s-1.07-1.92-1.5-2.75
		c-0.32,0.57-0.84,1.37-1.56,2.4c-0.72,1.03-1.36,1.97-1.92,2.82c-1.19-0.02-2.13-0.02-2.82-0.02
		C211.65,434.98,210.67,434.98,209.47,435z"/>
	<path class="st0" d="M238.73,435c0.08-0.66,0.18-1.78,0.29-3.36c0.11-1.58,0.17-2.69,0.17-3.34l-5.59-9.96
		c1.23,0.02,2.24,0.02,3.04,0.02c0.77,0,1.68-0.01,2.75-0.02c0.33,0.81,0.77,1.78,1.32,2.91c0.56,1.13,1.01,2.13,1.36,3.02
		c0.94-1.65,1.69-2.94,2.26-3.86c0.57-0.92,0.98-1.61,1.22-2.07c1.03,0.02,2.03,0.02,2.98,0.02c0.51,0,1.42-0.01,2.75-0.02
		l-5.36,7.9c-1.07,1.58-1.6,2.41-1.6,2.48l-0.01,0.12v0.12l-0.01,0.12l-0.08,1.86c-0.06,1.23-0.1,2.58-0.13,4.06
		c-1.15-0.02-2.04-0.02-2.66-0.02C240.77,434.98,239.88,434.98,238.73,435z"/>
	<path class="st0" d="M267.38,425.28c1.12,0.02,2.18,0.02,3.19,0.02c1.73,0,3.08-0.01,4.05-0.02c-0.11,1.12-0.21,2.69-0.32,4.74
		s-0.18,3.58-0.2,4.63c-0.94,0.17-1.71,0.29-2.33,0.37c-0.61,0.08-1.35,0.15-2.21,0.21c-0.86,0.06-1.63,0.09-2.31,0.09
		c-1.11,0-2.19-0.09-3.26-0.27c-1.07-0.18-2.02-0.47-2.86-0.87c-0.84-0.4-1.54-0.94-2.11-1.62c-0.56-0.68-1-1.49-1.3-2.43
		c-0.3-0.94-0.46-1.9-0.46-2.9c0-1.65,0.41-3.19,1.23-4.6s2-2.54,3.55-3.36c1.54-0.83,3.53-1.24,5.97-1.24
		c1.78,0,3.76,0.22,5.92,0.65c0,1.19,0.05,2.51,0.16,3.97c-0.59-0.2-1.06-0.34-1.42-0.45c-0.36-0.1-0.79-0.2-1.27-0.28
		c-0.48-0.09-0.94-0.15-1.38-0.19s-0.82-0.06-1.17-0.06c-0.89,0-1.74,0.13-2.54,0.38c-0.8,0.26-1.48,0.65-2.06,1.18
		s-1,1.17-1.29,1.91c-0.29,0.74-0.43,1.52-0.43,2.34c0,0.84,0.16,1.58,0.49,2.24c0.33,0.66,0.84,1.15,1.55,1.5
		c0.71,0.34,1.5,0.51,2.37,0.51c0.72,0,1.52-0.11,2.38-0.32l0.14-2.65c-0.53-0.02-0.84-0.04-0.94-0.04l-1.3,0.01l0.09-1.5
		c0.01-0.16,0.02-0.4,0.04-0.7C267.37,426.23,267.38,425.81,267.38,425.28z"/>
	<path class="st0" d="M283.32,435c0.2-2.1,0.35-3.86,0.45-5.27s0.19-3.3,0.28-5.65c0.09-2.35,0.14-3.9,0.14-4.67l-0.01-1.07
		c1.92,0.02,4.24,0.02,6.97,0.02c2.52,0,4.73-0.01,6.65-0.02l-0.02,0.4c-0.01,0.1-0.03,0.45-0.06,1.06l-0.07,1.33
		c-0.02,0.28-0.03,0.57-0.03,0.86c-1.57-0.07-2.89-0.1-3.96-0.1c-1.17,0-1.96,0-2.37,0.01c-0.41,0-1.05,0.02-1.92,0.06l-0.15,2.81
		c0.96,0.03,2.08,0.04,3.36,0.04c0.46,0,1.67-0.03,3.64-0.09c-0.08,1.04-0.16,2.28-0.23,3.72c-1.41-0.02-2.49-0.02-3.25-0.02
		c-1.12,0-2.38,0.03-3.77,0.09l-0.14,2.97h1.4c0.42,0,1.27-0.01,2.57-0.04l2.53-0.06c0.37-0.01,1-0.04,1.88-0.1
		c-0.1,1.2-0.18,2.45-0.24,3.74c-1.99-0.02-4.16-0.02-6.53-0.02l-5.37,0.01L283.32,435z"/>
	<path class="st0" d="M306.08,435l0.24-2.56l0.48-8.69l0.13-3.5v-1.9c1.26,0.02,2.38,0.02,3.35,0.02c0.69,0,1.67-0.01,2.92-0.02
		l5.21,9.48l0.72,1.39c0.09-1.37,0.19-3.29,0.28-5.75c0.1-2.47,0.14-4.17,0.14-5.12c1,0.02,1.8,0.02,2.4,0.02
		c0.28,0,1.07-0.01,2.39-0.02l-0.29,3.64l-0.55,10.11l-0.07,2.92c-1.06-0.02-2.05-0.02-2.97-0.02c-0.77,0-1.82,0.01-3.18,0.02
		c-0.42-0.8-0.74-1.38-0.94-1.73l-2.05-3.48c-0.67-1.14-1.3-2.23-1.87-3.27c-0.37-0.66-0.76-1.38-1.16-2.17l-0.26,5.79l-0.13,4.87
		c-1.01-0.02-1.78-0.02-2.3-0.02C308.14,434.98,307.3,434.98,306.08,435z"/>
</g>
<g>
	<path class="st0" d="M142,468.29l1.05-1.83l6.57-12.37l0.7-1.38c0.2-0.41,0.49-0.99,0.85-1.75c1.49,0.02,2.58,0.03,3.26,0.03
		c1.19,0,2.3-0.01,3.31-0.03l1.85,5.29l3.77,10.18l0.74,1.85c-1.47-0.02-2.36-0.03-2.67-0.03c-0.71,0-1.76,0.01-3.14,0.03
		c-0.37-1.4-0.91-3.04-1.61-4.93h-6.39c-0.74,1.49-1.5,3.13-2.28,4.93c-1.58-0.02-2.54-0.03-2.9-0.03
		C144.47,468.26,143.43,468.27,142,468.29z M151.83,459.67h3.94c-0.98-2.98-1.52-4.63-1.61-4.93c-0.56,1.24-1.03,2.26-1.42,3.05
		L151.83,459.67z"/>
	<path class="st0" d="M165.46,468.29c0.19-1.93,0.32-3.47,0.38-4.63c0.1-1.73,0.2-3.96,0.31-6.7c0.08-2.1,0.11-3.6,0.11-4.51v-1.49
		c0.99,0.03,1.84,0.04,2.56,0.04c0.69,0,1.6-0.02,2.73-0.06c1.13-0.04,2.18-0.06,3.17-0.06c1.13,0,2.13,0.07,2.98,0.2
		c0.85,0.14,1.65,0.42,2.39,0.84s1.36,0.98,1.86,1.66c0.5,0.69,0.88,1.49,1.14,2.41c0.26,0.92,0.39,1.86,0.39,2.84
		c0,0.96-0.1,1.88-0.3,2.76c-0.2,0.88-0.49,1.68-0.85,2.39s-0.79,1.32-1.28,1.83c-0.49,0.51-1.04,0.95-1.67,1.31
		c-0.47,0.27-0.93,0.48-1.41,0.63s-1.12,0.28-1.94,0.37c-0.91,0.1-1.95,0.15-3.11,0.15l-5.13-0.04
		C167.32,468.25,166.54,468.26,165.46,468.29z M170.95,464.46c0.46,0.04,0.95,0.06,1.46,0.06c0.86,0,1.63-0.08,2.31-0.23
		s1.27-0.48,1.78-0.98c0.51-0.5,0.89-1.14,1.13-1.92c0.25-0.78,0.37-1.58,0.37-2.41c0-1.01-0.18-1.86-0.55-2.54
		c-0.36-0.69-0.85-1.17-1.45-1.44c-0.61-0.27-1.43-0.41-2.47-0.41c-0.61,0-1.33,0.03-2.16,0.08L170.95,464.46z"/>
	<path class="st0" d="M185.25,468.29l0.31-2.56l0.78-8.9l0.39-5.87c1.56,0.02,2.79,0.03,3.68,0.03c0.74,0,1.87-0.01,3.39-0.03
		c0.11,0.73,0.2,1.28,0.28,1.66c0.08,0.38,0.26,1.11,0.56,2.21c0.3,1.1,0.54,2.04,0.72,2.84c0.18,0.8,0.45,2.17,0.82,4.11
		c0.37-1.33,0.71-2.47,1.02-3.43c0.3-0.96,0.69-2.04,1.14-3.26c0.46-1.22,0.75-2.02,0.87-2.39c0.12-0.38,0.29-0.96,0.5-1.73
		c1.27,0.02,2.51,0.03,3.73,0.03c0.83,0,1.98-0.01,3.45-0.03c-0.16,2.85-0.27,5.3-0.32,7.35c-0.11,4.01-0.17,6.77-0.17,8.28
		c0,0.31,0.01,0.88,0.03,1.7c-1.12-0.02-1.9-0.03-2.35-0.03c-0.65,0-1.45,0.01-2.4,0.03c0.07-0.76,0.15-2.58,0.26-5.44
		c0.1-2.87,0.15-4.7,0.15-5.49c0-0.35-0.01-0.83-0.03-1.45l-1.67,5.17l-2.39,7.21c-1.1-0.02-1.86-0.03-2.27-0.03
		c-0.53,0-1.33,0.01-2.41,0.03l-1.56-6.98l-0.92-3.72c-0.04-0.14-0.07-0.32-0.12-0.53s-0.11-0.58-0.2-1.12l-0.32,3.52l-0.42,7.21
		l-0.04,1.62c-1.17-0.02-1.91-0.03-2.23-0.03C187.1,468.26,186.33,468.27,185.25,468.29z"/>
	<path class="st0" d="M209.54,468.29c0.49-6.8,0.73-12.03,0.73-15.69l-0.01-1.64c1.48,0.02,2.47,0.03,2.97,0.03
		c0.23,0,1.14-0.01,2.73-0.03c-0.15,1.9-0.28,3.71-0.37,5.41c-0.12,2.37-0.2,4.58-0.25,6.65c-0.05,2.06-0.08,3.82-0.08,5.28
		l-2.6-0.03C212.15,468.26,211.11,468.27,209.54,468.29z"/>
	<path class="st0" d="M218.38,468.29l0.25-2.67l0.5-9.04l0.14-3.64v-1.98c1.31,0.02,2.47,0.03,3.48,0.03c0.72,0,1.73-0.01,3.04-0.03
		l5.42,9.86l0.75,1.45c0.1-1.42,0.19-3.42,0.29-5.98s0.15-4.34,0.15-5.32c1.04,0.02,1.87,0.03,2.5,0.03c0.29,0,1.12-0.01,2.49-0.03
		l-0.3,3.78l-0.57,10.51l-0.08,3.03c-1.1-0.02-2.13-0.03-3.09-0.03c-0.8,0-1.9,0.01-3.3,0.03c-0.44-0.83-0.76-1.43-0.98-1.8
		l-2.13-3.62c-0.7-1.19-1.35-2.32-1.94-3.4c-0.39-0.69-0.79-1.44-1.2-2.26l-0.27,6.02l-0.13,5.07c-1.05-0.02-1.85-0.03-2.4-0.03
		C220.53,468.26,219.66,468.27,218.38,468.29z"/>
	<path class="st0" d="M239.76,468.29c0.49-6.8,0.73-12.03,0.73-15.69l-0.01-1.64c1.48,0.02,2.47,0.03,2.97,0.03
		c0.23,0,1.14-0.01,2.73-0.03c-0.15,1.9-0.28,3.71-0.37,5.41c-0.12,2.37-0.21,4.58-0.26,6.65c-0.05,2.06-0.08,3.82-0.08,5.28
		l-2.6-0.03C242.38,468.26,241.34,468.27,239.76,468.29z"/>
	<path class="st0" d="M248.45,468.02c-0.11-1.8-0.24-3.25-0.38-4.33c0.95,0.42,1.79,0.72,2.54,0.88c0.74,0.16,1.39,0.25,1.95,0.25
		c0.74,0,1.32-0.11,1.76-0.32c0.44-0.22,0.65-0.54,0.65-0.96c0-0.14-0.02-0.28-0.06-0.41c-0.04-0.13-0.12-0.28-0.24-0.45
		c-0.12-0.16-0.29-0.34-0.51-0.54l-2.39-2.08c-0.56-0.47-0.95-0.82-1.17-1.03c-0.45-0.43-0.8-0.83-1.05-1.21s-0.43-0.75-0.55-1.14
		c-0.12-0.38-0.17-0.79-0.17-1.22c0-0.52,0.09-1.02,0.27-1.52c0.18-0.49,0.46-0.96,0.82-1.39s0.85-0.8,1.45-1.12
		s1.24-0.53,1.93-0.64c0.69-0.11,1.39-0.17,2.12-0.17c1.43,0,2.99,0.17,4.67,0.5c0.03,0.58,0.06,1.12,0.09,1.61
		c0.03,0.49,0.11,1.34,0.24,2.56c-0.78-0.31-1.49-0.53-2.13-0.65c-0.64-0.12-1.2-0.18-1.66-0.18c-0.66,0-1.21,0.12-1.64,0.37
		c-0.44,0.25-0.65,0.55-0.65,0.91c0,0.17,0.03,0.33,0.1,0.5s0.19,0.35,0.38,0.56c0.19,0.22,0.43,0.45,0.74,0.71
		c0.3,0.26,0.78,0.64,1.43,1.15l0.91,0.72c0.27,0.22,0.56,0.49,0.88,0.8s0.58,0.62,0.81,0.93s0.4,0.58,0.53,0.84
		c0.12,0.25,0.21,0.51,0.27,0.77c0.06,0.26,0.09,0.54,0.09,0.83c0,0.76-0.18,1.49-0.55,2.18c-0.36,0.69-0.88,1.26-1.55,1.7
		c-0.67,0.44-1.4,0.75-2.2,0.93c-0.8,0.18-1.64,0.27-2.53,0.27C252.27,468.62,250.54,468.42,248.45,468.02z"/>
	<path class="st0" d="M266.83,468.29c0.42-4.11,0.67-8.64,0.76-13.58l-5.4,0.14l0.06-1.41c0.03-0.75,0.06-1.58,0.08-2.48
		c2.4,0.02,5.2,0.03,8.4,0.03l3.13-0.01h3.05l1.65-0.01l-0.08,1.24c-0.03,0.67-0.06,1.22-0.07,1.65c-0.01,0.44-0.02,0.77-0.02,0.99
		c-1.81-0.09-3.3-0.14-4.48-0.14h-0.89c-0.13,1.5-0.23,2.88-0.29,4.14c-0.09,1.82-0.17,3.58-0.22,5.29
		c-0.05,1.71-0.08,3.09-0.08,4.15c-1.39-0.02-2.28-0.03-2.69-0.03C269.38,468.26,268.41,468.27,266.83,468.29z"/>
	<path class="st0" d="M279.45,468.29c0.16-1.49,0.29-2.83,0.38-4.02s0.17-2.58,0.24-4.15s0.12-3.24,0.15-4.98
		c0.03-1.75,0.05-3.14,0.05-4.17c1.06,0.03,1.91,0.04,2.56,0.04c0.68,0,1.5-0.02,2.48-0.06c0.97-0.04,1.92-0.06,2.84-0.06
		c1.08,0,2.05,0.04,2.89,0.13c0.63,0.06,1.21,0.18,1.73,0.37s0.96,0.41,1.31,0.68c0.36,0.27,0.65,0.56,0.89,0.89
		s0.42,0.72,0.55,1.16c0.13,0.44,0.2,0.92,0.2,1.43c0,0.57-0.07,1.1-0.22,1.59c-0.14,0.49-0.37,0.96-0.68,1.4
		c-0.31,0.44-0.7,0.81-1.17,1.13c-0.47,0.32-1.13,0.64-1.97,0.97l0.66,1.61c0.19,0.45,0.39,0.91,0.6,1.37l1.7,3.72
		c0.08,0.16,0.21,0.48,0.41,0.95c-1.4-0.02-2.33-0.03-2.82-0.03c-0.61,0-1.61,0.01-2.99,0.03c-0.14-0.44-0.38-1.26-0.74-2.45
		c-0.14-0.5-0.27-0.88-0.37-1.16c-0.2-0.6-0.5-1.44-0.9-2.53l-1.31-3.59c0.46,0.08,0.91,0.13,1.35,0.13c0.62,0,1.18-0.09,1.68-0.28
		c0.5-0.19,0.88-0.47,1.14-0.86c0.26-0.39,0.39-0.8,0.39-1.23c0-0.36-0.1-0.68-0.29-0.96c-0.19-0.28-0.5-0.48-0.92-0.62
		c-0.42-0.14-1.06-0.2-1.94-0.2c-0.3,0-0.6,0.01-0.92,0.02c-0.32,0.01-0.69,0.02-1.11,0.03c-0.11,1.74-0.21,3.85-0.29,6.35
		s-0.14,4.95-0.16,7.35c-1.41-0.02-2.33-0.03-2.76-0.03C281.61,468.26,280.73,468.27,279.45,468.29z"/>
	<path class="st0" d="M295.42,468.29l1.05-1.83l6.57-12.37l0.7-1.38c0.2-0.41,0.49-0.99,0.85-1.75c1.49,0.02,2.58,0.03,3.26,0.03
		c1.19,0,2.3-0.01,3.31-0.03l1.85,5.29l3.77,10.18l0.74,1.85c-1.47-0.02-2.36-0.03-2.67-0.03c-0.71,0-1.76,0.01-3.14,0.03
		c-0.37-1.4-0.91-3.04-1.61-4.93h-6.39c-0.74,1.49-1.5,3.13-2.28,4.93c-1.58-0.02-2.54-0.03-2.9-0.03
		C297.89,468.26,296.85,468.27,295.42,468.29z M305.25,459.67h3.94c-0.98-2.98-1.52-4.63-1.61-4.93c-0.56,1.24-1.03,2.26-1.42,3.05
		L305.25,459.67z"/>
	<path class="st0" d="M322.71,468.29c0.42-4.11,0.67-8.64,0.76-13.58l-5.4,0.14l0.06-1.41c0.03-0.75,0.06-1.58,0.08-2.48
		c2.4,0.02,5.2,0.03,8.4,0.03l3.13-0.01h3.05l1.65-0.01l-0.08,1.24c-0.03,0.67-0.06,1.22-0.07,1.65c-0.01,0.44-0.02,0.77-0.02,0.99
		c-1.81-0.09-3.3-0.14-4.48-0.14h-0.89c-0.13,1.5-0.23,2.88-0.29,4.14c-0.09,1.82-0.17,3.58-0.22,5.29
		c-0.05,1.71-0.08,3.09-0.08,4.15c-1.39-0.02-2.28-0.03-2.69-0.03C325.27,468.26,324.3,468.27,322.71,468.29z"/>
	<path class="st0" d="M345.85,450.63c1.35,0,2.66,0.18,3.91,0.55s2.35,0.95,3.29,1.75c0.94,0.8,1.64,1.72,2.11,2.76
		s0.7,2.24,0.7,3.59c0,1.42-0.26,2.73-0.77,3.92c-0.51,1.19-1.25,2.2-2.22,3.03s-2.12,1.44-3.45,1.82
		c-1.34,0.39-2.73,0.58-4.18,0.58c-1.43,0-2.8-0.19-4.11-0.56c-1.31-0.38-2.45-0.99-3.42-1.83c-0.97-0.84-1.66-1.78-2.06-2.81
		s-0.61-2.18-0.61-3.44c0-1.85,0.43-3.48,1.29-4.88c0.86-1.4,2.13-2.49,3.82-3.28C341.83,451.02,343.73,450.63,345.85,450.63z
		 M345.62,454.45c-0.97,0-1.85,0.24-2.64,0.72c-0.79,0.48-1.39,1.14-1.82,1.99c-0.42,0.85-0.63,1.76-0.63,2.74
		c0,0.9,0.19,1.72,0.58,2.46c0.39,0.75,0.97,1.33,1.76,1.75c0.79,0.42,1.62,0.63,2.5,0.63c0.94,0,1.8-0.23,2.58-0.71
		c0.78-0.47,1.38-1.13,1.79-1.98c0.41-0.85,0.62-1.74,0.62-2.67c0-0.91-0.19-1.74-0.57-2.51c-0.38-0.77-0.94-1.36-1.68-1.78
		S346.54,454.45,345.62,454.45z"/>
	<path class="st0" d="M357.86,468.29c0.16-1.49,0.29-2.83,0.38-4.02c0.09-1.19,0.17-2.58,0.24-4.15c0.07-1.57,0.12-3.24,0.15-4.98
		c0.03-1.75,0.05-3.14,0.05-4.17c1.06,0.03,1.91,0.04,2.56,0.04c0.68,0,1.5-0.02,2.48-0.06c0.97-0.04,1.92-0.06,2.84-0.06
		c1.08,0,2.05,0.04,2.89,0.13c0.63,0.06,1.21,0.18,1.73,0.37s0.96,0.41,1.31,0.68c0.36,0.27,0.65,0.56,0.89,0.89
		s0.42,0.72,0.55,1.16c0.13,0.44,0.2,0.92,0.2,1.43c0,0.57-0.07,1.1-0.22,1.59c-0.14,0.49-0.37,0.96-0.68,1.4
		c-0.31,0.44-0.7,0.81-1.17,1.13c-0.47,0.32-1.13,0.64-1.97,0.97l0.66,1.61c0.19,0.45,0.38,0.91,0.6,1.37l1.7,3.72
		c0.08,0.16,0.21,0.48,0.41,0.95c-1.4-0.02-2.33-0.03-2.82-0.03c-0.61,0-1.61,0.01-2.99,0.03c-0.14-0.44-0.38-1.26-0.74-2.45
		c-0.14-0.5-0.27-0.88-0.37-1.16c-0.2-0.6-0.5-1.44-0.9-2.53l-1.31-3.59c0.46,0.08,0.91,0.13,1.35,0.13c0.62,0,1.18-0.09,1.68-0.28
		c0.5-0.19,0.88-0.47,1.14-0.86c0.26-0.39,0.39-0.8,0.39-1.23c0-0.36-0.1-0.68-0.29-0.96c-0.19-0.28-0.5-0.48-0.92-0.62
		c-0.42-0.14-1.06-0.2-1.94-0.2c-0.3,0-0.6,0.01-0.92,0.02c-0.32,0.01-0.69,0.02-1.11,0.03c-0.11,1.74-0.2,3.85-0.29,6.35
		c-0.08,2.5-0.14,4.95-0.16,7.35c-1.42-0.02-2.33-0.03-2.76-0.03C360.02,468.26,359.13,468.27,357.86,468.29z"/>
</g>
</svg>
