<?xml version="1.0" encoding="utf-8"?>
<!-- Generator: Adobe Illustrator 27.5.0, SVG Export Plug-In . SVG Version: 6.00 Build 0)  -->
<svg version="1.1" id="Layer_1" xmlns="http://www.w3.org/2000/svg" xmlns:xlink="http://www.w3.org/1999/xlink" x="0px" y="0px"
	 viewBox="0 0 139 64" style="enable-background:new 0 0 139 64;" xml:space="preserve">
<style type="text/css">
	.st0{clip-path:url(#SVGID_00000168829720541112427200000015319270883356856503_);}
	.st1{clip-path:url(#SVGID_00000057871102207304519030000006356476411866794651_);}
	.st2{clip-path:url(#SVGID_00000020362950872457232120000006196706898995715770_);}
	.st3{clip-path:url(#SVGID_00000119105010662124806320000006924694939961409668_);}
	.st4{clip-path:url(#SVGID_00000040568655766941623850000001514633287323161235_);}
	.st5{clip-path:url(#SVGID_00000118382943668528192220000004921418979790043324_);}
</style>
<g>
	<defs>
		<path id="SVGID_1_" d="M14,35.8h16.6c4.3,0,8.5,0.1,12.2-1.6c5-2.3,9.5-9.9,3.5-13.1c-1.3-0.7-3.7-0.4-5.2-0.4
			c-4.7,0-12.2,1-16.6-0.2c-2.2-0.6-3.6-2.6-3.1-4.1c1.8-6.7,14.6-3,21.1-4.2c2.6-0.5,5.1-3.2,6.4-4.6c-2.5-0.5-5.5-0.2-8.1-0.2
			C34.5,7.4,26,6.6,20.5,9c-5.5,2.4-9.3,9-4.5,12.8c1.3,1.1,4,0.7,5.9,0.7c5.7,0,21-1.9,19.6,4.5c-1.5,6.6-15.1,3-21.3,4.2
			C17.7,31.6,15.1,34.4,14,35.8"/>
	</defs>
	<defs>
		<path id="SVGID_00000021805812589093809630000017693393141529982632_" d="M52,7.4v17.4c0,2.1-1.1,5.3,0.2,7.2
			c1.1,1.6,4.7,3.1,6.9,4.1V18.9c0-2.3,0.9-5.6-0.6-7.7C57.4,9.6,54.1,8.3,52,7.4"/>
	</defs>
	<defs>
		<path id="SVGID_00000052788532118703945260000015536252842154108289_" d="M79.4,7.4v17.2c0,2.1-0.9,5.4,0.3,7.4
			c0.9,1.5,4.6,3.2,6.8,3.8V18.7c0-2.1,1-5.5-0.2-7.4C85.3,9.8,81.5,8.1,79.4,7.4"/>
	</defs>
	<defs>
		<path id="SVGID_00000017507954647132585920000010412293675843993023_" d="M89.6,35.8h16.9c4.2,0,8.3,0.1,11.9-1.6
			c5-2.3,9.6-10,3.6-13.2c-1.3-0.7-3.8-0.4-5.3-0.4c-4.7,0-12.2,1-16.6-0.2c-2.3-0.6-3.4-2.6-3.1-4.1c1.4-6.6,14.8-3,21-4.2
			c2.6-0.5,5.2-3.2,6.4-4.6c-2.5-0.5-5.5-0.2-8.1-0.2C110,7.4,101.6,6.6,96,9c-5.5,2.4-9.3,9-4.5,12.8c1.3,1.1,4,0.7,5.9,0.7
			c5.7,0,21.1-1.9,19.6,4.5c-1.5,6.5-15.1,3.1-21.3,4.1C93.4,31.6,90.5,34.4,89.6,35.8"/>
	</defs>
	<defs>
		<path id="SVGID_00000125589755835131516260000007100182381432894860_" d="M127.5,7.4V25c0,1.9-1,5.5,0.4,7.2
			c1.2,1.5,4.7,2.9,6.8,3.8V18.4c0-2,1-5.5-0.4-7.2C133.1,9.7,129.6,8.2,127.5,7.4"/>
	</defs>
	<defs>
		<polyline id="SVGID_00000115498249962211467430000007864447111155948936_" points="60.5,12.3 60.7,18.7 66.6,23.2 78.1,31.1 
			77.8,24.8 72,20.2 60.5,12.3 		"/>
	</defs>
	<defs>
		<path id="SVGID_00000107582652134770857760000012033385906053110955_" d="M5.8,52.8c8.4,1.5,17.5-0.2,25.7-1.6
			c12.6-2.1,24.9-4.5,37.9-3.8c-5.2,3.7-0.2,6.2,5.8,6.3c9.1,0.2,18.1-1.7,27.1-2c8.4-0.2,16.4,1.3,24.7,1.3v-0.2
			c-10.7-3.8-22.1-3.7-33.9-2.9c-6.8,0.5-14.2,1.7-21,0.9c0.8-1.5,3.8-2.7,2.3-4.5c-2-2.4-9.4-1.6-12.8-1.6
			c-13.5,0-26.4,3.1-39.3,5.3c-3.9,0.7-7.8,1.3-11.9,1.8C9,51.9,6.7,51.8,5.8,52.8L5.8,52.8L5.8,52.8z"/>
	</defs>
	
		<linearGradient id="SVGID_00000007419155714721178550000016279938141080712893_" gradientUnits="userSpaceOnUse" x1="70.3801" y1="53.6086" x2="70.3801" y2="7.2391">
		<stop  offset="0" style="stop-color:#000000"/>
		<stop  offset="0" style="stop-color:#FFF680"/>
		<stop  offset="1" style="stop-color:#D6C103"/>
	</linearGradient>
	<use xlink:href="#SVGID_1_"  style="overflow:visible;fill:url(#SVGID_00000007419155714721178550000016279938141080712893_);"/>
	
		<linearGradient id="SVGID_00000181061184021627715570000007653372690164780709_" gradientUnits="userSpaceOnUse" x1="70.3801" y1="53.6086" x2="70.3801" y2="7.2391">
		<stop  offset="0" style="stop-color:#000000"/>
		<stop  offset="0" style="stop-color:#FFF680"/>
		<stop  offset="1" style="stop-color:#D6C103"/>
	</linearGradient>
	
		<use xlink:href="#SVGID_00000021805812589093809630000017693393141529982632_"  style="overflow:visible;fill:url(#SVGID_00000181061184021627715570000007653372690164780709_);"/>
	
		<linearGradient id="SVGID_00000096022243458761917730000008644406139767133595_" gradientUnits="userSpaceOnUse" x1="70.3801" y1="53.6086" x2="70.3801" y2="7.2391">
		<stop  offset="0" style="stop-color:#000000"/>
		<stop  offset="0" style="stop-color:#FFF680"/>
		<stop  offset="1" style="stop-color:#D6C103"/>
	</linearGradient>
	
		<use xlink:href="#SVGID_00000052788532118703945260000015536252842154108289_"  style="overflow:visible;fill:url(#SVGID_00000096022243458761917730000008644406139767133595_);"/>
	
		<linearGradient id="SVGID_00000131328276582388719660000008466187424850523030_" gradientUnits="userSpaceOnUse" x1="70.3801" y1="53.6086" x2="70.3801" y2="7.2391">
		<stop  offset="0" style="stop-color:#000000"/>
		<stop  offset="0" style="stop-color:#FFF680"/>
		<stop  offset="1" style="stop-color:#D6C103"/>
	</linearGradient>
	
		<use xlink:href="#SVGID_00000017507954647132585920000010412293675843993023_"  style="overflow:visible;fill:url(#SVGID_00000131328276582388719660000008466187424850523030_);"/>
	
		<linearGradient id="SVGID_00000180345414838835128690000001079119145352759730_" gradientUnits="userSpaceOnUse" x1="70.3801" y1="53.6086" x2="70.3801" y2="7.2391">
		<stop  offset="0" style="stop-color:#000000"/>
		<stop  offset="0" style="stop-color:#FFF680"/>
		<stop  offset="1" style="stop-color:#D6C103"/>
	</linearGradient>
	
		<use xlink:href="#SVGID_00000125589755835131516260000007100182381432894860_"  style="overflow:visible;fill:url(#SVGID_00000180345414838835128690000001079119145352759730_);"/>
	
		<linearGradient id="SVGID_00000139280006372404216060000009870493017768337052_" gradientUnits="userSpaceOnUse" x1="70.3801" y1="53.6086" x2="70.3801" y2="7.2391">
		<stop  offset="0" style="stop-color:#000000"/>
		<stop  offset="0" style="stop-color:#FFF680"/>
		<stop  offset="1" style="stop-color:#D6C103"/>
	</linearGradient>
	
		<use xlink:href="#SVGID_00000115498249962211467430000007864447111155948936_"  style="overflow:visible;fill:url(#SVGID_00000139280006372404216060000009870493017768337052_);"/>
	
		<linearGradient id="SVGID_00000158738561374570922830000010844693921904085179_" gradientUnits="userSpaceOnUse" x1="70.3801" y1="53.6086" x2="70.3801" y2="7.2391">
		<stop  offset="0" style="stop-color:#000000"/>
		<stop  offset="0" style="stop-color:#FFF680"/>
		<stop  offset="1" style="stop-color:#D6C103"/>
	</linearGradient>
	
		<use xlink:href="#SVGID_00000107582652134770857760000012033385906053110955_"  style="overflow:visible;fill:url(#SVGID_00000158738561374570922830000010844693921904085179_);"/>
	<clipPath id="SVGID_00000046321734036163572290000008342845881468151175_">
		<use xlink:href="#SVGID_1_"  style="overflow:visible;"/>
	</clipPath>
	
		<clipPath id="SVGID_00000021115482809441330830000010538825455208068264_" style="clip-path:url(#SVGID_00000046321734036163572290000008342845881468151175_);">
		<use xlink:href="#SVGID_00000021805812589093809630000017693393141529982632_"  style="overflow:visible;"/>
	</clipPath>
	
		<clipPath id="SVGID_00000057139271135421057950000010741345109001063568_" style="clip-path:url(#SVGID_00000021115482809441330830000010538825455208068264_);">
		<use xlink:href="#SVGID_00000052788532118703945260000015536252842154108289_"  style="overflow:visible;"/>
	</clipPath>
	
		<clipPath id="SVGID_00000078043833909179663650000013993703845058645669_" style="clip-path:url(#SVGID_00000057139271135421057950000010741345109001063568_);">
		<use xlink:href="#SVGID_00000017507954647132585920000010412293675843993023_"  style="overflow:visible;"/>
	</clipPath>
	
		<clipPath id="SVGID_00000182524740723561143570000011957254112053840549_" style="clip-path:url(#SVGID_00000078043833909179663650000013993703845058645669_);">
		<use xlink:href="#SVGID_00000125589755835131516260000007100182381432894860_"  style="overflow:visible;"/>
	</clipPath>
	
		<clipPath id="SVGID_00000024680023824618964900000016513481394298592918_" style="clip-path:url(#SVGID_00000182524740723561143570000011957254112053840549_);">
		<use xlink:href="#SVGID_00000115498249962211467430000007864447111155948936_"  style="overflow:visible;"/>
	</clipPath>
	
		<clipPath id="SVGID_00000011714500644939391120000004145330185754841233_" style="clip-path:url(#SVGID_00000024680023824618964900000016513481394298592918_);">
		<use xlink:href="#SVGID_00000107582652134770857760000012033385906053110955_"  style="overflow:visible;"/>
	</clipPath>
</g>
<g>
</g>
<g>
</g>
<g>
</g>
<g>
</g>
<g>
</g>
<g>
</g>
<g>
</g>
<g>
</g>
<g>
</g>
<g>
</g>
<g>
</g>
<g>
</g>
<g>
</g>
<g>
</g>
<g>
</g>
</svg>
