<?xml version="1.0" encoding="UTF-8"?>
<svg id="Layer_1" data-name="Layer 1" xmlns="http://www.w3.org/2000/svg" viewBox="0 0 68.37 18.03">
  <defs>
    <style>
      .cls-1 {
        fill: #fff;
      }
    </style>
  </defs>
  <path class="cls-1" d="m0,17.52v-.14c1.31-.23,2.65-.37,3.94-.7,2.71-.67,5.4-1.44,8.08-2.18,1.9-.52,3.83-.84,5.78-1.05,1.5-.16,3.02-.26,4.54-.13.57.05,1.1.13,1.59.46.7.47.77,1.18.18,1.78-.15.15-.34.29-.48.46-.09.1-.2.27-.16.36.05.12.22.24.36.25.64.05,1.29.12,1.93.05,2.21-.22,4.4-.54,6.61-.71,2.38-.19,4.76-.17,7.12.28,1.13.22,2.15.71,3.15,1.26.08.05.15.11.23.16,0,.03-.02.06-.03.09-.22-.04-.45-.05-.66-.1-2.76-.59-5.55-.84-8.37-.62-1.52.12-3.03.35-4.54.56-1.77.25-3.53.49-5.32.41-.61-.03-1.19-.16-1.69-.56-.67-.54-.73-1.59-.1-2.18.16-.16.35-.31.51-.55-.36-.03-.71-.09-1.07-.09-1.98,0-3.95.07-5.88.49-2.43.53-4.83,1.2-7.26,1.76-1.62.37-3.26.69-4.91.97-.96.15-1.95.24-2.91-.12-.23-.05-.43-.14-.64-.22"/>
  <path class="cls-1" d="m38.14.12c-.67.83-1.3,1.61-1.95,2.38-.08.09-.27.13-.42.13-1.59,0-3.16,0-4.75,0-.91,0-1.68.3-2.23,1.06-.73.99-.61,2.42.3,3.25.13.12.36.18.54.18,2.39,0,4.77,0,7.15,0,.24,0,.38.06.51.27.98,1.69,1.08,3.42.14,5.12-.93,1.69-2.41,2.57-4.34,2.59-2.34.03-4.68,0-7.02,0-.09,0-.17,0-.3-.02.05-.08.06-.15.11-.21.57-.71,1.15-1.42,1.74-2.11.09-.11.3-.18.46-.18,1.64,0,3.27,0,4.91,0,1.48,0,2.58-1.17,2.52-2.62-.02-.49-.18-.93-.46-1.34-.26-.38-.58-.57-1.08-.56-2.3.03-4.59,0-6.88.02-.28,0-.44-.09-.57-.33-1.8-3.01-.11-6.88,3.32-7.56.3-.06.62-.09.93-.09,2.37,0,4.75,0,7.12,0,.06,0,.13,0,.26,0Z"/>
  <path class="cls-1" d="m52.4,15.09c.68-.83,1.3-1.61,1.95-2.38.07-.09.26-.12.38-.12,1.64,0,3.27,0,4.91,0,1.58,0,2.73-1.31,2.52-2.83-.05-.31-.16-.63-.31-.91-.27-.52-.65-.8-1.32-.79-2.25.05-4.5,0-6.75.03-.32,0-.48-.11-.63-.36-1.95-3.33.34-7.53,4.19-7.62,2.42-.05,4.86,0,7.28,0,.04,0,.06,0,.13.02-.05.07-.06.15-.11.19-.57.7-1.13,1.4-1.71,2.1-.1.12-.32.21-.48.21-1.59.02-3.16,0-4.75,0-1.02,0-1.84.37-2.38,1.28-.57.97-.4,2.27.44,3.03.13.12.36.19.54.19,2.39,0,4.77,0,7.15,0,.24,0,.39.05.51.27.96,1.63,1.08,3.32.2,5-.9,1.73-2.38,2.67-4.33,2.72-2.38.05-4.77,0-7.15,0-.05,0-.13,0-.28-.02Z"/>
  <path class="cls-1" d="m65.83.05c.11.08.2.13.27.19.69.57,1.39,1.12,2.06,1.7.1.09.2.25.2.38,0,4.22,0,8.44,0,12.67,0,.05,0,.1-.03.21-.13-.1-.22-.17-.31-.25-.67-.54-1.34-1.08-1.99-1.63-.12-.1-.22-.29-.22-.44,0-4.19,0-8.38,0-12.57,0-.07,0-.15,0-.26Z"/>
  <path class="cls-1" d="m51.38,15.19c-.69-.57-1.32-1.12-2-1.6-.41-.29-.52-.63-.52-1.12.02-3.98,0-7.97,0-11.96V.07c.1.05.16.08.22.13.71.57,1.42,1.15,2.11,1.74.09.08.18.24.18.36,0,4.23,0,8.47,0,12.69,0,.04,0,.08-.02.2Z"/>
  <path class="cls-1" d="m41.66,15.21c-.72-.59-1.35-1.14-2.01-1.63-.42-.3-.54-.64-.53-1.15.02-3.98,0-7.97,0-11.96v-.47c.57.46,1.04.92,1.59,1.27.8.5.99,1.16.98,2.08-.05,3.77-.03,7.55-.03,11.32,0,.15,0,.3,0,.55Z"/>
  <path class="cls-1" d="m48.37,12.66c-.62-.67-1.18-1.25-1.73-1.84-1.4-1.5-2.81-3.02-4.23-4.51-.18-.19-.26-.39-.26-.66,0-.98,0-1.96,0-3.02.13.11.2.16.26.23,1.92,2.06,3.85,4.11,5.77,6.17.08.09.16.23.16.34.03,1.07.02,2.12.02,3.29Z"/>
</svg>