<?xml version="1.0" encoding="utf-8"?>
<!-- Generator: Adobe Illustrator 27.5.0, SVG Export Plug-In . SVG Version: 6.00 Build 0)  -->
<svg version="1.1" id="Layer_1" xmlns:svg="http://www.w3.org/2000/svg"
	 xmlns="http://www.w3.org/2000/svg" xmlns:xlink="http://www.w3.org/1999/xlink" x="0px" y="0px" viewBox="0 0 674.4 272.9"
	 style="enable-background:new 0 0 674.4 272.9;" xml:space="preserve">
<style type="text/css">
	.st0{fill:#FFFF00;}
</style>
<g id="g11">
	<path id="path1" class="st0" d="M407.1,37c0,10,0,20.1,0,30.1c0,1.3,0,2.5,1.1,3.7c8.6,9.1,17,18.3,25.6,27.4
		c9.3,9.7,18.5,19.5,27.5,29.4c1.5,1.7,2.9,3.5,5.3,4.7c0-10.9,0-21.3,0-31.7c0-0.9-0.3-1.6-0.9-2.2c-11-11.8-22-23.7-33.1-35.5
		c-8.1-8.7-16.3-17.3-24.4-26c0-0.5-0.3-0.8-0.8-0.7C407.4,36.3,407.3,36.7,407.1,37z M251.7,56.6c-1.4,2.3-0.9,4.7-0.1,7
		c0.6,1.5-0.1,3,0.2,4.4c1.5,6.5,3.5,12.9,7.1,18.6c1.3,2,2.4,2.6,4.6,2.6c22.8-0.1,45.7,0,68.5-0.1c2.6,0,4.3,1.2,5.9,2.9
		c3.8,3.9,4.7,9.1,5.6,14.1c1.8,9.9-5.4,20.8-15,23.7c-2,0.6-3.8,1.8-5.9,1.8c-16.7-0.1-33.4-0.1-50.1-0.3c-1.7,0-2.7,0.7-3.7,1.9
		c-5.3,6.6-10.6,13.2-16,19.7c-0.7,0.8-1.8,1.7-1.4,2.6c0.4,1,1.9,0.6,2.9,0.6c22,0,44,0,66,0c1.5,0,3,0.4,4.4,0.1
		c7.8-1.2,15.2-3.5,22-8c14.1-9.2,21.1-22.3,22.2-38.7c0.6-8.8-2.1-17-5.9-24.9c-1.7-3.5-3.8-5.2-8.3-5.2
		c-22.1,0.3-44.2,0.2-66.3,0.2c-1.2,0-2.5,0.2-3.6-0.7c-4.4-3.8-7.3-8.6-8.2-14.3c-2.1-13.4,8.7-27.3,22.1-26.3
		c0.6,0.2,1.1,0.3,1.3-0.5c1.2,0,2.3-0.2,3.5-0.2c14.6,0,29.2,0,43.7,0c1.9,0,3.2-0.3,4.4-2.1c1.9-2.9,4.5-5.5,6.8-8.2
		c3.8-4.7,7.5-9.4,11.5-14.4c-22.5,0-44.4,0-66.3,0c-3.5,0-7,0.1-10.6,0.6c-11.7,1.9-21.7,6.7-29.6,15.9
		C256.6,37.2,252.4,46.1,251.7,56.6z M623.2,12.8c-1.2-0.1-1.8-0.2-2.4-0.2c-22.7,0-45.5,0-68.2,0c-3.2,0-6.5,0.4-9.7,1.1
		c-12.1,2.7-22.1,8.8-29.3,19.1c-5.5,8-8.6,16.8-8.9,26.7c-0.3,8.5,2.1,16.2,5.6,23.7c1.8,3.8,4,5.9,8.9,5.9
		c21.8-0.4,43.6-0.1,65.4-0.3c3.5,0,5.6,1.4,7.4,3.8c4.9,6.8,7,14.4,4.1,22.5c-1.7,4.7-4,9.3-8.5,11.9c-5.3,3.1-11.2,4-17.4,3.9
		c-14.6-0.1-29.2,0-43.8,0c-1.8,0-3,0.3-4.2,2c-2.9,4.1-6.5,7.6-9.5,11.6c-2.7,3.5-6.1,6.6-8.2,10.6c1,0.8,2,0.5,2.9,0.5
		c22.4,0,44.8,0,67.2,0c2.9,0,5.8,0.1,8.5-0.6c9-2.4,17.3-6.2,24.1-13c9.5-9.3,14.5-20.5,14.7-33.5c0.1-9.5-2-18.8-7.6-26.9
		c-1.2-1.7-2.2-2.6-4.4-2.5c-22.7,0.1-45.5,0-68.2,0c-1.3,0-2.7,0.2-3.9-0.8c-8.6-7.2-11.1-19.4-5.3-29.2
		c4.9-8.3,12.2-11.9,21.6-11.9c14.5,0,29-0.1,43.4,0.1c3.8,0,6.7-0.5,8.6-4.1c0.9-1.6,2.4-2.9,3.6-4.3
		C614.2,23.9,618.5,18.6,623.2,12.8z"/>
	<path id="path2" class="st0" d="M413.8,180.7c-0.4,0.9-1.4,0.9-2.2,0.7"/>
	<path id="path3" class="st0" d="M379.2,11.6c1.5,3.1,4.7,4.5,7.1,6.6c5,4.4,10.3,8.4,15.6,12.5c1.5,1.1,1.3,2.6,1.3,4
		c0,23.2,0,46.5,0,69.8c0,16.1,0,32.1,0,48.2c0,1.3,0.4,2.8-0.6,4.1c-7.7-6.3-15.3-12.6-23.1-18.8c-1.6-1.2-1-2.6-1-4
		c0-33.7,0-67.5,0-101.2c0-7.1,0.1-14.1,0.2-21.2C378.8,11.6,379,11.6,379.2,11.6z"/>
	<path id="path4" class="st0" d="M632.3,11.6c2.8,3.8,6.9,6,10.3,8.9c4.2,3.6,8.5,7.1,12.8,10.6c1.1,0.9,1,1.7,1,2.7
		c0,39.8,0,79.6,0,119.5c0,0.9,0.6,2.3-0.6,2.8c-1.2,0.5-1.7-0.9-2.5-1.5c-6.3-5.1-12.3-10.4-18.9-15.2c-1.5-1.1-2.8-2.3-2.8-4.6
		c0.1-41.1,0.1-82.2,0.1-123.3C631.9,11.6,632.1,11.6,632.3,11.6z"/>
	<path id="path5" class="st0" d="M471.8,11.6c-0.3,0.4-0.2,0.8,0.2,1.1c6.1,5,12,10.1,18.2,14.7c3.8,2.8,5.6,5.7,5.6,10.8
		c-0.3,37.3-0.2,74.6-0.2,111.9c0,2,0,4,0,6.2c-1.8-0.3-3-1.2-3.9-2.1c-5.6-5.9-12.5-10.1-18.6-15.2c-1.9-1.6-2.2-3-2.2-5
		c0-33,0-66,0-98.9c0-7.8,0.1-15.6,0.2-23.5C471.4,11.6,471.6,11.6,471.8,11.6z"/>
	<path id="path6" class="st0" d="M298.6,38.1c-13.4-0.9-24.2,12.9-22.1,26.3c0.9,5.7,3.8,10.5,8.2,14.3c1.1,0.9,2.3,0.7,3.6,0.7
		c22.1,0,44.2,0.2,66.3-0.2c4.5-0.1,6.6,1.7,8.3,5.2c3.8,7.9,6.5,16.1,5.9,24.9c-1.1,16.4-8.1,29.6-22.2,38.7
		c-6.8,4.4-14.1,6.7-22,8c-1.4,0.2-2.9-0.1-4.4-0.1c-22,0-44,0-66,0c-1,0-2.5,0.5-2.9-0.6c-0.4-0.9,0.7-1.8,1.4-2.6
		c5.4-6.5,10.7-13.1,16-19.7c1-1.2,2-1.9,3.7-1.9c16.7,0.1,33.4,0.2,50.1,0.3c2.1,0,3.9-1.2,5.9-1.8c9.7-2.8,16.8-13.8,15-23.7
		c-0.9-5-1.8-10.2-5.6-14.1c-1.7-1.7-3.3-2.9-5.9-2.9c-22.8,0.1-45.7,0-68.5,0.1c-2.2,0-3.3-0.6-4.6-2.6c-3.7-5.8-5.7-12.1-7.1-18.6
		c-0.3-1.4,0.3-2.9-0.2-4.4c0.9-2.3,0.9-4.7,0.1-7c0.8-10.4,5-19.4,11.7-27.3c7.8-9.2,17.8-14.1,29.6-15.9c3.5-0.6,7.1-0.6,10.6-0.6
		c21.9,0,43.7,0,66.3,0c-4.1,5-7.8,9.7-11.5,14.4c-2.2,2.8-4.8,5.3-6.8,8.2c-1.2,1.8-2.5,2.2-4.4,2.1c-14.6,0-29.2,0-43.7,0
		c-1.2,0-2.3,0.1-3.5,0.2C299,36.6,298.8,37.5,298.6,38.1z"/>
	<path id="path7" class="st0" d="M623.2,12.8c-4.7,5.8-9,11-13.3,16.3c-1.2,1.5-2.7,2.7-3.6,4.3c-2,3.5-4.8,4.1-8.6,4.1
		c-14.5-0.2-29-0.1-43.4-0.1c-9.4,0-16.7,3.6-21.6,11.9c-5.8,9.9-3.3,22.1,5.3,29.2c1.2,1,2.6,0.8,3.9,0.8c22.7,0,45.5,0,68.2,0
		c2.2,0,3.2,0.8,4.4,2.5c5.6,8.2,7.8,17.4,7.6,26.9c-0.2,13-5.2,24.2-14.7,33.5c-6.9,6.7-15.1,10.6-24.1,13
		c-2.7,0.7-5.7,0.6-8.5,0.6c-22.4,0-44.8,0-67.2,0c-0.9,0-1.9,0.3-2.9-0.5c2.1-4,5.5-7,8.2-10.6c3-4,6.5-7.6,9.5-11.6
		c1.2-1.7,2.4-2,4.2-2c14.6,0,29.2-0.1,43.8,0c6.2,0,12-0.8,17.4-3.9c4.5-2.6,6.8-7.2,8.5-11.9c2.9-8.2,0.8-15.7-4.1-22.5
		c-1.8-2.5-3.9-3.9-7.4-3.8c-21.8,0.2-43.6-0.1-65.4,0.3c-5,0.1-7.2-2.1-8.9-5.9c-3.5-7.5-5.9-15.2-5.6-23.7
		c0.3-9.9,3.4-18.7,8.9-26.7c7.1-10.3,17.1-16.4,29.3-19.1c3.2-0.7,6.5-1.1,9.7-1.1c22.7-0.1,45.5,0,68.2,0
		C621.4,12.7,622,12.8,623.2,12.8z"/>
	<path id="path8" class="st0" d="M408.3,37c8.2,8.7,16.3,17.3,24.4,26c11.1,11.8,22,23.7,33.1,35.5c0.6,0.6,0.9,1.3,0.9,2.2
		c0,10.4,0,20.9,0,31.7c-2.4-1.2-3.8-3.1-5.3-4.7c-9.1-10-18.2-19.7-27.5-29.4c-8.6-9.1-17-18.3-25.6-27.4c-1.2-1.2-1.1-2.4-1.1-3.7
		c0-10,0-20.1,0-30.1C407.5,37,407.9,37,408.3,37z"/>
	<path id="path9" class="st0" d="M251.7,56.6c0.8,2.3,0.8,4.7-0.1,7C250.8,61.2,250.2,58.9,251.7,56.6z"/>
	<path id="path10" class="st0" d="M298.6,38.1c0.3-0.6,0.5-1.5,1.3-0.5C299.7,38.3,299.1,38.3,298.6,38.1z"/>
	<path id="path11" class="st0" d="M408.3,37c-0.4,0-0.8,0-1.2,0c0.1-0.3,0.2-0.7,0.3-0.7C408,36.2,408.3,36.5,408.3,37z"/>
</g>
<g id="g25">
	<path id="path12" class="st0" d="M321.4,208.6c1.6,1.1,3.7,1.8,6.1,1.8c3.2,0,6.2-1.9,6.2-5.4c0-2.1-1.2-3.7-4.2-5.4
		c-3.7-2-5.7-4.3-5.7-7.4c0-5.2,4.4-8.5,9.7-8.5c2.8,0,4.9,0.8,5.9,1.5l-1.2,2.9c-0.9-0.6-2.7-1.4-5-1.4c-3.5,0-5.7,2.3-5.7,4.7
		c0,2.3,1.5,3.7,4.5,5.3c3.5,1.9,5.5,4.2,5.5,7.7c0,5-3.9,8.9-10.4,8.9c-2.9,0-5.7-0.9-6.9-2L321.4,208.6z"/>
	<path id="path13" class="st0" d="M360.7,212.2c-1.6,0.7-4.2,1.4-7.5,1.4c-7.3,0-11.7-4.6-11.7-12c0-5.4,2.2-10.6,6.2-13.9
		c3-2.5,6.6-3.8,10.9-3.8c3.2,0,5.5,0.8,6.2,1.4l-1.2,2.9c-1.1-0.6-3.1-1.2-5.6-1.2c-3,0-6,1.2-8.2,3.2c-2.7,2.5-4.4,6.6-4.4,10.9
		c0,5.1,2.3,9.4,8.8,9.4c2.2,0,4.5-0.4,6.2-1.2L360.7,212.2z"/>
	<path id="path14" class="st0" d="M373.4,184.3l-3.2,17c-0.3,1.2-0.3,2.4-0.3,3.6c0,3.7,2.1,5.6,5.3,5.6c3.9,0,6.8-2.6,8-9.1
		l3.3-17.1h3.5l-3.3,17.2c-1.7,8.6-5.9,12-12,12c-4.7,0-8.4-2.6-8.4-8.5c0-1.2,0.1-2.6,0.4-4l3.2-16.8L373.4,184.3L373.4,184.3z"/>
	<path id="path15" class="st0" d="M396.4,184.7c1.8-0.3,3.8-0.6,6.2-0.6c2.9,0,5.1,0.6,6.6,2c1.3,1.1,2.1,2.6,2.1,4.5
		c0,3.6-2.9,6.3-6.2,7.2v0.1c2.6,0.8,4.7,2.9,4.7,6.4c0,2.9-1.6,5.3-3.5,6.7c-2.3,1.7-5.5,2.3-9.3,2.3c-2.5,0-4.6-0.2-6-0.4
		L396.4,184.7z M395,210.2c0.9,0.1,2,0.2,2.9,0.2c4.2,0,8.1-1.8,8.1-6.3c0-3.4-2.9-4.9-6.1-4.9h-2.9L395,210.2z M397.7,196.5h2.6
		c4.1,0,7.3-2.1,7.3-5.6c0-2.8-2.1-4-5.2-4c-1.3,0-2.4,0.1-2.9,0.3L397.7,196.5z"/>
	<path id="path16" class="st0" d="M419.2,204l-4.6,9.1h-3.7l14.9-28.8h4.2l4,28.8h-3.6l-1.2-9.1C429.2,204,419.2,204,419.2,204z
		 M428.9,201.1l-1.1-8.3c-0.2-1.5-0.4-3.6-0.5-5.3h-0.1c-0.8,1.7-1.5,3.5-2.3,5.3l-4.3,8.4C420.6,201.1,428.9,201.1,428.9,201.1z"/>
	<path id="path17" class="st0" d="M451.3,204l-4.6,9.1H443l14.9-28.8h4.2l4,28.8h-3.6l-1.2-9.1C461.2,204,451.3,204,451.3,204z
		 M460.9,201.1l-1.1-8.3c-0.2-1.5-0.4-3.6-0.5-5.3h-0.1c-0.8,1.7-1.5,3.5-2.3,5.3l-4.3,8.4C452.6,201.1,460.9,201.1,460.9,201.1z"/>
	<path id="path18" class="st0" d="M469.7,213.1l5.5-28.8h3.9l6.6,16.3c1.3,3.3,1.9,5.6,2.5,8l0.1,0c0.2-2.6,0.5-5,1.2-9l2.9-15.3
		h3.3l-5.5,28.8h-3.5l-6.6-16.3c-1.4-3.5-2.1-5.6-2.6-8.3l-0.1,0c-0.3,2.7-0.8,5.6-1.5,9.5l-2.9,15
		C473,213.1,469.7,213.1,469.7,213.1z"/>
	<path id="path19" class="st0" d="M502.1,184.7c2.2-0.4,4.6-0.6,7.1-0.6c4.8,0,8.5,1.4,10.6,3.8c1.5,1.6,2.7,4.2,2.7,7.8
		c0,5.2-2.1,10.4-5.8,13.5c-3.3,2.8-7.5,4-13,4c-2.5,0-5.1-0.1-7-0.3L502.1,184.7z M500.8,210.1c1.3,0.2,2.6,0.2,3.7,0.2
		c4.6,0,7.9-1.4,10.3-3.8c2.6-2.6,3.9-6.6,3.9-10.6c0-5.1-2.5-8.9-9.7-8.9c-1.3,0-2.9,0.1-3.9,0.3L500.8,210.1z"/>
	<path id="path20" class="st0" d="M532.1,213.1l5.5-28.8h3.9l6.6,16.3c1.3,3.3,1.9,5.6,2.5,8l0.1,0c0.2-2.6,0.5-5,1.2-9l2.9-15.3
		h3.3l-5.5,28.8h-3.5l-6.6-16.3c-1.4-3.5-2.1-5.6-2.6-8.3l-0.1,0c-0.3,2.7-0.8,5.6-1.5,9.5l-2.9,15
		C535.4,213.1,532.1,213.1,532.1,213.1z"/>
	<path id="path21" class="st0" d="M568.1,184.3l-5.5,28.8H559l5.5-28.8C564.5,184.3,568.1,184.3,568.1,184.3z"/>
	<path id="path22" class="st0" d="M578.9,187.4h-8.4l0.6-3.1h20.4l-0.6,3.1h-8.5l-4.9,25.7H574L578.9,187.4z"/>
	<path id="path23" class="st0" d="M594.7,184.7c1.8-0.4,4.1-0.6,6.3-0.6c2.9,0,5.3,0.7,6.9,2.1c1.3,1.2,2.1,2.8,2.1,4.8
		c0,4.2-3.2,7.3-6.8,8.3v0.1c2,0.7,2.9,2.8,3.2,5.8c0.3,4,0.5,6.7,0.9,7.9h-3.7c-0.2-0.6-0.5-3.6-0.7-6.9c-0.2-4-1.7-5.6-4.5-5.6
		h-3.2l-2.4,12.5h-3.5L594.7,184.7z M595.7,197.8h3.2c4.5,0,7.4-2.9,7.4-6.4c0-3.1-2.3-4.4-5.6-4.4c-1.4,0-2.3,0.1-3,0.3
		L595.7,197.8z"/>
	<path id="path24" class="st0" d="M638.6,195.6c0,5-1.8,10.5-5.3,13.9c-2.6,2.5-5.9,4-9.9,4c-7.4,0-10.9-5.6-10.9-11.7
		c0-5,2-10.7,5.5-14.1c2.5-2.4,6-3.9,9.7-3.9C635.5,183.8,638.6,189.5,638.6,195.6z M620.6,189.7c-2.8,2.8-4.4,7.8-4.4,11.8
		c0,4.7,2.1,9,7.7,9c2.4,0,4.8-1.1,6.6-2.9c2.7-2.7,4.3-7.9,4.3-11.9c0-4.1-1.3-9-7.6-9C624.7,186.8,622.4,187.9,620.6,189.7z"/>
	<path id="path25" class="st0" d="M654.7,213.1l-2.7-7.1c-0.8-1.9-1.4-3.5-1.8-5H650c-0.9,1.4-1.9,2.9-3.4,5l-5.2,7.2h-4.2
		l11.2-14.7l-5.4-14.1h3.8l2.7,7.4c0.6,1.8,1.1,3,1.5,4.4h0.1c0.9-1.4,1.9-2.9,2.9-4.4l5.5-7.4h4.2l-11.1,14.1l5.8,14.7L654.7,213.1
		L654.7,213.1z"/>
</g>
<g id="g44">
	<path id="path26" class="st0" d="M247.9,255.1c1.6,1.1,3.7,1.8,6.1,1.8c3.2,0,6.2-1.9,6.2-5.4c0-2.1-1.2-3.7-4.2-5.4
		c-3.7-2-5.7-4.3-5.7-7.4c0-5.2,4.4-8.5,9.7-8.5c2.8,0,4.9,0.8,5.9,1.5l-1.2,2.9c-0.9-0.6-2.7-1.4-5-1.4c-3.5,0-5.7,2.3-5.7,4.7
		c0,2.3,1.5,3.7,4.5,5.3c3.5,1.9,5.5,4.2,5.5,7.7c0,5-3.9,8.9-10.4,8.9c-2.9,0-5.7-0.9-6.9-2L247.9,255.1z"/>
	<path id="path27" class="st0" d="M273.1,250.5l-4.6,9.1h-3.7l14.9-28.8h4.2l4,28.8h-3.6l-1.2-9.1H273.1z M282.8,247.7l-1.1-8.3
		c-0.2-1.5-0.4-3.6-0.5-5.3h-0.1c-0.8,1.7-1.5,3.5-2.3,5.3l-4.3,8.4C274.5,247.7,282.8,247.7,282.8,247.7z"/>
	<path id="path28" class="st0" d="M297.1,230.8h14.6l-0.6,3H300l-1.9,9.7h10.2l-0.6,3h-10.1l-2.5,13h-3.5L297.1,230.8z"/>
	<path id="path29" class="st0" d="M328,246.1h-10.5l-2,10.5h11.8l-0.6,3h-15.3l5.5-28.8h14.7l-0.6,3h-11.1l-1.8,9.2h10.5L328,246.1z
		"/>
	<path id="path30" class="st0" d="M341.4,233.9H333l0.6-3.1H354l-0.6,3.1h-8.5l-4.9,25.7h-3.5L341.4,233.9z"/>
	<path id="path31" class="st0" d="M358.6,259.6l2.3-12l-5.6-16.8h3.8l2.8,9.3c0.7,2.5,1,3.7,1.2,4.8h0.1c0.7-1.2,1.7-2.8,3.1-5
		l6.2-9.2h4.1l-12.3,16.8l-2.3,12L358.6,259.6L358.6,259.6z"/>
	<path id="path32" class="st0" d="M391.9,230.8l-5.5,28.8h-3.5l5.5-28.8H391.9z"/>
	<path id="path33" class="st0" d="M392.9,259.6l5.5-28.8h3.9l6.6,16.3c1.3,3.3,1.9,5.6,2.5,8l0.1,0c0.2-2.6,0.5-5,1.2-9l2.9-15.3
		h3.3l-5.5,28.8h-3.5l-6.6-16.3c-1.4-3.5-2.1-5.6-2.6-8.3l-0.1,0c-0.3,2.7-0.8,5.6-1.5,9.5l-2.9,15
		C396.2,259.6,392.9,259.6,392.9,259.6z"/>
	<path id="path34" class="st0" d="M429.7,233.9h-8.4l0.6-3.1h20.4l-0.6,3.1h-8.5l-4.9,25.7h-3.5L429.7,233.9z"/>
	<path id="path35" class="st0" d="M456.7,246.1h-10.5l-2,10.5H456l-0.6,3h-15.3l5.5-28.8h14.7l-0.6,3h-11.1l-1.8,9.2h10.5
		L456.7,246.1z"/>
	<path id="path36" class="st0" d="M465.6,231.3c1.8-0.4,4.1-0.6,6.3-0.6c2.9,0,5.3,0.7,6.9,2.1c1.3,1.2,2.1,2.8,2.1,4.8
		c0,4.2-3.2,7.3-6.8,8.3v0.1c2,0.7,2.9,2.8,3.2,5.8c0.3,4,0.5,6.7,0.9,7.9h-3.7c-0.2-0.6-0.5-3.6-0.7-6.9c-0.2-4-1.7-5.6-4.5-5.6
		h-3.2l-2.4,12.5h-3.5L465.6,231.3z M466.6,244.3h3.2c4.5,0,7.4-2.9,7.4-6.4c0-3.1-2.3-4.4-5.6-4.4c-1.4,0-2.3,0.1-3,0.3
		L466.6,244.3z"/>
	<path id="path37" class="st0" d="M482.5,259.6l5.5-28.8h3.9l6.6,16.3c1.3,3.3,1.9,5.6,2.5,8l0.1,0c0.2-2.6,0.5-5,1.2-9l2.9-15.3
		h3.3l-5.5,28.8h-3.5l-6.6-16.3c-1.4-3.5-2.1-5.6-2.6-8.3l-0.1,0c-0.3,2.7-0.8,5.6-1.5,9.5l-2.9,15
		C485.9,259.6,482.5,259.6,482.5,259.6z"/>
	<path id="path38" class="st0" d="M515.3,250.5l-4.6,9.1h-3.7l14.9-28.8h4.2l4,28.8h-3.6l-1.2-9.1H515.3z M525,247.7l-1.1-8.3
		c-0.2-1.5-0.4-3.6-0.5-5.3h-0.1c-0.8,1.7-1.5,3.5-2.3,5.3l-4.3,8.4C516.7,247.7,525,247.7,525,247.7z"/>
	<path id="path39" class="st0" d="M541.1,233.9h-8.4l0.6-3.1h20.4l-0.6,3.1h-8.5l-4.9,25.7h-3.5L541.1,233.9z"/>
	<path id="path40" class="st0" d="M560.5,230.8l-5.5,28.8h-3.5l5.5-28.8H560.5z"/>
	<path id="path41" class="st0" d="M588.2,242.2c0,5-1.8,10.5-5.3,13.9c-2.6,2.5-5.9,4-9.9,4c-7.4,0-10.9-5.6-10.9-11.7
		c0-5,2-10.7,5.5-14.1c2.5-2.4,6-3.9,9.7-3.9C585,230.4,588.2,236,588.2,242.2z M570.2,236.2c-2.8,2.8-4.4,7.8-4.4,11.8
		c0,4.7,2.1,9,7.7,9c2.4,0,4.8-1.1,6.6-2.9c2.7-2.7,4.3-7.9,4.3-11.9c0-4.1-1.3-9-7.6-9C574.3,233.4,572,234.5,570.2,236.2z"/>
	<path id="path42" class="st0" d="M590,259.6l5.5-28.8h3.9l6.6,16.3c1.3,3.3,1.9,5.6,2.5,8l0.1,0c0.2-2.6,0.5-5,1.2-9l2.9-15.3h3.3
		l-5.5,28.8H607l-6.6-16.3c-1.4-3.5-2.1-5.6-2.6-8.3l-0.1,0c-0.3,2.7-0.8,5.6-1.5,9.5l-2.9,15C593.3,259.6,590,259.6,590,259.6z"/>
	<path id="path43" class="st0" d="M622.8,250.5l-4.6,9.1h-3.7l14.9-28.8h4.2l4,28.8h-3.6l-1.2-9.1H622.8z M632.5,247.7l-1.1-8.3
		c-0.2-1.5-0.4-3.6-0.5-5.3h-0.1c-0.8,1.7-1.5,3.5-2.3,5.3l-4.3,8.4C624.2,247.7,632.5,247.7,632.5,247.7z"/>
	<path id="path44" class="st0" d="M646.7,230.8h3.5l-4.9,25.7H657l-0.6,3.1h-15.1L646.7,230.8z"/>
</g>
<g id="g45">
	<g id="g1_00000143586069678157613360000001820395196454822305_">
		<path id="path1_00000147198443113275133490000011582576609622829447_" class="st0" d="M0,180.4c24.1,4.3,50-0.6,73.7-4.6
			c36-6,71.2-12.9,108.6-10.9c-15,10.5-0.5,17.6,16.5,17.9c26,0.5,51.7-4.9,77.6-5.6c24.2-0.7,47.1,3.7,70.8,3.8v-0.6
			c-30.6-10.8-63.3-10.6-97-8.3c-19.6,1.3-40.5,4.9-60.1,2.5c2.2-4.3,10.9-7.6,6.6-12.9c-5.8-7-27-4.6-36.7-4.6
			c-38.5,0-75.6,9-112.5,15.3c-11.3,1.9-22.4,3.8-34,5.1C9.1,178.1,2.7,177.8,0,180.4L0,180.4z"/>
	</g>
</g>
</svg>
